; NON-PLATED HOLES START AT T1
; THROUGH (PLATED) HOLES START AT T100
M48
INCH
T100C0.035000
T101C0.038000
%
T100
X002821Y009709
X008821Y009709
X001821Y003709
X005821Y003709
X006821Y009709
X002821Y003709
X000821Y003709
X013821Y003709
X014821Y003709
X001821Y009709
X004821Y003709
X010821Y009709
X003821Y009709
X014821Y009709
X000821Y009709
X013821Y009709
X012821Y009709
X004821Y009709
X005821Y009709
X006821Y003709
X011821Y003709
X007821Y009709
X003821Y003709
X009821Y003709
X007821Y003709
X008821Y003709
X010821Y003709
X009821Y009709
X011821Y009709
X012821Y003709
T101
X005569Y013010
X000776Y011516
X004069Y013010
X013626Y001060
X007069Y013010
X014569Y013010
X010759Y001057
X008569Y013010
X013069Y013010
X001776Y011516
X000803Y012967
X009759Y001057
X010069Y013010
X012626Y001060
X001803Y012967
X011569Y013010
T00
M30
