G04 MADE WITH FRITZING*
G04 WWW.FRITZING.ORG*
G04 DOUBLE SIDED*
G04 HOLES PLATED*
G04 CONTOUR ON CENTER OF CONTOUR VECTOR*
%ASAXBY*%
%FSLAX23Y23*%
%MOIN*%
%OFA0B0*%
%SFA1.0B1.0*%
%ADD10R,1.582020X1.437690X1.566020X1.421690*%
%ADD11C,0.008000*%
%ADD12R,0.001000X0.001000*%
%LNSILK0*%
G90*
G70*
G54D11*
X4Y1434D02*
X1578Y1434D01*
X1578Y4D01*
X4Y4D01*
X4Y1434D01*
D02*
G54D12*
X1052Y777D02*
X1058Y777D01*
X1139Y777D02*
X1145Y777D01*
X1051Y776D02*
X1059Y776D01*
X1139Y776D02*
X1146Y776D01*
X1051Y775D02*
X1059Y775D01*
X1138Y775D02*
X1146Y775D01*
X1300Y775D02*
X1305Y775D01*
X1327Y775D02*
X1332Y775D01*
X1051Y774D02*
X1059Y774D01*
X1138Y774D02*
X1147Y774D01*
X1299Y774D02*
X1306Y774D01*
X1326Y774D02*
X1333Y774D01*
X1051Y773D02*
X1059Y773D01*
X1138Y773D02*
X1147Y773D01*
X1299Y773D02*
X1307Y773D01*
X1325Y773D02*
X1333Y773D01*
X1051Y772D02*
X1059Y772D01*
X1138Y772D02*
X1146Y772D01*
X1299Y772D02*
X1307Y772D01*
X1325Y772D02*
X1333Y772D01*
X1051Y771D02*
X1059Y771D01*
X1139Y771D02*
X1146Y771D01*
X1299Y771D02*
X1308Y771D01*
X1324Y771D02*
X1333Y771D01*
X1052Y770D02*
X1058Y770D01*
X1139Y770D02*
X1145Y770D01*
X1299Y770D02*
X1308Y770D01*
X1324Y770D02*
X1333Y770D01*
X1299Y769D02*
X1309Y769D01*
X1323Y769D02*
X1333Y769D01*
X1299Y768D02*
X1309Y768D01*
X1323Y768D02*
X1333Y768D01*
X1299Y767D02*
X1310Y767D01*
X1322Y767D02*
X1333Y767D01*
X1299Y766D02*
X1310Y766D01*
X1322Y766D02*
X1333Y766D01*
X1299Y765D02*
X1311Y765D01*
X1321Y765D02*
X1333Y765D01*
X1299Y764D02*
X1311Y764D01*
X1321Y764D02*
X1333Y764D01*
X1299Y763D02*
X1304Y763D01*
X1306Y763D02*
X1312Y763D01*
X1320Y763D02*
X1326Y763D01*
X1328Y763D02*
X1333Y763D01*
X1004Y762D02*
X1015Y762D01*
X1052Y762D02*
X1063Y762D01*
X1084Y762D02*
X1100Y762D01*
X1140Y762D02*
X1151Y762D01*
X1176Y762D02*
X1186Y762D01*
X1196Y762D02*
X1198Y762D01*
X1216Y762D02*
X1218Y762D01*
X1239Y762D02*
X1241Y762D01*
X1265Y762D02*
X1281Y762D01*
X1299Y762D02*
X1304Y762D01*
X1306Y762D02*
X1312Y762D01*
X1320Y762D02*
X1326Y762D01*
X1328Y762D02*
X1333Y762D01*
X1001Y761D02*
X1018Y761D01*
X1051Y761D02*
X1064Y761D01*
X1083Y761D02*
X1102Y761D01*
X1139Y761D02*
X1152Y761D01*
X1174Y761D02*
X1187Y761D01*
X1195Y761D02*
X1199Y761D01*
X1215Y761D02*
X1219Y761D01*
X1238Y761D02*
X1242Y761D01*
X1262Y761D02*
X1282Y761D01*
X1299Y761D02*
X1304Y761D01*
X1307Y761D02*
X1313Y761D01*
X1319Y761D02*
X1325Y761D01*
X1328Y761D02*
X1333Y761D01*
X1000Y760D02*
X1019Y760D01*
X1051Y760D02*
X1065Y760D01*
X1083Y760D02*
X1104Y760D01*
X1138Y760D02*
X1152Y760D01*
X1172Y760D02*
X1188Y760D01*
X1194Y760D02*
X1199Y760D01*
X1214Y760D02*
X1219Y760D01*
X1238Y760D02*
X1243Y760D01*
X1261Y760D02*
X1282Y760D01*
X1299Y760D02*
X1304Y760D01*
X1307Y760D02*
X1313Y760D01*
X1319Y760D02*
X1325Y760D01*
X1328Y760D02*
X1333Y760D01*
X999Y759D02*
X1020Y759D01*
X1051Y759D02*
X1065Y759D01*
X1083Y759D02*
X1105Y759D01*
X1138Y759D02*
X1152Y759D01*
X1172Y759D02*
X1190Y759D01*
X1194Y759D02*
X1199Y759D01*
X1214Y759D02*
X1219Y759D01*
X1238Y759D02*
X1243Y759D01*
X1260Y759D02*
X1283Y759D01*
X1299Y759D02*
X1304Y759D01*
X1308Y759D02*
X1314Y759D01*
X1319Y759D02*
X1324Y759D01*
X1328Y759D02*
X1333Y759D01*
X998Y758D02*
X1021Y758D01*
X1051Y758D02*
X1065Y758D01*
X1083Y758D02*
X1106Y758D01*
X1138Y758D02*
X1152Y758D01*
X1171Y758D02*
X1191Y758D01*
X1194Y758D02*
X1199Y758D01*
X1214Y758D02*
X1219Y758D01*
X1238Y758D02*
X1243Y758D01*
X1259Y758D02*
X1282Y758D01*
X1299Y758D02*
X1304Y758D01*
X1308Y758D02*
X1314Y758D01*
X1318Y758D02*
X1324Y758D01*
X1328Y758D02*
X1333Y758D01*
X997Y757D02*
X1022Y757D01*
X1051Y757D02*
X1064Y757D01*
X1084Y757D02*
X1107Y757D01*
X1138Y757D02*
X1151Y757D01*
X1171Y757D02*
X1192Y757D01*
X1194Y757D02*
X1199Y757D01*
X1214Y757D02*
X1219Y757D01*
X1238Y757D02*
X1243Y757D01*
X1258Y757D02*
X1281Y757D01*
X1299Y757D02*
X1304Y757D01*
X1309Y757D02*
X1315Y757D01*
X1318Y757D02*
X1323Y757D01*
X1328Y757D02*
X1333Y757D01*
X996Y756D02*
X1004Y756D01*
X1015Y756D02*
X1023Y756D01*
X1051Y756D02*
X1056Y756D01*
X1100Y756D02*
X1108Y756D01*
X1138Y756D02*
X1143Y756D01*
X1170Y756D02*
X1177Y756D01*
X1185Y756D02*
X1199Y756D01*
X1214Y756D02*
X1219Y756D01*
X1238Y756D02*
X1243Y756D01*
X1258Y756D02*
X1264Y756D01*
X1299Y756D02*
X1304Y756D01*
X1309Y756D02*
X1315Y756D01*
X1317Y756D02*
X1323Y756D01*
X1328Y756D02*
X1333Y756D01*
X996Y755D02*
X1002Y755D01*
X1017Y755D02*
X1023Y755D01*
X1051Y755D02*
X1056Y755D01*
X1101Y755D02*
X1109Y755D01*
X1138Y755D02*
X1143Y755D01*
X1170Y755D02*
X1176Y755D01*
X1186Y755D02*
X1199Y755D01*
X1214Y755D02*
X1219Y755D01*
X1238Y755D02*
X1243Y755D01*
X1258Y755D02*
X1263Y755D01*
X1299Y755D02*
X1304Y755D01*
X1310Y755D02*
X1322Y755D01*
X1328Y755D02*
X1333Y755D01*
X995Y754D02*
X1001Y754D01*
X1018Y754D02*
X1024Y754D01*
X1051Y754D02*
X1056Y754D01*
X1102Y754D02*
X1110Y754D01*
X1138Y754D02*
X1143Y754D01*
X1170Y754D02*
X1175Y754D01*
X1187Y754D02*
X1199Y754D01*
X1214Y754D02*
X1219Y754D01*
X1238Y754D02*
X1243Y754D01*
X1258Y754D02*
X1263Y754D01*
X1299Y754D02*
X1304Y754D01*
X1310Y754D02*
X1322Y754D01*
X1328Y754D02*
X1333Y754D01*
X995Y753D02*
X1001Y753D01*
X1018Y753D02*
X1024Y753D01*
X1051Y753D02*
X1056Y753D01*
X1103Y753D02*
X1111Y753D01*
X1138Y753D02*
X1143Y753D01*
X1170Y753D02*
X1175Y753D01*
X1188Y753D02*
X1199Y753D01*
X1214Y753D02*
X1219Y753D01*
X1238Y753D02*
X1243Y753D01*
X1258Y753D02*
X1263Y753D01*
X1299Y753D02*
X1304Y753D01*
X1311Y753D02*
X1321Y753D01*
X1328Y753D02*
X1333Y753D01*
X995Y752D02*
X1000Y752D01*
X1019Y752D02*
X1024Y752D01*
X1051Y752D02*
X1056Y752D01*
X1105Y752D02*
X1111Y752D01*
X1138Y752D02*
X1143Y752D01*
X1170Y752D02*
X1175Y752D01*
X1189Y752D02*
X1199Y752D01*
X1214Y752D02*
X1219Y752D01*
X1238Y752D02*
X1243Y752D01*
X1258Y752D02*
X1263Y752D01*
X1299Y752D02*
X1304Y752D01*
X1311Y752D02*
X1321Y752D01*
X1328Y752D02*
X1333Y752D01*
X995Y751D02*
X1000Y751D01*
X1019Y751D02*
X1024Y751D01*
X1051Y751D02*
X1056Y751D01*
X1106Y751D02*
X1111Y751D01*
X1138Y751D02*
X1143Y751D01*
X1170Y751D02*
X1175Y751D01*
X1190Y751D02*
X1199Y751D01*
X1214Y751D02*
X1219Y751D01*
X1238Y751D02*
X1243Y751D01*
X1258Y751D02*
X1263Y751D01*
X1299Y751D02*
X1304Y751D01*
X1312Y751D02*
X1321Y751D01*
X1328Y751D02*
X1333Y751D01*
X995Y750D02*
X1000Y750D01*
X1019Y750D02*
X1024Y750D01*
X1051Y750D02*
X1056Y750D01*
X1106Y750D02*
X1112Y750D01*
X1138Y750D02*
X1143Y750D01*
X1171Y750D02*
X1174Y750D01*
X1192Y750D02*
X1199Y750D01*
X1214Y750D02*
X1219Y750D01*
X1238Y750D02*
X1243Y750D01*
X1258Y750D02*
X1263Y750D01*
X1299Y750D02*
X1304Y750D01*
X1312Y750D02*
X1320Y750D01*
X1328Y750D02*
X1333Y750D01*
X995Y749D02*
X1000Y749D01*
X1019Y749D02*
X1024Y749D01*
X1051Y749D02*
X1056Y749D01*
X1107Y749D02*
X1112Y749D01*
X1138Y749D02*
X1143Y749D01*
X1193Y749D02*
X1199Y749D01*
X1214Y749D02*
X1219Y749D01*
X1238Y749D02*
X1243Y749D01*
X1258Y749D02*
X1281Y749D01*
X1299Y749D02*
X1304Y749D01*
X1313Y749D02*
X1320Y749D01*
X1328Y749D02*
X1333Y749D01*
X995Y748D02*
X1000Y748D01*
X1019Y748D02*
X1024Y748D01*
X1051Y748D02*
X1056Y748D01*
X1107Y748D02*
X1112Y748D01*
X1138Y748D02*
X1143Y748D01*
X1194Y748D02*
X1199Y748D01*
X1214Y748D02*
X1219Y748D01*
X1238Y748D02*
X1243Y748D01*
X1258Y748D02*
X1283Y748D01*
X1299Y748D02*
X1304Y748D01*
X1313Y748D02*
X1319Y748D01*
X1328Y748D02*
X1333Y748D01*
X995Y747D02*
X1000Y747D01*
X1019Y747D02*
X1024Y747D01*
X1051Y747D02*
X1056Y747D01*
X1107Y747D02*
X1112Y747D01*
X1138Y747D02*
X1143Y747D01*
X1194Y747D02*
X1199Y747D01*
X1214Y747D02*
X1219Y747D01*
X1238Y747D02*
X1243Y747D01*
X1258Y747D02*
X1284Y747D01*
X1299Y747D02*
X1304Y747D01*
X1314Y747D02*
X1319Y747D01*
X1328Y747D02*
X1333Y747D01*
X995Y746D02*
X1000Y746D01*
X1019Y746D02*
X1024Y746D01*
X1051Y746D02*
X1056Y746D01*
X1107Y746D02*
X1112Y746D01*
X1138Y746D02*
X1143Y746D01*
X1194Y746D02*
X1199Y746D01*
X1214Y746D02*
X1219Y746D01*
X1238Y746D02*
X1243Y746D01*
X1258Y746D02*
X1285Y746D01*
X1299Y746D02*
X1304Y746D01*
X1314Y746D02*
X1318Y746D01*
X1328Y746D02*
X1333Y746D01*
X995Y745D02*
X1000Y745D01*
X1019Y745D02*
X1024Y745D01*
X1051Y745D02*
X1056Y745D01*
X1107Y745D02*
X1112Y745D01*
X1138Y745D02*
X1143Y745D01*
X1194Y745D02*
X1199Y745D01*
X1214Y745D02*
X1219Y745D01*
X1238Y745D02*
X1243Y745D01*
X1258Y745D02*
X1286Y745D01*
X1299Y745D02*
X1304Y745D01*
X1315Y745D02*
X1317Y745D01*
X1328Y745D02*
X1333Y745D01*
X995Y744D02*
X1000Y744D01*
X1019Y744D02*
X1024Y744D01*
X1051Y744D02*
X1056Y744D01*
X1107Y744D02*
X1112Y744D01*
X1138Y744D02*
X1143Y744D01*
X1194Y744D02*
X1199Y744D01*
X1214Y744D02*
X1219Y744D01*
X1238Y744D02*
X1243Y744D01*
X1258Y744D02*
X1286Y744D01*
X1299Y744D02*
X1304Y744D01*
X1328Y744D02*
X1333Y744D01*
X995Y743D02*
X1000Y743D01*
X1019Y743D02*
X1024Y743D01*
X1051Y743D02*
X1056Y743D01*
X1107Y743D02*
X1112Y743D01*
X1138Y743D02*
X1143Y743D01*
X1194Y743D02*
X1199Y743D01*
X1214Y743D02*
X1219Y743D01*
X1238Y743D02*
X1243Y743D01*
X1258Y743D02*
X1264Y743D01*
X1281Y743D02*
X1286Y743D01*
X1299Y743D02*
X1304Y743D01*
X1328Y743D02*
X1333Y743D01*
X995Y742D02*
X1000Y742D01*
X1019Y742D02*
X1024Y742D01*
X1051Y742D02*
X1056Y742D01*
X1107Y742D02*
X1112Y742D01*
X1138Y742D02*
X1143Y742D01*
X1194Y742D02*
X1199Y742D01*
X1214Y742D02*
X1219Y742D01*
X1238Y742D02*
X1243Y742D01*
X1258Y742D02*
X1263Y742D01*
X1282Y742D02*
X1287Y742D01*
X1299Y742D02*
X1304Y742D01*
X1328Y742D02*
X1333Y742D01*
X995Y741D02*
X1000Y741D01*
X1019Y741D02*
X1024Y741D01*
X1051Y741D02*
X1056Y741D01*
X1106Y741D02*
X1112Y741D01*
X1138Y741D02*
X1143Y741D01*
X1194Y741D02*
X1199Y741D01*
X1214Y741D02*
X1219Y741D01*
X1238Y741D02*
X1243Y741D01*
X1258Y741D02*
X1263Y741D01*
X1282Y741D02*
X1287Y741D01*
X1299Y741D02*
X1304Y741D01*
X1328Y741D02*
X1333Y741D01*
X995Y740D02*
X1000Y740D01*
X1019Y740D02*
X1024Y740D01*
X1051Y740D02*
X1056Y740D01*
X1106Y740D02*
X1112Y740D01*
X1138Y740D02*
X1143Y740D01*
X1194Y740D02*
X1199Y740D01*
X1214Y740D02*
X1220Y740D01*
X1238Y740D02*
X1243Y740D01*
X1258Y740D02*
X1263Y740D01*
X1282Y740D02*
X1287Y740D01*
X1299Y740D02*
X1304Y740D01*
X1328Y740D02*
X1333Y740D01*
X995Y739D02*
X1000Y739D01*
X1019Y739D02*
X1024Y739D01*
X1051Y739D02*
X1056Y739D01*
X1105Y739D02*
X1111Y739D01*
X1138Y739D02*
X1143Y739D01*
X1194Y739D02*
X1199Y739D01*
X1214Y739D02*
X1222Y739D01*
X1238Y739D02*
X1243Y739D01*
X1258Y739D02*
X1263Y739D01*
X1282Y739D02*
X1287Y739D01*
X1299Y739D02*
X1304Y739D01*
X1328Y739D02*
X1333Y739D01*
X995Y738D02*
X1000Y738D01*
X1019Y738D02*
X1024Y738D01*
X1051Y738D02*
X1056Y738D01*
X1104Y738D02*
X1111Y738D01*
X1138Y738D02*
X1143Y738D01*
X1194Y738D02*
X1199Y738D01*
X1214Y738D02*
X1223Y738D01*
X1238Y738D02*
X1243Y738D01*
X1258Y738D02*
X1263Y738D01*
X1282Y738D02*
X1287Y738D01*
X1299Y738D02*
X1304Y738D01*
X1328Y738D02*
X1333Y738D01*
X995Y737D02*
X1001Y737D01*
X1018Y737D02*
X1024Y737D01*
X1051Y737D02*
X1056Y737D01*
X1103Y737D02*
X1110Y737D01*
X1138Y737D02*
X1143Y737D01*
X1194Y737D02*
X1199Y737D01*
X1214Y737D02*
X1225Y737D01*
X1238Y737D02*
X1243Y737D01*
X1258Y737D02*
X1264Y737D01*
X1282Y737D02*
X1287Y737D01*
X1299Y737D02*
X1304Y737D01*
X1328Y737D02*
X1333Y737D01*
X996Y736D02*
X1002Y736D01*
X1017Y736D02*
X1024Y736D01*
X1051Y736D02*
X1056Y736D01*
X1102Y736D02*
X1110Y736D01*
X1138Y736D02*
X1143Y736D01*
X1194Y736D02*
X1199Y736D01*
X1214Y736D02*
X1227Y736D01*
X1237Y736D02*
X1243Y736D01*
X1258Y736D02*
X1266Y736D01*
X1282Y736D02*
X1287Y736D01*
X1299Y736D02*
X1304Y736D01*
X1328Y736D02*
X1333Y736D01*
X996Y735D02*
X1003Y735D01*
X1016Y735D02*
X1023Y735D01*
X1051Y735D02*
X1056Y735D01*
X1100Y735D02*
X1109Y735D01*
X1138Y735D02*
X1143Y735D01*
X1194Y735D02*
X1199Y735D01*
X1214Y735D02*
X1228Y735D01*
X1236Y735D02*
X1242Y735D01*
X1258Y735D02*
X1268Y735D01*
X1281Y735D02*
X1287Y735D01*
X1299Y735D02*
X1304Y735D01*
X1328Y735D02*
X1333Y735D01*
X997Y734D02*
X1023Y734D01*
X1044Y734D02*
X1063Y734D01*
X1085Y734D02*
X1108Y734D01*
X1131Y734D02*
X1150Y734D01*
X1194Y734D02*
X1199Y734D01*
X1214Y734D02*
X1242Y734D01*
X1258Y734D02*
X1269Y734D01*
X1280Y734D02*
X1286Y734D01*
X1299Y734D02*
X1304Y734D01*
X1328Y734D02*
X1333Y734D01*
X997Y733D02*
X1022Y733D01*
X1042Y733D02*
X1064Y733D01*
X1083Y733D02*
X1106Y733D01*
X1130Y733D02*
X1152Y733D01*
X1194Y733D02*
X1199Y733D01*
X1214Y733D02*
X1242Y733D01*
X1258Y733D02*
X1286Y733D01*
X1299Y733D02*
X1304Y733D01*
X1328Y733D02*
X1333Y733D01*
X998Y732D02*
X1021Y732D01*
X1042Y732D02*
X1065Y732D01*
X1083Y732D02*
X1105Y732D01*
X1130Y732D02*
X1152Y732D01*
X1194Y732D02*
X1199Y732D01*
X1214Y732D02*
X1219Y732D01*
X1222Y732D02*
X1241Y732D01*
X1258Y732D02*
X1285Y732D01*
X1299Y732D02*
X1304Y732D01*
X1328Y732D02*
X1333Y732D01*
X1000Y731D02*
X1019Y731D01*
X1042Y731D02*
X1065Y731D01*
X1083Y731D02*
X1104Y731D01*
X1129Y731D02*
X1152Y731D01*
X1194Y731D02*
X1199Y731D01*
X1214Y731D02*
X1219Y731D01*
X1224Y731D02*
X1240Y731D01*
X1258Y731D02*
X1284Y731D01*
X1299Y731D02*
X1304Y731D01*
X1328Y731D02*
X1333Y731D01*
X1001Y730D02*
X1018Y730D01*
X1042Y730D02*
X1065Y730D01*
X1083Y730D02*
X1103Y730D01*
X1130Y730D02*
X1152Y730D01*
X1194Y730D02*
X1199Y730D01*
X1215Y730D02*
X1219Y730D01*
X1226Y730D02*
X1239Y730D01*
X1258Y730D02*
X1262Y730D01*
X1266Y730D02*
X1283Y730D01*
X1299Y730D02*
X1304Y730D01*
X1328Y730D02*
X1333Y730D01*
X1002Y729D02*
X1016Y729D01*
X1043Y729D02*
X1064Y729D01*
X1084Y729D02*
X1101Y729D01*
X1130Y729D02*
X1151Y729D01*
X1195Y729D02*
X1198Y729D01*
X1215Y729D02*
X1219Y729D01*
X1227Y729D02*
X1238Y729D01*
X1259Y729D02*
X1262Y729D01*
X1267Y729D02*
X1282Y729D01*
X1300Y729D02*
X1303Y729D01*
X1329Y729D02*
X1332Y729D01*
X216Y684D02*
X223Y684D01*
X258Y684D02*
X265Y684D01*
X525Y684D02*
X540Y684D01*
X651Y684D02*
X651Y684D01*
X954Y684D02*
X958Y684D01*
X981Y684D02*
X986Y684D01*
X1133Y684D02*
X1133Y684D01*
X214Y683D02*
X227Y683D01*
X256Y683D02*
X269Y683D01*
X411Y683D02*
X414Y683D01*
X521Y683D02*
X543Y683D01*
X650Y683D02*
X653Y683D01*
X953Y683D02*
X960Y683D01*
X980Y683D02*
X987Y683D01*
X1131Y683D02*
X1135Y683D01*
X213Y682D02*
X229Y682D01*
X255Y682D02*
X271Y682D01*
X410Y682D02*
X415Y682D01*
X520Y682D02*
X544Y682D01*
X649Y682D02*
X654Y682D01*
X953Y682D02*
X961Y682D01*
X979Y682D02*
X987Y682D01*
X1131Y682D02*
X1135Y682D01*
X213Y681D02*
X230Y681D01*
X255Y681D02*
X272Y681D01*
X410Y681D02*
X415Y681D01*
X519Y681D02*
X545Y681D01*
X649Y681D02*
X654Y681D01*
X953Y681D02*
X961Y681D01*
X978Y681D02*
X987Y681D01*
X1130Y681D02*
X1135Y681D01*
X213Y680D02*
X231Y680D01*
X255Y680D02*
X273Y680D01*
X410Y680D02*
X415Y680D01*
X518Y680D02*
X546Y680D01*
X649Y680D02*
X654Y680D01*
X953Y680D02*
X961Y680D01*
X978Y680D02*
X987Y680D01*
X1130Y680D02*
X1135Y680D01*
X214Y679D02*
X232Y679D01*
X256Y679D02*
X274Y679D01*
X410Y679D02*
X415Y679D01*
X518Y679D02*
X546Y679D01*
X649Y679D02*
X654Y679D01*
X953Y679D02*
X962Y679D01*
X978Y679D02*
X987Y679D01*
X1130Y679D02*
X1135Y679D01*
X216Y678D02*
X232Y678D01*
X258Y678D02*
X274Y678D01*
X410Y678D02*
X415Y678D01*
X518Y678D02*
X546Y678D01*
X649Y678D02*
X654Y678D01*
X953Y678D02*
X962Y678D01*
X977Y678D02*
X987Y678D01*
X1130Y678D02*
X1135Y678D01*
X226Y677D02*
X233Y677D01*
X268Y677D02*
X275Y677D01*
X410Y677D02*
X415Y677D01*
X517Y677D02*
X523Y677D01*
X541Y677D02*
X546Y677D01*
X649Y677D02*
X654Y677D01*
X953Y677D02*
X963Y677D01*
X977Y677D02*
X987Y677D01*
X1130Y677D02*
X1135Y677D01*
X227Y676D02*
X233Y676D01*
X269Y676D02*
X275Y676D01*
X410Y676D02*
X415Y676D01*
X517Y676D02*
X522Y676D01*
X541Y676D02*
X546Y676D01*
X649Y676D02*
X654Y676D01*
X953Y676D02*
X963Y676D01*
X976Y676D02*
X987Y676D01*
X1130Y676D02*
X1135Y676D01*
X228Y675D02*
X233Y675D01*
X270Y675D02*
X275Y675D01*
X410Y675D02*
X415Y675D01*
X517Y675D02*
X522Y675D01*
X540Y675D02*
X546Y675D01*
X649Y675D02*
X654Y675D01*
X953Y675D02*
X964Y675D01*
X976Y675D02*
X987Y675D01*
X1130Y675D02*
X1135Y675D01*
X228Y674D02*
X233Y674D01*
X270Y674D02*
X275Y674D01*
X410Y674D02*
X415Y674D01*
X518Y674D02*
X522Y674D01*
X539Y674D02*
X546Y674D01*
X649Y674D02*
X654Y674D01*
X953Y674D02*
X964Y674D01*
X975Y674D02*
X987Y674D01*
X1130Y674D02*
X1135Y674D01*
X228Y673D02*
X233Y673D01*
X270Y673D02*
X275Y673D01*
X410Y673D02*
X415Y673D01*
X519Y673D02*
X520Y673D01*
X538Y673D02*
X545Y673D01*
X649Y673D02*
X654Y673D01*
X953Y673D02*
X965Y673D01*
X975Y673D02*
X987Y673D01*
X1130Y673D02*
X1135Y673D01*
X228Y672D02*
X233Y672D01*
X270Y672D02*
X275Y672D01*
X410Y672D02*
X415Y672D01*
X537Y672D02*
X544Y672D01*
X649Y672D02*
X654Y672D01*
X953Y672D02*
X958Y672D01*
X960Y672D02*
X965Y672D01*
X974Y672D02*
X980Y672D01*
X982Y672D02*
X987Y672D01*
X1130Y672D02*
X1135Y672D01*
X221Y671D02*
X279Y671D01*
X308Y671D02*
X318Y671D01*
X349Y671D02*
X357Y671D01*
X368Y671D02*
X369Y671D01*
X395Y671D02*
X403Y671D01*
X410Y671D02*
X415Y671D01*
X436Y671D02*
X436Y671D01*
X447Y671D02*
X450Y671D01*
X456Y671D02*
X457Y671D01*
X483Y671D02*
X493Y671D01*
X537Y671D02*
X544Y671D01*
X614Y671D02*
X625Y671D01*
X649Y671D02*
X654Y671D01*
X661Y671D02*
X669Y671D01*
X744Y671D02*
X750Y671D01*
X762Y671D02*
X763Y671D01*
X790Y671D02*
X800Y671D01*
X831Y671D02*
X846Y671D01*
X877Y671D02*
X887Y671D01*
X919Y671D02*
X934Y671D01*
X953Y671D02*
X958Y671D01*
X960Y671D02*
X966Y671D01*
X974Y671D02*
X979Y671D01*
X982Y671D02*
X987Y671D01*
X1049Y671D02*
X1058Y671D01*
X1069Y671D02*
X1070Y671D01*
X1096Y671D02*
X1106Y671D01*
X1130Y671D02*
X1135Y671D01*
X1143Y671D02*
X1150Y671D01*
X1225Y671D02*
X1232Y671D01*
X1243Y671D02*
X1245Y671D01*
X1270Y671D02*
X1285Y671D01*
X1308Y671D02*
X1309Y671D01*
X1331Y671D02*
X1333Y671D01*
X220Y670D02*
X281Y670D01*
X305Y670D02*
X321Y670D01*
X346Y670D02*
X359Y670D01*
X367Y670D02*
X371Y670D01*
X393Y670D02*
X405Y670D01*
X410Y670D02*
X415Y670D01*
X433Y670D02*
X440Y670D01*
X445Y670D02*
X452Y670D01*
X455Y670D02*
X459Y670D01*
X480Y670D02*
X496Y670D01*
X536Y670D02*
X543Y670D01*
X612Y670D02*
X627Y670D01*
X649Y670D02*
X654Y670D01*
X659Y670D02*
X671Y670D01*
X741Y670D02*
X753Y670D01*
X760Y670D02*
X764Y670D01*
X787Y670D02*
X802Y670D01*
X828Y670D02*
X849Y670D01*
X874Y670D02*
X890Y670D01*
X917Y670D02*
X936Y670D01*
X953Y670D02*
X958Y670D01*
X961Y670D02*
X966Y670D01*
X973Y670D02*
X979Y670D01*
X982Y670D02*
X987Y670D01*
X1047Y670D02*
X1060Y670D01*
X1068Y670D02*
X1071Y670D01*
X1093Y670D02*
X1109Y670D01*
X1130Y670D02*
X1135Y670D01*
X1140Y670D02*
X1153Y670D01*
X1223Y670D02*
X1234Y670D01*
X1242Y670D02*
X1246Y670D01*
X1267Y670D02*
X1286Y670D01*
X1306Y670D02*
X1310Y670D01*
X1330Y670D02*
X1334Y670D01*
X219Y669D02*
X281Y669D01*
X304Y669D02*
X322Y669D01*
X345Y669D02*
X360Y669D01*
X366Y669D02*
X371Y669D01*
X391Y669D02*
X407Y669D01*
X410Y669D02*
X415Y669D01*
X432Y669D02*
X441Y669D01*
X444Y669D02*
X459Y669D01*
X479Y669D02*
X497Y669D01*
X535Y669D02*
X542Y669D01*
X610Y669D02*
X629Y669D01*
X649Y669D02*
X654Y669D01*
X657Y669D02*
X673Y669D01*
X740Y669D02*
X754Y669D01*
X760Y669D02*
X765Y669D01*
X785Y669D02*
X804Y669D01*
X827Y669D02*
X850Y669D01*
X873Y669D02*
X891Y669D01*
X915Y669D02*
X936Y669D01*
X953Y669D02*
X958Y669D01*
X961Y669D02*
X967Y669D01*
X973Y669D02*
X979Y669D01*
X982Y669D02*
X987Y669D01*
X1045Y669D02*
X1061Y669D01*
X1067Y669D02*
X1072Y669D01*
X1092Y669D02*
X1110Y669D01*
X1130Y669D02*
X1135Y669D01*
X1139Y669D02*
X1154Y669D01*
X1221Y669D02*
X1236Y669D01*
X1242Y669D02*
X1247Y669D01*
X1265Y669D02*
X1286Y669D01*
X1306Y669D02*
X1310Y669D01*
X1330Y669D02*
X1334Y669D01*
X219Y668D02*
X281Y668D01*
X302Y668D02*
X323Y668D01*
X344Y668D02*
X361Y668D01*
X366Y668D02*
X371Y668D01*
X390Y668D02*
X408Y668D01*
X410Y668D02*
X415Y668D01*
X431Y668D02*
X459Y668D01*
X477Y668D02*
X499Y668D01*
X534Y668D02*
X541Y668D01*
X609Y668D02*
X630Y668D01*
X649Y668D02*
X654Y668D01*
X656Y668D02*
X674Y668D01*
X739Y668D02*
X756Y668D01*
X760Y668D02*
X765Y668D01*
X784Y668D02*
X805Y668D01*
X825Y668D02*
X851Y668D01*
X872Y668D02*
X893Y668D01*
X914Y668D02*
X936Y668D01*
X953Y668D02*
X958Y668D01*
X962Y668D02*
X967Y668D01*
X972Y668D02*
X978Y668D01*
X982Y668D02*
X987Y668D01*
X1044Y668D02*
X1062Y668D01*
X1067Y668D02*
X1072Y668D01*
X1091Y668D02*
X1112Y668D01*
X1130Y668D02*
X1135Y668D01*
X1138Y668D02*
X1155Y668D01*
X1220Y668D02*
X1238Y668D01*
X1242Y668D02*
X1247Y668D01*
X1264Y668D02*
X1287Y668D01*
X1305Y668D02*
X1311Y668D01*
X1329Y668D02*
X1335Y668D01*
X219Y667D02*
X281Y667D01*
X301Y667D02*
X324Y667D01*
X343Y667D02*
X362Y667D01*
X366Y667D02*
X371Y667D01*
X389Y667D02*
X415Y667D01*
X430Y667D02*
X459Y667D01*
X476Y667D02*
X500Y667D01*
X534Y667D02*
X540Y667D01*
X608Y667D02*
X631Y667D01*
X649Y667D02*
X675Y667D01*
X738Y667D02*
X757Y667D01*
X760Y667D02*
X765Y667D01*
X783Y667D02*
X806Y667D01*
X825Y667D02*
X851Y667D01*
X871Y667D02*
X894Y667D01*
X913Y667D02*
X936Y667D01*
X953Y667D02*
X958Y667D01*
X962Y667D02*
X968Y667D01*
X972Y667D02*
X978Y667D01*
X982Y667D02*
X987Y667D01*
X1044Y667D02*
X1063Y667D01*
X1067Y667D02*
X1072Y667D01*
X1090Y667D02*
X1113Y667D01*
X1130Y667D02*
X1157Y667D01*
X1220Y667D02*
X1239Y667D01*
X1242Y667D02*
X1247Y667D01*
X1263Y667D02*
X1286Y667D01*
X1305Y667D02*
X1311Y667D01*
X1329Y667D02*
X1335Y667D01*
X220Y666D02*
X280Y666D01*
X300Y666D02*
X325Y666D01*
X343Y666D02*
X364Y666D01*
X366Y666D02*
X371Y666D01*
X388Y666D02*
X415Y666D01*
X430Y666D02*
X459Y666D01*
X476Y666D02*
X500Y666D01*
X533Y666D02*
X540Y666D01*
X607Y666D02*
X632Y666D01*
X649Y666D02*
X676Y666D01*
X737Y666D02*
X765Y666D01*
X782Y666D02*
X807Y666D01*
X825Y666D02*
X852Y666D01*
X870Y666D02*
X895Y666D01*
X912Y666D02*
X935Y666D01*
X953Y666D02*
X958Y666D01*
X962Y666D02*
X968Y666D01*
X971Y666D02*
X977Y666D01*
X982Y666D02*
X987Y666D01*
X1043Y666D02*
X1064Y666D01*
X1067Y666D02*
X1072Y666D01*
X1089Y666D02*
X1114Y666D01*
X1130Y666D02*
X1157Y666D01*
X1219Y666D02*
X1247Y666D01*
X1263Y666D02*
X1286Y666D01*
X1305Y666D02*
X1311Y666D01*
X1329Y666D02*
X1335Y666D01*
X228Y665D02*
X234Y665D01*
X270Y665D02*
X276Y665D01*
X300Y665D02*
X308Y665D01*
X318Y665D02*
X326Y665D01*
X342Y665D02*
X350Y665D01*
X356Y665D02*
X371Y665D01*
X387Y665D02*
X396Y665D01*
X402Y665D02*
X415Y665D01*
X430Y665D02*
X435Y665D01*
X437Y665D02*
X448Y665D01*
X450Y665D02*
X459Y665D01*
X475Y665D02*
X483Y665D01*
X493Y665D02*
X501Y665D01*
X532Y665D02*
X539Y665D01*
X606Y665D02*
X615Y665D01*
X624Y665D02*
X632Y665D01*
X649Y665D02*
X661Y665D01*
X668Y665D02*
X677Y665D01*
X737Y665D02*
X744Y665D01*
X750Y665D02*
X765Y665D01*
X782Y665D02*
X790Y665D01*
X799Y665D02*
X808Y665D01*
X825Y665D02*
X831Y665D01*
X846Y665D02*
X852Y665D01*
X869Y665D02*
X877Y665D01*
X887Y665D02*
X895Y665D01*
X912Y665D02*
X919Y665D01*
X953Y665D02*
X958Y665D01*
X963Y665D02*
X969Y665D01*
X971Y665D02*
X977Y665D01*
X982Y665D02*
X987Y665D01*
X1043Y665D02*
X1050Y665D01*
X1057Y665D02*
X1072Y665D01*
X1088Y665D02*
X1096Y665D01*
X1106Y665D02*
X1114Y665D01*
X1130Y665D02*
X1143Y665D01*
X1150Y665D02*
X1158Y665D01*
X1219Y665D02*
X1226Y665D01*
X1232Y665D02*
X1247Y665D01*
X1262Y665D02*
X1269Y665D01*
X1305Y665D02*
X1311Y665D01*
X1329Y665D02*
X1335Y665D01*
X228Y664D02*
X233Y664D01*
X270Y664D02*
X275Y664D01*
X299Y664D02*
X306Y664D01*
X320Y664D02*
X327Y664D01*
X342Y664D02*
X348Y664D01*
X357Y664D02*
X371Y664D01*
X387Y664D02*
X394Y664D01*
X404Y664D02*
X415Y664D01*
X429Y664D02*
X435Y664D01*
X438Y664D02*
X447Y664D01*
X451Y664D02*
X459Y664D01*
X474Y664D02*
X481Y664D01*
X495Y664D02*
X502Y664D01*
X531Y664D02*
X538Y664D01*
X606Y664D02*
X612Y664D01*
X626Y664D02*
X633Y664D01*
X649Y664D02*
X660Y664D01*
X670Y664D02*
X677Y664D01*
X737Y664D02*
X742Y664D01*
X752Y664D02*
X765Y664D01*
X781Y664D02*
X788Y664D01*
X801Y664D02*
X808Y664D01*
X825Y664D02*
X829Y664D01*
X847Y664D02*
X852Y664D01*
X869Y664D02*
X875Y664D01*
X889Y664D02*
X896Y664D01*
X912Y664D02*
X917Y664D01*
X953Y664D02*
X958Y664D01*
X963Y664D02*
X976Y664D01*
X982Y664D02*
X987Y664D01*
X1043Y664D02*
X1048Y664D01*
X1058Y664D02*
X1072Y664D01*
X1087Y664D02*
X1094Y664D01*
X1108Y664D02*
X1115Y664D01*
X1130Y664D02*
X1141Y664D01*
X1152Y664D02*
X1159Y664D01*
X1218Y664D02*
X1224Y664D01*
X1233Y664D02*
X1247Y664D01*
X1262Y664D02*
X1268Y664D01*
X1305Y664D02*
X1311Y664D01*
X1329Y664D02*
X1335Y664D01*
X228Y663D02*
X233Y663D01*
X270Y663D02*
X275Y663D01*
X299Y663D02*
X305Y663D01*
X321Y663D02*
X327Y663D01*
X342Y663D02*
X347Y663D01*
X359Y663D02*
X371Y663D01*
X386Y663D02*
X393Y663D01*
X405Y663D02*
X415Y663D01*
X429Y663D02*
X435Y663D01*
X440Y663D02*
X447Y663D01*
X452Y663D02*
X459Y663D01*
X474Y663D02*
X480Y663D01*
X496Y663D02*
X502Y663D01*
X530Y663D02*
X537Y663D01*
X605Y663D02*
X611Y663D01*
X627Y663D02*
X633Y663D01*
X649Y663D02*
X658Y663D01*
X671Y663D02*
X677Y663D01*
X737Y663D02*
X742Y663D01*
X753Y663D02*
X765Y663D01*
X781Y663D02*
X786Y663D01*
X803Y663D02*
X809Y663D01*
X826Y663D02*
X828Y663D01*
X847Y663D02*
X852Y663D01*
X868Y663D02*
X874Y663D01*
X890Y663D02*
X896Y663D01*
X911Y663D02*
X917Y663D01*
X953Y663D02*
X958Y663D01*
X964Y663D02*
X976Y663D01*
X982Y663D02*
X987Y663D01*
X1043Y663D02*
X1048Y663D01*
X1059Y663D02*
X1072Y663D01*
X1087Y663D02*
X1093Y663D01*
X1109Y663D02*
X1115Y663D01*
X1130Y663D02*
X1140Y663D01*
X1153Y663D02*
X1159Y663D01*
X1218Y663D02*
X1224Y663D01*
X1235Y663D02*
X1247Y663D01*
X1262Y663D02*
X1267Y663D01*
X1306Y663D02*
X1311Y663D01*
X1329Y663D02*
X1335Y663D01*
X228Y662D02*
X233Y662D01*
X270Y662D02*
X275Y662D01*
X299Y662D02*
X304Y662D01*
X322Y662D02*
X327Y662D01*
X342Y662D02*
X347Y662D01*
X360Y662D02*
X371Y662D01*
X386Y662D02*
X392Y662D01*
X406Y662D02*
X415Y662D01*
X429Y662D02*
X435Y662D01*
X441Y662D02*
X447Y662D01*
X453Y662D02*
X459Y662D01*
X474Y662D02*
X479Y662D01*
X497Y662D02*
X502Y662D01*
X530Y662D02*
X537Y662D01*
X605Y662D02*
X611Y662D01*
X628Y662D02*
X634Y662D01*
X649Y662D02*
X657Y662D01*
X672Y662D02*
X678Y662D01*
X737Y662D02*
X742Y662D01*
X755Y662D02*
X765Y662D01*
X780Y662D02*
X786Y662D01*
X803Y662D02*
X809Y662D01*
X846Y662D02*
X852Y662D01*
X868Y662D02*
X873Y662D01*
X891Y662D02*
X897Y662D01*
X911Y662D02*
X916Y662D01*
X953Y662D02*
X958Y662D01*
X964Y662D02*
X975Y662D01*
X982Y662D02*
X987Y662D01*
X1043Y662D02*
X1048Y662D01*
X1060Y662D02*
X1072Y662D01*
X1087Y662D02*
X1092Y662D01*
X1110Y662D02*
X1115Y662D01*
X1130Y662D02*
X1139Y662D01*
X1154Y662D02*
X1159Y662D01*
X1218Y662D02*
X1223Y662D01*
X1237Y662D02*
X1247Y662D01*
X1262Y662D02*
X1267Y662D01*
X1306Y662D02*
X1311Y662D01*
X1329Y662D02*
X1334Y662D01*
X228Y661D02*
X233Y661D01*
X270Y661D02*
X275Y661D01*
X298Y661D02*
X304Y661D01*
X322Y661D02*
X327Y661D01*
X342Y661D02*
X347Y661D01*
X361Y661D02*
X371Y661D01*
X386Y661D02*
X391Y661D01*
X408Y661D02*
X415Y661D01*
X429Y661D02*
X435Y661D01*
X442Y661D02*
X447Y661D01*
X454Y661D02*
X459Y661D01*
X474Y661D02*
X479Y661D01*
X497Y661D02*
X503Y661D01*
X529Y661D02*
X536Y661D01*
X605Y661D02*
X610Y661D01*
X629Y661D02*
X634Y661D01*
X649Y661D02*
X656Y661D01*
X672Y661D02*
X678Y661D01*
X737Y661D02*
X742Y661D01*
X756Y661D02*
X765Y661D01*
X780Y661D02*
X785Y661D01*
X804Y661D02*
X809Y661D01*
X844Y661D02*
X852Y661D01*
X868Y661D02*
X873Y661D01*
X891Y661D02*
X897Y661D01*
X911Y661D02*
X916Y661D01*
X953Y661D02*
X958Y661D01*
X965Y661D02*
X975Y661D01*
X982Y661D02*
X987Y661D01*
X1043Y661D02*
X1048Y661D01*
X1062Y661D02*
X1072Y661D01*
X1087Y661D02*
X1092Y661D01*
X1110Y661D02*
X1116Y661D01*
X1130Y661D02*
X1138Y661D01*
X1154Y661D02*
X1159Y661D01*
X1218Y661D02*
X1223Y661D01*
X1238Y661D02*
X1247Y661D01*
X1262Y661D02*
X1267Y661D01*
X1306Y661D02*
X1312Y661D01*
X1328Y661D02*
X1334Y661D01*
X228Y660D02*
X233Y660D01*
X270Y660D02*
X275Y660D01*
X298Y660D02*
X303Y660D01*
X322Y660D02*
X327Y660D01*
X342Y660D02*
X347Y660D01*
X362Y660D02*
X371Y660D01*
X386Y660D02*
X391Y660D01*
X409Y660D02*
X415Y660D01*
X429Y660D02*
X435Y660D01*
X442Y660D02*
X447Y660D01*
X454Y660D02*
X459Y660D01*
X473Y660D02*
X479Y660D01*
X498Y660D02*
X503Y660D01*
X528Y660D02*
X535Y660D01*
X605Y660D02*
X610Y660D01*
X629Y660D02*
X634Y660D01*
X649Y660D02*
X655Y660D01*
X673Y660D02*
X678Y660D01*
X737Y660D02*
X742Y660D01*
X758Y660D02*
X765Y660D01*
X780Y660D02*
X785Y660D01*
X804Y660D02*
X809Y660D01*
X842Y660D02*
X851Y660D01*
X868Y660D02*
X873Y660D01*
X892Y660D02*
X897Y660D01*
X911Y660D02*
X916Y660D01*
X953Y660D02*
X958Y660D01*
X965Y660D02*
X974Y660D01*
X982Y660D02*
X987Y660D01*
X1043Y660D02*
X1048Y660D01*
X1063Y660D02*
X1072Y660D01*
X1087Y660D02*
X1092Y660D01*
X1111Y660D02*
X1116Y660D01*
X1130Y660D02*
X1137Y660D01*
X1154Y660D02*
X1160Y660D01*
X1218Y660D02*
X1223Y660D01*
X1240Y660D02*
X1247Y660D01*
X1262Y660D02*
X1267Y660D01*
X1307Y660D02*
X1312Y660D01*
X1328Y660D02*
X1334Y660D01*
X228Y659D02*
X233Y659D01*
X270Y659D02*
X275Y659D01*
X298Y659D02*
X303Y659D01*
X322Y659D02*
X327Y659D01*
X343Y659D02*
X346Y659D01*
X363Y659D02*
X371Y659D01*
X386Y659D02*
X391Y659D01*
X410Y659D02*
X415Y659D01*
X429Y659D02*
X435Y659D01*
X442Y659D02*
X447Y659D01*
X454Y659D02*
X459Y659D01*
X473Y659D02*
X479Y659D01*
X498Y659D02*
X503Y659D01*
X527Y659D02*
X534Y659D01*
X605Y659D02*
X610Y659D01*
X629Y659D02*
X634Y659D01*
X649Y659D02*
X654Y659D01*
X673Y659D02*
X678Y659D01*
X737Y659D02*
X742Y659D01*
X759Y659D02*
X765Y659D01*
X780Y659D02*
X785Y659D01*
X804Y659D02*
X809Y659D01*
X839Y659D02*
X851Y659D01*
X868Y659D02*
X873Y659D01*
X892Y659D02*
X897Y659D01*
X911Y659D02*
X916Y659D01*
X953Y659D02*
X958Y659D01*
X966Y659D02*
X974Y659D01*
X982Y659D02*
X987Y659D01*
X1043Y659D02*
X1047Y659D01*
X1064Y659D02*
X1072Y659D01*
X1087Y659D02*
X1092Y659D01*
X1111Y659D02*
X1116Y659D01*
X1130Y659D02*
X1136Y659D01*
X1154Y659D02*
X1160Y659D01*
X1218Y659D02*
X1223Y659D01*
X1241Y659D02*
X1247Y659D01*
X1262Y659D02*
X1267Y659D01*
X1307Y659D02*
X1313Y659D01*
X1327Y659D02*
X1333Y659D01*
X228Y658D02*
X233Y658D01*
X270Y658D02*
X275Y658D01*
X298Y658D02*
X303Y658D01*
X322Y658D02*
X327Y658D01*
X364Y658D02*
X371Y658D01*
X386Y658D02*
X391Y658D01*
X410Y658D02*
X415Y658D01*
X429Y658D02*
X435Y658D01*
X442Y658D02*
X447Y658D01*
X454Y658D02*
X459Y658D01*
X473Y658D02*
X479Y658D01*
X498Y658D02*
X503Y658D01*
X527Y658D02*
X533Y658D01*
X605Y658D02*
X610Y658D01*
X629Y658D02*
X634Y658D01*
X649Y658D02*
X654Y658D01*
X673Y658D02*
X678Y658D01*
X737Y658D02*
X742Y658D01*
X760Y658D02*
X765Y658D01*
X780Y658D02*
X785Y658D01*
X804Y658D02*
X809Y658D01*
X837Y658D02*
X850Y658D01*
X868Y658D02*
X873Y658D01*
X892Y658D02*
X897Y658D01*
X911Y658D02*
X934Y658D01*
X953Y658D02*
X958Y658D01*
X966Y658D02*
X973Y658D01*
X982Y658D02*
X987Y658D01*
X1065Y658D02*
X1072Y658D01*
X1087Y658D02*
X1092Y658D01*
X1111Y658D02*
X1116Y658D01*
X1130Y658D02*
X1136Y658D01*
X1154Y658D02*
X1160Y658D01*
X1218Y658D02*
X1223Y658D01*
X1242Y658D02*
X1247Y658D01*
X1262Y658D02*
X1267Y658D01*
X1269Y658D02*
X1284Y658D01*
X1307Y658D02*
X1313Y658D01*
X1327Y658D02*
X1333Y658D01*
X228Y657D02*
X233Y657D01*
X270Y657D02*
X275Y657D01*
X298Y657D02*
X327Y657D01*
X366Y657D02*
X371Y657D01*
X386Y657D02*
X391Y657D01*
X410Y657D02*
X415Y657D01*
X429Y657D02*
X434Y657D01*
X442Y657D02*
X447Y657D01*
X454Y657D02*
X459Y657D01*
X473Y657D02*
X479Y657D01*
X498Y657D02*
X503Y657D01*
X526Y657D02*
X533Y657D01*
X605Y657D02*
X634Y657D01*
X649Y657D02*
X654Y657D01*
X673Y657D02*
X678Y657D01*
X737Y657D02*
X742Y657D01*
X760Y657D02*
X765Y657D01*
X780Y657D02*
X809Y657D01*
X835Y657D02*
X849Y657D01*
X868Y657D02*
X897Y657D01*
X911Y657D02*
X936Y657D01*
X953Y657D02*
X958Y657D01*
X967Y657D02*
X973Y657D01*
X982Y657D02*
X987Y657D01*
X1066Y657D02*
X1072Y657D01*
X1087Y657D02*
X1116Y657D01*
X1130Y657D02*
X1135Y657D01*
X1154Y657D02*
X1160Y657D01*
X1218Y657D02*
X1223Y657D01*
X1242Y657D02*
X1247Y657D01*
X1262Y657D02*
X1286Y657D01*
X1308Y657D02*
X1314Y657D01*
X1327Y657D02*
X1332Y657D01*
X228Y656D02*
X233Y656D01*
X270Y656D02*
X275Y656D01*
X298Y656D02*
X327Y656D01*
X366Y656D02*
X371Y656D01*
X386Y656D02*
X391Y656D01*
X410Y656D02*
X415Y656D01*
X429Y656D02*
X434Y656D01*
X442Y656D02*
X447Y656D01*
X454Y656D02*
X459Y656D01*
X473Y656D02*
X479Y656D01*
X498Y656D02*
X503Y656D01*
X525Y656D02*
X532Y656D01*
X605Y656D02*
X634Y656D01*
X649Y656D02*
X654Y656D01*
X673Y656D02*
X678Y656D01*
X737Y656D02*
X742Y656D01*
X760Y656D02*
X765Y656D01*
X780Y656D02*
X809Y656D01*
X832Y656D02*
X847Y656D01*
X868Y656D02*
X897Y656D01*
X911Y656D02*
X937Y656D01*
X953Y656D02*
X958Y656D01*
X967Y656D02*
X972Y656D01*
X982Y656D02*
X987Y656D01*
X1067Y656D02*
X1072Y656D01*
X1087Y656D02*
X1116Y656D01*
X1130Y656D02*
X1135Y656D01*
X1154Y656D02*
X1160Y656D01*
X1218Y656D02*
X1223Y656D01*
X1242Y656D02*
X1247Y656D01*
X1262Y656D02*
X1288Y656D01*
X1308Y656D02*
X1314Y656D01*
X1326Y656D02*
X1332Y656D01*
X228Y655D02*
X233Y655D01*
X270Y655D02*
X275Y655D01*
X298Y655D02*
X327Y655D01*
X366Y655D02*
X371Y655D01*
X386Y655D02*
X391Y655D01*
X410Y655D02*
X415Y655D01*
X429Y655D02*
X434Y655D01*
X442Y655D02*
X447Y655D01*
X454Y655D02*
X459Y655D01*
X473Y655D02*
X479Y655D01*
X498Y655D02*
X503Y655D01*
X524Y655D02*
X531Y655D01*
X605Y655D02*
X634Y655D01*
X649Y655D02*
X654Y655D01*
X673Y655D02*
X678Y655D01*
X737Y655D02*
X742Y655D01*
X760Y655D02*
X765Y655D01*
X780Y655D02*
X809Y655D01*
X830Y655D02*
X845Y655D01*
X868Y655D02*
X897Y655D01*
X911Y655D02*
X938Y655D01*
X953Y655D02*
X958Y655D01*
X968Y655D02*
X972Y655D01*
X982Y655D02*
X987Y655D01*
X1067Y655D02*
X1072Y655D01*
X1087Y655D02*
X1116Y655D01*
X1130Y655D02*
X1135Y655D01*
X1154Y655D02*
X1160Y655D01*
X1218Y655D02*
X1223Y655D01*
X1242Y655D02*
X1247Y655D01*
X1262Y655D02*
X1289Y655D01*
X1309Y655D02*
X1314Y655D01*
X1326Y655D02*
X1331Y655D01*
X228Y654D02*
X233Y654D01*
X270Y654D02*
X275Y654D01*
X298Y654D02*
X327Y654D01*
X366Y654D02*
X371Y654D01*
X386Y654D02*
X391Y654D01*
X410Y654D02*
X415Y654D01*
X429Y654D02*
X434Y654D01*
X442Y654D02*
X447Y654D01*
X454Y654D02*
X459Y654D01*
X473Y654D02*
X479Y654D01*
X498Y654D02*
X503Y654D01*
X523Y654D02*
X530Y654D01*
X605Y654D02*
X634Y654D01*
X649Y654D02*
X654Y654D01*
X673Y654D02*
X678Y654D01*
X737Y654D02*
X742Y654D01*
X760Y654D02*
X765Y654D01*
X780Y654D02*
X809Y654D01*
X828Y654D02*
X842Y654D01*
X868Y654D02*
X897Y654D01*
X911Y654D02*
X939Y654D01*
X953Y654D02*
X958Y654D01*
X969Y654D02*
X971Y654D01*
X982Y654D02*
X987Y654D01*
X1067Y654D02*
X1072Y654D01*
X1087Y654D02*
X1116Y654D01*
X1130Y654D02*
X1135Y654D01*
X1154Y654D02*
X1160Y654D01*
X1218Y654D02*
X1223Y654D01*
X1242Y654D02*
X1247Y654D01*
X1262Y654D02*
X1289Y654D01*
X1309Y654D02*
X1315Y654D01*
X1325Y654D02*
X1331Y654D01*
X228Y653D02*
X233Y653D01*
X270Y653D02*
X275Y653D01*
X299Y653D02*
X327Y653D01*
X366Y653D02*
X371Y653D01*
X386Y653D02*
X391Y653D01*
X410Y653D02*
X415Y653D01*
X429Y653D02*
X434Y653D01*
X442Y653D02*
X447Y653D01*
X454Y653D02*
X459Y653D01*
X473Y653D02*
X479Y653D01*
X498Y653D02*
X503Y653D01*
X523Y653D02*
X530Y653D01*
X605Y653D02*
X634Y653D01*
X649Y653D02*
X654Y653D01*
X673Y653D02*
X678Y653D01*
X737Y653D02*
X742Y653D01*
X760Y653D02*
X765Y653D01*
X780Y653D02*
X809Y653D01*
X827Y653D02*
X840Y653D01*
X868Y653D02*
X897Y653D01*
X911Y653D02*
X940Y653D01*
X953Y653D02*
X958Y653D01*
X982Y653D02*
X987Y653D01*
X1067Y653D02*
X1072Y653D01*
X1087Y653D02*
X1116Y653D01*
X1130Y653D02*
X1135Y653D01*
X1154Y653D02*
X1160Y653D01*
X1218Y653D02*
X1223Y653D01*
X1242Y653D02*
X1247Y653D01*
X1262Y653D02*
X1290Y653D01*
X1309Y653D02*
X1315Y653D01*
X1325Y653D02*
X1331Y653D01*
X228Y652D02*
X233Y652D01*
X270Y652D02*
X275Y652D01*
X299Y652D02*
X327Y652D01*
X366Y652D02*
X371Y652D01*
X386Y652D02*
X391Y652D01*
X410Y652D02*
X415Y652D01*
X429Y652D02*
X434Y652D01*
X442Y652D02*
X447Y652D01*
X454Y652D02*
X459Y652D01*
X473Y652D02*
X479Y652D01*
X498Y652D02*
X503Y652D01*
X522Y652D02*
X529Y652D01*
X606Y652D02*
X634Y652D01*
X649Y652D02*
X654Y652D01*
X673Y652D02*
X678Y652D01*
X737Y652D02*
X742Y652D01*
X760Y652D02*
X765Y652D01*
X781Y652D02*
X809Y652D01*
X826Y652D02*
X838Y652D01*
X868Y652D02*
X897Y652D01*
X911Y652D02*
X918Y652D01*
X934Y652D02*
X940Y652D01*
X953Y652D02*
X958Y652D01*
X982Y652D02*
X987Y652D01*
X1067Y652D02*
X1072Y652D01*
X1087Y652D02*
X1116Y652D01*
X1130Y652D02*
X1135Y652D01*
X1154Y652D02*
X1160Y652D01*
X1218Y652D02*
X1223Y652D01*
X1242Y652D02*
X1247Y652D01*
X1262Y652D02*
X1268Y652D01*
X1285Y652D02*
X1290Y652D01*
X1310Y652D02*
X1316Y652D01*
X1324Y652D02*
X1330Y652D01*
X228Y651D02*
X233Y651D01*
X270Y651D02*
X275Y651D01*
X301Y651D02*
X327Y651D01*
X366Y651D02*
X371Y651D01*
X386Y651D02*
X391Y651D01*
X410Y651D02*
X415Y651D01*
X429Y651D02*
X434Y651D01*
X442Y651D02*
X447Y651D01*
X454Y651D02*
X459Y651D01*
X473Y651D02*
X479Y651D01*
X498Y651D02*
X503Y651D01*
X521Y651D02*
X528Y651D01*
X607Y651D02*
X634Y651D01*
X649Y651D02*
X654Y651D01*
X673Y651D02*
X678Y651D01*
X737Y651D02*
X742Y651D01*
X760Y651D02*
X765Y651D01*
X783Y651D02*
X809Y651D01*
X825Y651D02*
X835Y651D01*
X870Y651D02*
X897Y651D01*
X911Y651D02*
X917Y651D01*
X935Y651D02*
X940Y651D01*
X953Y651D02*
X958Y651D01*
X982Y651D02*
X987Y651D01*
X1067Y651D02*
X1072Y651D01*
X1089Y651D02*
X1116Y651D01*
X1130Y651D02*
X1135Y651D01*
X1154Y651D02*
X1160Y651D01*
X1218Y651D02*
X1223Y651D01*
X1242Y651D02*
X1247Y651D01*
X1262Y651D02*
X1267Y651D01*
X1286Y651D02*
X1291Y651D01*
X1310Y651D02*
X1316Y651D01*
X1324Y651D02*
X1330Y651D01*
X228Y650D02*
X233Y650D01*
X270Y650D02*
X275Y650D01*
X322Y650D02*
X327Y650D01*
X366Y650D02*
X371Y650D01*
X386Y650D02*
X391Y650D01*
X410Y650D02*
X415Y650D01*
X429Y650D02*
X434Y650D01*
X442Y650D02*
X447Y650D01*
X454Y650D02*
X459Y650D01*
X473Y650D02*
X479Y650D01*
X498Y650D02*
X503Y650D01*
X520Y650D02*
X527Y650D01*
X629Y650D02*
X634Y650D01*
X649Y650D02*
X654Y650D01*
X673Y650D02*
X678Y650D01*
X737Y650D02*
X742Y650D01*
X760Y650D02*
X765Y650D01*
X804Y650D02*
X809Y650D01*
X825Y650D02*
X833Y650D01*
X892Y650D02*
X897Y650D01*
X911Y650D02*
X916Y650D01*
X936Y650D02*
X940Y650D01*
X953Y650D02*
X958Y650D01*
X982Y650D02*
X987Y650D01*
X1067Y650D02*
X1072Y650D01*
X1111Y650D02*
X1116Y650D01*
X1130Y650D02*
X1136Y650D01*
X1154Y650D02*
X1160Y650D01*
X1218Y650D02*
X1223Y650D01*
X1242Y650D02*
X1247Y650D01*
X1262Y650D02*
X1267Y650D01*
X1286Y650D02*
X1291Y650D01*
X1311Y650D02*
X1317Y650D01*
X1324Y650D02*
X1329Y650D01*
X228Y649D02*
X233Y649D01*
X270Y649D02*
X275Y649D01*
X322Y649D02*
X327Y649D01*
X366Y649D02*
X371Y649D01*
X386Y649D02*
X391Y649D01*
X410Y649D02*
X415Y649D01*
X429Y649D02*
X434Y649D01*
X442Y649D02*
X447Y649D01*
X454Y649D02*
X459Y649D01*
X473Y649D02*
X479Y649D01*
X498Y649D02*
X503Y649D01*
X520Y649D02*
X526Y649D01*
X629Y649D02*
X634Y649D01*
X649Y649D02*
X654Y649D01*
X673Y649D02*
X678Y649D01*
X737Y649D02*
X742Y649D01*
X760Y649D02*
X765Y649D01*
X804Y649D02*
X809Y649D01*
X824Y649D02*
X831Y649D01*
X892Y649D02*
X897Y649D01*
X911Y649D02*
X916Y649D01*
X936Y649D02*
X941Y649D01*
X953Y649D02*
X958Y649D01*
X982Y649D02*
X987Y649D01*
X1067Y649D02*
X1072Y649D01*
X1111Y649D02*
X1116Y649D01*
X1130Y649D02*
X1136Y649D01*
X1154Y649D02*
X1160Y649D01*
X1218Y649D02*
X1223Y649D01*
X1242Y649D02*
X1247Y649D01*
X1262Y649D02*
X1267Y649D01*
X1286Y649D02*
X1291Y649D01*
X1311Y649D02*
X1317Y649D01*
X1323Y649D02*
X1329Y649D01*
X228Y648D02*
X233Y648D01*
X270Y648D02*
X275Y648D01*
X322Y648D02*
X327Y648D01*
X366Y648D02*
X371Y648D01*
X386Y648D02*
X391Y648D01*
X409Y648D02*
X415Y648D01*
X429Y648D02*
X434Y648D01*
X442Y648D02*
X447Y648D01*
X454Y648D02*
X459Y648D01*
X473Y648D02*
X479Y648D01*
X497Y648D02*
X503Y648D01*
X519Y648D02*
X526Y648D01*
X544Y648D02*
X544Y648D01*
X629Y648D02*
X634Y648D01*
X649Y648D02*
X655Y648D01*
X673Y648D02*
X678Y648D01*
X737Y648D02*
X742Y648D01*
X760Y648D02*
X765Y648D01*
X804Y648D02*
X809Y648D01*
X824Y648D02*
X830Y648D01*
X892Y648D02*
X897Y648D01*
X911Y648D02*
X916Y648D01*
X936Y648D02*
X941Y648D01*
X953Y648D02*
X958Y648D01*
X982Y648D02*
X987Y648D01*
X1067Y648D02*
X1072Y648D01*
X1111Y648D02*
X1116Y648D01*
X1130Y648D02*
X1137Y648D01*
X1154Y648D02*
X1160Y648D01*
X1218Y648D02*
X1223Y648D01*
X1242Y648D02*
X1247Y648D01*
X1262Y648D02*
X1267Y648D01*
X1286Y648D02*
X1291Y648D01*
X1312Y648D02*
X1317Y648D01*
X1323Y648D02*
X1328Y648D01*
X228Y647D02*
X233Y647D01*
X270Y647D02*
X275Y647D01*
X322Y647D02*
X327Y647D01*
X366Y647D02*
X371Y647D01*
X386Y647D02*
X391Y647D01*
X408Y647D02*
X415Y647D01*
X429Y647D02*
X434Y647D01*
X442Y647D02*
X447Y647D01*
X454Y647D02*
X459Y647D01*
X474Y647D02*
X479Y647D01*
X497Y647D02*
X503Y647D01*
X518Y647D02*
X525Y647D01*
X542Y647D02*
X546Y647D01*
X629Y647D02*
X634Y647D01*
X649Y647D02*
X656Y647D01*
X672Y647D02*
X678Y647D01*
X737Y647D02*
X742Y647D01*
X760Y647D02*
X765Y647D01*
X804Y647D02*
X809Y647D01*
X824Y647D02*
X829Y647D01*
X891Y647D02*
X897Y647D01*
X911Y647D02*
X916Y647D01*
X936Y647D02*
X941Y647D01*
X953Y647D02*
X958Y647D01*
X982Y647D02*
X987Y647D01*
X1067Y647D02*
X1072Y647D01*
X1110Y647D02*
X1116Y647D01*
X1130Y647D02*
X1138Y647D01*
X1154Y647D02*
X1159Y647D01*
X1218Y647D02*
X1223Y647D01*
X1242Y647D02*
X1247Y647D01*
X1262Y647D02*
X1267Y647D01*
X1286Y647D02*
X1291Y647D01*
X1312Y647D02*
X1318Y647D01*
X1322Y647D02*
X1328Y647D01*
X228Y646D02*
X233Y646D01*
X270Y646D02*
X275Y646D01*
X322Y646D02*
X327Y646D01*
X366Y646D02*
X371Y646D01*
X386Y646D02*
X392Y646D01*
X406Y646D02*
X415Y646D01*
X429Y646D02*
X434Y646D01*
X442Y646D02*
X447Y646D01*
X454Y646D02*
X459Y646D01*
X474Y646D02*
X479Y646D01*
X497Y646D02*
X502Y646D01*
X518Y646D02*
X524Y646D01*
X542Y646D02*
X546Y646D01*
X628Y646D02*
X634Y646D01*
X649Y646D02*
X657Y646D01*
X672Y646D02*
X678Y646D01*
X737Y646D02*
X742Y646D01*
X760Y646D02*
X765Y646D01*
X803Y646D02*
X809Y646D01*
X824Y646D02*
X829Y646D01*
X891Y646D02*
X897Y646D01*
X911Y646D02*
X918Y646D01*
X936Y646D02*
X941Y646D01*
X953Y646D02*
X958Y646D01*
X982Y646D02*
X987Y646D01*
X1067Y646D02*
X1072Y646D01*
X1110Y646D02*
X1116Y646D01*
X1130Y646D02*
X1139Y646D01*
X1154Y646D02*
X1159Y646D01*
X1218Y646D02*
X1223Y646D01*
X1242Y646D02*
X1247Y646D01*
X1262Y646D02*
X1268Y646D01*
X1286Y646D02*
X1291Y646D01*
X1313Y646D02*
X1318Y646D01*
X1322Y646D02*
X1327Y646D01*
X228Y645D02*
X233Y645D01*
X270Y645D02*
X275Y645D01*
X321Y645D02*
X327Y645D01*
X366Y645D02*
X371Y645D01*
X386Y645D02*
X393Y645D01*
X405Y645D02*
X415Y645D01*
X429Y645D02*
X434Y645D01*
X442Y645D02*
X447Y645D01*
X454Y645D02*
X459Y645D01*
X474Y645D02*
X480Y645D01*
X496Y645D02*
X502Y645D01*
X517Y645D02*
X523Y645D01*
X541Y645D02*
X546Y645D01*
X627Y645D02*
X634Y645D01*
X649Y645D02*
X659Y645D01*
X671Y645D02*
X677Y645D01*
X737Y645D02*
X742Y645D01*
X760Y645D02*
X765Y645D01*
X802Y645D02*
X809Y645D01*
X824Y645D02*
X829Y645D01*
X849Y645D02*
X852Y645D01*
X890Y645D02*
X896Y645D01*
X911Y645D02*
X919Y645D01*
X936Y645D02*
X940Y645D01*
X953Y645D02*
X958Y645D01*
X982Y645D02*
X987Y645D01*
X1067Y645D02*
X1072Y645D01*
X1109Y645D02*
X1115Y645D01*
X1130Y645D02*
X1140Y645D01*
X1153Y645D02*
X1159Y645D01*
X1218Y645D02*
X1223Y645D01*
X1242Y645D02*
X1247Y645D01*
X1262Y645D02*
X1270Y645D01*
X1286Y645D02*
X1291Y645D01*
X1313Y645D02*
X1319Y645D01*
X1321Y645D02*
X1327Y645D01*
X228Y644D02*
X233Y644D01*
X270Y644D02*
X275Y644D01*
X320Y644D02*
X327Y644D01*
X366Y644D02*
X371Y644D01*
X387Y644D02*
X394Y644D01*
X404Y644D02*
X415Y644D01*
X429Y644D02*
X434Y644D01*
X442Y644D02*
X447Y644D01*
X454Y644D02*
X459Y644D01*
X474Y644D02*
X481Y644D01*
X495Y644D02*
X502Y644D01*
X517Y644D02*
X523Y644D01*
X541Y644D02*
X546Y644D01*
X626Y644D02*
X633Y644D01*
X649Y644D02*
X660Y644D01*
X670Y644D02*
X677Y644D01*
X737Y644D02*
X742Y644D01*
X760Y644D02*
X765Y644D01*
X801Y644D02*
X808Y644D01*
X824Y644D02*
X830Y644D01*
X848Y644D02*
X853Y644D01*
X889Y644D02*
X896Y644D01*
X911Y644D02*
X921Y644D01*
X935Y644D02*
X940Y644D01*
X953Y644D02*
X958Y644D01*
X982Y644D02*
X987Y644D01*
X1067Y644D02*
X1072Y644D01*
X1108Y644D02*
X1115Y644D01*
X1130Y644D02*
X1141Y644D01*
X1152Y644D02*
X1159Y644D01*
X1218Y644D02*
X1223Y644D01*
X1242Y644D02*
X1247Y644D01*
X1262Y644D02*
X1271Y644D01*
X1286Y644D02*
X1291Y644D01*
X1313Y644D02*
X1319Y644D01*
X1321Y644D02*
X1327Y644D01*
X228Y643D02*
X233Y643D01*
X270Y643D02*
X275Y643D01*
X317Y643D02*
X326Y643D01*
X366Y643D02*
X371Y643D01*
X387Y643D02*
X396Y643D01*
X402Y643D02*
X415Y643D01*
X429Y643D02*
X434Y643D01*
X442Y643D02*
X447Y643D01*
X454Y643D02*
X459Y643D01*
X475Y643D02*
X484Y643D01*
X492Y643D02*
X501Y643D01*
X517Y643D02*
X523Y643D01*
X539Y643D02*
X546Y643D01*
X624Y643D02*
X633Y643D01*
X649Y643D02*
X662Y643D01*
X668Y643D02*
X676Y643D01*
X737Y643D02*
X742Y643D01*
X760Y643D02*
X765Y643D01*
X799Y643D02*
X808Y643D01*
X824Y643D02*
X832Y643D01*
X846Y643D02*
X853Y643D01*
X886Y643D02*
X895Y643D01*
X911Y643D02*
X922Y643D01*
X934Y643D02*
X940Y643D01*
X953Y643D02*
X958Y643D01*
X982Y643D02*
X987Y643D01*
X1067Y643D02*
X1072Y643D01*
X1105Y643D02*
X1114Y643D01*
X1130Y643D02*
X1144Y643D01*
X1149Y643D02*
X1158Y643D01*
X1218Y643D02*
X1223Y643D01*
X1242Y643D02*
X1247Y643D01*
X1262Y643D02*
X1273Y643D01*
X1284Y643D02*
X1290Y643D01*
X1314Y643D02*
X1326Y643D01*
X228Y642D02*
X233Y642D01*
X270Y642D02*
X275Y642D01*
X299Y642D02*
X325Y642D01*
X366Y642D02*
X371Y642D01*
X388Y642D02*
X415Y642D01*
X429Y642D02*
X434Y642D01*
X442Y642D02*
X447Y642D01*
X454Y642D02*
X459Y642D01*
X476Y642D02*
X501Y642D01*
X518Y642D02*
X546Y642D01*
X606Y642D02*
X632Y642D01*
X649Y642D02*
X676Y642D01*
X737Y642D02*
X742Y642D01*
X760Y642D02*
X765Y642D01*
X781Y642D02*
X807Y642D01*
X825Y642D02*
X853Y642D01*
X869Y642D02*
X895Y642D01*
X911Y642D02*
X940Y642D01*
X953Y642D02*
X958Y642D01*
X982Y642D02*
X987Y642D01*
X1067Y642D02*
X1072Y642D01*
X1087Y642D02*
X1114Y642D01*
X1130Y642D02*
X1157Y642D01*
X1218Y642D02*
X1223Y642D01*
X1242Y642D02*
X1247Y642D01*
X1262Y642D02*
X1290Y642D01*
X1314Y642D02*
X1326Y642D01*
X228Y641D02*
X233Y641D01*
X270Y641D02*
X275Y641D01*
X299Y641D02*
X324Y641D01*
X366Y641D02*
X371Y641D01*
X389Y641D02*
X415Y641D01*
X429Y641D02*
X434Y641D01*
X442Y641D02*
X447Y641D01*
X454Y641D02*
X459Y641D01*
X477Y641D02*
X500Y641D01*
X518Y641D02*
X545Y641D01*
X605Y641D02*
X631Y641D01*
X649Y641D02*
X675Y641D01*
X737Y641D02*
X742Y641D01*
X760Y641D02*
X765Y641D01*
X780Y641D02*
X806Y641D01*
X825Y641D02*
X852Y641D01*
X868Y641D02*
X894Y641D01*
X911Y641D02*
X939Y641D01*
X953Y641D02*
X958Y641D01*
X982Y641D02*
X987Y641D01*
X1067Y641D02*
X1072Y641D01*
X1087Y641D02*
X1113Y641D01*
X1130Y641D02*
X1156Y641D01*
X1218Y641D02*
X1223Y641D01*
X1242Y641D02*
X1247Y641D01*
X1262Y641D02*
X1289Y641D01*
X1315Y641D02*
X1325Y641D01*
X228Y640D02*
X233Y640D01*
X270Y640D02*
X275Y640D01*
X298Y640D02*
X323Y640D01*
X366Y640D02*
X371Y640D01*
X390Y640D02*
X408Y640D01*
X410Y640D02*
X415Y640D01*
X429Y640D02*
X434Y640D01*
X442Y640D02*
X447Y640D01*
X454Y640D02*
X459Y640D01*
X478Y640D02*
X498Y640D01*
X519Y640D02*
X545Y640D01*
X605Y640D02*
X630Y640D01*
X649Y640D02*
X654Y640D01*
X656Y640D02*
X674Y640D01*
X737Y640D02*
X742Y640D01*
X760Y640D02*
X765Y640D01*
X780Y640D02*
X805Y640D01*
X826Y640D02*
X852Y640D01*
X868Y640D02*
X892Y640D01*
X911Y640D02*
X938Y640D01*
X953Y640D02*
X958Y640D01*
X982Y640D02*
X987Y640D01*
X1067Y640D02*
X1072Y640D01*
X1087Y640D02*
X1111Y640D01*
X1130Y640D02*
X1135Y640D01*
X1137Y640D02*
X1155Y640D01*
X1218Y640D02*
X1223Y640D01*
X1242Y640D02*
X1247Y640D01*
X1262Y640D02*
X1289Y640D01*
X1315Y640D02*
X1325Y640D01*
X228Y639D02*
X233Y639D01*
X270Y639D02*
X275Y639D01*
X299Y639D02*
X322Y639D01*
X366Y639D02*
X371Y639D01*
X392Y639D02*
X407Y639D01*
X410Y639D02*
X415Y639D01*
X429Y639D02*
X434Y639D01*
X442Y639D02*
X447Y639D01*
X454Y639D02*
X459Y639D01*
X479Y639D02*
X497Y639D01*
X519Y639D02*
X544Y639D01*
X605Y639D02*
X628Y639D01*
X649Y639D02*
X654Y639D01*
X657Y639D02*
X672Y639D01*
X737Y639D02*
X742Y639D01*
X760Y639D02*
X765Y639D01*
X780Y639D02*
X804Y639D01*
X827Y639D02*
X850Y639D01*
X868Y639D02*
X891Y639D01*
X912Y639D02*
X916Y639D01*
X919Y639D02*
X937Y639D01*
X953Y639D02*
X958Y639D01*
X982Y639D02*
X987Y639D01*
X1067Y639D02*
X1072Y639D01*
X1087Y639D02*
X1110Y639D01*
X1131Y639D02*
X1135Y639D01*
X1139Y639D02*
X1154Y639D01*
X1219Y639D02*
X1223Y639D01*
X1242Y639D02*
X1246Y639D01*
X1262Y639D02*
X1266Y639D01*
X1269Y639D02*
X1288Y639D01*
X1316Y639D02*
X1324Y639D01*
X229Y638D02*
X233Y638D01*
X271Y638D02*
X275Y638D01*
X299Y638D02*
X321Y638D01*
X367Y638D02*
X371Y638D01*
X393Y638D02*
X405Y638D01*
X411Y638D02*
X414Y638D01*
X430Y638D02*
X434Y638D01*
X443Y638D02*
X446Y638D01*
X455Y638D02*
X459Y638D01*
X481Y638D02*
X496Y638D01*
X521Y638D02*
X542Y638D01*
X606Y638D02*
X627Y638D01*
X649Y638D02*
X653Y638D01*
X659Y638D02*
X671Y638D01*
X737Y638D02*
X741Y638D01*
X761Y638D02*
X764Y638D01*
X781Y638D02*
X802Y638D01*
X829Y638D02*
X848Y638D01*
X868Y638D02*
X890Y638D01*
X912Y638D02*
X916Y638D01*
X920Y638D02*
X936Y638D01*
X953Y638D02*
X957Y638D01*
X983Y638D02*
X986Y638D01*
X1068Y638D02*
X1071Y638D01*
X1087Y638D02*
X1109Y638D01*
X1131Y638D02*
X1135Y638D01*
X1140Y638D02*
X1153Y638D01*
X1219Y638D02*
X1223Y638D01*
X1242Y638D02*
X1246Y638D01*
X1262Y638D02*
X1266Y638D01*
X1271Y638D02*
X1286Y638D01*
X1316Y638D02*
X1324Y638D01*
X230Y637D02*
X231Y637D01*
X273Y637D02*
X273Y637D01*
X301Y637D02*
X317Y637D01*
X369Y637D02*
X369Y637D01*
X396Y637D02*
X402Y637D01*
X412Y637D02*
X413Y637D01*
X431Y637D02*
X432Y637D01*
X444Y637D02*
X445Y637D01*
X457Y637D02*
X457Y637D01*
X483Y637D02*
X492Y637D01*
X523Y637D02*
X540Y637D01*
X607Y637D02*
X624Y637D01*
X651Y637D02*
X651Y637D01*
X662Y637D02*
X668Y637D01*
X739Y637D02*
X740Y637D01*
X762Y637D02*
X763Y637D01*
X782Y637D02*
X799Y637D01*
X832Y637D02*
X845Y637D01*
X870Y637D02*
X887Y637D01*
X914Y637D02*
X914Y637D01*
X923Y637D02*
X933Y637D01*
X955Y637D02*
X955Y637D01*
X984Y637D02*
X985Y637D01*
X1069Y637D02*
X1070Y637D01*
X1089Y637D02*
X1106Y637D01*
X1133Y637D02*
X1133Y637D01*
X1144Y637D02*
X1149Y637D01*
X1221Y637D02*
X1221Y637D01*
X1244Y637D02*
X1244Y637D01*
X1264Y637D02*
X1264Y637D01*
X1273Y637D02*
X1283Y637D01*
X1318Y637D02*
X1322Y637D01*
X1172Y581D02*
X1194Y581D01*
X1217Y581D02*
X1241Y581D01*
X1261Y581D02*
X1282Y581D01*
X1305Y581D02*
X1328Y581D01*
X1171Y580D02*
X1194Y580D01*
X1215Y580D02*
X1242Y580D01*
X1259Y580D02*
X1284Y580D01*
X1303Y580D02*
X1329Y580D01*
X1171Y579D02*
X1194Y579D01*
X1214Y579D02*
X1242Y579D01*
X1258Y579D02*
X1285Y579D01*
X1302Y579D02*
X1330Y579D01*
X1171Y578D02*
X1194Y578D01*
X1214Y578D02*
X1242Y578D01*
X1258Y578D02*
X1285Y578D01*
X1301Y578D02*
X1330Y578D01*
X1171Y577D02*
X1194Y577D01*
X1213Y577D02*
X1242Y577D01*
X1257Y577D02*
X1286Y577D01*
X1301Y577D02*
X1329Y577D01*
X1172Y576D02*
X1194Y576D01*
X1213Y576D02*
X1241Y576D01*
X1257Y576D02*
X1286Y576D01*
X1301Y576D02*
X1329Y576D01*
X1189Y575D02*
X1194Y575D01*
X1213Y575D02*
X1218Y575D01*
X1257Y575D02*
X1262Y575D01*
X1281Y575D02*
X1286Y575D01*
X1301Y575D02*
X1306Y575D01*
X1189Y574D02*
X1194Y574D01*
X1213Y574D02*
X1218Y574D01*
X1257Y574D02*
X1262Y574D01*
X1281Y574D02*
X1286Y574D01*
X1301Y574D02*
X1306Y574D01*
X1189Y573D02*
X1194Y573D01*
X1213Y573D02*
X1218Y573D01*
X1257Y573D02*
X1262Y573D01*
X1281Y573D02*
X1286Y573D01*
X1301Y573D02*
X1306Y573D01*
X1189Y572D02*
X1194Y572D01*
X1213Y572D02*
X1218Y572D01*
X1257Y572D02*
X1262Y572D01*
X1281Y572D02*
X1286Y572D01*
X1301Y572D02*
X1306Y572D01*
X1189Y571D02*
X1194Y571D01*
X1213Y571D02*
X1218Y571D01*
X1257Y571D02*
X1262Y571D01*
X1281Y571D02*
X1286Y571D01*
X1301Y571D02*
X1306Y571D01*
X1189Y570D02*
X1194Y570D01*
X1213Y570D02*
X1218Y570D01*
X1257Y570D02*
X1262Y570D01*
X1281Y570D02*
X1286Y570D01*
X1301Y570D02*
X1306Y570D01*
X1189Y569D02*
X1194Y569D01*
X1213Y569D02*
X1218Y569D01*
X1257Y569D02*
X1262Y569D01*
X1281Y569D02*
X1286Y569D01*
X1301Y569D02*
X1306Y569D01*
X1189Y568D02*
X1194Y568D01*
X1213Y568D02*
X1218Y568D01*
X1257Y568D02*
X1262Y568D01*
X1281Y568D02*
X1286Y568D01*
X1301Y568D02*
X1306Y568D01*
X1189Y567D02*
X1194Y567D01*
X1213Y567D02*
X1218Y567D01*
X1257Y567D02*
X1262Y567D01*
X1281Y567D02*
X1286Y567D01*
X1301Y567D02*
X1306Y567D01*
X1189Y566D02*
X1194Y566D01*
X1213Y566D02*
X1218Y566D01*
X1257Y566D02*
X1262Y566D01*
X1281Y566D02*
X1286Y566D01*
X1301Y566D02*
X1306Y566D01*
X1189Y565D02*
X1194Y565D01*
X1213Y565D02*
X1218Y565D01*
X1257Y565D02*
X1262Y565D01*
X1281Y565D02*
X1286Y565D01*
X1301Y565D02*
X1306Y565D01*
X1189Y564D02*
X1194Y564D01*
X1213Y564D02*
X1218Y564D01*
X1257Y564D02*
X1262Y564D01*
X1281Y564D02*
X1286Y564D01*
X1301Y564D02*
X1306Y564D01*
X1189Y563D02*
X1194Y563D01*
X1213Y563D02*
X1218Y563D01*
X1257Y563D02*
X1262Y563D01*
X1281Y563D02*
X1286Y563D01*
X1301Y563D02*
X1306Y563D01*
X1189Y562D02*
X1194Y562D01*
X1213Y562D02*
X1218Y562D01*
X1257Y562D02*
X1262Y562D01*
X1281Y562D02*
X1286Y562D01*
X1301Y562D02*
X1306Y562D01*
X1177Y561D02*
X1194Y561D01*
X1213Y561D02*
X1219Y561D01*
X1257Y561D02*
X1262Y561D01*
X1281Y561D02*
X1286Y561D01*
X1301Y561D02*
X1306Y561D01*
X1174Y560D02*
X1194Y560D01*
X1213Y560D02*
X1239Y560D01*
X1257Y560D02*
X1262Y560D01*
X1281Y560D02*
X1286Y560D01*
X1301Y560D02*
X1327Y560D01*
X1172Y559D02*
X1194Y559D01*
X1213Y559D02*
X1241Y559D01*
X1257Y559D02*
X1262Y559D01*
X1281Y559D02*
X1286Y559D01*
X1301Y559D02*
X1328Y559D01*
X1172Y558D02*
X1194Y558D01*
X1214Y558D02*
X1241Y558D01*
X1257Y558D02*
X1262Y558D01*
X1281Y558D02*
X1286Y558D01*
X1302Y558D02*
X1329Y558D01*
X1171Y557D02*
X1194Y557D01*
X1215Y557D02*
X1242Y557D01*
X1257Y557D02*
X1262Y557D01*
X1281Y557D02*
X1286Y557D01*
X1302Y557D02*
X1329Y557D01*
X1171Y556D02*
X1194Y556D01*
X1216Y556D02*
X1242Y556D01*
X1257Y556D02*
X1262Y556D01*
X1281Y556D02*
X1286Y556D01*
X1304Y556D02*
X1330Y556D01*
X1171Y555D02*
X1193Y555D01*
X1218Y555D02*
X1242Y555D01*
X1257Y555D02*
X1262Y555D01*
X1281Y555D02*
X1286Y555D01*
X1306Y555D02*
X1330Y555D01*
X1171Y554D02*
X1176Y554D01*
X1237Y554D02*
X1242Y554D01*
X1257Y554D02*
X1262Y554D01*
X1281Y554D02*
X1286Y554D01*
X1325Y554D02*
X1330Y554D01*
X1171Y553D02*
X1176Y553D01*
X1237Y553D02*
X1242Y553D01*
X1257Y553D02*
X1262Y553D01*
X1281Y553D02*
X1286Y553D01*
X1325Y553D02*
X1330Y553D01*
X1171Y552D02*
X1176Y552D01*
X1237Y552D02*
X1242Y552D01*
X1257Y552D02*
X1262Y552D01*
X1281Y552D02*
X1286Y552D01*
X1325Y552D02*
X1330Y552D01*
X1171Y551D02*
X1176Y551D01*
X1237Y551D02*
X1242Y551D01*
X1257Y551D02*
X1262Y551D01*
X1281Y551D02*
X1286Y551D01*
X1325Y551D02*
X1330Y551D01*
X1171Y550D02*
X1176Y550D01*
X1237Y550D02*
X1242Y550D01*
X1257Y550D02*
X1262Y550D01*
X1281Y550D02*
X1286Y550D01*
X1325Y550D02*
X1330Y550D01*
X1171Y549D02*
X1176Y549D01*
X1237Y549D02*
X1242Y549D01*
X1257Y549D02*
X1262Y549D01*
X1281Y549D02*
X1286Y549D01*
X1325Y549D02*
X1330Y549D01*
X1171Y548D02*
X1176Y548D01*
X1237Y548D02*
X1242Y548D01*
X1257Y548D02*
X1262Y548D01*
X1281Y548D02*
X1286Y548D01*
X1325Y548D02*
X1330Y548D01*
X1171Y547D02*
X1176Y547D01*
X1237Y547D02*
X1242Y547D01*
X1257Y547D02*
X1262Y547D01*
X1281Y547D02*
X1286Y547D01*
X1325Y547D02*
X1330Y547D01*
X1171Y546D02*
X1176Y546D01*
X1237Y546D02*
X1242Y546D01*
X1257Y546D02*
X1262Y546D01*
X1281Y546D02*
X1286Y546D01*
X1325Y546D02*
X1330Y546D01*
X1171Y545D02*
X1176Y545D01*
X1237Y545D02*
X1242Y545D01*
X1257Y545D02*
X1262Y545D01*
X1281Y545D02*
X1286Y545D01*
X1325Y545D02*
X1330Y545D01*
X1171Y544D02*
X1176Y544D01*
X1237Y544D02*
X1242Y544D01*
X1257Y544D02*
X1262Y544D01*
X1281Y544D02*
X1286Y544D01*
X1325Y544D02*
X1330Y544D01*
X1171Y543D02*
X1176Y543D01*
X1237Y543D02*
X1242Y543D01*
X1257Y543D02*
X1262Y543D01*
X1281Y543D02*
X1286Y543D01*
X1325Y543D02*
X1330Y543D01*
X1171Y542D02*
X1176Y542D01*
X1194Y542D02*
X1195Y542D01*
X1237Y542D02*
X1242Y542D01*
X1257Y542D02*
X1262Y542D01*
X1281Y542D02*
X1286Y542D01*
X1325Y542D02*
X1330Y542D01*
X1171Y541D02*
X1176Y541D01*
X1192Y541D02*
X1197Y541D01*
X1237Y541D02*
X1242Y541D01*
X1257Y541D02*
X1262Y541D01*
X1281Y541D02*
X1286Y541D01*
X1325Y541D02*
X1330Y541D01*
X1171Y540D02*
X1197Y540D01*
X1215Y540D02*
X1242Y540D01*
X1257Y540D02*
X1286Y540D01*
X1302Y540D02*
X1330Y540D01*
X1171Y539D02*
X1197Y539D01*
X1214Y539D02*
X1242Y539D01*
X1257Y539D02*
X1286Y539D01*
X1301Y539D02*
X1330Y539D01*
X1171Y538D02*
X1197Y538D01*
X1213Y538D02*
X1242Y538D01*
X1258Y538D02*
X1286Y538D01*
X1301Y538D02*
X1330Y538D01*
X1172Y537D02*
X1196Y537D01*
X1213Y537D02*
X1242Y537D01*
X1258Y537D02*
X1285Y537D01*
X1301Y537D02*
X1330Y537D01*
X1173Y536D02*
X1195Y536D01*
X1214Y536D02*
X1242Y536D01*
X1259Y536D02*
X1284Y536D01*
X1301Y536D02*
X1330Y536D01*
X1174Y535D02*
X1193Y535D01*
X1214Y535D02*
X1242Y535D01*
X1260Y535D02*
X1283Y535D01*
X1302Y535D02*
X1330Y535D01*
D02*
G04 End of Silk0*
M02*