G04 MADE WITH FRITZING*
G04 WWW.FRITZING.ORG*
G04 DOUBLE SIDED*
G04 HOLES PLATED*
G04 CONTOUR ON CENTER OF CONTOUR VECTOR*
%ASAXBY*%
%FSLAX23Y23*%
%MOIN*%
%OFA0B0*%
%SFA1.0B1.0*%
%ADD10C,0.010000*%
%ADD11C,0.005000*%
%ADD12R,0.001000X0.001000*%
%LNSILK1*%
G90*
G70*
G54D10*
X1507Y1351D02*
X357Y1351D01*
D02*
X357Y1351D02*
X357Y1251D01*
D02*
X357Y1251D02*
X1507Y1251D01*
D02*
X1507Y1251D02*
X1507Y1351D01*
D02*
X1532Y1021D02*
X32Y1021D01*
D02*
X32Y1021D02*
X32Y321D01*
D02*
X32Y321D02*
X1532Y321D01*
D02*
X1532Y1021D02*
X1532Y721D01*
D02*
X1532Y621D02*
X1532Y321D01*
D02*
X1413Y156D02*
X1213Y156D01*
D02*
X1213Y156D02*
X1213Y56D01*
D02*
X1213Y56D02*
X1413Y56D01*
D02*
X1413Y56D02*
X1413Y156D01*
G54D11*
D02*
X1378Y156D02*
X1413Y121D01*
G54D10*
D02*
X1126Y156D02*
X926Y156D01*
D02*
X926Y156D02*
X926Y56D01*
D02*
X926Y56D02*
X1126Y56D01*
D02*
X1126Y56D02*
X1126Y156D01*
G54D11*
D02*
X1091Y156D02*
X1126Y121D01*
G54D10*
D02*
X230Y1347D02*
X30Y1347D01*
D02*
X30Y1347D02*
X30Y1247D01*
D02*
X30Y1247D02*
X230Y1247D01*
D02*
X230Y1247D02*
X230Y1347D01*
D02*
X228Y1202D02*
X28Y1202D01*
D02*
X28Y1202D02*
X28Y1102D01*
D02*
X28Y1102D02*
X228Y1102D01*
D02*
X228Y1102D02*
X228Y1202D01*
G54D11*
D02*
X193Y1202D02*
X228Y1167D01*
G54D12*
X1Y1437D02*
X1582Y1437D01*
X1Y1436D02*
X1582Y1436D01*
X1Y1435D02*
X1582Y1435D01*
X1Y1434D02*
X1582Y1434D01*
X1Y1433D02*
X1582Y1433D01*
X1Y1432D02*
X1582Y1432D01*
X1Y1431D02*
X1582Y1431D01*
X1Y1430D02*
X1582Y1430D01*
X1Y1429D02*
X8Y1429D01*
X1575Y1429D02*
X1582Y1429D01*
X1Y1428D02*
X8Y1428D01*
X1575Y1428D02*
X1582Y1428D01*
X1Y1427D02*
X8Y1427D01*
X1575Y1427D02*
X1582Y1427D01*
X1Y1426D02*
X8Y1426D01*
X1575Y1426D02*
X1582Y1426D01*
X1Y1425D02*
X8Y1425D01*
X1575Y1425D02*
X1582Y1425D01*
X1Y1424D02*
X8Y1424D01*
X1575Y1424D02*
X1582Y1424D01*
X1Y1423D02*
X8Y1423D01*
X1575Y1423D02*
X1582Y1423D01*
X1Y1422D02*
X8Y1422D01*
X1575Y1422D02*
X1582Y1422D01*
X1Y1421D02*
X8Y1421D01*
X1575Y1421D02*
X1582Y1421D01*
X1Y1420D02*
X8Y1420D01*
X1575Y1420D02*
X1582Y1420D01*
X1Y1419D02*
X8Y1419D01*
X1575Y1419D02*
X1582Y1419D01*
X1Y1418D02*
X8Y1418D01*
X1575Y1418D02*
X1582Y1418D01*
X1Y1417D02*
X8Y1417D01*
X1575Y1417D02*
X1582Y1417D01*
X1Y1416D02*
X8Y1416D01*
X1575Y1416D02*
X1582Y1416D01*
X1Y1415D02*
X8Y1415D01*
X1575Y1415D02*
X1582Y1415D01*
X1Y1414D02*
X8Y1414D01*
X1575Y1414D02*
X1582Y1414D01*
X1Y1413D02*
X8Y1413D01*
X1575Y1413D02*
X1582Y1413D01*
X1Y1412D02*
X8Y1412D01*
X1575Y1412D02*
X1582Y1412D01*
X1Y1411D02*
X8Y1411D01*
X1575Y1411D02*
X1582Y1411D01*
X1Y1410D02*
X8Y1410D01*
X1575Y1410D02*
X1582Y1410D01*
X1Y1409D02*
X8Y1409D01*
X1575Y1409D02*
X1582Y1409D01*
X1Y1408D02*
X8Y1408D01*
X1575Y1408D02*
X1582Y1408D01*
X1Y1407D02*
X8Y1407D01*
X1575Y1407D02*
X1582Y1407D01*
X1Y1406D02*
X8Y1406D01*
X1575Y1406D02*
X1582Y1406D01*
X1Y1405D02*
X8Y1405D01*
X1575Y1405D02*
X1582Y1405D01*
X1Y1404D02*
X8Y1404D01*
X1575Y1404D02*
X1582Y1404D01*
X1Y1403D02*
X8Y1403D01*
X1575Y1403D02*
X1582Y1403D01*
X1Y1402D02*
X8Y1402D01*
X1575Y1402D02*
X1582Y1402D01*
X1Y1401D02*
X8Y1401D01*
X1575Y1401D02*
X1582Y1401D01*
X1Y1400D02*
X8Y1400D01*
X1575Y1400D02*
X1582Y1400D01*
X1Y1399D02*
X8Y1399D01*
X1575Y1399D02*
X1582Y1399D01*
X1Y1398D02*
X8Y1398D01*
X1575Y1398D02*
X1582Y1398D01*
X1Y1397D02*
X8Y1397D01*
X1575Y1397D02*
X1582Y1397D01*
X1Y1396D02*
X8Y1396D01*
X1575Y1396D02*
X1582Y1396D01*
X1Y1395D02*
X8Y1395D01*
X1575Y1395D02*
X1582Y1395D01*
X1Y1394D02*
X8Y1394D01*
X1575Y1394D02*
X1582Y1394D01*
X1Y1393D02*
X8Y1393D01*
X1575Y1393D02*
X1582Y1393D01*
X1Y1392D02*
X8Y1392D01*
X1575Y1392D02*
X1582Y1392D01*
X1Y1391D02*
X8Y1391D01*
X1575Y1391D02*
X1582Y1391D01*
X1Y1390D02*
X8Y1390D01*
X1575Y1390D02*
X1582Y1390D01*
X1Y1389D02*
X8Y1389D01*
X1575Y1389D02*
X1582Y1389D01*
X1Y1388D02*
X8Y1388D01*
X1575Y1388D02*
X1582Y1388D01*
X1Y1387D02*
X8Y1387D01*
X1575Y1387D02*
X1582Y1387D01*
X1Y1386D02*
X8Y1386D01*
X1575Y1386D02*
X1582Y1386D01*
X1Y1385D02*
X8Y1385D01*
X1575Y1385D02*
X1582Y1385D01*
X1Y1384D02*
X8Y1384D01*
X1575Y1384D02*
X1582Y1384D01*
X1Y1383D02*
X8Y1383D01*
X1575Y1383D02*
X1582Y1383D01*
X1Y1382D02*
X8Y1382D01*
X1575Y1382D02*
X1582Y1382D01*
X1Y1381D02*
X8Y1381D01*
X1575Y1381D02*
X1582Y1381D01*
X1Y1380D02*
X8Y1380D01*
X1575Y1380D02*
X1582Y1380D01*
X1Y1379D02*
X8Y1379D01*
X1575Y1379D02*
X1582Y1379D01*
X1Y1378D02*
X8Y1378D01*
X1575Y1378D02*
X1582Y1378D01*
X1Y1377D02*
X8Y1377D01*
X1575Y1377D02*
X1582Y1377D01*
X1Y1376D02*
X8Y1376D01*
X1575Y1376D02*
X1582Y1376D01*
X1Y1375D02*
X8Y1375D01*
X1575Y1375D02*
X1582Y1375D01*
X1Y1374D02*
X8Y1374D01*
X1575Y1374D02*
X1582Y1374D01*
X1Y1373D02*
X8Y1373D01*
X1575Y1373D02*
X1582Y1373D01*
X1Y1372D02*
X8Y1372D01*
X1575Y1372D02*
X1582Y1372D01*
X1Y1371D02*
X8Y1371D01*
X1575Y1371D02*
X1582Y1371D01*
X1Y1370D02*
X8Y1370D01*
X1575Y1370D02*
X1582Y1370D01*
X1Y1369D02*
X8Y1369D01*
X1575Y1369D02*
X1582Y1369D01*
X1Y1368D02*
X8Y1368D01*
X1575Y1368D02*
X1582Y1368D01*
X1Y1367D02*
X8Y1367D01*
X1575Y1367D02*
X1582Y1367D01*
X1Y1366D02*
X8Y1366D01*
X1575Y1366D02*
X1582Y1366D01*
X1Y1365D02*
X8Y1365D01*
X1575Y1365D02*
X1582Y1365D01*
X1Y1364D02*
X8Y1364D01*
X1575Y1364D02*
X1582Y1364D01*
X1Y1363D02*
X8Y1363D01*
X1575Y1363D02*
X1582Y1363D01*
X1Y1362D02*
X8Y1362D01*
X1575Y1362D02*
X1582Y1362D01*
X1Y1361D02*
X8Y1361D01*
X1575Y1361D02*
X1582Y1361D01*
X1Y1360D02*
X8Y1360D01*
X1575Y1360D02*
X1582Y1360D01*
X1Y1359D02*
X8Y1359D01*
X1575Y1359D02*
X1582Y1359D01*
X1Y1358D02*
X8Y1358D01*
X1575Y1358D02*
X1582Y1358D01*
X1Y1357D02*
X8Y1357D01*
X1575Y1357D02*
X1582Y1357D01*
X1Y1356D02*
X8Y1356D01*
X1575Y1356D02*
X1582Y1356D01*
X1Y1355D02*
X8Y1355D01*
X1575Y1355D02*
X1582Y1355D01*
X1Y1354D02*
X8Y1354D01*
X1575Y1354D02*
X1582Y1354D01*
X1Y1353D02*
X8Y1353D01*
X1575Y1353D02*
X1582Y1353D01*
X1Y1352D02*
X8Y1352D01*
X1474Y1352D02*
X1474Y1352D01*
X1575Y1352D02*
X1582Y1352D01*
X1Y1351D02*
X8Y1351D01*
X1473Y1351D02*
X1475Y1351D01*
X1575Y1351D02*
X1582Y1351D01*
X1Y1350D02*
X8Y1350D01*
X1472Y1350D02*
X1476Y1350D01*
X1575Y1350D02*
X1582Y1350D01*
X1Y1349D02*
X8Y1349D01*
X1471Y1349D02*
X1477Y1349D01*
X1575Y1349D02*
X1582Y1349D01*
X1Y1348D02*
X8Y1348D01*
X1472Y1348D02*
X1478Y1348D01*
X1575Y1348D02*
X1582Y1348D01*
X1Y1347D02*
X8Y1347D01*
X197Y1347D02*
X199Y1347D01*
X1473Y1347D02*
X1479Y1347D01*
X1575Y1347D02*
X1582Y1347D01*
X1Y1346D02*
X8Y1346D01*
X196Y1346D02*
X200Y1346D01*
X1474Y1346D02*
X1480Y1346D01*
X1575Y1346D02*
X1582Y1346D01*
X1Y1345D02*
X8Y1345D01*
X195Y1345D02*
X201Y1345D01*
X248Y1345D02*
X300Y1345D01*
X1475Y1345D02*
X1481Y1345D01*
X1575Y1345D02*
X1582Y1345D01*
X1Y1344D02*
X8Y1344D01*
X195Y1344D02*
X202Y1344D01*
X248Y1344D02*
X300Y1344D01*
X1476Y1344D02*
X1482Y1344D01*
X1575Y1344D02*
X1582Y1344D01*
X1Y1343D02*
X8Y1343D01*
X196Y1343D02*
X203Y1343D01*
X248Y1343D02*
X301Y1343D01*
X1477Y1343D02*
X1483Y1343D01*
X1575Y1343D02*
X1582Y1343D01*
X1Y1342D02*
X8Y1342D01*
X197Y1342D02*
X204Y1342D01*
X248Y1342D02*
X301Y1342D01*
X1478Y1342D02*
X1484Y1342D01*
X1575Y1342D02*
X1582Y1342D01*
X1Y1341D02*
X8Y1341D01*
X198Y1341D02*
X205Y1341D01*
X248Y1341D02*
X301Y1341D01*
X1479Y1341D02*
X1485Y1341D01*
X1575Y1341D02*
X1582Y1341D01*
X1Y1340D02*
X8Y1340D01*
X199Y1340D02*
X206Y1340D01*
X248Y1340D02*
X300Y1340D01*
X1480Y1340D02*
X1486Y1340D01*
X1575Y1340D02*
X1582Y1340D01*
X1Y1339D02*
X8Y1339D01*
X200Y1339D02*
X207Y1339D01*
X248Y1339D02*
X299Y1339D01*
X1481Y1339D02*
X1487Y1339D01*
X1575Y1339D02*
X1582Y1339D01*
X1Y1338D02*
X8Y1338D01*
X201Y1338D02*
X208Y1338D01*
X248Y1338D02*
X254Y1338D01*
X1482Y1338D02*
X1488Y1338D01*
X1575Y1338D02*
X1582Y1338D01*
X1Y1337D02*
X8Y1337D01*
X202Y1337D02*
X209Y1337D01*
X248Y1337D02*
X254Y1337D01*
X1483Y1337D02*
X1489Y1337D01*
X1575Y1337D02*
X1582Y1337D01*
X1Y1336D02*
X8Y1336D01*
X203Y1336D02*
X210Y1336D01*
X248Y1336D02*
X254Y1336D01*
X1484Y1336D02*
X1490Y1336D01*
X1575Y1336D02*
X1582Y1336D01*
X1Y1335D02*
X8Y1335D01*
X204Y1335D02*
X211Y1335D01*
X248Y1335D02*
X254Y1335D01*
X1486Y1335D02*
X1491Y1335D01*
X1575Y1335D02*
X1582Y1335D01*
X1Y1334D02*
X8Y1334D01*
X205Y1334D02*
X212Y1334D01*
X248Y1334D02*
X254Y1334D01*
X1487Y1334D02*
X1492Y1334D01*
X1575Y1334D02*
X1582Y1334D01*
X1Y1333D02*
X8Y1333D01*
X206Y1333D02*
X213Y1333D01*
X248Y1333D02*
X254Y1333D01*
X1488Y1333D02*
X1493Y1333D01*
X1575Y1333D02*
X1582Y1333D01*
X1Y1332D02*
X8Y1332D01*
X207Y1332D02*
X214Y1332D01*
X248Y1332D02*
X254Y1332D01*
X1489Y1332D02*
X1494Y1332D01*
X1575Y1332D02*
X1582Y1332D01*
X1Y1331D02*
X8Y1331D01*
X209Y1331D02*
X215Y1331D01*
X248Y1331D02*
X254Y1331D01*
X1490Y1331D02*
X1495Y1331D01*
X1575Y1331D02*
X1582Y1331D01*
X1Y1330D02*
X8Y1330D01*
X210Y1330D02*
X216Y1330D01*
X248Y1330D02*
X254Y1330D01*
X1491Y1330D02*
X1496Y1330D01*
X1575Y1330D02*
X1582Y1330D01*
X1Y1329D02*
X8Y1329D01*
X211Y1329D02*
X217Y1329D01*
X248Y1329D02*
X254Y1329D01*
X1492Y1329D02*
X1497Y1329D01*
X1575Y1329D02*
X1582Y1329D01*
X1Y1328D02*
X8Y1328D01*
X212Y1328D02*
X218Y1328D01*
X248Y1328D02*
X254Y1328D01*
X1492Y1328D02*
X1498Y1328D01*
X1575Y1328D02*
X1582Y1328D01*
X1Y1327D02*
X8Y1327D01*
X213Y1327D02*
X219Y1327D01*
X248Y1327D02*
X254Y1327D01*
X1493Y1327D02*
X1499Y1327D01*
X1575Y1327D02*
X1582Y1327D01*
X1Y1326D02*
X8Y1326D01*
X214Y1326D02*
X220Y1326D01*
X248Y1326D02*
X254Y1326D01*
X1494Y1326D02*
X1500Y1326D01*
X1575Y1326D02*
X1582Y1326D01*
X1Y1325D02*
X8Y1325D01*
X215Y1325D02*
X221Y1325D01*
X248Y1325D02*
X254Y1325D01*
X1495Y1325D02*
X1501Y1325D01*
X1575Y1325D02*
X1582Y1325D01*
X1Y1324D02*
X8Y1324D01*
X216Y1324D02*
X222Y1324D01*
X248Y1324D02*
X254Y1324D01*
X1496Y1324D02*
X1502Y1324D01*
X1575Y1324D02*
X1582Y1324D01*
X1Y1323D02*
X8Y1323D01*
X216Y1323D02*
X223Y1323D01*
X248Y1323D02*
X254Y1323D01*
X1497Y1323D02*
X1503Y1323D01*
X1575Y1323D02*
X1582Y1323D01*
X1Y1322D02*
X8Y1322D01*
X217Y1322D02*
X224Y1322D01*
X248Y1322D02*
X254Y1322D01*
X1498Y1322D02*
X1504Y1322D01*
X1575Y1322D02*
X1582Y1322D01*
X1Y1321D02*
X8Y1321D01*
X218Y1321D02*
X225Y1321D01*
X248Y1321D02*
X254Y1321D01*
X1499Y1321D02*
X1505Y1321D01*
X1575Y1321D02*
X1582Y1321D01*
X1Y1320D02*
X8Y1320D01*
X219Y1320D02*
X226Y1320D01*
X248Y1320D02*
X254Y1320D01*
X1500Y1320D02*
X1506Y1320D01*
X1575Y1320D02*
X1582Y1320D01*
X1Y1319D02*
X8Y1319D01*
X220Y1319D02*
X227Y1319D01*
X248Y1319D02*
X254Y1319D01*
X1501Y1319D02*
X1507Y1319D01*
X1575Y1319D02*
X1582Y1319D01*
X1Y1318D02*
X8Y1318D01*
X221Y1318D02*
X228Y1318D01*
X248Y1318D02*
X254Y1318D01*
X1502Y1318D02*
X1508Y1318D01*
X1575Y1318D02*
X1582Y1318D01*
X1Y1317D02*
X8Y1317D01*
X222Y1317D02*
X229Y1317D01*
X248Y1317D02*
X254Y1317D01*
X1503Y1317D02*
X1508Y1317D01*
X1575Y1317D02*
X1582Y1317D01*
X1Y1316D02*
X8Y1316D01*
X223Y1316D02*
X230Y1316D01*
X248Y1316D02*
X254Y1316D01*
X1504Y1316D02*
X1507Y1316D01*
X1575Y1316D02*
X1582Y1316D01*
X1Y1315D02*
X8Y1315D01*
X224Y1315D02*
X231Y1315D01*
X248Y1315D02*
X254Y1315D01*
X1505Y1315D02*
X1506Y1315D01*
X1575Y1315D02*
X1582Y1315D01*
X1Y1314D02*
X8Y1314D01*
X225Y1314D02*
X232Y1314D01*
X248Y1314D02*
X254Y1314D01*
X1575Y1314D02*
X1582Y1314D01*
X1Y1313D02*
X8Y1313D01*
X226Y1313D02*
X232Y1313D01*
X248Y1313D02*
X253Y1313D01*
X1575Y1313D02*
X1582Y1313D01*
X1Y1312D02*
X8Y1312D01*
X227Y1312D02*
X231Y1312D01*
X249Y1312D02*
X252Y1312D01*
X1575Y1312D02*
X1582Y1312D01*
X1Y1311D02*
X8Y1311D01*
X228Y1311D02*
X230Y1311D01*
X1575Y1311D02*
X1582Y1311D01*
X1Y1310D02*
X8Y1310D01*
X1575Y1310D02*
X1582Y1310D01*
X1Y1309D02*
X8Y1309D01*
X1575Y1309D02*
X1582Y1309D01*
X1Y1308D02*
X8Y1308D01*
X1575Y1308D02*
X1582Y1308D01*
X1Y1307D02*
X8Y1307D01*
X1575Y1307D02*
X1582Y1307D01*
X1Y1306D02*
X8Y1306D01*
X1575Y1306D02*
X1582Y1306D01*
X1Y1305D02*
X8Y1305D01*
X1575Y1305D02*
X1582Y1305D01*
X1Y1304D02*
X8Y1304D01*
X1575Y1304D02*
X1582Y1304D01*
X1Y1303D02*
X8Y1303D01*
X1575Y1303D02*
X1582Y1303D01*
X1Y1302D02*
X8Y1302D01*
X1575Y1302D02*
X1582Y1302D01*
X1Y1301D02*
X8Y1301D01*
X1575Y1301D02*
X1582Y1301D01*
X1Y1300D02*
X8Y1300D01*
X1575Y1300D02*
X1582Y1300D01*
X1Y1299D02*
X8Y1299D01*
X1575Y1299D02*
X1582Y1299D01*
X1Y1298D02*
X8Y1298D01*
X1575Y1298D02*
X1582Y1298D01*
X1Y1297D02*
X8Y1297D01*
X1575Y1297D02*
X1582Y1297D01*
X1Y1296D02*
X8Y1296D01*
X1575Y1296D02*
X1582Y1296D01*
X1Y1295D02*
X8Y1295D01*
X249Y1295D02*
X252Y1295D01*
X297Y1295D02*
X299Y1295D01*
X1575Y1295D02*
X1582Y1295D01*
X1Y1294D02*
X8Y1294D01*
X248Y1294D02*
X253Y1294D01*
X296Y1294D02*
X300Y1294D01*
X1575Y1294D02*
X1582Y1294D01*
X1Y1293D02*
X8Y1293D01*
X248Y1293D02*
X254Y1293D01*
X295Y1293D02*
X301Y1293D01*
X1575Y1293D02*
X1582Y1293D01*
X1Y1292D02*
X8Y1292D01*
X248Y1292D02*
X254Y1292D01*
X295Y1292D02*
X301Y1292D01*
X1575Y1292D02*
X1582Y1292D01*
X1Y1291D02*
X8Y1291D01*
X248Y1291D02*
X254Y1291D01*
X295Y1291D02*
X301Y1291D01*
X1575Y1291D02*
X1582Y1291D01*
X1Y1290D02*
X8Y1290D01*
X248Y1290D02*
X254Y1290D01*
X295Y1290D02*
X301Y1290D01*
X1575Y1290D02*
X1582Y1290D01*
X1Y1289D02*
X8Y1289D01*
X248Y1289D02*
X254Y1289D01*
X295Y1289D02*
X301Y1289D01*
X1575Y1289D02*
X1582Y1289D01*
X1Y1288D02*
X8Y1288D01*
X248Y1288D02*
X254Y1288D01*
X295Y1288D02*
X301Y1288D01*
X1575Y1288D02*
X1582Y1288D01*
X1Y1287D02*
X8Y1287D01*
X248Y1287D02*
X254Y1287D01*
X295Y1287D02*
X301Y1287D01*
X1575Y1287D02*
X1582Y1287D01*
X1Y1286D02*
X8Y1286D01*
X248Y1286D02*
X254Y1286D01*
X295Y1286D02*
X301Y1286D01*
X1575Y1286D02*
X1582Y1286D01*
X1Y1285D02*
X8Y1285D01*
X248Y1285D02*
X254Y1285D01*
X295Y1285D02*
X301Y1285D01*
X1575Y1285D02*
X1582Y1285D01*
X1Y1284D02*
X8Y1284D01*
X248Y1284D02*
X254Y1284D01*
X295Y1284D02*
X301Y1284D01*
X1575Y1284D02*
X1582Y1284D01*
X1Y1283D02*
X8Y1283D01*
X248Y1283D02*
X254Y1283D01*
X295Y1283D02*
X301Y1283D01*
X1575Y1283D02*
X1582Y1283D01*
X1Y1282D02*
X8Y1282D01*
X248Y1282D02*
X254Y1282D01*
X295Y1282D02*
X301Y1282D01*
X1575Y1282D02*
X1582Y1282D01*
X1Y1281D02*
X8Y1281D01*
X248Y1281D02*
X301Y1281D01*
X1575Y1281D02*
X1582Y1281D01*
X1Y1280D02*
X8Y1280D01*
X248Y1280D02*
X301Y1280D01*
X1575Y1280D02*
X1582Y1280D01*
X1Y1279D02*
X8Y1279D01*
X248Y1279D02*
X301Y1279D01*
X1575Y1279D02*
X1582Y1279D01*
X1Y1278D02*
X8Y1278D01*
X248Y1278D02*
X301Y1278D01*
X1575Y1278D02*
X1582Y1278D01*
X1Y1277D02*
X8Y1277D01*
X248Y1277D02*
X301Y1277D01*
X1575Y1277D02*
X1582Y1277D01*
X1Y1276D02*
X8Y1276D01*
X248Y1276D02*
X301Y1276D01*
X1575Y1276D02*
X1582Y1276D01*
X1Y1275D02*
X8Y1275D01*
X248Y1275D02*
X300Y1275D01*
X1575Y1275D02*
X1582Y1275D01*
X1Y1274D02*
X8Y1274D01*
X248Y1274D02*
X254Y1274D01*
X1575Y1274D02*
X1582Y1274D01*
X1Y1273D02*
X8Y1273D01*
X248Y1273D02*
X254Y1273D01*
X1575Y1273D02*
X1582Y1273D01*
X1Y1272D02*
X8Y1272D01*
X248Y1272D02*
X254Y1272D01*
X1575Y1272D02*
X1582Y1272D01*
X1Y1271D02*
X8Y1271D01*
X248Y1271D02*
X254Y1271D01*
X1575Y1271D02*
X1582Y1271D01*
X1Y1270D02*
X8Y1270D01*
X248Y1270D02*
X254Y1270D01*
X1575Y1270D02*
X1582Y1270D01*
X1Y1269D02*
X8Y1269D01*
X248Y1269D02*
X254Y1269D01*
X1575Y1269D02*
X1582Y1269D01*
X1Y1268D02*
X8Y1268D01*
X248Y1268D02*
X265Y1268D01*
X1575Y1268D02*
X1582Y1268D01*
X1Y1267D02*
X8Y1267D01*
X248Y1267D02*
X267Y1267D01*
X1575Y1267D02*
X1582Y1267D01*
X1Y1266D02*
X8Y1266D01*
X248Y1266D02*
X267Y1266D01*
X1575Y1266D02*
X1582Y1266D01*
X1Y1265D02*
X8Y1265D01*
X248Y1265D02*
X268Y1265D01*
X1575Y1265D02*
X1582Y1265D01*
X1Y1264D02*
X8Y1264D01*
X248Y1264D02*
X268Y1264D01*
X1575Y1264D02*
X1582Y1264D01*
X1Y1263D02*
X8Y1263D01*
X248Y1263D02*
X267Y1263D01*
X1575Y1263D02*
X1582Y1263D01*
X1Y1262D02*
X8Y1262D01*
X249Y1262D02*
X267Y1262D01*
X1575Y1262D02*
X1582Y1262D01*
X1Y1261D02*
X8Y1261D01*
X1575Y1261D02*
X1582Y1261D01*
X1Y1260D02*
X8Y1260D01*
X1575Y1260D02*
X1582Y1260D01*
X1Y1259D02*
X8Y1259D01*
X1575Y1259D02*
X1582Y1259D01*
X1Y1258D02*
X8Y1258D01*
X1575Y1258D02*
X1582Y1258D01*
X1Y1257D02*
X8Y1257D01*
X1575Y1257D02*
X1582Y1257D01*
X1Y1256D02*
X8Y1256D01*
X1575Y1256D02*
X1582Y1256D01*
X1Y1255D02*
X8Y1255D01*
X1575Y1255D02*
X1582Y1255D01*
X1Y1254D02*
X8Y1254D01*
X1575Y1254D02*
X1582Y1254D01*
X1Y1253D02*
X8Y1253D01*
X1575Y1253D02*
X1582Y1253D01*
X1Y1252D02*
X8Y1252D01*
X1575Y1252D02*
X1582Y1252D01*
X1Y1251D02*
X8Y1251D01*
X1575Y1251D02*
X1582Y1251D01*
X1Y1250D02*
X8Y1250D01*
X1575Y1250D02*
X1582Y1250D01*
X1Y1249D02*
X8Y1249D01*
X1575Y1249D02*
X1582Y1249D01*
X1Y1248D02*
X8Y1248D01*
X1575Y1248D02*
X1582Y1248D01*
X1Y1247D02*
X8Y1247D01*
X1575Y1247D02*
X1582Y1247D01*
X1Y1246D02*
X8Y1246D01*
X1575Y1246D02*
X1582Y1246D01*
X1Y1245D02*
X8Y1245D01*
X1575Y1245D02*
X1582Y1245D01*
X1Y1244D02*
X8Y1244D01*
X1575Y1244D02*
X1582Y1244D01*
X1Y1243D02*
X8Y1243D01*
X1575Y1243D02*
X1582Y1243D01*
X1Y1242D02*
X8Y1242D01*
X1575Y1242D02*
X1582Y1242D01*
X1Y1241D02*
X8Y1241D01*
X1575Y1241D02*
X1582Y1241D01*
X1Y1240D02*
X8Y1240D01*
X1575Y1240D02*
X1582Y1240D01*
X1Y1239D02*
X8Y1239D01*
X1575Y1239D02*
X1582Y1239D01*
X1Y1238D02*
X8Y1238D01*
X1575Y1238D02*
X1582Y1238D01*
X1Y1237D02*
X8Y1237D01*
X1575Y1237D02*
X1582Y1237D01*
X1Y1236D02*
X8Y1236D01*
X1575Y1236D02*
X1582Y1236D01*
X1Y1235D02*
X8Y1235D01*
X1575Y1235D02*
X1582Y1235D01*
X1Y1234D02*
X8Y1234D01*
X1575Y1234D02*
X1582Y1234D01*
X1Y1233D02*
X8Y1233D01*
X1575Y1233D02*
X1582Y1233D01*
X1Y1232D02*
X8Y1232D01*
X1575Y1232D02*
X1582Y1232D01*
X1Y1231D02*
X8Y1231D01*
X1575Y1231D02*
X1582Y1231D01*
X1Y1230D02*
X8Y1230D01*
X1575Y1230D02*
X1582Y1230D01*
X1Y1229D02*
X8Y1229D01*
X1575Y1229D02*
X1582Y1229D01*
X1Y1228D02*
X8Y1228D01*
X1575Y1228D02*
X1582Y1228D01*
X1Y1227D02*
X8Y1227D01*
X1575Y1227D02*
X1582Y1227D01*
X1Y1226D02*
X8Y1226D01*
X1575Y1226D02*
X1582Y1226D01*
X1Y1225D02*
X8Y1225D01*
X1575Y1225D02*
X1582Y1225D01*
X1Y1224D02*
X8Y1224D01*
X1575Y1224D02*
X1582Y1224D01*
X1Y1223D02*
X8Y1223D01*
X1575Y1223D02*
X1582Y1223D01*
X1Y1222D02*
X8Y1222D01*
X1575Y1222D02*
X1582Y1222D01*
X1Y1221D02*
X8Y1221D01*
X1575Y1221D02*
X1582Y1221D01*
X1Y1220D02*
X8Y1220D01*
X1575Y1220D02*
X1582Y1220D01*
X1Y1219D02*
X8Y1219D01*
X1575Y1219D02*
X1582Y1219D01*
X1Y1218D02*
X8Y1218D01*
X1575Y1218D02*
X1582Y1218D01*
X1Y1217D02*
X8Y1217D01*
X1575Y1217D02*
X1582Y1217D01*
X1Y1216D02*
X8Y1216D01*
X1575Y1216D02*
X1582Y1216D01*
X1Y1215D02*
X8Y1215D01*
X1575Y1215D02*
X1582Y1215D01*
X1Y1214D02*
X8Y1214D01*
X1575Y1214D02*
X1582Y1214D01*
X1Y1213D02*
X8Y1213D01*
X1575Y1213D02*
X1582Y1213D01*
X1Y1212D02*
X8Y1212D01*
X1575Y1212D02*
X1582Y1212D01*
X1Y1211D02*
X8Y1211D01*
X1575Y1211D02*
X1582Y1211D01*
X1Y1210D02*
X8Y1210D01*
X1575Y1210D02*
X1582Y1210D01*
X1Y1209D02*
X8Y1209D01*
X1575Y1209D02*
X1582Y1209D01*
X1Y1208D02*
X8Y1208D01*
X1575Y1208D02*
X1582Y1208D01*
X1Y1207D02*
X8Y1207D01*
X1575Y1207D02*
X1582Y1207D01*
X1Y1206D02*
X8Y1206D01*
X1575Y1206D02*
X1582Y1206D01*
X1Y1205D02*
X8Y1205D01*
X1575Y1205D02*
X1582Y1205D01*
X1Y1204D02*
X8Y1204D01*
X1575Y1204D02*
X1582Y1204D01*
X1Y1203D02*
X8Y1203D01*
X1575Y1203D02*
X1582Y1203D01*
X1Y1202D02*
X8Y1202D01*
X1575Y1202D02*
X1582Y1202D01*
X1Y1201D02*
X8Y1201D01*
X1575Y1201D02*
X1582Y1201D01*
X1Y1200D02*
X8Y1200D01*
X1575Y1200D02*
X1582Y1200D01*
X1Y1199D02*
X8Y1199D01*
X1575Y1199D02*
X1582Y1199D01*
X1Y1198D02*
X8Y1198D01*
X1575Y1198D02*
X1582Y1198D01*
X1Y1197D02*
X8Y1197D01*
X251Y1197D02*
X301Y1197D01*
X1575Y1197D02*
X1582Y1197D01*
X1Y1196D02*
X8Y1196D01*
X250Y1196D02*
X302Y1196D01*
X1575Y1196D02*
X1582Y1196D01*
X1Y1195D02*
X8Y1195D01*
X250Y1195D02*
X303Y1195D01*
X1575Y1195D02*
X1582Y1195D01*
X1Y1194D02*
X8Y1194D01*
X250Y1194D02*
X303Y1194D01*
X1575Y1194D02*
X1582Y1194D01*
X1Y1193D02*
X8Y1193D01*
X250Y1193D02*
X303Y1193D01*
X387Y1193D02*
X411Y1193D01*
X537Y1193D02*
X561Y1193D01*
X689Y1193D02*
X705Y1193D01*
X840Y1193D02*
X855Y1193D01*
X991Y1193D02*
X1018Y1193D01*
X1141Y1193D02*
X1169Y1193D01*
X1306Y1193D02*
X1307Y1193D01*
X1457Y1193D02*
X1458Y1193D01*
X1575Y1193D02*
X1582Y1193D01*
X1Y1192D02*
X8Y1192D01*
X250Y1192D02*
X303Y1192D01*
X386Y1192D02*
X414Y1192D01*
X537Y1192D02*
X564Y1192D01*
X687Y1192D02*
X708Y1192D01*
X838Y1192D02*
X859Y1192D01*
X990Y1192D02*
X1020Y1192D01*
X1140Y1192D02*
X1171Y1192D01*
X1305Y1192D02*
X1309Y1192D01*
X1455Y1192D02*
X1459Y1192D01*
X1575Y1192D02*
X1582Y1192D01*
X1Y1191D02*
X8Y1191D01*
X250Y1191D02*
X302Y1191D01*
X386Y1191D02*
X415Y1191D01*
X537Y1191D02*
X566Y1191D01*
X687Y1191D02*
X710Y1191D01*
X837Y1191D02*
X861Y1191D01*
X990Y1191D02*
X1021Y1191D01*
X1140Y1191D02*
X1172Y1191D01*
X1304Y1191D02*
X1309Y1191D01*
X1455Y1191D02*
X1460Y1191D01*
X1575Y1191D02*
X1582Y1191D01*
X1Y1190D02*
X8Y1190D01*
X250Y1190D02*
X257Y1190D01*
X386Y1190D02*
X417Y1190D01*
X537Y1190D02*
X567Y1190D01*
X686Y1190D02*
X711Y1190D01*
X837Y1190D02*
X862Y1190D01*
X990Y1190D02*
X1021Y1190D01*
X1140Y1190D02*
X1172Y1190D01*
X1304Y1190D02*
X1310Y1190D01*
X1454Y1190D02*
X1460Y1190D01*
X1575Y1190D02*
X1582Y1190D01*
X1Y1189D02*
X8Y1189D01*
X250Y1189D02*
X256Y1189D01*
X386Y1189D02*
X417Y1189D01*
X537Y1189D02*
X568Y1189D01*
X686Y1189D02*
X712Y1189D01*
X837Y1189D02*
X863Y1189D01*
X990Y1189D02*
X1021Y1189D01*
X1140Y1189D02*
X1172Y1189D01*
X1303Y1189D02*
X1310Y1189D01*
X1454Y1189D02*
X1461Y1189D01*
X1575Y1189D02*
X1582Y1189D01*
X1Y1188D02*
X8Y1188D01*
X250Y1188D02*
X256Y1188D01*
X386Y1188D02*
X418Y1188D01*
X537Y1188D02*
X569Y1188D01*
X687Y1188D02*
X713Y1188D01*
X837Y1188D02*
X863Y1188D01*
X990Y1188D02*
X1021Y1188D01*
X1140Y1188D02*
X1171Y1188D01*
X1303Y1188D02*
X1310Y1188D01*
X1454Y1188D02*
X1461Y1188D01*
X1575Y1188D02*
X1582Y1188D01*
X1Y1187D02*
X8Y1187D01*
X250Y1187D02*
X256Y1187D01*
X386Y1187D02*
X419Y1187D01*
X537Y1187D02*
X569Y1187D01*
X687Y1187D02*
X713Y1187D01*
X838Y1187D02*
X864Y1187D01*
X990Y1187D02*
X1020Y1187D01*
X1140Y1187D02*
X1171Y1187D01*
X1303Y1187D02*
X1311Y1187D01*
X1453Y1187D02*
X1461Y1187D01*
X1575Y1187D02*
X1582Y1187D01*
X1Y1186D02*
X8Y1186D01*
X250Y1186D02*
X256Y1186D01*
X386Y1186D02*
X392Y1186D01*
X411Y1186D02*
X419Y1186D01*
X537Y1186D02*
X543Y1186D01*
X561Y1186D02*
X570Y1186D01*
X693Y1186D02*
X699Y1186D01*
X706Y1186D02*
X714Y1186D01*
X843Y1186D02*
X850Y1186D01*
X856Y1186D02*
X864Y1186D01*
X990Y1186D02*
X996Y1186D01*
X1140Y1186D02*
X1146Y1186D01*
X1302Y1186D02*
X1311Y1186D01*
X1453Y1186D02*
X1461Y1186D01*
X1575Y1186D02*
X1582Y1186D01*
X1Y1185D02*
X8Y1185D01*
X250Y1185D02*
X256Y1185D01*
X386Y1185D02*
X392Y1185D01*
X413Y1185D02*
X419Y1185D01*
X537Y1185D02*
X543Y1185D01*
X563Y1185D02*
X570Y1185D01*
X693Y1185D02*
X699Y1185D01*
X707Y1185D02*
X714Y1185D01*
X844Y1185D02*
X850Y1185D01*
X858Y1185D02*
X865Y1185D01*
X990Y1185D02*
X996Y1185D01*
X1140Y1185D02*
X1146Y1185D01*
X1302Y1185D02*
X1311Y1185D01*
X1453Y1185D02*
X1462Y1185D01*
X1575Y1185D02*
X1582Y1185D01*
X1Y1184D02*
X8Y1184D01*
X250Y1184D02*
X256Y1184D01*
X386Y1184D02*
X392Y1184D01*
X413Y1184D02*
X420Y1184D01*
X537Y1184D02*
X543Y1184D01*
X564Y1184D02*
X570Y1184D01*
X693Y1184D02*
X699Y1184D01*
X708Y1184D02*
X715Y1184D01*
X844Y1184D02*
X850Y1184D01*
X859Y1184D02*
X865Y1184D01*
X990Y1184D02*
X996Y1184D01*
X1140Y1184D02*
X1146Y1184D01*
X1302Y1184D02*
X1311Y1184D01*
X1452Y1184D02*
X1462Y1184D01*
X1575Y1184D02*
X1582Y1184D01*
X1Y1183D02*
X8Y1183D01*
X250Y1183D02*
X256Y1183D01*
X386Y1183D02*
X392Y1183D01*
X414Y1183D02*
X420Y1183D01*
X452Y1183D02*
X454Y1183D01*
X537Y1183D02*
X543Y1183D01*
X564Y1183D02*
X570Y1183D01*
X693Y1183D02*
X699Y1183D01*
X708Y1183D02*
X715Y1183D01*
X753Y1183D02*
X755Y1183D01*
X844Y1183D02*
X850Y1183D01*
X859Y1183D02*
X866Y1183D01*
X990Y1183D02*
X996Y1183D01*
X1055Y1183D02*
X1057Y1183D01*
X1140Y1183D02*
X1146Y1183D01*
X1302Y1183D02*
X1312Y1183D01*
X1356Y1183D02*
X1358Y1183D01*
X1452Y1183D02*
X1462Y1183D01*
X1575Y1183D02*
X1582Y1183D01*
X1Y1182D02*
X8Y1182D01*
X250Y1182D02*
X256Y1182D01*
X386Y1182D02*
X392Y1182D01*
X414Y1182D02*
X420Y1182D01*
X451Y1182D02*
X455Y1182D01*
X537Y1182D02*
X543Y1182D01*
X564Y1182D02*
X570Y1182D01*
X693Y1182D02*
X699Y1182D01*
X709Y1182D02*
X716Y1182D01*
X752Y1182D02*
X757Y1182D01*
X844Y1182D02*
X850Y1182D01*
X860Y1182D02*
X866Y1182D01*
X990Y1182D02*
X996Y1182D01*
X1053Y1182D02*
X1058Y1182D01*
X1140Y1182D02*
X1146Y1182D01*
X1301Y1182D02*
X1312Y1182D01*
X1355Y1182D02*
X1359Y1182D01*
X1452Y1182D02*
X1463Y1182D01*
X1575Y1182D02*
X1582Y1182D01*
X1Y1181D02*
X8Y1181D01*
X250Y1181D02*
X256Y1181D01*
X386Y1181D02*
X392Y1181D01*
X414Y1181D02*
X420Y1181D01*
X450Y1181D02*
X456Y1181D01*
X537Y1181D02*
X543Y1181D01*
X564Y1181D02*
X570Y1181D01*
X693Y1181D02*
X699Y1181D01*
X709Y1181D02*
X716Y1181D01*
X752Y1181D02*
X757Y1181D01*
X844Y1181D02*
X850Y1181D01*
X860Y1181D02*
X867Y1181D01*
X990Y1181D02*
X996Y1181D01*
X1053Y1181D02*
X1058Y1181D01*
X1140Y1181D02*
X1146Y1181D01*
X1301Y1181D02*
X1312Y1181D01*
X1354Y1181D02*
X1360Y1181D01*
X1452Y1181D02*
X1463Y1181D01*
X1575Y1181D02*
X1582Y1181D01*
X1Y1180D02*
X8Y1180D01*
X250Y1180D02*
X256Y1180D01*
X386Y1180D02*
X392Y1180D01*
X414Y1180D02*
X420Y1180D01*
X450Y1180D02*
X456Y1180D01*
X537Y1180D02*
X543Y1180D01*
X564Y1180D02*
X570Y1180D01*
X693Y1180D02*
X699Y1180D01*
X710Y1180D02*
X717Y1180D01*
X751Y1180D02*
X757Y1180D01*
X844Y1180D02*
X850Y1180D01*
X861Y1180D02*
X867Y1180D01*
X990Y1180D02*
X996Y1180D01*
X1053Y1180D02*
X1059Y1180D01*
X1140Y1180D02*
X1146Y1180D01*
X1301Y1180D02*
X1313Y1180D01*
X1354Y1180D02*
X1360Y1180D01*
X1451Y1180D02*
X1463Y1180D01*
X1575Y1180D02*
X1582Y1180D01*
X1Y1179D02*
X8Y1179D01*
X250Y1179D02*
X256Y1179D01*
X386Y1179D02*
X392Y1179D01*
X414Y1179D02*
X420Y1179D01*
X450Y1179D02*
X456Y1179D01*
X537Y1179D02*
X543Y1179D01*
X564Y1179D02*
X570Y1179D01*
X693Y1179D02*
X699Y1179D01*
X710Y1179D02*
X717Y1179D01*
X751Y1179D02*
X757Y1179D01*
X844Y1179D02*
X850Y1179D01*
X861Y1179D02*
X868Y1179D01*
X990Y1179D02*
X996Y1179D01*
X1053Y1179D02*
X1059Y1179D01*
X1140Y1179D02*
X1146Y1179D01*
X1300Y1179D02*
X1313Y1179D01*
X1354Y1179D02*
X1360Y1179D01*
X1451Y1179D02*
X1464Y1179D01*
X1575Y1179D02*
X1582Y1179D01*
X1Y1178D02*
X8Y1178D01*
X250Y1178D02*
X256Y1178D01*
X386Y1178D02*
X392Y1178D01*
X414Y1178D02*
X420Y1178D01*
X450Y1178D02*
X456Y1178D01*
X537Y1178D02*
X543Y1178D01*
X564Y1178D02*
X570Y1178D01*
X693Y1178D02*
X699Y1178D01*
X711Y1178D02*
X718Y1178D01*
X751Y1178D02*
X757Y1178D01*
X844Y1178D02*
X850Y1178D01*
X862Y1178D02*
X868Y1178D01*
X990Y1178D02*
X996Y1178D01*
X1053Y1178D02*
X1059Y1178D01*
X1140Y1178D02*
X1146Y1178D01*
X1300Y1178D02*
X1313Y1178D01*
X1354Y1178D02*
X1360Y1178D01*
X1451Y1178D02*
X1464Y1178D01*
X1575Y1178D02*
X1582Y1178D01*
X1Y1177D02*
X8Y1177D01*
X250Y1177D02*
X256Y1177D01*
X386Y1177D02*
X392Y1177D01*
X414Y1177D02*
X420Y1177D01*
X450Y1177D02*
X456Y1177D01*
X537Y1177D02*
X543Y1177D01*
X564Y1177D02*
X570Y1177D01*
X693Y1177D02*
X699Y1177D01*
X711Y1177D02*
X718Y1177D01*
X751Y1177D02*
X757Y1177D01*
X844Y1177D02*
X850Y1177D01*
X862Y1177D02*
X869Y1177D01*
X990Y1177D02*
X996Y1177D01*
X1053Y1177D02*
X1059Y1177D01*
X1140Y1177D02*
X1146Y1177D01*
X1300Y1177D02*
X1314Y1177D01*
X1354Y1177D02*
X1360Y1177D01*
X1450Y1177D02*
X1464Y1177D01*
X1575Y1177D02*
X1582Y1177D01*
X1Y1176D02*
X8Y1176D01*
X250Y1176D02*
X256Y1176D01*
X386Y1176D02*
X392Y1176D01*
X414Y1176D02*
X420Y1176D01*
X450Y1176D02*
X456Y1176D01*
X537Y1176D02*
X543Y1176D01*
X564Y1176D02*
X570Y1176D01*
X693Y1176D02*
X699Y1176D01*
X712Y1176D02*
X719Y1176D01*
X751Y1176D02*
X757Y1176D01*
X844Y1176D02*
X850Y1176D01*
X863Y1176D02*
X869Y1176D01*
X990Y1176D02*
X996Y1176D01*
X1053Y1176D02*
X1059Y1176D01*
X1140Y1176D02*
X1146Y1176D01*
X1299Y1176D02*
X1306Y1176D01*
X1308Y1176D02*
X1314Y1176D01*
X1354Y1176D02*
X1360Y1176D01*
X1450Y1176D02*
X1456Y1176D01*
X1458Y1176D02*
X1464Y1176D01*
X1575Y1176D02*
X1582Y1176D01*
X1Y1175D02*
X8Y1175D01*
X250Y1175D02*
X256Y1175D01*
X386Y1175D02*
X392Y1175D01*
X414Y1175D02*
X420Y1175D01*
X450Y1175D02*
X456Y1175D01*
X537Y1175D02*
X543Y1175D01*
X564Y1175D02*
X570Y1175D01*
X693Y1175D02*
X699Y1175D01*
X712Y1175D02*
X719Y1175D01*
X751Y1175D02*
X757Y1175D01*
X844Y1175D02*
X850Y1175D01*
X863Y1175D02*
X870Y1175D01*
X990Y1175D02*
X996Y1175D01*
X1053Y1175D02*
X1059Y1175D01*
X1140Y1175D02*
X1146Y1175D01*
X1299Y1175D02*
X1306Y1175D01*
X1308Y1175D02*
X1314Y1175D01*
X1354Y1175D02*
X1360Y1175D01*
X1450Y1175D02*
X1456Y1175D01*
X1458Y1175D02*
X1465Y1175D01*
X1575Y1175D02*
X1582Y1175D01*
X1Y1174D02*
X8Y1174D01*
X250Y1174D02*
X256Y1174D01*
X386Y1174D02*
X392Y1174D01*
X414Y1174D02*
X420Y1174D01*
X450Y1174D02*
X456Y1174D01*
X537Y1174D02*
X543Y1174D01*
X564Y1174D02*
X570Y1174D01*
X693Y1174D02*
X699Y1174D01*
X713Y1174D02*
X720Y1174D01*
X751Y1174D02*
X757Y1174D01*
X844Y1174D02*
X850Y1174D01*
X864Y1174D02*
X870Y1174D01*
X990Y1174D02*
X996Y1174D01*
X1053Y1174D02*
X1059Y1174D01*
X1140Y1174D02*
X1146Y1174D01*
X1299Y1174D02*
X1305Y1174D01*
X1308Y1174D02*
X1314Y1174D01*
X1354Y1174D02*
X1360Y1174D01*
X1449Y1174D02*
X1456Y1174D01*
X1459Y1174D02*
X1465Y1174D01*
X1575Y1174D02*
X1582Y1174D01*
X1Y1173D02*
X8Y1173D01*
X250Y1173D02*
X256Y1173D01*
X386Y1173D02*
X392Y1173D01*
X414Y1173D02*
X420Y1173D01*
X450Y1173D02*
X456Y1173D01*
X537Y1173D02*
X543Y1173D01*
X564Y1173D02*
X570Y1173D01*
X693Y1173D02*
X699Y1173D01*
X714Y1173D02*
X720Y1173D01*
X751Y1173D02*
X757Y1173D01*
X844Y1173D02*
X850Y1173D01*
X864Y1173D02*
X871Y1173D01*
X990Y1173D02*
X996Y1173D01*
X1053Y1173D02*
X1059Y1173D01*
X1140Y1173D02*
X1146Y1173D01*
X1299Y1173D02*
X1305Y1173D01*
X1308Y1173D02*
X1315Y1173D01*
X1354Y1173D02*
X1360Y1173D01*
X1449Y1173D02*
X1456Y1173D01*
X1459Y1173D02*
X1465Y1173D01*
X1575Y1173D02*
X1582Y1173D01*
X1Y1172D02*
X8Y1172D01*
X250Y1172D02*
X256Y1172D01*
X386Y1172D02*
X392Y1172D01*
X414Y1172D02*
X420Y1172D01*
X450Y1172D02*
X456Y1172D01*
X537Y1172D02*
X543Y1172D01*
X564Y1172D02*
X570Y1172D01*
X693Y1172D02*
X699Y1172D01*
X714Y1172D02*
X721Y1172D01*
X751Y1172D02*
X757Y1172D01*
X844Y1172D02*
X850Y1172D01*
X865Y1172D02*
X871Y1172D01*
X990Y1172D02*
X996Y1172D01*
X1053Y1172D02*
X1059Y1172D01*
X1140Y1172D02*
X1146Y1172D01*
X1298Y1172D02*
X1305Y1172D01*
X1309Y1172D02*
X1315Y1172D01*
X1354Y1172D02*
X1360Y1172D01*
X1449Y1172D02*
X1455Y1172D01*
X1459Y1172D02*
X1466Y1172D01*
X1575Y1172D02*
X1582Y1172D01*
X1Y1171D02*
X8Y1171D01*
X250Y1171D02*
X256Y1171D01*
X386Y1171D02*
X392Y1171D01*
X414Y1171D02*
X420Y1171D01*
X450Y1171D02*
X456Y1171D01*
X537Y1171D02*
X543Y1171D01*
X564Y1171D02*
X570Y1171D01*
X693Y1171D02*
X699Y1171D01*
X715Y1171D02*
X721Y1171D01*
X751Y1171D02*
X757Y1171D01*
X844Y1171D02*
X850Y1171D01*
X865Y1171D02*
X872Y1171D01*
X990Y1171D02*
X996Y1171D01*
X1053Y1171D02*
X1059Y1171D01*
X1140Y1171D02*
X1146Y1171D01*
X1298Y1171D02*
X1304Y1171D01*
X1309Y1171D02*
X1315Y1171D01*
X1354Y1171D02*
X1360Y1171D01*
X1449Y1171D02*
X1455Y1171D01*
X1460Y1171D02*
X1466Y1171D01*
X1575Y1171D02*
X1582Y1171D01*
X1Y1170D02*
X8Y1170D01*
X250Y1170D02*
X256Y1170D01*
X386Y1170D02*
X392Y1170D01*
X414Y1170D02*
X420Y1170D01*
X450Y1170D02*
X456Y1170D01*
X537Y1170D02*
X543Y1170D01*
X564Y1170D02*
X570Y1170D01*
X693Y1170D02*
X699Y1170D01*
X715Y1170D02*
X721Y1170D01*
X751Y1170D02*
X757Y1170D01*
X844Y1170D02*
X850Y1170D01*
X866Y1170D02*
X872Y1170D01*
X990Y1170D02*
X996Y1170D01*
X1053Y1170D02*
X1059Y1170D01*
X1140Y1170D02*
X1146Y1170D01*
X1298Y1170D02*
X1304Y1170D01*
X1309Y1170D02*
X1316Y1170D01*
X1354Y1170D02*
X1360Y1170D01*
X1448Y1170D02*
X1455Y1170D01*
X1460Y1170D02*
X1466Y1170D01*
X1575Y1170D02*
X1582Y1170D01*
X1Y1169D02*
X8Y1169D01*
X250Y1169D02*
X256Y1169D01*
X386Y1169D02*
X392Y1169D01*
X413Y1169D02*
X420Y1169D01*
X438Y1169D02*
X468Y1169D01*
X537Y1169D02*
X543Y1169D01*
X564Y1169D02*
X570Y1169D01*
X693Y1169D02*
X699Y1169D01*
X715Y1169D02*
X722Y1169D01*
X739Y1169D02*
X770Y1169D01*
X844Y1169D02*
X850Y1169D01*
X866Y1169D02*
X872Y1169D01*
X990Y1169D02*
X1008Y1169D01*
X1041Y1169D02*
X1071Y1169D01*
X1140Y1169D02*
X1159Y1169D01*
X1297Y1169D02*
X1304Y1169D01*
X1310Y1169D02*
X1316Y1169D01*
X1342Y1169D02*
X1372Y1169D01*
X1448Y1169D02*
X1454Y1169D01*
X1460Y1169D02*
X1466Y1169D01*
X1575Y1169D02*
X1582Y1169D01*
X1Y1168D02*
X8Y1168D01*
X250Y1168D02*
X256Y1168D01*
X386Y1168D02*
X392Y1168D01*
X413Y1168D02*
X419Y1168D01*
X437Y1168D02*
X469Y1168D01*
X537Y1168D02*
X543Y1168D01*
X563Y1168D02*
X570Y1168D01*
X693Y1168D02*
X699Y1168D01*
X716Y1168D02*
X722Y1168D01*
X738Y1168D02*
X771Y1168D01*
X844Y1168D02*
X850Y1168D01*
X866Y1168D02*
X872Y1168D01*
X990Y1168D02*
X1009Y1168D01*
X1040Y1168D02*
X1072Y1168D01*
X1140Y1168D02*
X1160Y1168D01*
X1297Y1168D02*
X1303Y1168D01*
X1310Y1168D02*
X1316Y1168D01*
X1341Y1168D02*
X1373Y1168D01*
X1448Y1168D02*
X1454Y1168D01*
X1460Y1168D02*
X1467Y1168D01*
X1575Y1168D02*
X1582Y1168D01*
X1Y1167D02*
X8Y1167D01*
X250Y1167D02*
X256Y1167D01*
X386Y1167D02*
X392Y1167D01*
X412Y1167D02*
X419Y1167D01*
X437Y1167D02*
X470Y1167D01*
X537Y1167D02*
X543Y1167D01*
X562Y1167D02*
X570Y1167D01*
X693Y1167D02*
X699Y1167D01*
X716Y1167D02*
X722Y1167D01*
X738Y1167D02*
X771Y1167D01*
X844Y1167D02*
X850Y1167D01*
X866Y1167D02*
X873Y1167D01*
X990Y1167D02*
X1010Y1167D01*
X1039Y1167D02*
X1072Y1167D01*
X1140Y1167D02*
X1160Y1167D01*
X1297Y1167D02*
X1303Y1167D01*
X1310Y1167D02*
X1316Y1167D01*
X1340Y1167D02*
X1373Y1167D01*
X1447Y1167D02*
X1454Y1167D01*
X1461Y1167D02*
X1467Y1167D01*
X1575Y1167D02*
X1582Y1167D01*
X1Y1166D02*
X8Y1166D01*
X250Y1166D02*
X256Y1166D01*
X386Y1166D02*
X419Y1166D01*
X437Y1166D02*
X470Y1166D01*
X537Y1166D02*
X569Y1166D01*
X588Y1166D02*
X619Y1166D01*
X693Y1166D02*
X699Y1166D01*
X716Y1166D02*
X722Y1166D01*
X738Y1166D02*
X771Y1166D01*
X844Y1166D02*
X850Y1166D01*
X867Y1166D02*
X873Y1166D01*
X889Y1166D02*
X921Y1166D01*
X990Y1166D02*
X1010Y1166D01*
X1039Y1166D02*
X1072Y1166D01*
X1140Y1166D02*
X1161Y1166D01*
X1191Y1166D02*
X1222Y1166D01*
X1297Y1166D02*
X1303Y1166D01*
X1310Y1166D02*
X1317Y1166D01*
X1340Y1166D02*
X1374Y1166D01*
X1447Y1166D02*
X1453Y1166D01*
X1461Y1166D02*
X1467Y1166D01*
X1492Y1166D02*
X1523Y1166D01*
X1575Y1166D02*
X1582Y1166D01*
X1Y1165D02*
X8Y1165D01*
X251Y1165D02*
X256Y1165D01*
X386Y1165D02*
X418Y1165D01*
X437Y1165D02*
X470Y1165D01*
X537Y1165D02*
X569Y1165D01*
X587Y1165D02*
X620Y1165D01*
X693Y1165D02*
X699Y1165D01*
X716Y1165D02*
X722Y1165D01*
X738Y1165D02*
X771Y1165D01*
X844Y1165D02*
X850Y1165D01*
X866Y1165D02*
X873Y1165D01*
X889Y1165D02*
X921Y1165D01*
X990Y1165D02*
X1010Y1165D01*
X1039Y1165D02*
X1072Y1165D01*
X1140Y1165D02*
X1160Y1165D01*
X1190Y1165D02*
X1223Y1165D01*
X1296Y1165D02*
X1303Y1165D01*
X1311Y1165D02*
X1317Y1165D01*
X1340Y1165D02*
X1373Y1165D01*
X1447Y1165D02*
X1453Y1165D01*
X1461Y1165D02*
X1468Y1165D01*
X1491Y1165D02*
X1524Y1165D01*
X1575Y1165D02*
X1582Y1165D01*
X1Y1164D02*
X8Y1164D01*
X251Y1164D02*
X256Y1164D01*
X386Y1164D02*
X418Y1164D01*
X437Y1164D02*
X469Y1164D01*
X537Y1164D02*
X568Y1164D01*
X587Y1164D02*
X620Y1164D01*
X693Y1164D02*
X699Y1164D01*
X716Y1164D02*
X722Y1164D01*
X738Y1164D02*
X770Y1164D01*
X844Y1164D02*
X850Y1164D01*
X866Y1164D02*
X872Y1164D01*
X888Y1164D02*
X922Y1164D01*
X990Y1164D02*
X1009Y1164D01*
X1040Y1164D02*
X1072Y1164D01*
X1140Y1164D02*
X1160Y1164D01*
X1190Y1164D02*
X1223Y1164D01*
X1296Y1164D02*
X1302Y1164D01*
X1311Y1164D02*
X1317Y1164D01*
X1341Y1164D02*
X1373Y1164D01*
X1447Y1164D02*
X1453Y1164D01*
X1462Y1164D02*
X1468Y1164D01*
X1491Y1164D02*
X1524Y1164D01*
X1575Y1164D02*
X1582Y1164D01*
X1Y1163D02*
X8Y1163D01*
X252Y1163D02*
X254Y1163D01*
X386Y1163D02*
X417Y1163D01*
X438Y1163D02*
X468Y1163D01*
X537Y1163D02*
X567Y1163D01*
X587Y1163D02*
X621Y1163D01*
X693Y1163D02*
X699Y1163D01*
X715Y1163D02*
X722Y1163D01*
X740Y1163D02*
X769Y1163D01*
X844Y1163D02*
X850Y1163D01*
X866Y1163D02*
X872Y1163D01*
X888Y1163D02*
X922Y1163D01*
X990Y1163D02*
X1008Y1163D01*
X1041Y1163D02*
X1070Y1163D01*
X1140Y1163D02*
X1159Y1163D01*
X1190Y1163D02*
X1223Y1163D01*
X1296Y1163D02*
X1302Y1163D01*
X1311Y1163D02*
X1318Y1163D01*
X1342Y1163D02*
X1372Y1163D01*
X1446Y1163D02*
X1453Y1163D01*
X1462Y1163D02*
X1468Y1163D01*
X1491Y1163D02*
X1524Y1163D01*
X1575Y1163D02*
X1582Y1163D01*
X1Y1162D02*
X8Y1162D01*
X386Y1162D02*
X416Y1162D01*
X450Y1162D02*
X456Y1162D01*
X537Y1162D02*
X566Y1162D01*
X587Y1162D02*
X620Y1162D01*
X693Y1162D02*
X699Y1162D01*
X715Y1162D02*
X721Y1162D01*
X751Y1162D02*
X757Y1162D01*
X844Y1162D02*
X850Y1162D01*
X866Y1162D02*
X872Y1162D01*
X888Y1162D02*
X922Y1162D01*
X990Y1162D02*
X996Y1162D01*
X1053Y1162D02*
X1059Y1162D01*
X1140Y1162D02*
X1146Y1162D01*
X1190Y1162D02*
X1223Y1162D01*
X1295Y1162D02*
X1302Y1162D01*
X1312Y1162D02*
X1318Y1162D01*
X1354Y1162D02*
X1360Y1162D01*
X1446Y1162D02*
X1452Y1162D01*
X1462Y1162D02*
X1469Y1162D01*
X1491Y1162D02*
X1524Y1162D01*
X1575Y1162D02*
X1582Y1162D01*
X1Y1161D02*
X8Y1161D01*
X386Y1161D02*
X414Y1161D01*
X450Y1161D02*
X456Y1161D01*
X537Y1161D02*
X565Y1161D01*
X588Y1161D02*
X620Y1161D01*
X693Y1161D02*
X699Y1161D01*
X714Y1161D02*
X721Y1161D01*
X751Y1161D02*
X757Y1161D01*
X844Y1161D02*
X850Y1161D01*
X865Y1161D02*
X872Y1161D01*
X889Y1161D02*
X921Y1161D01*
X990Y1161D02*
X996Y1161D01*
X1053Y1161D02*
X1059Y1161D01*
X1140Y1161D02*
X1146Y1161D01*
X1190Y1161D02*
X1222Y1161D01*
X1295Y1161D02*
X1301Y1161D01*
X1312Y1161D02*
X1318Y1161D01*
X1354Y1161D02*
X1360Y1161D01*
X1446Y1161D02*
X1452Y1161D01*
X1462Y1161D02*
X1469Y1161D01*
X1492Y1161D02*
X1523Y1161D01*
X1575Y1161D02*
X1582Y1161D01*
X1Y1160D02*
X8Y1160D01*
X386Y1160D02*
X412Y1160D01*
X450Y1160D02*
X456Y1160D01*
X537Y1160D02*
X562Y1160D01*
X590Y1160D02*
X618Y1160D01*
X693Y1160D02*
X699Y1160D01*
X714Y1160D02*
X721Y1160D01*
X751Y1160D02*
X757Y1160D01*
X844Y1160D02*
X850Y1160D01*
X865Y1160D02*
X871Y1160D01*
X891Y1160D02*
X919Y1160D01*
X990Y1160D02*
X996Y1160D01*
X1053Y1160D02*
X1059Y1160D01*
X1140Y1160D02*
X1146Y1160D01*
X1192Y1160D02*
X1220Y1160D01*
X1295Y1160D02*
X1301Y1160D01*
X1312Y1160D02*
X1319Y1160D01*
X1354Y1160D02*
X1360Y1160D01*
X1445Y1160D02*
X1452Y1160D01*
X1463Y1160D02*
X1469Y1160D01*
X1494Y1160D02*
X1521Y1160D01*
X1575Y1160D02*
X1582Y1160D01*
X1Y1159D02*
X8Y1159D01*
X386Y1159D02*
X392Y1159D01*
X450Y1159D02*
X456Y1159D01*
X537Y1159D02*
X543Y1159D01*
X693Y1159D02*
X699Y1159D01*
X713Y1159D02*
X720Y1159D01*
X751Y1159D02*
X757Y1159D01*
X844Y1159D02*
X850Y1159D01*
X864Y1159D02*
X871Y1159D01*
X990Y1159D02*
X996Y1159D01*
X1053Y1159D02*
X1059Y1159D01*
X1140Y1159D02*
X1146Y1159D01*
X1294Y1159D02*
X1301Y1159D01*
X1312Y1159D02*
X1319Y1159D01*
X1354Y1159D02*
X1360Y1159D01*
X1445Y1159D02*
X1451Y1159D01*
X1463Y1159D02*
X1469Y1159D01*
X1575Y1159D02*
X1582Y1159D01*
X1Y1158D02*
X8Y1158D01*
X386Y1158D02*
X392Y1158D01*
X450Y1158D02*
X456Y1158D01*
X537Y1158D02*
X543Y1158D01*
X693Y1158D02*
X699Y1158D01*
X713Y1158D02*
X720Y1158D01*
X751Y1158D02*
X757Y1158D01*
X844Y1158D02*
X850Y1158D01*
X864Y1158D02*
X870Y1158D01*
X990Y1158D02*
X996Y1158D01*
X1053Y1158D02*
X1059Y1158D01*
X1140Y1158D02*
X1146Y1158D01*
X1294Y1158D02*
X1301Y1158D01*
X1312Y1158D02*
X1319Y1158D01*
X1354Y1158D02*
X1360Y1158D01*
X1445Y1158D02*
X1451Y1158D01*
X1463Y1158D02*
X1470Y1158D01*
X1575Y1158D02*
X1582Y1158D01*
X1Y1157D02*
X8Y1157D01*
X386Y1157D02*
X392Y1157D01*
X450Y1157D02*
X456Y1157D01*
X537Y1157D02*
X543Y1157D01*
X693Y1157D02*
X699Y1157D01*
X712Y1157D02*
X719Y1157D01*
X751Y1157D02*
X757Y1157D01*
X844Y1157D02*
X850Y1157D01*
X863Y1157D02*
X870Y1157D01*
X990Y1157D02*
X996Y1157D01*
X1053Y1157D02*
X1059Y1157D01*
X1140Y1157D02*
X1146Y1157D01*
X1294Y1157D02*
X1319Y1157D01*
X1354Y1157D02*
X1360Y1157D01*
X1444Y1157D02*
X1470Y1157D01*
X1575Y1157D02*
X1582Y1157D01*
X1Y1156D02*
X8Y1156D01*
X386Y1156D02*
X392Y1156D01*
X450Y1156D02*
X456Y1156D01*
X537Y1156D02*
X543Y1156D01*
X693Y1156D02*
X699Y1156D01*
X712Y1156D02*
X719Y1156D01*
X751Y1156D02*
X757Y1156D01*
X844Y1156D02*
X850Y1156D01*
X863Y1156D02*
X869Y1156D01*
X990Y1156D02*
X996Y1156D01*
X1053Y1156D02*
X1059Y1156D01*
X1140Y1156D02*
X1146Y1156D01*
X1294Y1156D02*
X1320Y1156D01*
X1354Y1156D02*
X1360Y1156D01*
X1444Y1156D02*
X1470Y1156D01*
X1575Y1156D02*
X1582Y1156D01*
X1Y1155D02*
X8Y1155D01*
X386Y1155D02*
X392Y1155D01*
X450Y1155D02*
X456Y1155D01*
X537Y1155D02*
X543Y1155D01*
X693Y1155D02*
X699Y1155D01*
X711Y1155D02*
X718Y1155D01*
X751Y1155D02*
X757Y1155D01*
X844Y1155D02*
X850Y1155D01*
X862Y1155D02*
X869Y1155D01*
X990Y1155D02*
X996Y1155D01*
X1053Y1155D02*
X1059Y1155D01*
X1140Y1155D02*
X1146Y1155D01*
X1293Y1155D02*
X1320Y1155D01*
X1354Y1155D02*
X1360Y1155D01*
X1444Y1155D02*
X1471Y1155D01*
X1575Y1155D02*
X1582Y1155D01*
X1Y1154D02*
X8Y1154D01*
X386Y1154D02*
X392Y1154D01*
X450Y1154D02*
X456Y1154D01*
X537Y1154D02*
X543Y1154D01*
X693Y1154D02*
X699Y1154D01*
X711Y1154D02*
X718Y1154D01*
X751Y1154D02*
X757Y1154D01*
X844Y1154D02*
X850Y1154D01*
X862Y1154D02*
X868Y1154D01*
X990Y1154D02*
X996Y1154D01*
X1053Y1154D02*
X1059Y1154D01*
X1140Y1154D02*
X1146Y1154D01*
X1293Y1154D02*
X1320Y1154D01*
X1354Y1154D02*
X1360Y1154D01*
X1444Y1154D02*
X1471Y1154D01*
X1575Y1154D02*
X1582Y1154D01*
X1Y1153D02*
X8Y1153D01*
X386Y1153D02*
X392Y1153D01*
X450Y1153D02*
X456Y1153D01*
X537Y1153D02*
X543Y1153D01*
X693Y1153D02*
X699Y1153D01*
X710Y1153D02*
X717Y1153D01*
X751Y1153D02*
X757Y1153D01*
X844Y1153D02*
X850Y1153D01*
X861Y1153D02*
X868Y1153D01*
X990Y1153D02*
X996Y1153D01*
X1053Y1153D02*
X1059Y1153D01*
X1140Y1153D02*
X1146Y1153D01*
X1293Y1153D02*
X1321Y1153D01*
X1354Y1153D02*
X1360Y1153D01*
X1443Y1153D02*
X1471Y1153D01*
X1575Y1153D02*
X1582Y1153D01*
X1Y1152D02*
X8Y1152D01*
X386Y1152D02*
X392Y1152D01*
X450Y1152D02*
X456Y1152D01*
X537Y1152D02*
X543Y1152D01*
X693Y1152D02*
X699Y1152D01*
X710Y1152D02*
X717Y1152D01*
X751Y1152D02*
X757Y1152D01*
X844Y1152D02*
X850Y1152D01*
X861Y1152D02*
X867Y1152D01*
X990Y1152D02*
X996Y1152D01*
X1053Y1152D02*
X1059Y1152D01*
X1140Y1152D02*
X1146Y1152D01*
X1292Y1152D02*
X1321Y1152D01*
X1354Y1152D02*
X1360Y1152D01*
X1443Y1152D02*
X1471Y1152D01*
X1575Y1152D02*
X1582Y1152D01*
X1Y1151D02*
X8Y1151D01*
X386Y1151D02*
X392Y1151D01*
X450Y1151D02*
X456Y1151D01*
X537Y1151D02*
X543Y1151D01*
X693Y1151D02*
X699Y1151D01*
X709Y1151D02*
X716Y1151D01*
X752Y1151D02*
X757Y1151D01*
X844Y1151D02*
X850Y1151D01*
X860Y1151D02*
X867Y1151D01*
X990Y1151D02*
X996Y1151D01*
X1053Y1151D02*
X1058Y1151D01*
X1140Y1151D02*
X1146Y1151D01*
X1292Y1151D02*
X1321Y1151D01*
X1354Y1151D02*
X1360Y1151D01*
X1443Y1151D02*
X1472Y1151D01*
X1575Y1151D02*
X1582Y1151D01*
X1Y1150D02*
X8Y1150D01*
X386Y1150D02*
X392Y1150D01*
X451Y1150D02*
X455Y1150D01*
X537Y1150D02*
X543Y1150D01*
X693Y1150D02*
X699Y1150D01*
X709Y1150D02*
X716Y1150D01*
X752Y1150D02*
X756Y1150D01*
X844Y1150D02*
X850Y1150D01*
X859Y1150D02*
X866Y1150D01*
X990Y1150D02*
X996Y1150D01*
X1054Y1150D02*
X1058Y1150D01*
X1140Y1150D02*
X1146Y1150D01*
X1292Y1150D02*
X1298Y1150D01*
X1315Y1150D02*
X1321Y1150D01*
X1355Y1150D02*
X1359Y1150D01*
X1442Y1150D02*
X1449Y1150D01*
X1466Y1150D02*
X1472Y1150D01*
X1575Y1150D02*
X1582Y1150D01*
X1Y1149D02*
X8Y1149D01*
X386Y1149D02*
X392Y1149D01*
X453Y1149D02*
X454Y1149D01*
X537Y1149D02*
X543Y1149D01*
X693Y1149D02*
X699Y1149D01*
X708Y1149D02*
X715Y1149D01*
X754Y1149D02*
X755Y1149D01*
X844Y1149D02*
X850Y1149D01*
X859Y1149D02*
X866Y1149D01*
X990Y1149D02*
X996Y1149D01*
X1055Y1149D02*
X1056Y1149D01*
X1140Y1149D02*
X1146Y1149D01*
X1292Y1149D02*
X1298Y1149D01*
X1315Y1149D02*
X1322Y1149D01*
X1356Y1149D02*
X1357Y1149D01*
X1442Y1149D02*
X1448Y1149D01*
X1466Y1149D02*
X1472Y1149D01*
X1575Y1149D02*
X1582Y1149D01*
X1Y1148D02*
X8Y1148D01*
X386Y1148D02*
X392Y1148D01*
X537Y1148D02*
X543Y1148D01*
X693Y1148D02*
X699Y1148D01*
X708Y1148D02*
X715Y1148D01*
X844Y1148D02*
X850Y1148D01*
X858Y1148D02*
X865Y1148D01*
X990Y1148D02*
X996Y1148D01*
X1140Y1148D02*
X1146Y1148D01*
X1291Y1148D02*
X1298Y1148D01*
X1316Y1148D02*
X1322Y1148D01*
X1442Y1148D02*
X1448Y1148D01*
X1466Y1148D02*
X1473Y1148D01*
X1575Y1148D02*
X1582Y1148D01*
X1Y1147D02*
X8Y1147D01*
X386Y1147D02*
X392Y1147D01*
X537Y1147D02*
X543Y1147D01*
X693Y1147D02*
X699Y1147D01*
X707Y1147D02*
X714Y1147D01*
X844Y1147D02*
X850Y1147D01*
X858Y1147D02*
X865Y1147D01*
X990Y1147D02*
X996Y1147D01*
X1140Y1147D02*
X1146Y1147D01*
X1291Y1147D02*
X1297Y1147D01*
X1316Y1147D02*
X1322Y1147D01*
X1442Y1147D02*
X1448Y1147D01*
X1467Y1147D02*
X1473Y1147D01*
X1575Y1147D02*
X1582Y1147D01*
X1Y1146D02*
X8Y1146D01*
X250Y1146D02*
X276Y1146D01*
X299Y1146D02*
X302Y1146D01*
X386Y1146D02*
X392Y1146D01*
X537Y1146D02*
X543Y1146D01*
X691Y1146D02*
X714Y1146D01*
X842Y1146D02*
X864Y1146D01*
X990Y1146D02*
X1017Y1146D01*
X1140Y1146D02*
X1168Y1146D01*
X1291Y1146D02*
X1297Y1146D01*
X1316Y1146D02*
X1323Y1146D01*
X1441Y1146D02*
X1448Y1146D01*
X1467Y1146D02*
X1473Y1146D01*
X1575Y1146D02*
X1582Y1146D01*
X1Y1145D02*
X8Y1145D01*
X250Y1145D02*
X278Y1145D01*
X298Y1145D02*
X303Y1145D01*
X386Y1145D02*
X392Y1145D01*
X537Y1145D02*
X543Y1145D01*
X687Y1145D02*
X713Y1145D01*
X838Y1145D02*
X864Y1145D01*
X990Y1145D02*
X1020Y1145D01*
X1140Y1145D02*
X1171Y1145D01*
X1290Y1145D02*
X1297Y1145D01*
X1317Y1145D02*
X1323Y1145D01*
X1441Y1145D02*
X1447Y1145D01*
X1467Y1145D02*
X1474Y1145D01*
X1575Y1145D02*
X1582Y1145D01*
X1Y1144D02*
X8Y1144D01*
X250Y1144D02*
X278Y1144D01*
X298Y1144D02*
X303Y1144D01*
X386Y1144D02*
X392Y1144D01*
X537Y1144D02*
X543Y1144D01*
X687Y1144D02*
X713Y1144D01*
X837Y1144D02*
X863Y1144D01*
X990Y1144D02*
X1021Y1144D01*
X1140Y1144D02*
X1171Y1144D01*
X1290Y1144D02*
X1296Y1144D01*
X1317Y1144D02*
X1323Y1144D01*
X1441Y1144D02*
X1447Y1144D01*
X1467Y1144D02*
X1474Y1144D01*
X1575Y1144D02*
X1582Y1144D01*
X1Y1143D02*
X8Y1143D01*
X250Y1143D02*
X279Y1143D01*
X297Y1143D02*
X303Y1143D01*
X386Y1143D02*
X392Y1143D01*
X537Y1143D02*
X543Y1143D01*
X686Y1143D02*
X712Y1143D01*
X837Y1143D02*
X863Y1143D01*
X990Y1143D02*
X1021Y1143D01*
X1140Y1143D02*
X1172Y1143D01*
X1290Y1143D02*
X1296Y1143D01*
X1317Y1143D02*
X1323Y1143D01*
X1440Y1143D02*
X1447Y1143D01*
X1468Y1143D02*
X1474Y1143D01*
X1575Y1143D02*
X1582Y1143D01*
X1Y1142D02*
X8Y1142D01*
X250Y1142D02*
X279Y1142D01*
X297Y1142D02*
X303Y1142D01*
X386Y1142D02*
X392Y1142D01*
X537Y1142D02*
X543Y1142D01*
X686Y1142D02*
X711Y1142D01*
X837Y1142D02*
X862Y1142D01*
X990Y1142D02*
X1021Y1142D01*
X1140Y1142D02*
X1172Y1142D01*
X1290Y1142D02*
X1296Y1142D01*
X1317Y1142D02*
X1323Y1142D01*
X1440Y1142D02*
X1446Y1142D01*
X1468Y1142D02*
X1474Y1142D01*
X1575Y1142D02*
X1582Y1142D01*
X1Y1141D02*
X8Y1141D01*
X250Y1141D02*
X280Y1141D01*
X297Y1141D02*
X303Y1141D01*
X387Y1141D02*
X392Y1141D01*
X537Y1141D02*
X542Y1141D01*
X687Y1141D02*
X710Y1141D01*
X837Y1141D02*
X861Y1141D01*
X990Y1141D02*
X1021Y1141D01*
X1140Y1141D02*
X1171Y1141D01*
X1290Y1141D02*
X1295Y1141D01*
X1318Y1141D02*
X1323Y1141D01*
X1441Y1141D02*
X1446Y1141D01*
X1468Y1141D02*
X1474Y1141D01*
X1575Y1141D02*
X1582Y1141D01*
X1Y1140D02*
X8Y1140D01*
X250Y1140D02*
X280Y1140D01*
X297Y1140D02*
X303Y1140D01*
X387Y1140D02*
X391Y1140D01*
X538Y1140D02*
X542Y1140D01*
X687Y1140D02*
X708Y1140D01*
X838Y1140D02*
X859Y1140D01*
X990Y1140D02*
X1020Y1140D01*
X1140Y1140D02*
X1171Y1140D01*
X1291Y1140D02*
X1295Y1140D01*
X1319Y1140D02*
X1322Y1140D01*
X1442Y1140D02*
X1445Y1140D01*
X1469Y1140D02*
X1473Y1140D01*
X1575Y1140D02*
X1582Y1140D01*
X1Y1139D02*
X8Y1139D01*
X250Y1139D02*
X256Y1139D01*
X274Y1139D02*
X280Y1139D01*
X297Y1139D02*
X303Y1139D01*
X690Y1139D02*
X703Y1139D01*
X841Y1139D02*
X854Y1139D01*
X992Y1139D02*
X1017Y1139D01*
X1142Y1139D02*
X1168Y1139D01*
X1575Y1139D02*
X1582Y1139D01*
X1Y1138D02*
X8Y1138D01*
X250Y1138D02*
X256Y1138D01*
X274Y1138D02*
X280Y1138D01*
X297Y1138D02*
X303Y1138D01*
X1575Y1138D02*
X1582Y1138D01*
X1Y1137D02*
X8Y1137D01*
X250Y1137D02*
X256Y1137D01*
X274Y1137D02*
X280Y1137D01*
X297Y1137D02*
X303Y1137D01*
X1575Y1137D02*
X1582Y1137D01*
X1Y1136D02*
X8Y1136D01*
X250Y1136D02*
X256Y1136D01*
X274Y1136D02*
X280Y1136D01*
X297Y1136D02*
X303Y1136D01*
X1575Y1136D02*
X1582Y1136D01*
X1Y1135D02*
X8Y1135D01*
X250Y1135D02*
X256Y1135D01*
X274Y1135D02*
X280Y1135D01*
X297Y1135D02*
X303Y1135D01*
X1575Y1135D02*
X1582Y1135D01*
X1Y1134D02*
X8Y1134D01*
X250Y1134D02*
X256Y1134D01*
X274Y1134D02*
X280Y1134D01*
X297Y1134D02*
X303Y1134D01*
X1575Y1134D02*
X1582Y1134D01*
X1Y1133D02*
X8Y1133D01*
X250Y1133D02*
X256Y1133D01*
X274Y1133D02*
X280Y1133D01*
X297Y1133D02*
X303Y1133D01*
X1575Y1133D02*
X1582Y1133D01*
X1Y1132D02*
X8Y1132D01*
X250Y1132D02*
X256Y1132D01*
X274Y1132D02*
X280Y1132D01*
X297Y1132D02*
X303Y1132D01*
X1575Y1132D02*
X1582Y1132D01*
X1Y1131D02*
X8Y1131D01*
X250Y1131D02*
X256Y1131D01*
X274Y1131D02*
X280Y1131D01*
X297Y1131D02*
X303Y1131D01*
X1575Y1131D02*
X1582Y1131D01*
X1Y1130D02*
X8Y1130D01*
X250Y1130D02*
X256Y1130D01*
X274Y1130D02*
X280Y1130D01*
X297Y1130D02*
X303Y1130D01*
X1575Y1130D02*
X1582Y1130D01*
X1Y1129D02*
X8Y1129D01*
X250Y1129D02*
X256Y1129D01*
X274Y1129D02*
X280Y1129D01*
X297Y1129D02*
X303Y1129D01*
X1575Y1129D02*
X1582Y1129D01*
X1Y1128D02*
X8Y1128D01*
X250Y1128D02*
X256Y1128D01*
X274Y1128D02*
X280Y1128D01*
X297Y1128D02*
X303Y1128D01*
X1575Y1128D02*
X1582Y1128D01*
X1Y1127D02*
X8Y1127D01*
X250Y1127D02*
X256Y1127D01*
X274Y1127D02*
X280Y1127D01*
X297Y1127D02*
X303Y1127D01*
X1575Y1127D02*
X1582Y1127D01*
X1Y1126D02*
X8Y1126D01*
X250Y1126D02*
X256Y1126D01*
X274Y1126D02*
X280Y1126D01*
X297Y1126D02*
X303Y1126D01*
X1575Y1126D02*
X1582Y1126D01*
X1Y1125D02*
X8Y1125D01*
X250Y1125D02*
X256Y1125D01*
X274Y1125D02*
X280Y1125D01*
X297Y1125D02*
X303Y1125D01*
X1575Y1125D02*
X1582Y1125D01*
X1Y1124D02*
X8Y1124D01*
X250Y1124D02*
X256Y1124D01*
X274Y1124D02*
X280Y1124D01*
X297Y1124D02*
X303Y1124D01*
X1575Y1124D02*
X1582Y1124D01*
X1Y1123D02*
X8Y1123D01*
X250Y1123D02*
X256Y1123D01*
X274Y1123D02*
X280Y1123D01*
X297Y1123D02*
X303Y1123D01*
X1575Y1123D02*
X1582Y1123D01*
X1Y1122D02*
X8Y1122D01*
X250Y1122D02*
X256Y1122D01*
X274Y1122D02*
X280Y1122D01*
X297Y1122D02*
X303Y1122D01*
X1575Y1122D02*
X1582Y1122D01*
X1Y1121D02*
X8Y1121D01*
X250Y1121D02*
X256Y1121D01*
X274Y1121D02*
X280Y1121D01*
X297Y1121D02*
X303Y1121D01*
X1575Y1121D02*
X1582Y1121D01*
X1Y1120D02*
X8Y1120D01*
X250Y1120D02*
X256Y1120D01*
X274Y1120D02*
X280Y1120D01*
X297Y1120D02*
X303Y1120D01*
X1575Y1120D02*
X1582Y1120D01*
X1Y1119D02*
X8Y1119D01*
X250Y1119D02*
X256Y1119D01*
X274Y1119D02*
X303Y1119D01*
X1575Y1119D02*
X1582Y1119D01*
X1Y1118D02*
X8Y1118D01*
X250Y1118D02*
X256Y1118D01*
X274Y1118D02*
X303Y1118D01*
X1575Y1118D02*
X1582Y1118D01*
X1Y1117D02*
X8Y1117D01*
X250Y1117D02*
X256Y1117D01*
X274Y1117D02*
X303Y1117D01*
X1575Y1117D02*
X1582Y1117D01*
X1Y1116D02*
X8Y1116D01*
X250Y1116D02*
X256Y1116D01*
X275Y1116D02*
X302Y1116D01*
X1575Y1116D02*
X1582Y1116D01*
X1Y1115D02*
X8Y1115D01*
X250Y1115D02*
X256Y1115D01*
X276Y1115D02*
X302Y1115D01*
X1575Y1115D02*
X1582Y1115D01*
X1Y1114D02*
X8Y1114D01*
X251Y1114D02*
X256Y1114D01*
X277Y1114D02*
X301Y1114D01*
X1575Y1114D02*
X1582Y1114D01*
X1Y1113D02*
X8Y1113D01*
X252Y1113D02*
X255Y1113D01*
X278Y1113D02*
X299Y1113D01*
X1575Y1113D02*
X1582Y1113D01*
X1Y1112D02*
X8Y1112D01*
X1575Y1112D02*
X1582Y1112D01*
X1Y1111D02*
X8Y1111D01*
X1575Y1111D02*
X1582Y1111D01*
X1Y1110D02*
X8Y1110D01*
X1575Y1110D02*
X1582Y1110D01*
X1Y1109D02*
X8Y1109D01*
X1575Y1109D02*
X1582Y1109D01*
X1Y1108D02*
X8Y1108D01*
X1575Y1108D02*
X1582Y1108D01*
X1Y1107D02*
X8Y1107D01*
X1575Y1107D02*
X1582Y1107D01*
X1Y1106D02*
X8Y1106D01*
X1575Y1106D02*
X1582Y1106D01*
X1Y1105D02*
X8Y1105D01*
X1575Y1105D02*
X1582Y1105D01*
X1Y1104D02*
X8Y1104D01*
X1575Y1104D02*
X1582Y1104D01*
X1Y1103D02*
X8Y1103D01*
X1575Y1103D02*
X1582Y1103D01*
X1Y1102D02*
X8Y1102D01*
X1575Y1102D02*
X1582Y1102D01*
X1Y1101D02*
X8Y1101D01*
X1575Y1101D02*
X1582Y1101D01*
X1Y1100D02*
X8Y1100D01*
X1575Y1100D02*
X1582Y1100D01*
X1Y1099D02*
X8Y1099D01*
X1575Y1099D02*
X1582Y1099D01*
X1Y1098D02*
X8Y1098D01*
X1575Y1098D02*
X1582Y1098D01*
X1Y1097D02*
X8Y1097D01*
X1575Y1097D02*
X1582Y1097D01*
X1Y1096D02*
X8Y1096D01*
X1575Y1096D02*
X1582Y1096D01*
X1Y1095D02*
X8Y1095D01*
X1575Y1095D02*
X1582Y1095D01*
X1Y1094D02*
X8Y1094D01*
X1575Y1094D02*
X1582Y1094D01*
X1Y1093D02*
X8Y1093D01*
X1575Y1093D02*
X1582Y1093D01*
X1Y1092D02*
X8Y1092D01*
X1575Y1092D02*
X1582Y1092D01*
X1Y1091D02*
X8Y1091D01*
X1575Y1091D02*
X1582Y1091D01*
X1Y1090D02*
X8Y1090D01*
X1575Y1090D02*
X1582Y1090D01*
X1Y1089D02*
X8Y1089D01*
X1575Y1089D02*
X1582Y1089D01*
X1Y1088D02*
X8Y1088D01*
X1575Y1088D02*
X1582Y1088D01*
X1Y1087D02*
X8Y1087D01*
X1575Y1087D02*
X1582Y1087D01*
X1Y1086D02*
X8Y1086D01*
X1575Y1086D02*
X1582Y1086D01*
X1Y1085D02*
X8Y1085D01*
X1575Y1085D02*
X1582Y1085D01*
X1Y1084D02*
X8Y1084D01*
X1575Y1084D02*
X1582Y1084D01*
X1Y1083D02*
X8Y1083D01*
X1575Y1083D02*
X1582Y1083D01*
X1Y1082D02*
X8Y1082D01*
X1575Y1082D02*
X1582Y1082D01*
X1Y1081D02*
X8Y1081D01*
X1575Y1081D02*
X1582Y1081D01*
X1Y1080D02*
X8Y1080D01*
X1575Y1080D02*
X1582Y1080D01*
X1Y1079D02*
X8Y1079D01*
X1575Y1079D02*
X1582Y1079D01*
X1Y1078D02*
X8Y1078D01*
X1575Y1078D02*
X1582Y1078D01*
X1Y1077D02*
X8Y1077D01*
X1575Y1077D02*
X1582Y1077D01*
X1Y1076D02*
X8Y1076D01*
X1575Y1076D02*
X1582Y1076D01*
X1Y1075D02*
X8Y1075D01*
X1575Y1075D02*
X1582Y1075D01*
X1Y1074D02*
X8Y1074D01*
X1575Y1074D02*
X1582Y1074D01*
X1Y1073D02*
X8Y1073D01*
X1575Y1073D02*
X1582Y1073D01*
X1Y1072D02*
X8Y1072D01*
X1575Y1072D02*
X1582Y1072D01*
X1Y1071D02*
X8Y1071D01*
X1575Y1071D02*
X1582Y1071D01*
X1Y1070D02*
X8Y1070D01*
X1575Y1070D02*
X1582Y1070D01*
X1Y1069D02*
X8Y1069D01*
X1575Y1069D02*
X1582Y1069D01*
X1Y1068D02*
X8Y1068D01*
X1575Y1068D02*
X1582Y1068D01*
X1Y1067D02*
X8Y1067D01*
X1575Y1067D02*
X1582Y1067D01*
X1Y1066D02*
X8Y1066D01*
X1575Y1066D02*
X1582Y1066D01*
X1Y1065D02*
X8Y1065D01*
X1575Y1065D02*
X1582Y1065D01*
X1Y1064D02*
X8Y1064D01*
X1575Y1064D02*
X1582Y1064D01*
X1Y1063D02*
X8Y1063D01*
X1575Y1063D02*
X1582Y1063D01*
X1Y1062D02*
X8Y1062D01*
X1575Y1062D02*
X1582Y1062D01*
X1Y1061D02*
X8Y1061D01*
X1575Y1061D02*
X1582Y1061D01*
X1Y1060D02*
X8Y1060D01*
X1575Y1060D02*
X1582Y1060D01*
X1Y1059D02*
X8Y1059D01*
X1575Y1059D02*
X1582Y1059D01*
X1Y1058D02*
X8Y1058D01*
X1575Y1058D02*
X1582Y1058D01*
X1Y1057D02*
X8Y1057D01*
X1575Y1057D02*
X1582Y1057D01*
X1Y1056D02*
X8Y1056D01*
X1575Y1056D02*
X1582Y1056D01*
X1Y1055D02*
X8Y1055D01*
X1575Y1055D02*
X1582Y1055D01*
X1Y1054D02*
X8Y1054D01*
X1575Y1054D02*
X1582Y1054D01*
X1Y1053D02*
X8Y1053D01*
X1575Y1053D02*
X1582Y1053D01*
X1Y1052D02*
X8Y1052D01*
X1575Y1052D02*
X1582Y1052D01*
X1Y1051D02*
X8Y1051D01*
X1575Y1051D02*
X1582Y1051D01*
X1Y1050D02*
X8Y1050D01*
X1575Y1050D02*
X1582Y1050D01*
X1Y1049D02*
X8Y1049D01*
X1575Y1049D02*
X1582Y1049D01*
X1Y1048D02*
X8Y1048D01*
X1575Y1048D02*
X1582Y1048D01*
X1Y1047D02*
X8Y1047D01*
X1575Y1047D02*
X1582Y1047D01*
X1Y1046D02*
X8Y1046D01*
X1575Y1046D02*
X1582Y1046D01*
X1Y1045D02*
X8Y1045D01*
X1575Y1045D02*
X1582Y1045D01*
X1Y1044D02*
X8Y1044D01*
X1575Y1044D02*
X1582Y1044D01*
X1Y1043D02*
X8Y1043D01*
X1575Y1043D02*
X1582Y1043D01*
X1Y1042D02*
X8Y1042D01*
X1575Y1042D02*
X1582Y1042D01*
X1Y1041D02*
X8Y1041D01*
X1575Y1041D02*
X1582Y1041D01*
X1Y1040D02*
X8Y1040D01*
X1575Y1040D02*
X1582Y1040D01*
X1Y1039D02*
X8Y1039D01*
X1575Y1039D02*
X1582Y1039D01*
X1Y1038D02*
X8Y1038D01*
X1575Y1038D02*
X1582Y1038D01*
X1Y1037D02*
X8Y1037D01*
X1575Y1037D02*
X1582Y1037D01*
X1Y1036D02*
X8Y1036D01*
X1575Y1036D02*
X1582Y1036D01*
X1Y1035D02*
X8Y1035D01*
X1575Y1035D02*
X1582Y1035D01*
X1Y1034D02*
X8Y1034D01*
X1575Y1034D02*
X1582Y1034D01*
X1Y1033D02*
X8Y1033D01*
X1575Y1033D02*
X1582Y1033D01*
X1Y1032D02*
X8Y1032D01*
X1575Y1032D02*
X1582Y1032D01*
X1Y1031D02*
X8Y1031D01*
X1575Y1031D02*
X1582Y1031D01*
X1Y1030D02*
X8Y1030D01*
X1575Y1030D02*
X1582Y1030D01*
X1Y1029D02*
X8Y1029D01*
X1575Y1029D02*
X1582Y1029D01*
X1Y1028D02*
X8Y1028D01*
X1575Y1028D02*
X1582Y1028D01*
X1Y1027D02*
X8Y1027D01*
X1575Y1027D02*
X1582Y1027D01*
X1Y1026D02*
X8Y1026D01*
X1575Y1026D02*
X1582Y1026D01*
X1Y1025D02*
X8Y1025D01*
X1575Y1025D02*
X1582Y1025D01*
X1Y1024D02*
X8Y1024D01*
X1575Y1024D02*
X1582Y1024D01*
X1Y1023D02*
X8Y1023D01*
X1575Y1023D02*
X1582Y1023D01*
X1Y1022D02*
X8Y1022D01*
X1575Y1022D02*
X1582Y1022D01*
X1Y1021D02*
X8Y1021D01*
X1575Y1021D02*
X1582Y1021D01*
X1Y1020D02*
X8Y1020D01*
X1575Y1020D02*
X1582Y1020D01*
X1Y1019D02*
X8Y1019D01*
X1575Y1019D02*
X1582Y1019D01*
X1Y1018D02*
X8Y1018D01*
X1575Y1018D02*
X1582Y1018D01*
X1Y1017D02*
X8Y1017D01*
X1575Y1017D02*
X1582Y1017D01*
X1Y1016D02*
X8Y1016D01*
X1575Y1016D02*
X1582Y1016D01*
X1Y1015D02*
X8Y1015D01*
X1575Y1015D02*
X1582Y1015D01*
X1Y1014D02*
X8Y1014D01*
X1575Y1014D02*
X1582Y1014D01*
X1Y1013D02*
X8Y1013D01*
X1575Y1013D02*
X1582Y1013D01*
X1Y1012D02*
X8Y1012D01*
X1575Y1012D02*
X1582Y1012D01*
X1Y1011D02*
X8Y1011D01*
X1575Y1011D02*
X1582Y1011D01*
X1Y1010D02*
X8Y1010D01*
X1575Y1010D02*
X1582Y1010D01*
X1Y1009D02*
X8Y1009D01*
X1575Y1009D02*
X1582Y1009D01*
X1Y1008D02*
X8Y1008D01*
X1575Y1008D02*
X1582Y1008D01*
X1Y1007D02*
X8Y1007D01*
X1575Y1007D02*
X1582Y1007D01*
X1Y1006D02*
X8Y1006D01*
X1575Y1006D02*
X1582Y1006D01*
X1Y1005D02*
X8Y1005D01*
X1575Y1005D02*
X1582Y1005D01*
X1Y1004D02*
X8Y1004D01*
X1575Y1004D02*
X1582Y1004D01*
X1Y1003D02*
X8Y1003D01*
X1575Y1003D02*
X1582Y1003D01*
X1Y1002D02*
X8Y1002D01*
X1575Y1002D02*
X1582Y1002D01*
X1Y1001D02*
X8Y1001D01*
X1575Y1001D02*
X1582Y1001D01*
X1Y1000D02*
X8Y1000D01*
X1575Y1000D02*
X1582Y1000D01*
X1Y999D02*
X8Y999D01*
X1575Y999D02*
X1582Y999D01*
X1Y998D02*
X8Y998D01*
X1575Y998D02*
X1582Y998D01*
X1Y997D02*
X8Y997D01*
X1575Y997D02*
X1582Y997D01*
X1Y996D02*
X8Y996D01*
X1575Y996D02*
X1582Y996D01*
X1Y995D02*
X8Y995D01*
X1575Y995D02*
X1582Y995D01*
X1Y994D02*
X8Y994D01*
X1575Y994D02*
X1582Y994D01*
X1Y993D02*
X8Y993D01*
X1575Y993D02*
X1582Y993D01*
X1Y992D02*
X8Y992D01*
X1575Y992D02*
X1582Y992D01*
X1Y991D02*
X8Y991D01*
X1575Y991D02*
X1582Y991D01*
X1Y990D02*
X8Y990D01*
X1575Y990D02*
X1582Y990D01*
X1Y989D02*
X8Y989D01*
X1575Y989D02*
X1582Y989D01*
X1Y988D02*
X8Y988D01*
X1575Y988D02*
X1582Y988D01*
X1Y987D02*
X8Y987D01*
X1575Y987D02*
X1582Y987D01*
X1Y986D02*
X8Y986D01*
X1575Y986D02*
X1582Y986D01*
X1Y985D02*
X8Y985D01*
X1575Y985D02*
X1582Y985D01*
X1Y984D02*
X8Y984D01*
X1575Y984D02*
X1582Y984D01*
X1Y983D02*
X8Y983D01*
X1575Y983D02*
X1582Y983D01*
X1Y982D02*
X8Y982D01*
X1575Y982D02*
X1582Y982D01*
X1Y981D02*
X8Y981D01*
X1575Y981D02*
X1582Y981D01*
X1Y980D02*
X8Y980D01*
X1575Y980D02*
X1582Y980D01*
X1Y979D02*
X8Y979D01*
X1575Y979D02*
X1582Y979D01*
X1Y978D02*
X8Y978D01*
X1575Y978D02*
X1582Y978D01*
X1Y977D02*
X8Y977D01*
X1575Y977D02*
X1582Y977D01*
X1Y976D02*
X8Y976D01*
X1575Y976D02*
X1582Y976D01*
X1Y975D02*
X8Y975D01*
X1575Y975D02*
X1582Y975D01*
X1Y974D02*
X8Y974D01*
X1575Y974D02*
X1582Y974D01*
X1Y973D02*
X8Y973D01*
X1575Y973D02*
X1582Y973D01*
X1Y972D02*
X8Y972D01*
X1575Y972D02*
X1582Y972D01*
X1Y971D02*
X8Y971D01*
X1575Y971D02*
X1582Y971D01*
X1Y970D02*
X8Y970D01*
X1575Y970D02*
X1582Y970D01*
X1Y969D02*
X8Y969D01*
X1575Y969D02*
X1582Y969D01*
X1Y968D02*
X8Y968D01*
X1575Y968D02*
X1582Y968D01*
X1Y967D02*
X8Y967D01*
X1575Y967D02*
X1582Y967D01*
X1Y966D02*
X8Y966D01*
X1575Y966D02*
X1582Y966D01*
X1Y965D02*
X8Y965D01*
X1575Y965D02*
X1582Y965D01*
X1Y964D02*
X8Y964D01*
X1575Y964D02*
X1582Y964D01*
X1Y963D02*
X8Y963D01*
X1575Y963D02*
X1582Y963D01*
X1Y962D02*
X8Y962D01*
X1575Y962D02*
X1582Y962D01*
X1Y961D02*
X8Y961D01*
X1575Y961D02*
X1582Y961D01*
X1Y960D02*
X8Y960D01*
X1575Y960D02*
X1582Y960D01*
X1Y959D02*
X8Y959D01*
X1575Y959D02*
X1582Y959D01*
X1Y958D02*
X8Y958D01*
X1575Y958D02*
X1582Y958D01*
X1Y957D02*
X8Y957D01*
X1575Y957D02*
X1582Y957D01*
X1Y956D02*
X8Y956D01*
X1575Y956D02*
X1582Y956D01*
X1Y955D02*
X8Y955D01*
X1575Y955D02*
X1582Y955D01*
X1Y954D02*
X8Y954D01*
X1575Y954D02*
X1582Y954D01*
X1Y953D02*
X8Y953D01*
X1575Y953D02*
X1582Y953D01*
X1Y952D02*
X8Y952D01*
X1575Y952D02*
X1582Y952D01*
X1Y951D02*
X8Y951D01*
X1575Y951D02*
X1582Y951D01*
X1Y950D02*
X8Y950D01*
X1575Y950D02*
X1582Y950D01*
X1Y949D02*
X8Y949D01*
X1575Y949D02*
X1582Y949D01*
X1Y948D02*
X8Y948D01*
X1575Y948D02*
X1582Y948D01*
X1Y947D02*
X8Y947D01*
X1575Y947D02*
X1582Y947D01*
X1Y946D02*
X8Y946D01*
X1575Y946D02*
X1582Y946D01*
X1Y945D02*
X8Y945D01*
X1575Y945D02*
X1582Y945D01*
X1Y944D02*
X8Y944D01*
X1575Y944D02*
X1582Y944D01*
X1Y943D02*
X8Y943D01*
X1575Y943D02*
X1582Y943D01*
X1Y942D02*
X8Y942D01*
X1575Y942D02*
X1582Y942D01*
X1Y941D02*
X8Y941D01*
X1575Y941D02*
X1582Y941D01*
X1Y940D02*
X8Y940D01*
X1575Y940D02*
X1582Y940D01*
X1Y939D02*
X8Y939D01*
X1575Y939D02*
X1582Y939D01*
X1Y938D02*
X8Y938D01*
X1575Y938D02*
X1582Y938D01*
X1Y937D02*
X8Y937D01*
X1575Y937D02*
X1582Y937D01*
X1Y936D02*
X8Y936D01*
X1575Y936D02*
X1582Y936D01*
X1Y935D02*
X8Y935D01*
X1575Y935D02*
X1582Y935D01*
X1Y934D02*
X8Y934D01*
X1575Y934D02*
X1582Y934D01*
X1Y933D02*
X8Y933D01*
X1575Y933D02*
X1582Y933D01*
X1Y932D02*
X8Y932D01*
X1575Y932D02*
X1582Y932D01*
X1Y931D02*
X8Y931D01*
X1575Y931D02*
X1582Y931D01*
X1Y930D02*
X8Y930D01*
X1575Y930D02*
X1582Y930D01*
X1Y929D02*
X8Y929D01*
X1575Y929D02*
X1582Y929D01*
X1Y928D02*
X8Y928D01*
X1575Y928D02*
X1582Y928D01*
X1Y927D02*
X8Y927D01*
X1575Y927D02*
X1582Y927D01*
X1Y926D02*
X8Y926D01*
X1575Y926D02*
X1582Y926D01*
X1Y925D02*
X8Y925D01*
X1575Y925D02*
X1582Y925D01*
X1Y924D02*
X8Y924D01*
X1575Y924D02*
X1582Y924D01*
X1Y923D02*
X8Y923D01*
X1575Y923D02*
X1582Y923D01*
X1Y922D02*
X8Y922D01*
X1575Y922D02*
X1582Y922D01*
X1Y921D02*
X8Y921D01*
X1575Y921D02*
X1582Y921D01*
X1Y920D02*
X8Y920D01*
X1575Y920D02*
X1582Y920D01*
X1Y919D02*
X8Y919D01*
X1575Y919D02*
X1582Y919D01*
X1Y918D02*
X8Y918D01*
X1575Y918D02*
X1582Y918D01*
X1Y917D02*
X8Y917D01*
X1575Y917D02*
X1582Y917D01*
X1Y916D02*
X8Y916D01*
X1575Y916D02*
X1582Y916D01*
X1Y915D02*
X8Y915D01*
X1575Y915D02*
X1582Y915D01*
X1Y914D02*
X8Y914D01*
X1575Y914D02*
X1582Y914D01*
X1Y913D02*
X8Y913D01*
X1575Y913D02*
X1582Y913D01*
X1Y912D02*
X8Y912D01*
X1575Y912D02*
X1582Y912D01*
X1Y911D02*
X8Y911D01*
X1575Y911D02*
X1582Y911D01*
X1Y910D02*
X8Y910D01*
X1575Y910D02*
X1582Y910D01*
X1Y909D02*
X8Y909D01*
X1575Y909D02*
X1582Y909D01*
X1Y908D02*
X8Y908D01*
X1575Y908D02*
X1582Y908D01*
X1Y907D02*
X8Y907D01*
X1575Y907D02*
X1582Y907D01*
X1Y906D02*
X8Y906D01*
X1575Y906D02*
X1582Y906D01*
X1Y905D02*
X8Y905D01*
X1575Y905D02*
X1582Y905D01*
X1Y904D02*
X8Y904D01*
X1575Y904D02*
X1582Y904D01*
X1Y903D02*
X8Y903D01*
X1575Y903D02*
X1582Y903D01*
X1Y902D02*
X8Y902D01*
X1575Y902D02*
X1582Y902D01*
X1Y901D02*
X8Y901D01*
X1575Y901D02*
X1582Y901D01*
X1Y900D02*
X8Y900D01*
X1575Y900D02*
X1582Y900D01*
X1Y899D02*
X8Y899D01*
X1575Y899D02*
X1582Y899D01*
X1Y898D02*
X8Y898D01*
X1575Y898D02*
X1582Y898D01*
X1Y897D02*
X8Y897D01*
X1575Y897D02*
X1582Y897D01*
X1Y896D02*
X8Y896D01*
X1575Y896D02*
X1582Y896D01*
X1Y895D02*
X8Y895D01*
X1575Y895D02*
X1582Y895D01*
X1Y894D02*
X8Y894D01*
X1575Y894D02*
X1582Y894D01*
X1Y893D02*
X8Y893D01*
X1575Y893D02*
X1582Y893D01*
X1Y892D02*
X8Y892D01*
X1575Y892D02*
X1582Y892D01*
X1Y891D02*
X8Y891D01*
X1575Y891D02*
X1582Y891D01*
X1Y890D02*
X8Y890D01*
X1575Y890D02*
X1582Y890D01*
X1Y889D02*
X8Y889D01*
X1575Y889D02*
X1582Y889D01*
X1Y888D02*
X8Y888D01*
X1575Y888D02*
X1582Y888D01*
X1Y887D02*
X8Y887D01*
X1575Y887D02*
X1582Y887D01*
X1Y886D02*
X8Y886D01*
X1575Y886D02*
X1582Y886D01*
X1Y885D02*
X8Y885D01*
X1575Y885D02*
X1582Y885D01*
X1Y884D02*
X8Y884D01*
X1575Y884D02*
X1582Y884D01*
X1Y883D02*
X8Y883D01*
X1575Y883D02*
X1582Y883D01*
X1Y882D02*
X8Y882D01*
X1575Y882D02*
X1582Y882D01*
X1Y881D02*
X8Y881D01*
X1575Y881D02*
X1582Y881D01*
X1Y880D02*
X8Y880D01*
X1575Y880D02*
X1582Y880D01*
X1Y879D02*
X8Y879D01*
X1575Y879D02*
X1582Y879D01*
X1Y878D02*
X8Y878D01*
X1575Y878D02*
X1582Y878D01*
X1Y877D02*
X8Y877D01*
X1575Y877D02*
X1582Y877D01*
X1Y876D02*
X8Y876D01*
X1575Y876D02*
X1582Y876D01*
X1Y875D02*
X8Y875D01*
X1575Y875D02*
X1582Y875D01*
X1Y874D02*
X8Y874D01*
X1575Y874D02*
X1582Y874D01*
X1Y873D02*
X8Y873D01*
X1575Y873D02*
X1582Y873D01*
X1Y872D02*
X8Y872D01*
X1575Y872D02*
X1582Y872D01*
X1Y871D02*
X8Y871D01*
X1575Y871D02*
X1582Y871D01*
X1Y870D02*
X8Y870D01*
X1575Y870D02*
X1582Y870D01*
X1Y869D02*
X8Y869D01*
X1575Y869D02*
X1582Y869D01*
X1Y868D02*
X8Y868D01*
X1575Y868D02*
X1582Y868D01*
X1Y867D02*
X8Y867D01*
X1575Y867D02*
X1582Y867D01*
X1Y866D02*
X8Y866D01*
X1575Y866D02*
X1582Y866D01*
X1Y865D02*
X8Y865D01*
X1575Y865D02*
X1582Y865D01*
X1Y864D02*
X8Y864D01*
X1575Y864D02*
X1582Y864D01*
X1Y863D02*
X8Y863D01*
X1575Y863D02*
X1582Y863D01*
X1Y862D02*
X8Y862D01*
X1575Y862D02*
X1582Y862D01*
X1Y861D02*
X8Y861D01*
X1575Y861D02*
X1582Y861D01*
X1Y860D02*
X8Y860D01*
X1575Y860D02*
X1582Y860D01*
X1Y859D02*
X8Y859D01*
X1575Y859D02*
X1582Y859D01*
X1Y858D02*
X8Y858D01*
X1575Y858D02*
X1582Y858D01*
X1Y857D02*
X8Y857D01*
X1575Y857D02*
X1582Y857D01*
X1Y856D02*
X8Y856D01*
X1575Y856D02*
X1582Y856D01*
X1Y855D02*
X8Y855D01*
X1575Y855D02*
X1582Y855D01*
X1Y854D02*
X8Y854D01*
X1575Y854D02*
X1582Y854D01*
X1Y853D02*
X8Y853D01*
X1575Y853D02*
X1582Y853D01*
X1Y852D02*
X8Y852D01*
X1575Y852D02*
X1582Y852D01*
X1Y851D02*
X8Y851D01*
X1575Y851D02*
X1582Y851D01*
X1Y850D02*
X8Y850D01*
X1575Y850D02*
X1582Y850D01*
X1Y849D02*
X8Y849D01*
X1575Y849D02*
X1582Y849D01*
X1Y848D02*
X8Y848D01*
X1575Y848D02*
X1582Y848D01*
X1Y847D02*
X8Y847D01*
X1575Y847D02*
X1582Y847D01*
X1Y846D02*
X8Y846D01*
X1575Y846D02*
X1582Y846D01*
X1Y845D02*
X8Y845D01*
X1575Y845D02*
X1582Y845D01*
X1Y844D02*
X8Y844D01*
X1575Y844D02*
X1582Y844D01*
X1Y843D02*
X8Y843D01*
X1575Y843D02*
X1582Y843D01*
X1Y842D02*
X8Y842D01*
X1575Y842D02*
X1582Y842D01*
X1Y841D02*
X8Y841D01*
X1575Y841D02*
X1582Y841D01*
X1Y840D02*
X8Y840D01*
X1575Y840D02*
X1582Y840D01*
X1Y839D02*
X8Y839D01*
X1575Y839D02*
X1582Y839D01*
X1Y838D02*
X8Y838D01*
X1575Y838D02*
X1582Y838D01*
X1Y837D02*
X8Y837D01*
X1575Y837D02*
X1582Y837D01*
X1Y836D02*
X8Y836D01*
X1575Y836D02*
X1582Y836D01*
X1Y835D02*
X8Y835D01*
X1575Y835D02*
X1582Y835D01*
X1Y834D02*
X8Y834D01*
X1575Y834D02*
X1582Y834D01*
X1Y833D02*
X8Y833D01*
X1575Y833D02*
X1582Y833D01*
X1Y832D02*
X8Y832D01*
X1575Y832D02*
X1582Y832D01*
X1Y831D02*
X8Y831D01*
X1575Y831D02*
X1582Y831D01*
X1Y830D02*
X8Y830D01*
X1575Y830D02*
X1582Y830D01*
X1Y829D02*
X8Y829D01*
X1575Y829D02*
X1582Y829D01*
X1Y828D02*
X8Y828D01*
X1575Y828D02*
X1582Y828D01*
X1Y827D02*
X8Y827D01*
X1575Y827D02*
X1582Y827D01*
X1Y826D02*
X8Y826D01*
X1575Y826D02*
X1582Y826D01*
X1Y825D02*
X8Y825D01*
X1575Y825D02*
X1582Y825D01*
X1Y824D02*
X8Y824D01*
X1575Y824D02*
X1582Y824D01*
X1Y823D02*
X8Y823D01*
X1575Y823D02*
X1582Y823D01*
X1Y822D02*
X8Y822D01*
X1575Y822D02*
X1582Y822D01*
X1Y821D02*
X8Y821D01*
X1575Y821D02*
X1582Y821D01*
X1Y820D02*
X8Y820D01*
X1575Y820D02*
X1582Y820D01*
X1Y819D02*
X8Y819D01*
X1575Y819D02*
X1582Y819D01*
X1Y818D02*
X8Y818D01*
X1575Y818D02*
X1582Y818D01*
X1Y817D02*
X8Y817D01*
X1575Y817D02*
X1582Y817D01*
X1Y816D02*
X8Y816D01*
X1575Y816D02*
X1582Y816D01*
X1Y815D02*
X8Y815D01*
X1575Y815D02*
X1582Y815D01*
X1Y814D02*
X8Y814D01*
X1575Y814D02*
X1582Y814D01*
X1Y813D02*
X8Y813D01*
X1575Y813D02*
X1582Y813D01*
X1Y812D02*
X8Y812D01*
X1575Y812D02*
X1582Y812D01*
X1Y811D02*
X8Y811D01*
X1575Y811D02*
X1582Y811D01*
X1Y810D02*
X8Y810D01*
X1575Y810D02*
X1582Y810D01*
X1Y809D02*
X8Y809D01*
X1575Y809D02*
X1582Y809D01*
X1Y808D02*
X8Y808D01*
X1575Y808D02*
X1582Y808D01*
X1Y807D02*
X8Y807D01*
X1575Y807D02*
X1582Y807D01*
X1Y806D02*
X8Y806D01*
X1575Y806D02*
X1582Y806D01*
X1Y805D02*
X8Y805D01*
X1575Y805D02*
X1582Y805D01*
X1Y804D02*
X8Y804D01*
X1575Y804D02*
X1582Y804D01*
X1Y803D02*
X8Y803D01*
X1575Y803D02*
X1582Y803D01*
X1Y802D02*
X8Y802D01*
X1575Y802D02*
X1582Y802D01*
X1Y801D02*
X8Y801D01*
X1575Y801D02*
X1582Y801D01*
X1Y800D02*
X8Y800D01*
X1575Y800D02*
X1582Y800D01*
X1Y799D02*
X8Y799D01*
X1575Y799D02*
X1582Y799D01*
X1Y798D02*
X8Y798D01*
X1575Y798D02*
X1582Y798D01*
X1Y797D02*
X8Y797D01*
X1575Y797D02*
X1582Y797D01*
X1Y796D02*
X8Y796D01*
X1575Y796D02*
X1582Y796D01*
X1Y795D02*
X8Y795D01*
X1575Y795D02*
X1582Y795D01*
X1Y794D02*
X8Y794D01*
X1575Y794D02*
X1582Y794D01*
X1Y793D02*
X8Y793D01*
X1575Y793D02*
X1582Y793D01*
X1Y792D02*
X8Y792D01*
X1575Y792D02*
X1582Y792D01*
X1Y791D02*
X8Y791D01*
X1575Y791D02*
X1582Y791D01*
X1Y790D02*
X8Y790D01*
X1575Y790D02*
X1582Y790D01*
X1Y789D02*
X8Y789D01*
X1575Y789D02*
X1582Y789D01*
X1Y788D02*
X8Y788D01*
X1575Y788D02*
X1582Y788D01*
X1Y787D02*
X8Y787D01*
X1575Y787D02*
X1582Y787D01*
X1Y786D02*
X8Y786D01*
X1575Y786D02*
X1582Y786D01*
X1Y785D02*
X8Y785D01*
X1575Y785D02*
X1582Y785D01*
X1Y784D02*
X8Y784D01*
X1575Y784D02*
X1582Y784D01*
X1Y783D02*
X8Y783D01*
X1575Y783D02*
X1582Y783D01*
X1Y782D02*
X8Y782D01*
X1575Y782D02*
X1582Y782D01*
X1Y781D02*
X8Y781D01*
X1575Y781D02*
X1582Y781D01*
X1Y780D02*
X8Y780D01*
X1575Y780D02*
X1582Y780D01*
X1Y779D02*
X8Y779D01*
X1575Y779D02*
X1582Y779D01*
X1Y778D02*
X8Y778D01*
X1575Y778D02*
X1582Y778D01*
X1Y777D02*
X8Y777D01*
X1575Y777D02*
X1582Y777D01*
X1Y776D02*
X8Y776D01*
X1575Y776D02*
X1582Y776D01*
X1Y775D02*
X8Y775D01*
X1575Y775D02*
X1582Y775D01*
X1Y774D02*
X8Y774D01*
X1575Y774D02*
X1582Y774D01*
X1Y773D02*
X8Y773D01*
X1575Y773D02*
X1582Y773D01*
X1Y772D02*
X8Y772D01*
X1575Y772D02*
X1582Y772D01*
X1Y771D02*
X8Y771D01*
X1575Y771D02*
X1582Y771D01*
X1Y770D02*
X8Y770D01*
X1575Y770D02*
X1582Y770D01*
X1Y769D02*
X8Y769D01*
X1575Y769D02*
X1582Y769D01*
X1Y768D02*
X8Y768D01*
X1575Y768D02*
X1582Y768D01*
X1Y767D02*
X8Y767D01*
X1575Y767D02*
X1582Y767D01*
X1Y766D02*
X8Y766D01*
X1575Y766D02*
X1582Y766D01*
X1Y765D02*
X8Y765D01*
X1575Y765D02*
X1582Y765D01*
X1Y764D02*
X8Y764D01*
X1575Y764D02*
X1582Y764D01*
X1Y763D02*
X8Y763D01*
X1575Y763D02*
X1582Y763D01*
X1Y762D02*
X8Y762D01*
X1575Y762D02*
X1582Y762D01*
X1Y761D02*
X8Y761D01*
X1575Y761D02*
X1582Y761D01*
X1Y760D02*
X8Y760D01*
X1575Y760D02*
X1582Y760D01*
X1Y759D02*
X8Y759D01*
X1575Y759D02*
X1582Y759D01*
X1Y758D02*
X8Y758D01*
X1575Y758D02*
X1582Y758D01*
X1Y757D02*
X8Y757D01*
X1575Y757D02*
X1582Y757D01*
X1Y756D02*
X8Y756D01*
X1575Y756D02*
X1582Y756D01*
X1Y755D02*
X8Y755D01*
X1575Y755D02*
X1582Y755D01*
X1Y754D02*
X8Y754D01*
X1575Y754D02*
X1582Y754D01*
X1Y753D02*
X8Y753D01*
X1575Y753D02*
X1582Y753D01*
X1Y752D02*
X8Y752D01*
X1575Y752D02*
X1582Y752D01*
X1Y751D02*
X8Y751D01*
X1575Y751D02*
X1582Y751D01*
X1Y750D02*
X8Y750D01*
X1575Y750D02*
X1582Y750D01*
X1Y749D02*
X8Y749D01*
X1575Y749D02*
X1582Y749D01*
X1Y748D02*
X8Y748D01*
X1575Y748D02*
X1582Y748D01*
X1Y747D02*
X8Y747D01*
X1575Y747D02*
X1582Y747D01*
X1Y746D02*
X8Y746D01*
X1575Y746D02*
X1582Y746D01*
X1Y745D02*
X8Y745D01*
X1575Y745D02*
X1582Y745D01*
X1Y744D02*
X8Y744D01*
X1575Y744D02*
X1582Y744D01*
X1Y743D02*
X8Y743D01*
X1575Y743D02*
X1582Y743D01*
X1Y742D02*
X8Y742D01*
X1575Y742D02*
X1582Y742D01*
X1Y741D02*
X8Y741D01*
X1575Y741D02*
X1582Y741D01*
X1Y740D02*
X8Y740D01*
X1575Y740D02*
X1582Y740D01*
X1Y739D02*
X8Y739D01*
X1575Y739D02*
X1582Y739D01*
X1Y738D02*
X8Y738D01*
X1575Y738D02*
X1582Y738D01*
X1Y737D02*
X8Y737D01*
X1575Y737D02*
X1582Y737D01*
X1Y736D02*
X8Y736D01*
X1575Y736D02*
X1582Y736D01*
X1Y735D02*
X8Y735D01*
X1575Y735D02*
X1582Y735D01*
X1Y734D02*
X8Y734D01*
X1575Y734D02*
X1582Y734D01*
X1Y733D02*
X8Y733D01*
X1575Y733D02*
X1582Y733D01*
X1Y732D02*
X8Y732D01*
X1575Y732D02*
X1582Y732D01*
X1Y731D02*
X8Y731D01*
X1575Y731D02*
X1582Y731D01*
X1Y730D02*
X8Y730D01*
X1575Y730D02*
X1582Y730D01*
X1Y729D02*
X8Y729D01*
X1575Y729D02*
X1582Y729D01*
X1Y728D02*
X8Y728D01*
X1575Y728D02*
X1582Y728D01*
X1Y727D02*
X8Y727D01*
X1575Y727D02*
X1582Y727D01*
X1Y726D02*
X8Y726D01*
X1575Y726D02*
X1582Y726D01*
X1Y725D02*
X8Y725D01*
X1575Y725D02*
X1582Y725D01*
X1Y724D02*
X8Y724D01*
X1575Y724D02*
X1582Y724D01*
X1Y723D02*
X8Y723D01*
X1575Y723D02*
X1582Y723D01*
X1Y722D02*
X8Y722D01*
X1575Y722D02*
X1582Y722D01*
X1Y721D02*
X8Y721D01*
X1575Y721D02*
X1582Y721D01*
X1Y720D02*
X8Y720D01*
X1575Y720D02*
X1582Y720D01*
X1Y719D02*
X8Y719D01*
X1575Y719D02*
X1582Y719D01*
X1Y718D02*
X8Y718D01*
X1575Y718D02*
X1582Y718D01*
X1Y717D02*
X8Y717D01*
X1575Y717D02*
X1582Y717D01*
X1Y716D02*
X8Y716D01*
X1575Y716D02*
X1582Y716D01*
X1Y715D02*
X8Y715D01*
X1575Y715D02*
X1582Y715D01*
X1Y714D02*
X8Y714D01*
X1575Y714D02*
X1582Y714D01*
X1Y713D02*
X8Y713D01*
X1575Y713D02*
X1582Y713D01*
X1Y712D02*
X8Y712D01*
X1575Y712D02*
X1582Y712D01*
X1Y711D02*
X8Y711D01*
X1575Y711D02*
X1582Y711D01*
X1Y710D02*
X8Y710D01*
X1575Y710D02*
X1582Y710D01*
X1Y709D02*
X8Y709D01*
X1575Y709D02*
X1582Y709D01*
X1Y708D02*
X8Y708D01*
X1575Y708D02*
X1582Y708D01*
X1Y707D02*
X8Y707D01*
X1575Y707D02*
X1582Y707D01*
X1Y706D02*
X8Y706D01*
X1575Y706D02*
X1582Y706D01*
X1Y705D02*
X8Y705D01*
X1575Y705D02*
X1582Y705D01*
X1Y704D02*
X8Y704D01*
X1575Y704D02*
X1582Y704D01*
X1Y703D02*
X8Y703D01*
X1575Y703D02*
X1582Y703D01*
X1Y702D02*
X8Y702D01*
X1575Y702D02*
X1582Y702D01*
X1Y701D02*
X8Y701D01*
X1575Y701D02*
X1582Y701D01*
X1Y700D02*
X8Y700D01*
X1575Y700D02*
X1582Y700D01*
X1Y699D02*
X8Y699D01*
X1575Y699D02*
X1582Y699D01*
X1Y698D02*
X8Y698D01*
X1575Y698D02*
X1582Y698D01*
X1Y697D02*
X8Y697D01*
X1575Y697D02*
X1582Y697D01*
X1Y696D02*
X8Y696D01*
X1575Y696D02*
X1582Y696D01*
X1Y695D02*
X8Y695D01*
X1575Y695D02*
X1582Y695D01*
X1Y694D02*
X8Y694D01*
X1575Y694D02*
X1582Y694D01*
X1Y693D02*
X8Y693D01*
X1575Y693D02*
X1582Y693D01*
X1Y692D02*
X8Y692D01*
X1575Y692D02*
X1582Y692D01*
X1Y691D02*
X8Y691D01*
X1575Y691D02*
X1582Y691D01*
X1Y690D02*
X8Y690D01*
X1575Y690D02*
X1582Y690D01*
X1Y689D02*
X8Y689D01*
X1575Y689D02*
X1582Y689D01*
X1Y688D02*
X8Y688D01*
X1575Y688D02*
X1582Y688D01*
X1Y687D02*
X8Y687D01*
X1575Y687D02*
X1582Y687D01*
X1Y686D02*
X8Y686D01*
X1575Y686D02*
X1582Y686D01*
X1Y685D02*
X8Y685D01*
X1575Y685D02*
X1582Y685D01*
X1Y684D02*
X8Y684D01*
X1575Y684D02*
X1582Y684D01*
X1Y683D02*
X8Y683D01*
X1575Y683D02*
X1582Y683D01*
X1Y682D02*
X8Y682D01*
X1575Y682D02*
X1582Y682D01*
X1Y681D02*
X8Y681D01*
X1575Y681D02*
X1582Y681D01*
X1Y680D02*
X8Y680D01*
X1575Y680D02*
X1582Y680D01*
X1Y679D02*
X8Y679D01*
X1575Y679D02*
X1582Y679D01*
X1Y678D02*
X8Y678D01*
X1575Y678D02*
X1582Y678D01*
X1Y677D02*
X8Y677D01*
X1575Y677D02*
X1582Y677D01*
X1Y676D02*
X8Y676D01*
X1575Y676D02*
X1582Y676D01*
X1Y675D02*
X8Y675D01*
X1575Y675D02*
X1582Y675D01*
X1Y674D02*
X8Y674D01*
X1575Y674D02*
X1582Y674D01*
X1Y673D02*
X8Y673D01*
X1575Y673D02*
X1582Y673D01*
X1Y672D02*
X8Y672D01*
X1575Y672D02*
X1582Y672D01*
X1Y671D02*
X8Y671D01*
X1575Y671D02*
X1582Y671D01*
X1Y670D02*
X8Y670D01*
X1575Y670D02*
X1582Y670D01*
X1Y669D02*
X8Y669D01*
X1575Y669D02*
X1582Y669D01*
X1Y668D02*
X8Y668D01*
X1575Y668D02*
X1582Y668D01*
X1Y667D02*
X8Y667D01*
X1575Y667D02*
X1582Y667D01*
X1Y666D02*
X8Y666D01*
X1575Y666D02*
X1582Y666D01*
X1Y665D02*
X8Y665D01*
X1575Y665D02*
X1582Y665D01*
X1Y664D02*
X8Y664D01*
X1575Y664D02*
X1582Y664D01*
X1Y663D02*
X8Y663D01*
X1575Y663D02*
X1582Y663D01*
X1Y662D02*
X8Y662D01*
X1575Y662D02*
X1582Y662D01*
X1Y661D02*
X8Y661D01*
X1575Y661D02*
X1582Y661D01*
X1Y660D02*
X8Y660D01*
X1575Y660D02*
X1582Y660D01*
X1Y659D02*
X8Y659D01*
X1575Y659D02*
X1582Y659D01*
X1Y658D02*
X8Y658D01*
X1575Y658D02*
X1582Y658D01*
X1Y657D02*
X8Y657D01*
X1575Y657D02*
X1582Y657D01*
X1Y656D02*
X8Y656D01*
X1575Y656D02*
X1582Y656D01*
X1Y655D02*
X8Y655D01*
X1575Y655D02*
X1582Y655D01*
X1Y654D02*
X8Y654D01*
X1575Y654D02*
X1582Y654D01*
X1Y653D02*
X8Y653D01*
X1575Y653D02*
X1582Y653D01*
X1Y652D02*
X8Y652D01*
X1575Y652D02*
X1582Y652D01*
X1Y651D02*
X8Y651D01*
X1575Y651D02*
X1582Y651D01*
X1Y650D02*
X8Y650D01*
X1575Y650D02*
X1582Y650D01*
X1Y649D02*
X8Y649D01*
X1575Y649D02*
X1582Y649D01*
X1Y648D02*
X8Y648D01*
X1575Y648D02*
X1582Y648D01*
X1Y647D02*
X8Y647D01*
X1575Y647D02*
X1582Y647D01*
X1Y646D02*
X8Y646D01*
X1575Y646D02*
X1582Y646D01*
X1Y645D02*
X8Y645D01*
X1575Y645D02*
X1582Y645D01*
X1Y644D02*
X8Y644D01*
X1575Y644D02*
X1582Y644D01*
X1Y643D02*
X8Y643D01*
X1575Y643D02*
X1582Y643D01*
X1Y642D02*
X8Y642D01*
X1575Y642D02*
X1582Y642D01*
X1Y641D02*
X8Y641D01*
X1575Y641D02*
X1582Y641D01*
X1Y640D02*
X8Y640D01*
X1575Y640D02*
X1582Y640D01*
X1Y639D02*
X8Y639D01*
X1575Y639D02*
X1582Y639D01*
X1Y638D02*
X8Y638D01*
X1575Y638D02*
X1582Y638D01*
X1Y637D02*
X8Y637D01*
X1575Y637D02*
X1582Y637D01*
X1Y636D02*
X8Y636D01*
X1575Y636D02*
X1582Y636D01*
X1Y635D02*
X8Y635D01*
X1575Y635D02*
X1582Y635D01*
X1Y634D02*
X8Y634D01*
X1575Y634D02*
X1582Y634D01*
X1Y633D02*
X8Y633D01*
X1575Y633D02*
X1582Y633D01*
X1Y632D02*
X8Y632D01*
X1575Y632D02*
X1582Y632D01*
X1Y631D02*
X8Y631D01*
X1575Y631D02*
X1582Y631D01*
X1Y630D02*
X8Y630D01*
X1575Y630D02*
X1582Y630D01*
X1Y629D02*
X8Y629D01*
X1575Y629D02*
X1582Y629D01*
X1Y628D02*
X8Y628D01*
X1575Y628D02*
X1582Y628D01*
X1Y627D02*
X8Y627D01*
X1575Y627D02*
X1582Y627D01*
X1Y626D02*
X8Y626D01*
X1575Y626D02*
X1582Y626D01*
X1Y625D02*
X8Y625D01*
X1575Y625D02*
X1582Y625D01*
X1Y624D02*
X8Y624D01*
X1575Y624D02*
X1582Y624D01*
X1Y623D02*
X8Y623D01*
X1575Y623D02*
X1582Y623D01*
X1Y622D02*
X8Y622D01*
X1575Y622D02*
X1582Y622D01*
X1Y621D02*
X8Y621D01*
X1575Y621D02*
X1582Y621D01*
X1Y620D02*
X8Y620D01*
X1575Y620D02*
X1582Y620D01*
X1Y619D02*
X8Y619D01*
X1575Y619D02*
X1582Y619D01*
X1Y618D02*
X8Y618D01*
X1575Y618D02*
X1582Y618D01*
X1Y617D02*
X8Y617D01*
X1575Y617D02*
X1582Y617D01*
X1Y616D02*
X8Y616D01*
X1575Y616D02*
X1582Y616D01*
X1Y615D02*
X8Y615D01*
X1575Y615D02*
X1582Y615D01*
X1Y614D02*
X8Y614D01*
X1575Y614D02*
X1582Y614D01*
X1Y613D02*
X8Y613D01*
X1575Y613D02*
X1582Y613D01*
X1Y612D02*
X8Y612D01*
X1575Y612D02*
X1582Y612D01*
X1Y611D02*
X8Y611D01*
X1575Y611D02*
X1582Y611D01*
X1Y610D02*
X8Y610D01*
X1575Y610D02*
X1582Y610D01*
X1Y609D02*
X8Y609D01*
X1575Y609D02*
X1582Y609D01*
X1Y608D02*
X8Y608D01*
X1575Y608D02*
X1582Y608D01*
X1Y607D02*
X8Y607D01*
X1575Y607D02*
X1582Y607D01*
X1Y606D02*
X8Y606D01*
X1575Y606D02*
X1582Y606D01*
X1Y605D02*
X8Y605D01*
X1575Y605D02*
X1582Y605D01*
X1Y604D02*
X8Y604D01*
X1575Y604D02*
X1582Y604D01*
X1Y603D02*
X8Y603D01*
X1575Y603D02*
X1582Y603D01*
X1Y602D02*
X8Y602D01*
X1575Y602D02*
X1582Y602D01*
X1Y601D02*
X8Y601D01*
X1575Y601D02*
X1582Y601D01*
X1Y600D02*
X8Y600D01*
X1575Y600D02*
X1582Y600D01*
X1Y599D02*
X8Y599D01*
X1575Y599D02*
X1582Y599D01*
X1Y598D02*
X8Y598D01*
X1575Y598D02*
X1582Y598D01*
X1Y597D02*
X8Y597D01*
X1575Y597D02*
X1582Y597D01*
X1Y596D02*
X8Y596D01*
X1575Y596D02*
X1582Y596D01*
X1Y595D02*
X8Y595D01*
X1575Y595D02*
X1582Y595D01*
X1Y594D02*
X8Y594D01*
X1575Y594D02*
X1582Y594D01*
X1Y593D02*
X8Y593D01*
X1575Y593D02*
X1582Y593D01*
X1Y592D02*
X8Y592D01*
X1575Y592D02*
X1582Y592D01*
X1Y591D02*
X8Y591D01*
X1575Y591D02*
X1582Y591D01*
X1Y590D02*
X8Y590D01*
X1575Y590D02*
X1582Y590D01*
X1Y589D02*
X8Y589D01*
X1575Y589D02*
X1582Y589D01*
X1Y588D02*
X8Y588D01*
X1575Y588D02*
X1582Y588D01*
X1Y587D02*
X8Y587D01*
X1575Y587D02*
X1582Y587D01*
X1Y586D02*
X8Y586D01*
X1575Y586D02*
X1582Y586D01*
X1Y585D02*
X8Y585D01*
X1575Y585D02*
X1582Y585D01*
X1Y584D02*
X8Y584D01*
X1575Y584D02*
X1582Y584D01*
X1Y583D02*
X8Y583D01*
X1575Y583D02*
X1582Y583D01*
X1Y582D02*
X8Y582D01*
X1575Y582D02*
X1582Y582D01*
X1Y581D02*
X8Y581D01*
X1575Y581D02*
X1582Y581D01*
X1Y580D02*
X8Y580D01*
X1575Y580D02*
X1582Y580D01*
X1Y579D02*
X8Y579D01*
X1575Y579D02*
X1582Y579D01*
X1Y578D02*
X8Y578D01*
X1575Y578D02*
X1582Y578D01*
X1Y577D02*
X8Y577D01*
X1575Y577D02*
X1582Y577D01*
X1Y576D02*
X8Y576D01*
X1575Y576D02*
X1582Y576D01*
X1Y575D02*
X8Y575D01*
X1575Y575D02*
X1582Y575D01*
X1Y574D02*
X8Y574D01*
X1575Y574D02*
X1582Y574D01*
X1Y573D02*
X8Y573D01*
X1575Y573D02*
X1582Y573D01*
X1Y572D02*
X8Y572D01*
X1575Y572D02*
X1582Y572D01*
X1Y571D02*
X8Y571D01*
X1575Y571D02*
X1582Y571D01*
X1Y570D02*
X8Y570D01*
X1575Y570D02*
X1582Y570D01*
X1Y569D02*
X8Y569D01*
X1575Y569D02*
X1582Y569D01*
X1Y568D02*
X8Y568D01*
X1575Y568D02*
X1582Y568D01*
X1Y567D02*
X8Y567D01*
X1575Y567D02*
X1582Y567D01*
X1Y566D02*
X8Y566D01*
X1575Y566D02*
X1582Y566D01*
X1Y565D02*
X8Y565D01*
X1575Y565D02*
X1582Y565D01*
X1Y564D02*
X8Y564D01*
X1575Y564D02*
X1582Y564D01*
X1Y563D02*
X8Y563D01*
X1575Y563D02*
X1582Y563D01*
X1Y562D02*
X8Y562D01*
X1575Y562D02*
X1582Y562D01*
X1Y561D02*
X8Y561D01*
X1575Y561D02*
X1582Y561D01*
X1Y560D02*
X8Y560D01*
X1575Y560D02*
X1582Y560D01*
X1Y559D02*
X8Y559D01*
X1575Y559D02*
X1582Y559D01*
X1Y558D02*
X8Y558D01*
X1575Y558D02*
X1582Y558D01*
X1Y557D02*
X8Y557D01*
X1575Y557D02*
X1582Y557D01*
X1Y556D02*
X8Y556D01*
X1575Y556D02*
X1582Y556D01*
X1Y555D02*
X8Y555D01*
X1575Y555D02*
X1582Y555D01*
X1Y554D02*
X8Y554D01*
X1575Y554D02*
X1582Y554D01*
X1Y553D02*
X8Y553D01*
X1575Y553D02*
X1582Y553D01*
X1Y552D02*
X8Y552D01*
X1575Y552D02*
X1582Y552D01*
X1Y551D02*
X8Y551D01*
X1575Y551D02*
X1582Y551D01*
X1Y550D02*
X8Y550D01*
X1575Y550D02*
X1582Y550D01*
X1Y549D02*
X8Y549D01*
X1575Y549D02*
X1582Y549D01*
X1Y548D02*
X8Y548D01*
X1575Y548D02*
X1582Y548D01*
X1Y547D02*
X8Y547D01*
X1575Y547D02*
X1582Y547D01*
X1Y546D02*
X8Y546D01*
X1575Y546D02*
X1582Y546D01*
X1Y545D02*
X8Y545D01*
X1575Y545D02*
X1582Y545D01*
X1Y544D02*
X8Y544D01*
X1575Y544D02*
X1582Y544D01*
X1Y543D02*
X8Y543D01*
X1575Y543D02*
X1582Y543D01*
X1Y542D02*
X8Y542D01*
X1575Y542D02*
X1582Y542D01*
X1Y541D02*
X8Y541D01*
X1575Y541D02*
X1582Y541D01*
X1Y540D02*
X8Y540D01*
X1575Y540D02*
X1582Y540D01*
X1Y539D02*
X8Y539D01*
X1575Y539D02*
X1582Y539D01*
X1Y538D02*
X8Y538D01*
X1575Y538D02*
X1582Y538D01*
X1Y537D02*
X8Y537D01*
X1575Y537D02*
X1582Y537D01*
X1Y536D02*
X8Y536D01*
X1575Y536D02*
X1582Y536D01*
X1Y535D02*
X8Y535D01*
X1575Y535D02*
X1582Y535D01*
X1Y534D02*
X8Y534D01*
X1575Y534D02*
X1582Y534D01*
X1Y533D02*
X8Y533D01*
X1575Y533D02*
X1582Y533D01*
X1Y532D02*
X8Y532D01*
X1575Y532D02*
X1582Y532D01*
X1Y531D02*
X8Y531D01*
X1575Y531D02*
X1582Y531D01*
X1Y530D02*
X8Y530D01*
X1575Y530D02*
X1582Y530D01*
X1Y529D02*
X8Y529D01*
X1575Y529D02*
X1582Y529D01*
X1Y528D02*
X8Y528D01*
X1575Y528D02*
X1582Y528D01*
X1Y527D02*
X8Y527D01*
X1575Y527D02*
X1582Y527D01*
X1Y526D02*
X8Y526D01*
X1575Y526D02*
X1582Y526D01*
X1Y525D02*
X8Y525D01*
X1575Y525D02*
X1582Y525D01*
X1Y524D02*
X8Y524D01*
X1575Y524D02*
X1582Y524D01*
X1Y523D02*
X8Y523D01*
X1575Y523D02*
X1582Y523D01*
X1Y522D02*
X8Y522D01*
X1575Y522D02*
X1582Y522D01*
X1Y521D02*
X8Y521D01*
X1575Y521D02*
X1582Y521D01*
X1Y520D02*
X8Y520D01*
X1575Y520D02*
X1582Y520D01*
X1Y519D02*
X8Y519D01*
X1575Y519D02*
X1582Y519D01*
X1Y518D02*
X8Y518D01*
X1575Y518D02*
X1582Y518D01*
X1Y517D02*
X8Y517D01*
X1575Y517D02*
X1582Y517D01*
X1Y516D02*
X8Y516D01*
X1575Y516D02*
X1582Y516D01*
X1Y515D02*
X8Y515D01*
X1575Y515D02*
X1582Y515D01*
X1Y514D02*
X8Y514D01*
X1575Y514D02*
X1582Y514D01*
X1Y513D02*
X8Y513D01*
X1575Y513D02*
X1582Y513D01*
X1Y512D02*
X8Y512D01*
X1575Y512D02*
X1582Y512D01*
X1Y511D02*
X8Y511D01*
X1575Y511D02*
X1582Y511D01*
X1Y510D02*
X8Y510D01*
X1575Y510D02*
X1582Y510D01*
X1Y509D02*
X8Y509D01*
X1575Y509D02*
X1582Y509D01*
X1Y508D02*
X8Y508D01*
X1575Y508D02*
X1582Y508D01*
X1Y507D02*
X8Y507D01*
X1575Y507D02*
X1582Y507D01*
X1Y506D02*
X8Y506D01*
X1575Y506D02*
X1582Y506D01*
X1Y505D02*
X8Y505D01*
X1575Y505D02*
X1582Y505D01*
X1Y504D02*
X8Y504D01*
X1575Y504D02*
X1582Y504D01*
X1Y503D02*
X8Y503D01*
X1575Y503D02*
X1582Y503D01*
X1Y502D02*
X8Y502D01*
X1575Y502D02*
X1582Y502D01*
X1Y501D02*
X8Y501D01*
X1575Y501D02*
X1582Y501D01*
X1Y500D02*
X8Y500D01*
X1575Y500D02*
X1582Y500D01*
X1Y499D02*
X8Y499D01*
X1575Y499D02*
X1582Y499D01*
X1Y498D02*
X8Y498D01*
X1575Y498D02*
X1582Y498D01*
X1Y497D02*
X8Y497D01*
X1575Y497D02*
X1582Y497D01*
X1Y496D02*
X8Y496D01*
X1575Y496D02*
X1582Y496D01*
X1Y495D02*
X8Y495D01*
X1575Y495D02*
X1582Y495D01*
X1Y494D02*
X8Y494D01*
X1575Y494D02*
X1582Y494D01*
X1Y493D02*
X8Y493D01*
X1575Y493D02*
X1582Y493D01*
X1Y492D02*
X8Y492D01*
X1575Y492D02*
X1582Y492D01*
X1Y491D02*
X8Y491D01*
X1575Y491D02*
X1582Y491D01*
X1Y490D02*
X8Y490D01*
X1575Y490D02*
X1582Y490D01*
X1Y489D02*
X8Y489D01*
X1575Y489D02*
X1582Y489D01*
X1Y488D02*
X8Y488D01*
X1575Y488D02*
X1582Y488D01*
X1Y487D02*
X8Y487D01*
X1575Y487D02*
X1582Y487D01*
X1Y486D02*
X8Y486D01*
X1575Y486D02*
X1582Y486D01*
X1Y485D02*
X8Y485D01*
X1575Y485D02*
X1582Y485D01*
X1Y484D02*
X8Y484D01*
X1575Y484D02*
X1582Y484D01*
X1Y483D02*
X8Y483D01*
X1575Y483D02*
X1582Y483D01*
X1Y482D02*
X8Y482D01*
X1575Y482D02*
X1582Y482D01*
X1Y481D02*
X8Y481D01*
X1575Y481D02*
X1582Y481D01*
X1Y480D02*
X8Y480D01*
X1575Y480D02*
X1582Y480D01*
X1Y479D02*
X8Y479D01*
X1575Y479D02*
X1582Y479D01*
X1Y478D02*
X8Y478D01*
X1575Y478D02*
X1582Y478D01*
X1Y477D02*
X8Y477D01*
X1575Y477D02*
X1582Y477D01*
X1Y476D02*
X8Y476D01*
X1575Y476D02*
X1582Y476D01*
X1Y475D02*
X8Y475D01*
X1575Y475D02*
X1582Y475D01*
X1Y474D02*
X8Y474D01*
X1575Y474D02*
X1582Y474D01*
X1Y473D02*
X8Y473D01*
X1575Y473D02*
X1582Y473D01*
X1Y472D02*
X8Y472D01*
X1575Y472D02*
X1582Y472D01*
X1Y471D02*
X8Y471D01*
X1575Y471D02*
X1582Y471D01*
X1Y470D02*
X8Y470D01*
X1575Y470D02*
X1582Y470D01*
X1Y469D02*
X8Y469D01*
X1575Y469D02*
X1582Y469D01*
X1Y468D02*
X8Y468D01*
X1575Y468D02*
X1582Y468D01*
X1Y467D02*
X8Y467D01*
X1575Y467D02*
X1582Y467D01*
X1Y466D02*
X8Y466D01*
X1575Y466D02*
X1582Y466D01*
X1Y465D02*
X8Y465D01*
X1575Y465D02*
X1582Y465D01*
X1Y464D02*
X8Y464D01*
X1575Y464D02*
X1582Y464D01*
X1Y463D02*
X8Y463D01*
X1575Y463D02*
X1582Y463D01*
X1Y462D02*
X8Y462D01*
X1575Y462D02*
X1582Y462D01*
X1Y461D02*
X8Y461D01*
X1575Y461D02*
X1582Y461D01*
X1Y460D02*
X8Y460D01*
X1575Y460D02*
X1582Y460D01*
X1Y459D02*
X8Y459D01*
X1575Y459D02*
X1582Y459D01*
X1Y458D02*
X8Y458D01*
X1575Y458D02*
X1582Y458D01*
X1Y457D02*
X8Y457D01*
X1575Y457D02*
X1582Y457D01*
X1Y456D02*
X8Y456D01*
X1575Y456D02*
X1582Y456D01*
X1Y455D02*
X8Y455D01*
X1575Y455D02*
X1582Y455D01*
X1Y454D02*
X8Y454D01*
X1575Y454D02*
X1582Y454D01*
X1Y453D02*
X8Y453D01*
X1575Y453D02*
X1582Y453D01*
X1Y452D02*
X8Y452D01*
X1575Y452D02*
X1582Y452D01*
X1Y451D02*
X8Y451D01*
X1575Y451D02*
X1582Y451D01*
X1Y450D02*
X8Y450D01*
X1575Y450D02*
X1582Y450D01*
X1Y449D02*
X8Y449D01*
X1575Y449D02*
X1582Y449D01*
X1Y448D02*
X8Y448D01*
X1575Y448D02*
X1582Y448D01*
X1Y447D02*
X8Y447D01*
X1575Y447D02*
X1582Y447D01*
X1Y446D02*
X8Y446D01*
X1575Y446D02*
X1582Y446D01*
X1Y445D02*
X8Y445D01*
X1575Y445D02*
X1582Y445D01*
X1Y444D02*
X8Y444D01*
X1575Y444D02*
X1582Y444D01*
X1Y443D02*
X8Y443D01*
X1575Y443D02*
X1582Y443D01*
X1Y442D02*
X8Y442D01*
X1575Y442D02*
X1582Y442D01*
X1Y441D02*
X8Y441D01*
X1575Y441D02*
X1582Y441D01*
X1Y440D02*
X8Y440D01*
X1575Y440D02*
X1582Y440D01*
X1Y439D02*
X8Y439D01*
X1575Y439D02*
X1582Y439D01*
X1Y438D02*
X8Y438D01*
X1575Y438D02*
X1582Y438D01*
X1Y437D02*
X8Y437D01*
X1575Y437D02*
X1582Y437D01*
X1Y436D02*
X8Y436D01*
X1575Y436D02*
X1582Y436D01*
X1Y435D02*
X8Y435D01*
X1575Y435D02*
X1582Y435D01*
X1Y434D02*
X8Y434D01*
X1575Y434D02*
X1582Y434D01*
X1Y433D02*
X8Y433D01*
X1575Y433D02*
X1582Y433D01*
X1Y432D02*
X8Y432D01*
X1575Y432D02*
X1582Y432D01*
X1Y431D02*
X8Y431D01*
X1575Y431D02*
X1582Y431D01*
X1Y430D02*
X8Y430D01*
X1575Y430D02*
X1582Y430D01*
X1Y429D02*
X8Y429D01*
X1575Y429D02*
X1582Y429D01*
X1Y428D02*
X8Y428D01*
X1575Y428D02*
X1582Y428D01*
X1Y427D02*
X8Y427D01*
X1575Y427D02*
X1582Y427D01*
X1Y426D02*
X8Y426D01*
X1575Y426D02*
X1582Y426D01*
X1Y425D02*
X8Y425D01*
X1575Y425D02*
X1582Y425D01*
X1Y424D02*
X8Y424D01*
X1575Y424D02*
X1582Y424D01*
X1Y423D02*
X8Y423D01*
X1575Y423D02*
X1582Y423D01*
X1Y422D02*
X8Y422D01*
X1575Y422D02*
X1582Y422D01*
X1Y421D02*
X8Y421D01*
X1575Y421D02*
X1582Y421D01*
X1Y420D02*
X8Y420D01*
X1575Y420D02*
X1582Y420D01*
X1Y419D02*
X8Y419D01*
X1575Y419D02*
X1582Y419D01*
X1Y418D02*
X8Y418D01*
X1575Y418D02*
X1582Y418D01*
X1Y417D02*
X8Y417D01*
X1575Y417D02*
X1582Y417D01*
X1Y416D02*
X8Y416D01*
X1575Y416D02*
X1582Y416D01*
X1Y415D02*
X8Y415D01*
X1575Y415D02*
X1582Y415D01*
X1Y414D02*
X8Y414D01*
X1575Y414D02*
X1582Y414D01*
X1Y413D02*
X8Y413D01*
X1575Y413D02*
X1582Y413D01*
X1Y412D02*
X8Y412D01*
X1575Y412D02*
X1582Y412D01*
X1Y411D02*
X8Y411D01*
X1575Y411D02*
X1582Y411D01*
X1Y410D02*
X8Y410D01*
X1575Y410D02*
X1582Y410D01*
X1Y409D02*
X8Y409D01*
X1575Y409D02*
X1582Y409D01*
X1Y408D02*
X8Y408D01*
X1575Y408D02*
X1582Y408D01*
X1Y407D02*
X8Y407D01*
X1575Y407D02*
X1582Y407D01*
X1Y406D02*
X8Y406D01*
X1575Y406D02*
X1582Y406D01*
X1Y405D02*
X8Y405D01*
X1575Y405D02*
X1582Y405D01*
X1Y404D02*
X8Y404D01*
X1575Y404D02*
X1582Y404D01*
X1Y403D02*
X8Y403D01*
X1575Y403D02*
X1582Y403D01*
X1Y402D02*
X8Y402D01*
X1575Y402D02*
X1582Y402D01*
X1Y401D02*
X8Y401D01*
X1575Y401D02*
X1582Y401D01*
X1Y400D02*
X8Y400D01*
X1575Y400D02*
X1582Y400D01*
X1Y399D02*
X8Y399D01*
X1575Y399D02*
X1582Y399D01*
X1Y398D02*
X8Y398D01*
X1575Y398D02*
X1582Y398D01*
X1Y397D02*
X8Y397D01*
X1575Y397D02*
X1582Y397D01*
X1Y396D02*
X8Y396D01*
X1575Y396D02*
X1582Y396D01*
X1Y395D02*
X8Y395D01*
X1575Y395D02*
X1582Y395D01*
X1Y394D02*
X8Y394D01*
X1575Y394D02*
X1582Y394D01*
X1Y393D02*
X8Y393D01*
X1575Y393D02*
X1582Y393D01*
X1Y392D02*
X8Y392D01*
X1575Y392D02*
X1582Y392D01*
X1Y391D02*
X8Y391D01*
X1575Y391D02*
X1582Y391D01*
X1Y390D02*
X8Y390D01*
X1575Y390D02*
X1582Y390D01*
X1Y389D02*
X8Y389D01*
X1575Y389D02*
X1582Y389D01*
X1Y388D02*
X8Y388D01*
X1575Y388D02*
X1582Y388D01*
X1Y387D02*
X8Y387D01*
X1575Y387D02*
X1582Y387D01*
X1Y386D02*
X8Y386D01*
X1575Y386D02*
X1582Y386D01*
X1Y385D02*
X8Y385D01*
X1575Y385D02*
X1582Y385D01*
X1Y384D02*
X8Y384D01*
X1575Y384D02*
X1582Y384D01*
X1Y383D02*
X8Y383D01*
X1575Y383D02*
X1582Y383D01*
X1Y382D02*
X8Y382D01*
X1575Y382D02*
X1582Y382D01*
X1Y381D02*
X8Y381D01*
X1575Y381D02*
X1582Y381D01*
X1Y380D02*
X8Y380D01*
X1575Y380D02*
X1582Y380D01*
X1Y379D02*
X8Y379D01*
X1575Y379D02*
X1582Y379D01*
X1Y378D02*
X8Y378D01*
X1575Y378D02*
X1582Y378D01*
X1Y377D02*
X8Y377D01*
X1575Y377D02*
X1582Y377D01*
X1Y376D02*
X8Y376D01*
X1575Y376D02*
X1582Y376D01*
X1Y375D02*
X8Y375D01*
X1575Y375D02*
X1582Y375D01*
X1Y374D02*
X8Y374D01*
X1575Y374D02*
X1582Y374D01*
X1Y373D02*
X8Y373D01*
X1575Y373D02*
X1582Y373D01*
X1Y372D02*
X8Y372D01*
X1575Y372D02*
X1582Y372D01*
X1Y371D02*
X8Y371D01*
X1575Y371D02*
X1582Y371D01*
X1Y370D02*
X8Y370D01*
X1575Y370D02*
X1582Y370D01*
X1Y369D02*
X8Y369D01*
X1575Y369D02*
X1582Y369D01*
X1Y368D02*
X8Y368D01*
X1575Y368D02*
X1582Y368D01*
X1Y367D02*
X8Y367D01*
X1575Y367D02*
X1582Y367D01*
X1Y366D02*
X8Y366D01*
X1575Y366D02*
X1582Y366D01*
X1Y365D02*
X8Y365D01*
X1575Y365D02*
X1582Y365D01*
X1Y364D02*
X8Y364D01*
X1575Y364D02*
X1582Y364D01*
X1Y363D02*
X8Y363D01*
X1575Y363D02*
X1582Y363D01*
X1Y362D02*
X8Y362D01*
X1575Y362D02*
X1582Y362D01*
X1Y361D02*
X8Y361D01*
X1575Y361D02*
X1582Y361D01*
X1Y360D02*
X8Y360D01*
X1575Y360D02*
X1582Y360D01*
X1Y359D02*
X8Y359D01*
X1575Y359D02*
X1582Y359D01*
X1Y358D02*
X8Y358D01*
X1575Y358D02*
X1582Y358D01*
X1Y357D02*
X8Y357D01*
X1575Y357D02*
X1582Y357D01*
X1Y356D02*
X8Y356D01*
X1575Y356D02*
X1582Y356D01*
X1Y355D02*
X8Y355D01*
X1575Y355D02*
X1582Y355D01*
X1Y354D02*
X8Y354D01*
X1575Y354D02*
X1582Y354D01*
X1Y353D02*
X8Y353D01*
X1575Y353D02*
X1582Y353D01*
X1Y352D02*
X8Y352D01*
X1575Y352D02*
X1582Y352D01*
X1Y351D02*
X8Y351D01*
X1575Y351D02*
X1582Y351D01*
X1Y350D02*
X8Y350D01*
X1575Y350D02*
X1582Y350D01*
X1Y349D02*
X8Y349D01*
X1575Y349D02*
X1582Y349D01*
X1Y348D02*
X8Y348D01*
X1575Y348D02*
X1582Y348D01*
X1Y347D02*
X8Y347D01*
X1575Y347D02*
X1582Y347D01*
X1Y346D02*
X8Y346D01*
X1575Y346D02*
X1582Y346D01*
X1Y345D02*
X8Y345D01*
X1575Y345D02*
X1582Y345D01*
X1Y344D02*
X8Y344D01*
X1575Y344D02*
X1582Y344D01*
X1Y343D02*
X8Y343D01*
X1575Y343D02*
X1582Y343D01*
X1Y342D02*
X8Y342D01*
X1575Y342D02*
X1582Y342D01*
X1Y341D02*
X8Y341D01*
X1575Y341D02*
X1582Y341D01*
X1Y340D02*
X8Y340D01*
X1575Y340D02*
X1582Y340D01*
X1Y339D02*
X8Y339D01*
X1575Y339D02*
X1582Y339D01*
X1Y338D02*
X8Y338D01*
X1575Y338D02*
X1582Y338D01*
X1Y337D02*
X8Y337D01*
X1575Y337D02*
X1582Y337D01*
X1Y336D02*
X8Y336D01*
X1575Y336D02*
X1582Y336D01*
X1Y335D02*
X8Y335D01*
X1575Y335D02*
X1582Y335D01*
X1Y334D02*
X8Y334D01*
X1575Y334D02*
X1582Y334D01*
X1Y333D02*
X8Y333D01*
X1575Y333D02*
X1582Y333D01*
X1Y332D02*
X8Y332D01*
X1575Y332D02*
X1582Y332D01*
X1Y331D02*
X8Y331D01*
X1575Y331D02*
X1582Y331D01*
X1Y330D02*
X8Y330D01*
X1575Y330D02*
X1582Y330D01*
X1Y329D02*
X8Y329D01*
X1575Y329D02*
X1582Y329D01*
X1Y328D02*
X8Y328D01*
X1575Y328D02*
X1582Y328D01*
X1Y327D02*
X8Y327D01*
X1575Y327D02*
X1582Y327D01*
X1Y326D02*
X8Y326D01*
X1575Y326D02*
X1582Y326D01*
X1Y325D02*
X8Y325D01*
X1575Y325D02*
X1582Y325D01*
X1Y324D02*
X8Y324D01*
X1575Y324D02*
X1582Y324D01*
X1Y323D02*
X8Y323D01*
X1575Y323D02*
X1582Y323D01*
X1Y322D02*
X8Y322D01*
X1575Y322D02*
X1582Y322D01*
X1Y321D02*
X8Y321D01*
X1575Y321D02*
X1582Y321D01*
X1Y320D02*
X8Y320D01*
X1575Y320D02*
X1582Y320D01*
X1Y319D02*
X8Y319D01*
X1575Y319D02*
X1582Y319D01*
X1Y318D02*
X8Y318D01*
X1575Y318D02*
X1582Y318D01*
X1Y317D02*
X8Y317D01*
X1575Y317D02*
X1582Y317D01*
X1Y316D02*
X8Y316D01*
X1575Y316D02*
X1582Y316D01*
X1Y315D02*
X8Y315D01*
X1575Y315D02*
X1582Y315D01*
X1Y314D02*
X8Y314D01*
X1575Y314D02*
X1582Y314D01*
X1Y313D02*
X8Y313D01*
X1575Y313D02*
X1582Y313D01*
X1Y312D02*
X8Y312D01*
X1575Y312D02*
X1582Y312D01*
X1Y311D02*
X8Y311D01*
X1575Y311D02*
X1582Y311D01*
X1Y310D02*
X8Y310D01*
X1575Y310D02*
X1582Y310D01*
X1Y309D02*
X8Y309D01*
X1575Y309D02*
X1582Y309D01*
X1Y308D02*
X8Y308D01*
X1575Y308D02*
X1582Y308D01*
X1Y307D02*
X8Y307D01*
X1575Y307D02*
X1582Y307D01*
X1Y306D02*
X8Y306D01*
X1575Y306D02*
X1582Y306D01*
X1Y305D02*
X8Y305D01*
X1575Y305D02*
X1582Y305D01*
X1Y304D02*
X8Y304D01*
X1575Y304D02*
X1582Y304D01*
X1Y303D02*
X8Y303D01*
X1575Y303D02*
X1582Y303D01*
X1Y302D02*
X8Y302D01*
X1575Y302D02*
X1582Y302D01*
X1Y301D02*
X8Y301D01*
X1575Y301D02*
X1582Y301D01*
X1Y300D02*
X8Y300D01*
X1575Y300D02*
X1582Y300D01*
X1Y299D02*
X8Y299D01*
X1575Y299D02*
X1582Y299D01*
X1Y298D02*
X8Y298D01*
X1575Y298D02*
X1582Y298D01*
X1Y297D02*
X8Y297D01*
X1575Y297D02*
X1582Y297D01*
X1Y296D02*
X8Y296D01*
X1575Y296D02*
X1582Y296D01*
X1Y295D02*
X8Y295D01*
X1575Y295D02*
X1582Y295D01*
X1Y294D02*
X8Y294D01*
X1575Y294D02*
X1582Y294D01*
X1Y293D02*
X8Y293D01*
X1575Y293D02*
X1582Y293D01*
X1Y292D02*
X8Y292D01*
X1575Y292D02*
X1582Y292D01*
X1Y291D02*
X8Y291D01*
X1575Y291D02*
X1582Y291D01*
X1Y290D02*
X8Y290D01*
X1575Y290D02*
X1582Y290D01*
X1Y289D02*
X8Y289D01*
X1575Y289D02*
X1582Y289D01*
X1Y288D02*
X8Y288D01*
X1575Y288D02*
X1582Y288D01*
X1Y287D02*
X8Y287D01*
X1575Y287D02*
X1582Y287D01*
X1Y286D02*
X8Y286D01*
X1575Y286D02*
X1582Y286D01*
X1Y285D02*
X8Y285D01*
X1575Y285D02*
X1582Y285D01*
X1Y284D02*
X8Y284D01*
X1575Y284D02*
X1582Y284D01*
X1Y283D02*
X8Y283D01*
X1575Y283D02*
X1582Y283D01*
X1Y282D02*
X8Y282D01*
X1575Y282D02*
X1582Y282D01*
X1Y281D02*
X8Y281D01*
X1575Y281D02*
X1582Y281D01*
X1Y280D02*
X8Y280D01*
X1575Y280D02*
X1582Y280D01*
X1Y279D02*
X8Y279D01*
X1575Y279D02*
X1582Y279D01*
X1Y278D02*
X8Y278D01*
X1575Y278D02*
X1582Y278D01*
X1Y277D02*
X8Y277D01*
X1575Y277D02*
X1582Y277D01*
X1Y276D02*
X8Y276D01*
X1575Y276D02*
X1582Y276D01*
X1Y275D02*
X8Y275D01*
X1575Y275D02*
X1582Y275D01*
X1Y274D02*
X8Y274D01*
X1575Y274D02*
X1582Y274D01*
X1Y273D02*
X8Y273D01*
X1575Y273D02*
X1582Y273D01*
X1Y272D02*
X8Y272D01*
X1575Y272D02*
X1582Y272D01*
X1Y271D02*
X8Y271D01*
X1575Y271D02*
X1582Y271D01*
X1Y270D02*
X8Y270D01*
X1575Y270D02*
X1582Y270D01*
X1Y269D02*
X8Y269D01*
X1575Y269D02*
X1582Y269D01*
X1Y268D02*
X8Y268D01*
X1575Y268D02*
X1582Y268D01*
X1Y267D02*
X8Y267D01*
X152Y267D02*
X156Y267D01*
X809Y267D02*
X813Y267D01*
X960Y267D02*
X978Y267D01*
X1575Y267D02*
X1582Y267D01*
X1Y266D02*
X8Y266D01*
X151Y266D02*
X157Y266D01*
X808Y266D02*
X814Y266D01*
X958Y266D02*
X979Y266D01*
X1575Y266D02*
X1582Y266D01*
X1Y265D02*
X8Y265D01*
X150Y265D02*
X158Y265D01*
X807Y265D02*
X815Y265D01*
X956Y265D02*
X980Y265D01*
X1575Y265D02*
X1582Y265D01*
X1Y264D02*
X8Y264D01*
X97Y264D02*
X98Y264D01*
X150Y264D02*
X158Y264D01*
X688Y264D02*
X689Y264D01*
X807Y264D02*
X815Y264D01*
X955Y264D02*
X980Y264D01*
X1575Y264D02*
X1582Y264D01*
X1Y263D02*
X8Y263D01*
X95Y263D02*
X100Y263D01*
X150Y263D02*
X158Y263D01*
X686Y263D02*
X691Y263D01*
X807Y263D02*
X815Y263D01*
X954Y263D02*
X980Y263D01*
X1575Y263D02*
X1582Y263D01*
X1Y262D02*
X8Y262D01*
X94Y262D02*
X101Y262D01*
X150Y262D02*
X158Y262D01*
X685Y262D02*
X692Y262D01*
X807Y262D02*
X815Y262D01*
X953Y262D02*
X980Y262D01*
X1575Y262D02*
X1582Y262D01*
X1Y261D02*
X8Y261D01*
X94Y261D02*
X101Y261D01*
X150Y261D02*
X158Y261D01*
X685Y261D02*
X692Y261D01*
X807Y261D02*
X815Y261D01*
X952Y261D02*
X979Y261D01*
X1575Y261D02*
X1582Y261D01*
X1Y260D02*
X8Y260D01*
X93Y260D02*
X101Y260D01*
X150Y260D02*
X158Y260D01*
X684Y260D02*
X692Y260D01*
X807Y260D02*
X815Y260D01*
X952Y260D02*
X978Y260D01*
X1575Y260D02*
X1582Y260D01*
X1Y259D02*
X8Y259D01*
X93Y259D02*
X101Y259D01*
X150Y259D02*
X158Y259D01*
X684Y259D02*
X693Y259D01*
X807Y259D02*
X815Y259D01*
X951Y259D02*
X976Y259D01*
X1575Y259D02*
X1582Y259D01*
X1Y258D02*
X8Y258D01*
X93Y258D02*
X101Y258D01*
X150Y258D02*
X158Y258D01*
X684Y258D02*
X693Y258D01*
X807Y258D02*
X815Y258D01*
X951Y258D02*
X961Y258D01*
X1575Y258D02*
X1582Y258D01*
X1Y257D02*
X8Y257D01*
X93Y257D02*
X101Y257D01*
X150Y257D02*
X158Y257D01*
X684Y257D02*
X693Y257D01*
X807Y257D02*
X815Y257D01*
X950Y257D02*
X960Y257D01*
X1575Y257D02*
X1582Y257D01*
X1Y256D02*
X8Y256D01*
X93Y256D02*
X101Y256D01*
X150Y256D02*
X158Y256D01*
X684Y256D02*
X693Y256D01*
X807Y256D02*
X815Y256D01*
X950Y256D02*
X959Y256D01*
X1575Y256D02*
X1582Y256D01*
X1Y255D02*
X8Y255D01*
X93Y255D02*
X101Y255D01*
X150Y255D02*
X158Y255D01*
X684Y255D02*
X693Y255D01*
X807Y255D02*
X815Y255D01*
X950Y255D02*
X958Y255D01*
X1575Y255D02*
X1582Y255D01*
X1Y254D02*
X8Y254D01*
X93Y254D02*
X101Y254D01*
X150Y254D02*
X158Y254D01*
X684Y254D02*
X693Y254D01*
X807Y254D02*
X815Y254D01*
X950Y254D02*
X958Y254D01*
X1575Y254D02*
X1582Y254D01*
X1Y253D02*
X8Y253D01*
X93Y253D02*
X101Y253D01*
X150Y253D02*
X158Y253D01*
X684Y253D02*
X693Y253D01*
X807Y253D02*
X815Y253D01*
X949Y253D02*
X958Y253D01*
X1575Y253D02*
X1582Y253D01*
X1Y252D02*
X8Y252D01*
X93Y252D02*
X101Y252D01*
X150Y252D02*
X158Y252D01*
X684Y252D02*
X693Y252D01*
X807Y252D02*
X815Y252D01*
X949Y252D02*
X958Y252D01*
X1575Y252D02*
X1582Y252D01*
X1Y251D02*
X8Y251D01*
X93Y251D02*
X101Y251D01*
X150Y251D02*
X158Y251D01*
X684Y251D02*
X693Y251D01*
X807Y251D02*
X815Y251D01*
X949Y251D02*
X958Y251D01*
X1575Y251D02*
X1582Y251D01*
X1Y250D02*
X8Y250D01*
X93Y250D02*
X101Y250D01*
X150Y250D02*
X158Y250D01*
X684Y250D02*
X693Y250D01*
X807Y250D02*
X815Y250D01*
X949Y250D02*
X958Y250D01*
X1575Y250D02*
X1582Y250D01*
X1Y249D02*
X8Y249D01*
X93Y249D02*
X102Y249D01*
X150Y249D02*
X158Y249D01*
X684Y249D02*
X693Y249D01*
X807Y249D02*
X815Y249D01*
X949Y249D02*
X958Y249D01*
X1575Y249D02*
X1582Y249D01*
X1Y248D02*
X8Y248D01*
X87Y248D02*
X119Y248D01*
X150Y248D02*
X158Y248D01*
X171Y248D02*
X184Y248D01*
X229Y248D02*
X247Y248D01*
X348Y248D02*
X352Y248D01*
X359Y248D02*
X366Y248D01*
X378Y248D02*
X384Y248D01*
X426Y248D02*
X444Y248D01*
X480Y248D02*
X483Y248D01*
X491Y248D02*
X497Y248D01*
X510Y248D02*
X515Y248D01*
X557Y248D02*
X575Y248D01*
X613Y248D02*
X617Y248D01*
X631Y248D02*
X644Y248D01*
X678Y248D02*
X710Y248D01*
X807Y248D02*
X815Y248D01*
X824Y248D02*
X838Y248D01*
X886Y248D02*
X904Y248D01*
X943Y248D02*
X969Y248D01*
X1017Y248D02*
X1035Y248D01*
X1072Y248D02*
X1076Y248D01*
X1090Y248D02*
X1105Y248D01*
X1148Y248D02*
X1166Y248D01*
X1575Y248D02*
X1582Y248D01*
X1Y247D02*
X8Y247D01*
X85Y247D02*
X120Y247D01*
X150Y247D02*
X158Y247D01*
X169Y247D02*
X186Y247D01*
X226Y247D02*
X249Y247D01*
X347Y247D02*
X353Y247D01*
X357Y247D02*
X368Y247D01*
X376Y247D02*
X386Y247D01*
X423Y247D02*
X446Y247D01*
X479Y247D02*
X485Y247D01*
X489Y247D02*
X499Y247D01*
X507Y247D02*
X517Y247D01*
X555Y247D02*
X578Y247D01*
X611Y247D02*
X618Y247D01*
X629Y247D02*
X646Y247D01*
X676Y247D02*
X711Y247D01*
X807Y247D02*
X815Y247D01*
X822Y247D02*
X841Y247D01*
X883Y247D02*
X906Y247D01*
X941Y247D02*
X970Y247D01*
X1014Y247D02*
X1038Y247D01*
X1071Y247D02*
X1077Y247D01*
X1088Y247D02*
X1108Y247D01*
X1146Y247D02*
X1169Y247D01*
X1575Y247D02*
X1582Y247D01*
X1Y246D02*
X8Y246D01*
X85Y246D02*
X121Y246D01*
X150Y246D02*
X158Y246D01*
X167Y246D02*
X188Y246D01*
X225Y246D02*
X251Y246D01*
X347Y246D02*
X354Y246D01*
X356Y246D02*
X369Y246D01*
X374Y246D02*
X388Y246D01*
X422Y246D02*
X448Y246D01*
X478Y246D02*
X485Y246D01*
X487Y246D02*
X500Y246D01*
X506Y246D02*
X519Y246D01*
X553Y246D02*
X580Y246D01*
X611Y246D02*
X618Y246D01*
X627Y246D02*
X648Y246D01*
X676Y246D02*
X712Y246D01*
X807Y246D02*
X815Y246D01*
X820Y246D02*
X842Y246D01*
X881Y246D02*
X908Y246D01*
X941Y246D02*
X971Y246D01*
X1013Y246D02*
X1039Y246D01*
X1070Y246D02*
X1077Y246D01*
X1087Y246D02*
X1109Y246D01*
X1144Y246D02*
X1171Y246D01*
X1575Y246D02*
X1582Y246D01*
X1Y245D02*
X8Y245D01*
X84Y245D02*
X121Y245D01*
X150Y245D02*
X158Y245D01*
X165Y245D02*
X189Y245D01*
X223Y245D02*
X253Y245D01*
X346Y245D02*
X370Y245D01*
X373Y245D02*
X389Y245D01*
X420Y245D02*
X450Y245D01*
X478Y245D02*
X501Y245D01*
X504Y245D02*
X520Y245D01*
X552Y245D02*
X581Y245D01*
X611Y245D02*
X618Y245D01*
X626Y245D02*
X649Y245D01*
X676Y245D02*
X712Y245D01*
X807Y245D02*
X815Y245D01*
X819Y245D02*
X844Y245D01*
X880Y245D02*
X909Y245D01*
X941Y245D02*
X971Y245D01*
X1011Y245D02*
X1041Y245D01*
X1070Y245D02*
X1077Y245D01*
X1086Y245D02*
X1110Y245D01*
X1143Y245D02*
X1172Y245D01*
X1575Y245D02*
X1582Y245D01*
X1Y244D02*
X8Y244D01*
X84Y244D02*
X121Y244D01*
X150Y244D02*
X158Y244D01*
X164Y244D02*
X190Y244D01*
X222Y244D02*
X254Y244D01*
X346Y244D02*
X390Y244D01*
X419Y244D02*
X451Y244D01*
X478Y244D02*
X521Y244D01*
X550Y244D02*
X582Y244D01*
X610Y244D02*
X618Y244D01*
X624Y244D02*
X650Y244D01*
X675Y244D02*
X712Y244D01*
X807Y244D02*
X815Y244D01*
X817Y244D02*
X845Y244D01*
X879Y244D02*
X911Y244D01*
X940Y244D02*
X971Y244D01*
X1010Y244D02*
X1042Y244D01*
X1069Y244D02*
X1078Y244D01*
X1085Y244D02*
X1111Y244D01*
X1141Y244D02*
X1173Y244D01*
X1575Y244D02*
X1582Y244D01*
X1Y243D02*
X8Y243D01*
X84Y243D02*
X121Y243D01*
X150Y243D02*
X158Y243D01*
X162Y243D02*
X191Y243D01*
X221Y243D02*
X255Y243D01*
X346Y243D02*
X390Y243D01*
X418Y243D02*
X452Y243D01*
X478Y243D02*
X522Y243D01*
X549Y243D02*
X583Y243D01*
X610Y243D02*
X619Y243D01*
X623Y243D02*
X651Y243D01*
X676Y243D02*
X712Y243D01*
X807Y243D02*
X846Y243D01*
X878Y243D02*
X912Y243D01*
X941Y243D02*
X971Y243D01*
X1009Y243D02*
X1043Y243D01*
X1069Y243D02*
X1078Y243D01*
X1084Y243D02*
X1112Y243D01*
X1140Y243D02*
X1174Y243D01*
X1575Y243D02*
X1582Y243D01*
X1Y242D02*
X8Y242D01*
X85Y242D02*
X121Y242D01*
X150Y242D02*
X158Y242D01*
X161Y242D02*
X191Y242D01*
X220Y242D02*
X256Y242D01*
X346Y242D02*
X391Y242D01*
X417Y242D02*
X453Y242D01*
X478Y242D02*
X522Y242D01*
X548Y242D02*
X584Y242D01*
X610Y242D02*
X619Y242D01*
X621Y242D02*
X652Y242D01*
X676Y242D02*
X712Y242D01*
X807Y242D02*
X847Y242D01*
X877Y242D02*
X913Y242D01*
X941Y242D02*
X970Y242D01*
X1008Y242D02*
X1044Y242D01*
X1069Y242D02*
X1078Y242D01*
X1082Y242D02*
X1113Y242D01*
X1139Y242D02*
X1175Y242D01*
X1575Y242D02*
X1582Y242D01*
X1Y241D02*
X8Y241D01*
X86Y241D02*
X120Y241D01*
X150Y241D02*
X192Y241D01*
X219Y241D02*
X257Y241D01*
X346Y241D02*
X391Y241D01*
X416Y241D02*
X454Y241D01*
X478Y241D02*
X522Y241D01*
X547Y241D02*
X585Y241D01*
X610Y241D02*
X652Y241D01*
X677Y241D02*
X711Y241D01*
X807Y241D02*
X848Y241D01*
X876Y241D02*
X913Y241D01*
X942Y241D02*
X970Y241D01*
X1007Y241D02*
X1045Y241D01*
X1069Y241D02*
X1078Y241D01*
X1081Y241D02*
X1113Y241D01*
X1139Y241D02*
X1176Y241D01*
X1575Y241D02*
X1582Y241D01*
X1Y240D02*
X8Y240D01*
X87Y240D02*
X119Y240D01*
X150Y240D02*
X192Y240D01*
X218Y240D02*
X257Y240D01*
X346Y240D02*
X391Y240D01*
X415Y240D02*
X454Y240D01*
X478Y240D02*
X523Y240D01*
X547Y240D02*
X586Y240D01*
X610Y240D02*
X653Y240D01*
X678Y240D02*
X710Y240D01*
X807Y240D02*
X848Y240D01*
X875Y240D02*
X914Y240D01*
X943Y240D02*
X968Y240D01*
X1007Y240D02*
X1045Y240D01*
X1069Y240D02*
X1078Y240D01*
X1080Y240D02*
X1113Y240D01*
X1138Y240D02*
X1177Y240D01*
X1575Y240D02*
X1582Y240D01*
X1Y239D02*
X8Y239D01*
X93Y239D02*
X101Y239D01*
X150Y239D02*
X172Y239D01*
X182Y239D02*
X192Y239D01*
X218Y239D02*
X230Y239D01*
X246Y239D02*
X258Y239D01*
X346Y239D02*
X361Y239D01*
X364Y239D02*
X380Y239D01*
X383Y239D02*
X391Y239D01*
X415Y239D02*
X427Y239D01*
X443Y239D02*
X455Y239D01*
X478Y239D02*
X492Y239D01*
X496Y239D02*
X511Y239D01*
X514Y239D02*
X523Y239D01*
X546Y239D02*
X558Y239D01*
X575Y239D02*
X586Y239D01*
X610Y239D02*
X632Y239D01*
X643Y239D02*
X653Y239D01*
X684Y239D02*
X693Y239D01*
X807Y239D02*
X825Y239D01*
X837Y239D02*
X849Y239D01*
X875Y239D02*
X886Y239D01*
X903Y239D02*
X915Y239D01*
X949Y239D02*
X958Y239D01*
X1006Y239D02*
X1018Y239D01*
X1034Y239D02*
X1046Y239D01*
X1069Y239D02*
X1092Y239D01*
X1104Y239D02*
X1113Y239D01*
X1137Y239D02*
X1149Y239D01*
X1166Y239D02*
X1177Y239D01*
X1575Y239D02*
X1582Y239D01*
X1Y238D02*
X8Y238D01*
X93Y238D02*
X101Y238D01*
X150Y238D02*
X171Y238D01*
X184Y238D02*
X193Y238D01*
X217Y238D02*
X228Y238D01*
X248Y238D02*
X258Y238D01*
X346Y238D02*
X359Y238D01*
X365Y238D02*
X378Y238D01*
X383Y238D02*
X392Y238D01*
X414Y238D02*
X425Y238D01*
X445Y238D02*
X456Y238D01*
X478Y238D02*
X491Y238D01*
X496Y238D02*
X510Y238D01*
X515Y238D02*
X523Y238D01*
X546Y238D02*
X556Y238D01*
X576Y238D02*
X587Y238D01*
X610Y238D02*
X631Y238D01*
X644Y238D02*
X653Y238D01*
X684Y238D02*
X693Y238D01*
X807Y238D02*
X824Y238D01*
X839Y238D02*
X850Y238D01*
X874Y238D02*
X885Y238D01*
X905Y238D02*
X915Y238D01*
X949Y238D02*
X958Y238D01*
X1005Y238D02*
X1016Y238D01*
X1036Y238D02*
X1047Y238D01*
X1069Y238D02*
X1091Y238D01*
X1105Y238D02*
X1114Y238D01*
X1137Y238D02*
X1148Y238D01*
X1167Y238D02*
X1178Y238D01*
X1575Y238D02*
X1582Y238D01*
X1Y237D02*
X8Y237D01*
X93Y237D02*
X101Y237D01*
X150Y237D02*
X169Y237D01*
X184Y237D02*
X193Y237D01*
X217Y237D02*
X227Y237D01*
X249Y237D02*
X259Y237D01*
X346Y237D02*
X358Y237D01*
X365Y237D02*
X377Y237D01*
X383Y237D02*
X392Y237D01*
X414Y237D02*
X424Y237D01*
X446Y237D02*
X456Y237D01*
X478Y237D02*
X490Y237D01*
X496Y237D02*
X508Y237D01*
X515Y237D02*
X523Y237D01*
X545Y237D02*
X555Y237D01*
X578Y237D02*
X587Y237D01*
X610Y237D02*
X629Y237D01*
X645Y237D02*
X653Y237D01*
X684Y237D02*
X693Y237D01*
X807Y237D02*
X823Y237D01*
X840Y237D02*
X850Y237D01*
X874Y237D02*
X884Y237D01*
X906Y237D02*
X916Y237D01*
X949Y237D02*
X958Y237D01*
X1005Y237D02*
X1015Y237D01*
X1037Y237D02*
X1047Y237D01*
X1069Y237D02*
X1090Y237D01*
X1105Y237D02*
X1114Y237D01*
X1136Y237D02*
X1146Y237D01*
X1169Y237D02*
X1178Y237D01*
X1575Y237D02*
X1582Y237D01*
X1Y236D02*
X8Y236D01*
X93Y236D02*
X101Y236D01*
X150Y236D02*
X167Y236D01*
X185Y236D02*
X193Y236D01*
X216Y236D02*
X226Y236D01*
X250Y236D02*
X259Y236D01*
X346Y236D02*
X357Y236D01*
X365Y236D02*
X376Y236D01*
X383Y236D02*
X392Y236D01*
X413Y236D02*
X423Y236D01*
X447Y236D02*
X456Y236D01*
X478Y236D02*
X488Y236D01*
X496Y236D02*
X507Y236D01*
X515Y236D02*
X523Y236D01*
X545Y236D02*
X554Y236D01*
X578Y236D02*
X588Y236D01*
X610Y236D02*
X628Y236D01*
X645Y236D02*
X653Y236D01*
X684Y236D02*
X693Y236D01*
X807Y236D02*
X822Y236D01*
X841Y236D02*
X850Y236D01*
X873Y236D02*
X883Y236D01*
X907Y236D02*
X916Y236D01*
X949Y236D02*
X958Y236D01*
X1005Y236D02*
X1014Y236D01*
X1038Y236D02*
X1047Y236D01*
X1069Y236D02*
X1089Y236D01*
X1106Y236D02*
X1114Y236D01*
X1136Y236D02*
X1145Y236D01*
X1170Y236D02*
X1179Y236D01*
X1575Y236D02*
X1582Y236D01*
X1Y235D02*
X8Y235D01*
X93Y235D02*
X101Y235D01*
X150Y235D02*
X166Y235D01*
X185Y235D02*
X193Y235D01*
X216Y235D02*
X225Y235D01*
X251Y235D02*
X260Y235D01*
X346Y235D02*
X356Y235D01*
X365Y235D02*
X375Y235D01*
X384Y235D02*
X392Y235D01*
X413Y235D02*
X422Y235D01*
X448Y235D02*
X457Y235D01*
X478Y235D02*
X487Y235D01*
X496Y235D02*
X506Y235D01*
X515Y235D02*
X523Y235D01*
X544Y235D02*
X553Y235D01*
X579Y235D02*
X588Y235D01*
X610Y235D02*
X626Y235D01*
X645Y235D02*
X653Y235D01*
X684Y235D02*
X693Y235D01*
X807Y235D02*
X820Y235D01*
X842Y235D02*
X851Y235D01*
X873Y235D02*
X882Y235D01*
X908Y235D02*
X916Y235D01*
X949Y235D02*
X958Y235D01*
X1004Y235D02*
X1013Y235D01*
X1039Y235D02*
X1048Y235D01*
X1069Y235D02*
X1087Y235D01*
X1106Y235D02*
X1114Y235D01*
X1136Y235D02*
X1145Y235D01*
X1170Y235D02*
X1179Y235D01*
X1575Y235D02*
X1582Y235D01*
X1Y234D02*
X8Y234D01*
X93Y234D02*
X101Y234D01*
X150Y234D02*
X164Y234D01*
X185Y234D02*
X193Y234D01*
X216Y234D02*
X224Y234D01*
X251Y234D02*
X260Y234D01*
X346Y234D02*
X355Y234D01*
X365Y234D02*
X373Y234D01*
X384Y234D02*
X392Y234D01*
X413Y234D02*
X421Y234D01*
X448Y234D02*
X457Y234D01*
X478Y234D02*
X486Y234D01*
X496Y234D02*
X505Y234D01*
X515Y234D02*
X523Y234D01*
X544Y234D02*
X553Y234D01*
X580Y234D02*
X588Y234D01*
X610Y234D02*
X625Y234D01*
X645Y234D02*
X653Y234D01*
X684Y234D02*
X693Y234D01*
X807Y234D02*
X819Y234D01*
X842Y234D02*
X851Y234D01*
X873Y234D02*
X881Y234D01*
X908Y234D02*
X917Y234D01*
X949Y234D02*
X958Y234D01*
X1004Y234D02*
X1013Y234D01*
X1040Y234D02*
X1048Y234D01*
X1069Y234D02*
X1086Y234D01*
X1106Y234D02*
X1114Y234D01*
X1135Y234D02*
X1144Y234D01*
X1171Y234D02*
X1179Y234D01*
X1575Y234D02*
X1582Y234D01*
X1Y233D02*
X8Y233D01*
X93Y233D02*
X101Y233D01*
X150Y233D02*
X163Y233D01*
X185Y233D02*
X193Y233D01*
X216Y233D02*
X224Y233D01*
X252Y233D02*
X260Y233D01*
X346Y233D02*
X354Y233D01*
X365Y233D02*
X373Y233D01*
X384Y233D02*
X392Y233D01*
X413Y233D02*
X421Y233D01*
X449Y233D02*
X457Y233D01*
X478Y233D02*
X486Y233D01*
X496Y233D02*
X505Y233D01*
X515Y233D02*
X523Y233D01*
X544Y233D02*
X552Y233D01*
X580Y233D02*
X588Y233D01*
X610Y233D02*
X623Y233D01*
X645Y233D02*
X653Y233D01*
X684Y233D02*
X693Y233D01*
X807Y233D02*
X818Y233D01*
X843Y233D02*
X851Y233D01*
X873Y233D02*
X881Y233D01*
X908Y233D02*
X917Y233D01*
X949Y233D02*
X958Y233D01*
X1004Y233D02*
X1012Y233D01*
X1040Y233D02*
X1048Y233D01*
X1069Y233D02*
X1085Y233D01*
X1106Y233D02*
X1114Y233D01*
X1135Y233D02*
X1144Y233D01*
X1171Y233D02*
X1179Y233D01*
X1575Y233D02*
X1582Y233D01*
X1Y232D02*
X8Y232D01*
X93Y232D02*
X101Y232D01*
X150Y232D02*
X161Y232D01*
X185Y232D02*
X193Y232D01*
X216Y232D02*
X224Y232D01*
X252Y232D02*
X260Y232D01*
X346Y232D02*
X354Y232D01*
X365Y232D02*
X373Y232D01*
X384Y232D02*
X392Y232D01*
X413Y232D02*
X421Y232D01*
X449Y232D02*
X457Y232D01*
X478Y232D02*
X486Y232D01*
X496Y232D02*
X505Y232D01*
X515Y232D02*
X523Y232D01*
X544Y232D02*
X552Y232D01*
X580Y232D02*
X588Y232D01*
X610Y232D02*
X622Y232D01*
X645Y232D02*
X653Y232D01*
X684Y232D02*
X693Y232D01*
X807Y232D02*
X817Y232D01*
X843Y232D02*
X851Y232D01*
X873Y232D02*
X881Y232D01*
X909Y232D02*
X917Y232D01*
X949Y232D02*
X958Y232D01*
X1004Y232D02*
X1012Y232D01*
X1040Y232D02*
X1048Y232D01*
X1069Y232D02*
X1084Y232D01*
X1106Y232D02*
X1114Y232D01*
X1135Y232D02*
X1143Y232D01*
X1171Y232D02*
X1180Y232D01*
X1575Y232D02*
X1582Y232D01*
X1Y231D02*
X8Y231D01*
X93Y231D02*
X101Y231D01*
X150Y231D02*
X160Y231D01*
X185Y231D02*
X193Y231D01*
X216Y231D02*
X224Y231D01*
X252Y231D02*
X260Y231D01*
X346Y231D02*
X354Y231D01*
X365Y231D02*
X373Y231D01*
X384Y231D02*
X392Y231D01*
X413Y231D02*
X421Y231D01*
X449Y231D02*
X457Y231D01*
X478Y231D02*
X486Y231D01*
X496Y231D02*
X505Y231D01*
X515Y231D02*
X523Y231D01*
X544Y231D02*
X552Y231D01*
X580Y231D02*
X588Y231D01*
X610Y231D02*
X620Y231D01*
X645Y231D02*
X653Y231D01*
X684Y231D02*
X693Y231D01*
X807Y231D02*
X816Y231D01*
X843Y231D02*
X851Y231D01*
X873Y231D02*
X881Y231D01*
X909Y231D02*
X917Y231D01*
X949Y231D02*
X958Y231D01*
X1004Y231D02*
X1012Y231D01*
X1040Y231D02*
X1048Y231D01*
X1069Y231D02*
X1083Y231D01*
X1106Y231D02*
X1113Y231D01*
X1135Y231D02*
X1143Y231D01*
X1171Y231D02*
X1180Y231D01*
X1575Y231D02*
X1582Y231D01*
X1Y230D02*
X8Y230D01*
X93Y230D02*
X101Y230D01*
X150Y230D02*
X158Y230D01*
X185Y230D02*
X193Y230D01*
X216Y230D02*
X224Y230D01*
X252Y230D02*
X260Y230D01*
X346Y230D02*
X354Y230D01*
X365Y230D02*
X373Y230D01*
X384Y230D02*
X392Y230D01*
X413Y230D02*
X421Y230D01*
X449Y230D02*
X457Y230D01*
X478Y230D02*
X486Y230D01*
X496Y230D02*
X505Y230D01*
X515Y230D02*
X523Y230D01*
X544Y230D02*
X552Y230D01*
X580Y230D02*
X588Y230D01*
X610Y230D02*
X619Y230D01*
X645Y230D02*
X653Y230D01*
X684Y230D02*
X693Y230D01*
X807Y230D02*
X815Y230D01*
X843Y230D02*
X851Y230D01*
X873Y230D02*
X881Y230D01*
X909Y230D02*
X917Y230D01*
X949Y230D02*
X958Y230D01*
X1004Y230D02*
X1012Y230D01*
X1040Y230D02*
X1048Y230D01*
X1069Y230D02*
X1082Y230D01*
X1107Y230D02*
X1113Y230D01*
X1135Y230D02*
X1143Y230D01*
X1171Y230D02*
X1180Y230D01*
X1575Y230D02*
X1582Y230D01*
X1Y229D02*
X8Y229D01*
X93Y229D02*
X101Y229D01*
X150Y229D02*
X158Y229D01*
X185Y229D02*
X193Y229D01*
X216Y229D02*
X224Y229D01*
X252Y229D02*
X260Y229D01*
X346Y229D02*
X354Y229D01*
X365Y229D02*
X373Y229D01*
X384Y229D02*
X392Y229D01*
X413Y229D02*
X421Y229D01*
X449Y229D02*
X457Y229D01*
X478Y229D02*
X486Y229D01*
X496Y229D02*
X505Y229D01*
X515Y229D02*
X523Y229D01*
X544Y229D02*
X552Y229D01*
X580Y229D02*
X588Y229D01*
X610Y229D02*
X619Y229D01*
X645Y229D02*
X653Y229D01*
X684Y229D02*
X693Y229D01*
X807Y229D02*
X815Y229D01*
X843Y229D02*
X851Y229D01*
X873Y229D02*
X881Y229D01*
X909Y229D02*
X917Y229D01*
X949Y229D02*
X958Y229D01*
X1004Y229D02*
X1012Y229D01*
X1040Y229D02*
X1048Y229D01*
X1069Y229D02*
X1080Y229D01*
X1110Y229D02*
X1110Y229D01*
X1135Y229D02*
X1143Y229D01*
X1171Y229D02*
X1180Y229D01*
X1575Y229D02*
X1582Y229D01*
X1Y228D02*
X8Y228D01*
X93Y228D02*
X101Y228D01*
X150Y228D02*
X158Y228D01*
X185Y228D02*
X193Y228D01*
X216Y228D02*
X224Y228D01*
X252Y228D02*
X260Y228D01*
X346Y228D02*
X354Y228D01*
X365Y228D02*
X373Y228D01*
X384Y228D02*
X392Y228D01*
X413Y228D02*
X421Y228D01*
X449Y228D02*
X457Y228D01*
X478Y228D02*
X486Y228D01*
X496Y228D02*
X505Y228D01*
X515Y228D02*
X523Y228D01*
X544Y228D02*
X552Y228D01*
X580Y228D02*
X588Y228D01*
X610Y228D02*
X619Y228D01*
X645Y228D02*
X653Y228D01*
X684Y228D02*
X693Y228D01*
X807Y228D02*
X815Y228D01*
X843Y228D02*
X851Y228D01*
X873Y228D02*
X881Y228D01*
X909Y228D02*
X917Y228D01*
X949Y228D02*
X958Y228D01*
X1004Y228D02*
X1012Y228D01*
X1040Y228D02*
X1048Y228D01*
X1069Y228D02*
X1079Y228D01*
X1135Y228D02*
X1143Y228D01*
X1171Y228D02*
X1180Y228D01*
X1575Y228D02*
X1582Y228D01*
X1Y227D02*
X8Y227D01*
X93Y227D02*
X101Y227D01*
X150Y227D02*
X158Y227D01*
X185Y227D02*
X193Y227D01*
X216Y227D02*
X260Y227D01*
X346Y227D02*
X354Y227D01*
X365Y227D02*
X373Y227D01*
X384Y227D02*
X392Y227D01*
X413Y227D02*
X421Y227D01*
X449Y227D02*
X457Y227D01*
X478Y227D02*
X486Y227D01*
X496Y227D02*
X505Y227D01*
X515Y227D02*
X523Y227D01*
X544Y227D02*
X588Y227D01*
X610Y227D02*
X619Y227D01*
X645Y227D02*
X653Y227D01*
X684Y227D02*
X693Y227D01*
X807Y227D02*
X815Y227D01*
X843Y227D02*
X851Y227D01*
X873Y227D02*
X917Y227D01*
X949Y227D02*
X958Y227D01*
X1004Y227D02*
X1012Y227D01*
X1040Y227D02*
X1048Y227D01*
X1069Y227D02*
X1078Y227D01*
X1135Y227D02*
X1180Y227D01*
X1575Y227D02*
X1582Y227D01*
X1Y226D02*
X8Y226D01*
X93Y226D02*
X101Y226D01*
X150Y226D02*
X158Y226D01*
X185Y226D02*
X193Y226D01*
X216Y226D02*
X260Y226D01*
X346Y226D02*
X354Y226D01*
X365Y226D02*
X373Y226D01*
X384Y226D02*
X392Y226D01*
X413Y226D02*
X421Y226D01*
X449Y226D02*
X457Y226D01*
X478Y226D02*
X486Y226D01*
X496Y226D02*
X505Y226D01*
X515Y226D02*
X523Y226D01*
X544Y226D02*
X588Y226D01*
X610Y226D02*
X619Y226D01*
X645Y226D02*
X653Y226D01*
X684Y226D02*
X693Y226D01*
X807Y226D02*
X815Y226D01*
X843Y226D02*
X851Y226D01*
X873Y226D02*
X917Y226D01*
X949Y226D02*
X958Y226D01*
X1004Y226D02*
X1012Y226D01*
X1040Y226D02*
X1048Y226D01*
X1069Y226D02*
X1078Y226D01*
X1135Y226D02*
X1180Y226D01*
X1575Y226D02*
X1582Y226D01*
X1Y225D02*
X8Y225D01*
X93Y225D02*
X101Y225D01*
X150Y225D02*
X158Y225D01*
X185Y225D02*
X193Y225D01*
X216Y225D02*
X260Y225D01*
X346Y225D02*
X354Y225D01*
X365Y225D02*
X373Y225D01*
X384Y225D02*
X392Y225D01*
X413Y225D02*
X421Y225D01*
X449Y225D02*
X457Y225D01*
X478Y225D02*
X486Y225D01*
X496Y225D02*
X505Y225D01*
X515Y225D02*
X523Y225D01*
X544Y225D02*
X588Y225D01*
X610Y225D02*
X619Y225D01*
X645Y225D02*
X653Y225D01*
X684Y225D02*
X693Y225D01*
X807Y225D02*
X815Y225D01*
X843Y225D02*
X851Y225D01*
X873Y225D02*
X917Y225D01*
X949Y225D02*
X958Y225D01*
X1004Y225D02*
X1012Y225D01*
X1040Y225D02*
X1048Y225D01*
X1069Y225D02*
X1078Y225D01*
X1135Y225D02*
X1180Y225D01*
X1575Y225D02*
X1582Y225D01*
X1Y224D02*
X8Y224D01*
X93Y224D02*
X101Y224D01*
X150Y224D02*
X158Y224D01*
X185Y224D02*
X193Y224D01*
X216Y224D02*
X260Y224D01*
X346Y224D02*
X354Y224D01*
X365Y224D02*
X373Y224D01*
X384Y224D02*
X392Y224D01*
X413Y224D02*
X421Y224D01*
X449Y224D02*
X457Y224D01*
X478Y224D02*
X486Y224D01*
X496Y224D02*
X505Y224D01*
X515Y224D02*
X523Y224D01*
X544Y224D02*
X588Y224D01*
X610Y224D02*
X619Y224D01*
X645Y224D02*
X653Y224D01*
X684Y224D02*
X693Y224D01*
X807Y224D02*
X815Y224D01*
X843Y224D02*
X851Y224D01*
X873Y224D02*
X917Y224D01*
X949Y224D02*
X958Y224D01*
X1004Y224D02*
X1012Y224D01*
X1040Y224D02*
X1048Y224D01*
X1069Y224D02*
X1078Y224D01*
X1135Y224D02*
X1180Y224D01*
X1575Y224D02*
X1582Y224D01*
X1Y223D02*
X8Y223D01*
X93Y223D02*
X101Y223D01*
X150Y223D02*
X158Y223D01*
X185Y223D02*
X193Y223D01*
X216Y223D02*
X260Y223D01*
X346Y223D02*
X354Y223D01*
X365Y223D02*
X373Y223D01*
X384Y223D02*
X392Y223D01*
X413Y223D02*
X421Y223D01*
X449Y223D02*
X457Y223D01*
X478Y223D02*
X486Y223D01*
X496Y223D02*
X505Y223D01*
X515Y223D02*
X523Y223D01*
X544Y223D02*
X588Y223D01*
X610Y223D02*
X619Y223D01*
X645Y223D02*
X653Y223D01*
X684Y223D02*
X693Y223D01*
X807Y223D02*
X815Y223D01*
X843Y223D02*
X851Y223D01*
X873Y223D02*
X917Y223D01*
X949Y223D02*
X958Y223D01*
X1004Y223D02*
X1012Y223D01*
X1040Y223D02*
X1048Y223D01*
X1069Y223D02*
X1078Y223D01*
X1135Y223D02*
X1180Y223D01*
X1575Y223D02*
X1582Y223D01*
X1Y222D02*
X8Y222D01*
X93Y222D02*
X101Y222D01*
X150Y222D02*
X158Y222D01*
X185Y222D02*
X194Y222D01*
X216Y222D02*
X260Y222D01*
X346Y222D02*
X354Y222D01*
X365Y222D02*
X373Y222D01*
X384Y222D02*
X392Y222D01*
X413Y222D02*
X421Y222D01*
X449Y222D02*
X457Y222D01*
X478Y222D02*
X486Y222D01*
X496Y222D02*
X505Y222D01*
X515Y222D02*
X523Y222D01*
X544Y222D02*
X588Y222D01*
X610Y222D02*
X619Y222D01*
X645Y222D02*
X653Y222D01*
X684Y222D02*
X693Y222D01*
X807Y222D02*
X815Y222D01*
X843Y222D02*
X851Y222D01*
X873Y222D02*
X917Y222D01*
X949Y222D02*
X958Y222D01*
X1004Y222D02*
X1012Y222D01*
X1040Y222D02*
X1048Y222D01*
X1069Y222D02*
X1078Y222D01*
X1135Y222D02*
X1179Y222D01*
X1575Y222D02*
X1582Y222D01*
X1Y221D02*
X8Y221D01*
X93Y221D02*
X101Y221D01*
X150Y221D02*
X158Y221D01*
X185Y221D02*
X194Y221D01*
X216Y221D02*
X259Y221D01*
X346Y221D02*
X354Y221D01*
X365Y221D02*
X373Y221D01*
X384Y221D02*
X392Y221D01*
X413Y221D02*
X421Y221D01*
X449Y221D02*
X457Y221D01*
X478Y221D02*
X486Y221D01*
X496Y221D02*
X505Y221D01*
X515Y221D02*
X523Y221D01*
X544Y221D02*
X588Y221D01*
X610Y221D02*
X619Y221D01*
X645Y221D02*
X653Y221D01*
X684Y221D02*
X693Y221D01*
X807Y221D02*
X815Y221D01*
X843Y221D02*
X851Y221D01*
X873Y221D02*
X916Y221D01*
X949Y221D02*
X958Y221D01*
X1004Y221D02*
X1012Y221D01*
X1040Y221D02*
X1048Y221D01*
X1069Y221D02*
X1078Y221D01*
X1135Y221D02*
X1179Y221D01*
X1575Y221D02*
X1582Y221D01*
X1Y220D02*
X8Y220D01*
X93Y220D02*
X101Y220D01*
X150Y220D02*
X158Y220D01*
X185Y220D02*
X194Y220D01*
X216Y220D02*
X259Y220D01*
X346Y220D02*
X354Y220D01*
X365Y220D02*
X373Y220D01*
X384Y220D02*
X392Y220D01*
X413Y220D02*
X421Y220D01*
X449Y220D02*
X457Y220D01*
X478Y220D02*
X486Y220D01*
X496Y220D02*
X505Y220D01*
X515Y220D02*
X523Y220D01*
X544Y220D02*
X587Y220D01*
X610Y220D02*
X619Y220D01*
X645Y220D02*
X653Y220D01*
X684Y220D02*
X693Y220D01*
X807Y220D02*
X815Y220D01*
X843Y220D02*
X851Y220D01*
X873Y220D02*
X916Y220D01*
X949Y220D02*
X958Y220D01*
X1004Y220D02*
X1012Y220D01*
X1040Y220D02*
X1048Y220D01*
X1069Y220D02*
X1078Y220D01*
X1135Y220D02*
X1178Y220D01*
X1575Y220D02*
X1582Y220D01*
X1Y219D02*
X8Y219D01*
X93Y219D02*
X101Y219D01*
X150Y219D02*
X158Y219D01*
X185Y219D02*
X194Y219D01*
X216Y219D02*
X258Y219D01*
X346Y219D02*
X354Y219D01*
X365Y219D02*
X373Y219D01*
X384Y219D02*
X392Y219D01*
X413Y219D02*
X421Y219D01*
X449Y219D02*
X457Y219D01*
X478Y219D02*
X486Y219D01*
X496Y219D02*
X505Y219D01*
X515Y219D02*
X523Y219D01*
X544Y219D02*
X586Y219D01*
X610Y219D02*
X619Y219D01*
X645Y219D02*
X653Y219D01*
X684Y219D02*
X693Y219D01*
X807Y219D02*
X815Y219D01*
X843Y219D02*
X851Y219D01*
X873Y219D02*
X915Y219D01*
X949Y219D02*
X958Y219D01*
X1004Y219D02*
X1012Y219D01*
X1040Y219D02*
X1048Y219D01*
X1069Y219D02*
X1078Y219D01*
X1135Y219D02*
X1177Y219D01*
X1575Y219D02*
X1582Y219D01*
X1Y218D02*
X8Y218D01*
X93Y218D02*
X101Y218D01*
X150Y218D02*
X158Y218D01*
X185Y218D02*
X194Y218D01*
X216Y218D02*
X224Y218D01*
X346Y218D02*
X354Y218D01*
X365Y218D02*
X373Y218D01*
X384Y218D02*
X392Y218D01*
X413Y218D02*
X421Y218D01*
X449Y218D02*
X457Y218D01*
X478Y218D02*
X486Y218D01*
X496Y218D02*
X505Y218D01*
X515Y218D02*
X523Y218D01*
X544Y218D02*
X552Y218D01*
X610Y218D02*
X619Y218D01*
X645Y218D02*
X653Y218D01*
X684Y218D02*
X693Y218D01*
X807Y218D02*
X815Y218D01*
X843Y218D02*
X851Y218D01*
X873Y218D02*
X881Y218D01*
X949Y218D02*
X958Y218D01*
X1004Y218D02*
X1012Y218D01*
X1040Y218D02*
X1048Y218D01*
X1069Y218D02*
X1078Y218D01*
X1135Y218D02*
X1144Y218D01*
X1575Y218D02*
X1582Y218D01*
X1Y217D02*
X8Y217D01*
X93Y217D02*
X101Y217D01*
X150Y217D02*
X158Y217D01*
X186Y217D02*
X194Y217D01*
X216Y217D02*
X224Y217D01*
X346Y217D02*
X354Y217D01*
X365Y217D02*
X373Y217D01*
X384Y217D02*
X392Y217D01*
X413Y217D02*
X421Y217D01*
X449Y217D02*
X457Y217D01*
X478Y217D02*
X486Y217D01*
X496Y217D02*
X505Y217D01*
X515Y217D02*
X523Y217D01*
X544Y217D02*
X552Y217D01*
X610Y217D02*
X619Y217D01*
X645Y217D02*
X653Y217D01*
X684Y217D02*
X693Y217D01*
X807Y217D02*
X815Y217D01*
X843Y217D02*
X851Y217D01*
X873Y217D02*
X881Y217D01*
X949Y217D02*
X958Y217D01*
X1004Y217D02*
X1012Y217D01*
X1040Y217D02*
X1048Y217D01*
X1069Y217D02*
X1078Y217D01*
X1135Y217D02*
X1143Y217D01*
X1575Y217D02*
X1582Y217D01*
X1Y216D02*
X8Y216D01*
X93Y216D02*
X101Y216D01*
X150Y216D02*
X158Y216D01*
X186Y216D02*
X194Y216D01*
X216Y216D02*
X224Y216D01*
X346Y216D02*
X354Y216D01*
X365Y216D02*
X373Y216D01*
X384Y216D02*
X392Y216D01*
X413Y216D02*
X421Y216D01*
X449Y216D02*
X457Y216D01*
X478Y216D02*
X486Y216D01*
X496Y216D02*
X505Y216D01*
X515Y216D02*
X523Y216D01*
X544Y216D02*
X552Y216D01*
X610Y216D02*
X619Y216D01*
X645Y216D02*
X653Y216D01*
X684Y216D02*
X693Y216D01*
X807Y216D02*
X815Y216D01*
X843Y216D02*
X851Y216D01*
X873Y216D02*
X881Y216D01*
X949Y216D02*
X958Y216D01*
X1004Y216D02*
X1012Y216D01*
X1040Y216D02*
X1048Y216D01*
X1069Y216D02*
X1078Y216D01*
X1135Y216D02*
X1143Y216D01*
X1575Y216D02*
X1582Y216D01*
X1Y215D02*
X8Y215D01*
X93Y215D02*
X101Y215D01*
X150Y215D02*
X158Y215D01*
X186Y215D02*
X194Y215D01*
X216Y215D02*
X224Y215D01*
X346Y215D02*
X354Y215D01*
X365Y215D02*
X373Y215D01*
X384Y215D02*
X392Y215D01*
X413Y215D02*
X421Y215D01*
X449Y215D02*
X457Y215D01*
X478Y215D02*
X486Y215D01*
X496Y215D02*
X505Y215D01*
X515Y215D02*
X523Y215D01*
X544Y215D02*
X552Y215D01*
X610Y215D02*
X619Y215D01*
X645Y215D02*
X653Y215D01*
X684Y215D02*
X693Y215D01*
X807Y215D02*
X816Y215D01*
X843Y215D02*
X851Y215D01*
X873Y215D02*
X881Y215D01*
X949Y215D02*
X958Y215D01*
X1004Y215D02*
X1012Y215D01*
X1040Y215D02*
X1048Y215D01*
X1069Y215D02*
X1078Y215D01*
X1135Y215D02*
X1143Y215D01*
X1575Y215D02*
X1582Y215D01*
X1Y214D02*
X8Y214D01*
X93Y214D02*
X101Y214D01*
X150Y214D02*
X158Y214D01*
X186Y214D02*
X194Y214D01*
X216Y214D02*
X224Y214D01*
X346Y214D02*
X354Y214D01*
X365Y214D02*
X373Y214D01*
X384Y214D02*
X392Y214D01*
X413Y214D02*
X421Y214D01*
X449Y214D02*
X457Y214D01*
X478Y214D02*
X486Y214D01*
X496Y214D02*
X505Y214D01*
X515Y214D02*
X523Y214D01*
X544Y214D02*
X552Y214D01*
X610Y214D02*
X619Y214D01*
X645Y214D02*
X653Y214D01*
X684Y214D02*
X693Y214D01*
X807Y214D02*
X817Y214D01*
X843Y214D02*
X851Y214D01*
X873Y214D02*
X881Y214D01*
X949Y214D02*
X958Y214D01*
X1004Y214D02*
X1012Y214D01*
X1040Y214D02*
X1048Y214D01*
X1069Y214D02*
X1078Y214D01*
X1135Y214D02*
X1143Y214D01*
X1575Y214D02*
X1582Y214D01*
X1Y213D02*
X8Y213D01*
X93Y213D02*
X101Y213D01*
X122Y213D02*
X127Y213D01*
X150Y213D02*
X158Y213D01*
X186Y213D02*
X194Y213D01*
X216Y213D02*
X224Y213D01*
X346Y213D02*
X354Y213D01*
X365Y213D02*
X373Y213D01*
X384Y213D02*
X392Y213D01*
X413Y213D02*
X421Y213D01*
X449Y213D02*
X457Y213D01*
X478Y213D02*
X486Y213D01*
X496Y213D02*
X505Y213D01*
X515Y213D02*
X523Y213D01*
X544Y213D02*
X552Y213D01*
X610Y213D02*
X619Y213D01*
X645Y213D02*
X653Y213D01*
X684Y213D02*
X693Y213D01*
X713Y213D02*
X718Y213D01*
X807Y213D02*
X818Y213D01*
X843Y213D02*
X851Y213D01*
X873Y213D02*
X881Y213D01*
X949Y213D02*
X958Y213D01*
X1004Y213D02*
X1012Y213D01*
X1040Y213D02*
X1048Y213D01*
X1069Y213D02*
X1078Y213D01*
X1135Y213D02*
X1144Y213D01*
X1575Y213D02*
X1582Y213D01*
X1Y212D02*
X8Y212D01*
X93Y212D02*
X101Y212D01*
X121Y212D02*
X128Y212D01*
X150Y212D02*
X158Y212D01*
X186Y212D02*
X194Y212D01*
X216Y212D02*
X224Y212D01*
X346Y212D02*
X354Y212D01*
X365Y212D02*
X373Y212D01*
X384Y212D02*
X392Y212D01*
X413Y212D02*
X421Y212D01*
X448Y212D02*
X457Y212D01*
X478Y212D02*
X486Y212D01*
X496Y212D02*
X505Y212D01*
X515Y212D02*
X523Y212D01*
X544Y212D02*
X553Y212D01*
X610Y212D02*
X619Y212D01*
X645Y212D02*
X653Y212D01*
X684Y212D02*
X693Y212D01*
X713Y212D02*
X719Y212D01*
X807Y212D02*
X819Y212D01*
X842Y212D02*
X851Y212D01*
X873Y212D02*
X881Y212D01*
X949Y212D02*
X958Y212D01*
X1004Y212D02*
X1013Y212D01*
X1040Y212D02*
X1048Y212D01*
X1069Y212D02*
X1078Y212D01*
X1135Y212D02*
X1144Y212D01*
X1575Y212D02*
X1582Y212D01*
X1Y211D02*
X8Y211D01*
X93Y211D02*
X101Y211D01*
X121Y211D02*
X128Y211D01*
X150Y211D02*
X158Y211D01*
X186Y211D02*
X194Y211D01*
X216Y211D02*
X225Y211D01*
X346Y211D02*
X354Y211D01*
X365Y211D02*
X373Y211D01*
X384Y211D02*
X392Y211D01*
X413Y211D02*
X422Y211D01*
X448Y211D02*
X457Y211D01*
X478Y211D02*
X486Y211D01*
X496Y211D02*
X505Y211D01*
X515Y211D02*
X523Y211D01*
X544Y211D02*
X553Y211D01*
X610Y211D02*
X619Y211D01*
X645Y211D02*
X653Y211D01*
X684Y211D02*
X693Y211D01*
X712Y211D02*
X719Y211D01*
X807Y211D02*
X820Y211D01*
X842Y211D02*
X851Y211D01*
X873Y211D02*
X882Y211D01*
X949Y211D02*
X958Y211D01*
X1004Y211D02*
X1013Y211D01*
X1039Y211D02*
X1048Y211D01*
X1069Y211D02*
X1078Y211D01*
X1135Y211D02*
X1144Y211D01*
X1575Y211D02*
X1582Y211D01*
X1Y210D02*
X8Y210D01*
X93Y210D02*
X102Y210D01*
X120Y210D02*
X128Y210D01*
X150Y210D02*
X158Y210D01*
X186Y210D02*
X194Y210D01*
X216Y210D02*
X226Y210D01*
X346Y210D02*
X354Y210D01*
X365Y210D02*
X373Y210D01*
X384Y210D02*
X392Y210D01*
X413Y210D02*
X423Y210D01*
X447Y210D02*
X456Y210D01*
X478Y210D02*
X486Y210D01*
X496Y210D02*
X505Y210D01*
X515Y210D02*
X523Y210D01*
X545Y210D02*
X554Y210D01*
X610Y210D02*
X619Y210D01*
X645Y210D02*
X653Y210D01*
X684Y210D02*
X693Y210D01*
X711Y210D02*
X719Y210D01*
X807Y210D02*
X821Y210D01*
X841Y210D02*
X851Y210D01*
X873Y210D02*
X883Y210D01*
X949Y210D02*
X958Y210D01*
X1004Y210D02*
X1014Y210D01*
X1038Y210D02*
X1048Y210D01*
X1069Y210D02*
X1078Y210D01*
X1136Y210D02*
X1145Y210D01*
X1575Y210D02*
X1582Y210D01*
X1Y209D02*
X8Y209D01*
X93Y209D02*
X102Y209D01*
X120Y209D02*
X128Y209D01*
X150Y209D02*
X158Y209D01*
X186Y209D02*
X194Y209D01*
X216Y209D02*
X227Y209D01*
X346Y209D02*
X354Y209D01*
X365Y209D02*
X373Y209D01*
X384Y209D02*
X392Y209D01*
X414Y209D02*
X424Y209D01*
X446Y209D02*
X456Y209D01*
X478Y209D02*
X486Y209D01*
X496Y209D02*
X505Y209D01*
X515Y209D02*
X523Y209D01*
X545Y209D02*
X555Y209D01*
X610Y209D02*
X619Y209D01*
X645Y209D02*
X653Y209D01*
X685Y209D02*
X693Y209D01*
X711Y209D02*
X720Y209D01*
X807Y209D02*
X823Y209D01*
X840Y209D02*
X850Y209D01*
X873Y209D02*
X883Y209D01*
X949Y209D02*
X958Y209D01*
X1005Y209D02*
X1015Y209D01*
X1037Y209D02*
X1047Y209D01*
X1069Y209D02*
X1078Y209D01*
X1136Y209D02*
X1146Y209D01*
X1575Y209D02*
X1582Y209D01*
X1Y208D02*
X8Y208D01*
X94Y208D02*
X102Y208D01*
X119Y208D02*
X128Y208D01*
X150Y208D02*
X158Y208D01*
X186Y208D02*
X194Y208D01*
X217Y208D02*
X228Y208D01*
X346Y208D02*
X354Y208D01*
X365Y208D02*
X373Y208D01*
X384Y208D02*
X392Y208D01*
X414Y208D02*
X425Y208D01*
X445Y208D02*
X456Y208D01*
X478Y208D02*
X486Y208D01*
X496Y208D02*
X505Y208D01*
X515Y208D02*
X523Y208D01*
X545Y208D02*
X556Y208D01*
X610Y208D02*
X619Y208D01*
X645Y208D02*
X653Y208D01*
X685Y208D02*
X694Y208D01*
X710Y208D02*
X719Y208D01*
X807Y208D02*
X824Y208D01*
X839Y208D02*
X850Y208D01*
X874Y208D02*
X885Y208D01*
X949Y208D02*
X958Y208D01*
X1005Y208D02*
X1016Y208D01*
X1036Y208D02*
X1047Y208D01*
X1069Y208D02*
X1078Y208D01*
X1136Y208D02*
X1147Y208D01*
X1575Y208D02*
X1582Y208D01*
X1Y207D02*
X8Y207D01*
X94Y207D02*
X104Y207D01*
X118Y207D02*
X128Y207D01*
X150Y207D02*
X158Y207D01*
X186Y207D02*
X194Y207D01*
X217Y207D02*
X229Y207D01*
X346Y207D02*
X354Y207D01*
X365Y207D02*
X373Y207D01*
X384Y207D02*
X392Y207D01*
X414Y207D02*
X426Y207D01*
X443Y207D02*
X455Y207D01*
X478Y207D02*
X486Y207D01*
X496Y207D02*
X505Y207D01*
X515Y207D02*
X523Y207D01*
X546Y207D02*
X558Y207D01*
X610Y207D02*
X619Y207D01*
X645Y207D02*
X653Y207D01*
X685Y207D02*
X695Y207D01*
X709Y207D02*
X719Y207D01*
X807Y207D02*
X825Y207D01*
X837Y207D02*
X849Y207D01*
X874Y207D02*
X886Y207D01*
X949Y207D02*
X958Y207D01*
X1006Y207D02*
X1018Y207D01*
X1034Y207D02*
X1046Y207D01*
X1069Y207D02*
X1078Y207D01*
X1137Y207D02*
X1149Y207D01*
X1575Y207D02*
X1582Y207D01*
X1Y206D02*
X8Y206D01*
X94Y206D02*
X128Y206D01*
X150Y206D02*
X158Y206D01*
X186Y206D02*
X194Y206D01*
X218Y206D02*
X257Y206D01*
X346Y206D02*
X354Y206D01*
X365Y206D02*
X373Y206D01*
X384Y206D02*
X392Y206D01*
X415Y206D02*
X454Y206D01*
X478Y206D02*
X486Y206D01*
X496Y206D02*
X505Y206D01*
X515Y206D02*
X523Y206D01*
X546Y206D02*
X585Y206D01*
X610Y206D02*
X619Y206D01*
X645Y206D02*
X653Y206D01*
X685Y206D02*
X719Y206D01*
X807Y206D02*
X849Y206D01*
X875Y206D02*
X914Y206D01*
X949Y206D02*
X958Y206D01*
X1006Y206D02*
X1046Y206D01*
X1069Y206D02*
X1078Y206D01*
X1138Y206D02*
X1176Y206D01*
X1486Y206D02*
X1499Y206D01*
X1575Y206D02*
X1582Y206D01*
X1Y205D02*
X8Y205D01*
X95Y205D02*
X127Y205D01*
X150Y205D02*
X158Y205D01*
X186Y205D02*
X194Y205D01*
X219Y205D02*
X258Y205D01*
X346Y205D02*
X354Y205D01*
X365Y205D02*
X373Y205D01*
X384Y205D02*
X392Y205D01*
X416Y205D02*
X454Y205D01*
X478Y205D02*
X486Y205D01*
X496Y205D02*
X505Y205D01*
X515Y205D02*
X523Y205D01*
X547Y205D02*
X587Y205D01*
X610Y205D02*
X619Y205D01*
X645Y205D02*
X653Y205D01*
X686Y205D02*
X718Y205D01*
X807Y205D02*
X848Y205D01*
X876Y205D02*
X915Y205D01*
X949Y205D02*
X958Y205D01*
X1007Y205D02*
X1045Y205D01*
X1069Y205D02*
X1078Y205D01*
X1138Y205D02*
X1178Y205D01*
X1484Y205D02*
X1501Y205D01*
X1575Y205D02*
X1582Y205D01*
X1Y204D02*
X8Y204D01*
X95Y204D02*
X127Y204D01*
X150Y204D02*
X158Y204D01*
X186Y204D02*
X194Y204D01*
X220Y204D02*
X259Y204D01*
X346Y204D02*
X354Y204D01*
X365Y204D02*
X373Y204D01*
X384Y204D02*
X392Y204D01*
X417Y204D02*
X453Y204D01*
X478Y204D02*
X486Y204D01*
X496Y204D02*
X505Y204D01*
X515Y204D02*
X523Y204D01*
X548Y204D02*
X588Y204D01*
X610Y204D02*
X619Y204D01*
X645Y204D02*
X653Y204D01*
X686Y204D02*
X718Y204D01*
X807Y204D02*
X847Y204D01*
X877Y204D02*
X916Y204D01*
X949Y204D02*
X958Y204D01*
X1008Y204D02*
X1044Y204D01*
X1069Y204D02*
X1078Y204D01*
X1139Y204D02*
X1179Y204D01*
X1481Y204D02*
X1502Y204D01*
X1575Y204D02*
X1582Y204D01*
X1Y203D02*
X8Y203D01*
X96Y203D02*
X126Y203D01*
X150Y203D02*
X158Y203D01*
X186Y203D02*
X194Y203D01*
X221Y203D02*
X260Y203D01*
X346Y203D02*
X354Y203D01*
X365Y203D02*
X373Y203D01*
X384Y203D02*
X392Y203D01*
X418Y203D02*
X452Y203D01*
X478Y203D02*
X486Y203D01*
X496Y203D02*
X505Y203D01*
X515Y203D02*
X523Y203D01*
X549Y203D02*
X588Y203D01*
X610Y203D02*
X619Y203D01*
X645Y203D02*
X653Y203D01*
X687Y203D02*
X717Y203D01*
X807Y203D02*
X846Y203D01*
X878Y203D02*
X916Y203D01*
X949Y203D02*
X958Y203D01*
X1009Y203D02*
X1043Y203D01*
X1069Y203D02*
X1078Y203D01*
X1140Y203D02*
X1179Y203D01*
X1479Y203D02*
X1502Y203D01*
X1575Y203D02*
X1582Y203D01*
X1Y202D02*
X8Y202D01*
X97Y202D02*
X125Y202D01*
X150Y202D02*
X158Y202D01*
X186Y202D02*
X194Y202D01*
X222Y202D02*
X260Y202D01*
X346Y202D02*
X354Y202D01*
X365Y202D02*
X373Y202D01*
X384Y202D02*
X392Y202D01*
X419Y202D02*
X451Y202D01*
X478Y202D02*
X486Y202D01*
X496Y202D02*
X504Y202D01*
X515Y202D02*
X523Y202D01*
X550Y202D02*
X588Y202D01*
X610Y202D02*
X618Y202D01*
X645Y202D02*
X653Y202D01*
X688Y202D02*
X716Y202D01*
X807Y202D02*
X815Y202D01*
X817Y202D02*
X845Y202D01*
X879Y202D02*
X917Y202D01*
X949Y202D02*
X958Y202D01*
X1010Y202D02*
X1042Y202D01*
X1069Y202D02*
X1078Y202D01*
X1141Y202D02*
X1179Y202D01*
X1476Y202D02*
X1502Y202D01*
X1575Y202D02*
X1582Y202D01*
X1Y201D02*
X8Y201D01*
X97Y201D02*
X124Y201D01*
X150Y201D02*
X158Y201D01*
X186Y201D02*
X194Y201D01*
X223Y201D02*
X260Y201D01*
X346Y201D02*
X354Y201D01*
X365Y201D02*
X373Y201D01*
X384Y201D02*
X392Y201D01*
X420Y201D02*
X449Y201D01*
X478Y201D02*
X486Y201D01*
X496Y201D02*
X504Y201D01*
X515Y201D02*
X523Y201D01*
X551Y201D02*
X588Y201D01*
X610Y201D02*
X618Y201D01*
X645Y201D02*
X653Y201D01*
X689Y201D02*
X715Y201D01*
X807Y201D02*
X815Y201D01*
X819Y201D02*
X844Y201D01*
X880Y201D02*
X917Y201D01*
X950Y201D02*
X957Y201D01*
X1012Y201D02*
X1041Y201D01*
X1070Y201D02*
X1077Y201D01*
X1143Y201D02*
X1179Y201D01*
X1474Y201D02*
X1501Y201D01*
X1575Y201D02*
X1582Y201D01*
X1Y200D02*
X8Y200D01*
X99Y200D02*
X123Y200D01*
X150Y200D02*
X158Y200D01*
X186Y200D02*
X194Y200D01*
X224Y200D02*
X260Y200D01*
X347Y200D02*
X354Y200D01*
X365Y200D02*
X373Y200D01*
X384Y200D02*
X392Y200D01*
X422Y200D02*
X448Y200D01*
X478Y200D02*
X485Y200D01*
X497Y200D02*
X504Y200D01*
X516Y200D02*
X523Y200D01*
X553Y200D02*
X588Y200D01*
X611Y200D02*
X618Y200D01*
X646Y200D02*
X653Y200D01*
X690Y200D02*
X714Y200D01*
X807Y200D02*
X814Y200D01*
X820Y200D02*
X842Y200D01*
X881Y200D02*
X916Y200D01*
X950Y200D02*
X957Y200D01*
X1013Y200D02*
X1039Y200D01*
X1070Y200D02*
X1077Y200D01*
X1144Y200D02*
X1179Y200D01*
X1471Y200D02*
X1501Y200D01*
X1575Y200D02*
X1582Y200D01*
X1Y199D02*
X8Y199D01*
X100Y199D02*
X121Y199D01*
X151Y199D02*
X157Y199D01*
X187Y199D02*
X193Y199D01*
X226Y199D02*
X259Y199D01*
X347Y199D02*
X353Y199D01*
X366Y199D02*
X372Y199D01*
X385Y199D02*
X391Y199D01*
X423Y199D02*
X447Y199D01*
X479Y199D02*
X485Y199D01*
X497Y199D02*
X503Y199D01*
X516Y199D02*
X522Y199D01*
X554Y199D02*
X587Y199D01*
X611Y199D02*
X617Y199D01*
X646Y199D02*
X652Y199D01*
X691Y199D02*
X713Y199D01*
X808Y199D02*
X814Y199D01*
X821Y199D02*
X841Y199D01*
X883Y199D02*
X916Y199D01*
X950Y199D02*
X957Y199D01*
X1014Y199D02*
X1038Y199D01*
X1070Y199D02*
X1077Y199D01*
X1145Y199D02*
X1178Y199D01*
X1468Y199D02*
X1487Y199D01*
X1575Y199D02*
X1582Y199D01*
X1Y198D02*
X8Y198D01*
X102Y198D02*
X119Y198D01*
X152Y198D02*
X156Y198D01*
X188Y198D02*
X192Y198D01*
X228Y198D02*
X258Y198D01*
X348Y198D02*
X352Y198D01*
X367Y198D02*
X371Y198D01*
X386Y198D02*
X390Y198D01*
X425Y198D02*
X445Y198D01*
X480Y198D02*
X484Y198D01*
X498Y198D02*
X502Y198D01*
X517Y198D02*
X521Y198D01*
X557Y198D02*
X586Y198D01*
X612Y198D02*
X616Y198D01*
X647Y198D02*
X651Y198D01*
X693Y198D02*
X711Y198D01*
X809Y198D02*
X813Y198D01*
X824Y198D02*
X839Y198D01*
X885Y198D02*
X915Y198D01*
X951Y198D02*
X956Y198D01*
X1016Y198D02*
X1036Y198D01*
X1072Y198D02*
X1076Y198D01*
X1148Y198D02*
X1177Y198D01*
X1466Y198D02*
X1484Y198D01*
X1575Y198D02*
X1582Y198D01*
X1Y197D02*
X8Y197D01*
X1463Y197D02*
X1482Y197D01*
X1575Y197D02*
X1582Y197D01*
X1Y196D02*
X8Y196D01*
X1461Y196D02*
X1479Y196D01*
X1575Y196D02*
X1582Y196D01*
X1Y195D02*
X8Y195D01*
X1458Y195D02*
X1477Y195D01*
X1575Y195D02*
X1582Y195D01*
X1Y194D02*
X8Y194D01*
X1455Y194D02*
X1474Y194D01*
X1575Y194D02*
X1582Y194D01*
X1Y193D02*
X8Y193D01*
X1453Y193D02*
X1471Y193D01*
X1575Y193D02*
X1582Y193D01*
X1Y192D02*
X8Y192D01*
X1451Y192D02*
X1469Y192D01*
X1575Y192D02*
X1582Y192D01*
X1Y191D02*
X8Y191D01*
X1449Y191D02*
X1466Y191D01*
X1575Y191D02*
X1582Y191D01*
X1Y190D02*
X8Y190D01*
X1449Y190D02*
X1464Y190D01*
X1575Y190D02*
X1582Y190D01*
X1Y189D02*
X8Y189D01*
X1449Y189D02*
X1462Y189D01*
X1575Y189D02*
X1582Y189D01*
X1Y188D02*
X8Y188D01*
X1449Y188D02*
X1463Y188D01*
X1575Y188D02*
X1582Y188D01*
X1Y187D02*
X8Y187D01*
X1449Y187D02*
X1466Y187D01*
X1575Y187D02*
X1582Y187D01*
X1Y186D02*
X8Y186D01*
X1450Y186D02*
X1468Y186D01*
X1575Y186D02*
X1582Y186D01*
X1Y185D02*
X8Y185D01*
X1453Y185D02*
X1471Y185D01*
X1575Y185D02*
X1582Y185D01*
X1Y184D02*
X8Y184D01*
X1455Y184D02*
X1473Y184D01*
X1575Y184D02*
X1582Y184D01*
X1Y183D02*
X8Y183D01*
X1458Y183D02*
X1476Y183D01*
X1575Y183D02*
X1582Y183D01*
X1Y182D02*
X8Y182D01*
X1460Y182D02*
X1479Y182D01*
X1575Y182D02*
X1582Y182D01*
X1Y181D02*
X8Y181D01*
X1463Y181D02*
X1481Y181D01*
X1575Y181D02*
X1582Y181D01*
X1Y180D02*
X8Y180D01*
X1465Y180D02*
X1484Y180D01*
X1575Y180D02*
X1582Y180D01*
X1Y179D02*
X8Y179D01*
X1468Y179D02*
X1486Y179D01*
X1575Y179D02*
X1582Y179D01*
X1Y178D02*
X8Y178D01*
X1470Y178D02*
X1500Y178D01*
X1575Y178D02*
X1582Y178D01*
X1Y177D02*
X8Y177D01*
X1473Y177D02*
X1501Y177D01*
X1575Y177D02*
X1582Y177D01*
X1Y176D02*
X8Y176D01*
X1476Y176D02*
X1502Y176D01*
X1575Y176D02*
X1582Y176D01*
X1Y175D02*
X8Y175D01*
X1478Y175D02*
X1502Y175D01*
X1575Y175D02*
X1582Y175D01*
X1Y174D02*
X8Y174D01*
X1481Y174D02*
X1502Y174D01*
X1575Y174D02*
X1582Y174D01*
X1Y173D02*
X8Y173D01*
X1483Y173D02*
X1501Y173D01*
X1575Y173D02*
X1582Y173D01*
X1Y172D02*
X8Y172D01*
X1486Y172D02*
X1500Y172D01*
X1575Y172D02*
X1582Y172D01*
X1Y171D02*
X8Y171D01*
X1575Y171D02*
X1582Y171D01*
X1Y170D02*
X8Y170D01*
X1575Y170D02*
X1582Y170D01*
X1Y169D02*
X8Y169D01*
X1575Y169D02*
X1582Y169D01*
X1Y168D02*
X8Y168D01*
X1575Y168D02*
X1582Y168D01*
X1Y167D02*
X8Y167D01*
X1575Y167D02*
X1582Y167D01*
X1Y166D02*
X8Y166D01*
X1575Y166D02*
X1582Y166D01*
X1Y165D02*
X8Y165D01*
X1575Y165D02*
X1582Y165D01*
X1Y164D02*
X8Y164D01*
X1575Y164D02*
X1582Y164D01*
X1Y163D02*
X8Y163D01*
X1575Y163D02*
X1582Y163D01*
X1Y162D02*
X8Y162D01*
X1575Y162D02*
X1582Y162D01*
X1Y161D02*
X8Y161D01*
X1575Y161D02*
X1582Y161D01*
X1Y160D02*
X8Y160D01*
X1575Y160D02*
X1582Y160D01*
X1Y159D02*
X8Y159D01*
X1575Y159D02*
X1582Y159D01*
X1Y158D02*
X8Y158D01*
X1575Y158D02*
X1582Y158D01*
X1Y157D02*
X8Y157D01*
X1575Y157D02*
X1582Y157D01*
X1Y156D02*
X8Y156D01*
X1575Y156D02*
X1582Y156D01*
X1Y155D02*
X8Y155D01*
X1575Y155D02*
X1582Y155D01*
X1Y154D02*
X8Y154D01*
X1575Y154D02*
X1582Y154D01*
X1Y153D02*
X8Y153D01*
X1575Y153D02*
X1582Y153D01*
X1Y152D02*
X8Y152D01*
X1451Y152D02*
X1453Y152D01*
X1483Y152D02*
X1485Y152D01*
X1575Y152D02*
X1582Y152D01*
X1Y151D02*
X8Y151D01*
X1449Y151D02*
X1454Y151D01*
X1482Y151D02*
X1486Y151D01*
X1575Y151D02*
X1582Y151D01*
X1Y150D02*
X8Y150D01*
X1449Y150D02*
X1454Y150D01*
X1481Y150D02*
X1487Y150D01*
X1575Y150D02*
X1582Y150D01*
X1Y149D02*
X8Y149D01*
X1449Y149D02*
X1455Y149D01*
X1481Y149D02*
X1487Y149D01*
X1575Y149D02*
X1582Y149D01*
X1Y148D02*
X8Y148D01*
X1449Y148D02*
X1455Y148D01*
X1481Y148D02*
X1487Y148D01*
X1575Y148D02*
X1582Y148D01*
X1Y147D02*
X8Y147D01*
X1449Y147D02*
X1455Y147D01*
X1481Y147D02*
X1487Y147D01*
X1575Y147D02*
X1582Y147D01*
X1Y146D02*
X8Y146D01*
X1449Y146D02*
X1455Y146D01*
X1481Y146D02*
X1487Y146D01*
X1575Y146D02*
X1582Y146D01*
X1Y145D02*
X8Y145D01*
X1449Y145D02*
X1455Y145D01*
X1481Y145D02*
X1487Y145D01*
X1497Y145D02*
X1503Y145D01*
X1575Y145D02*
X1582Y145D01*
X1Y144D02*
X8Y144D01*
X852Y144D02*
X854Y144D01*
X1449Y144D02*
X1455Y144D01*
X1481Y144D02*
X1487Y144D01*
X1496Y144D02*
X1504Y144D01*
X1575Y144D02*
X1582Y144D01*
X1Y143D02*
X8Y143D01*
X851Y143D02*
X855Y143D01*
X1449Y143D02*
X1455Y143D01*
X1481Y143D02*
X1487Y143D01*
X1496Y143D02*
X1505Y143D01*
X1575Y143D02*
X1582Y143D01*
X1Y142D02*
X8Y142D01*
X850Y142D02*
X856Y142D01*
X1449Y142D02*
X1487Y142D01*
X1496Y142D02*
X1505Y142D01*
X1575Y142D02*
X1582Y142D01*
X1Y141D02*
X8Y141D01*
X850Y141D02*
X856Y141D01*
X1449Y141D02*
X1487Y141D01*
X1496Y141D02*
X1505Y141D01*
X1575Y141D02*
X1582Y141D01*
X1Y140D02*
X8Y140D01*
X849Y140D02*
X856Y140D01*
X872Y140D02*
X901Y140D01*
X1449Y140D02*
X1487Y140D01*
X1496Y140D02*
X1505Y140D01*
X1575Y140D02*
X1582Y140D01*
X1Y139D02*
X8Y139D01*
X849Y139D02*
X856Y139D01*
X872Y139D02*
X901Y139D01*
X1449Y139D02*
X1487Y139D01*
X1496Y139D02*
X1505Y139D01*
X1575Y139D02*
X1582Y139D01*
X1Y138D02*
X8Y138D01*
X848Y138D02*
X855Y138D01*
X872Y138D02*
X901Y138D01*
X1449Y138D02*
X1487Y138D01*
X1496Y138D02*
X1505Y138D01*
X1575Y138D02*
X1582Y138D01*
X1Y137D02*
X8Y137D01*
X848Y137D02*
X855Y137D01*
X872Y137D02*
X901Y137D01*
X1449Y137D02*
X1487Y137D01*
X1496Y137D02*
X1504Y137D01*
X1575Y137D02*
X1582Y137D01*
X1Y136D02*
X8Y136D01*
X848Y136D02*
X854Y136D01*
X872Y136D02*
X901Y136D01*
X1449Y136D02*
X1486Y136D01*
X1497Y136D02*
X1503Y136D01*
X1575Y136D02*
X1582Y136D01*
X1Y135D02*
X8Y135D01*
X848Y135D02*
X854Y135D01*
X872Y135D02*
X901Y135D01*
X1449Y135D02*
X1455Y135D01*
X1575Y135D02*
X1582Y135D01*
X1Y134D02*
X8Y134D01*
X848Y134D02*
X854Y134D01*
X872Y134D02*
X901Y134D01*
X1449Y134D02*
X1455Y134D01*
X1575Y134D02*
X1582Y134D01*
X1Y133D02*
X8Y133D01*
X848Y133D02*
X854Y133D01*
X872Y133D02*
X878Y133D01*
X895Y133D02*
X901Y133D01*
X1449Y133D02*
X1455Y133D01*
X1575Y133D02*
X1582Y133D01*
X1Y132D02*
X8Y132D01*
X848Y132D02*
X854Y132D01*
X872Y132D02*
X878Y132D01*
X895Y132D02*
X901Y132D01*
X1449Y132D02*
X1455Y132D01*
X1575Y132D02*
X1582Y132D01*
X1Y131D02*
X8Y131D01*
X848Y131D02*
X854Y131D01*
X872Y131D02*
X878Y131D01*
X895Y131D02*
X901Y131D01*
X1449Y131D02*
X1455Y131D01*
X1575Y131D02*
X1582Y131D01*
X1Y130D02*
X8Y130D01*
X848Y130D02*
X854Y130D01*
X872Y130D02*
X878Y130D01*
X895Y130D02*
X901Y130D01*
X1449Y130D02*
X1455Y130D01*
X1575Y130D02*
X1582Y130D01*
X1Y129D02*
X8Y129D01*
X848Y129D02*
X854Y129D01*
X872Y129D02*
X878Y129D01*
X895Y129D02*
X901Y129D01*
X1449Y129D02*
X1455Y129D01*
X1575Y129D02*
X1582Y129D01*
X1Y128D02*
X8Y128D01*
X848Y128D02*
X854Y128D01*
X872Y128D02*
X878Y128D01*
X895Y128D02*
X901Y128D01*
X1449Y128D02*
X1455Y128D01*
X1575Y128D02*
X1582Y128D01*
X1Y127D02*
X8Y127D01*
X848Y127D02*
X854Y127D01*
X872Y127D02*
X878Y127D01*
X895Y127D02*
X901Y127D01*
X1449Y127D02*
X1454Y127D01*
X1575Y127D02*
X1582Y127D01*
X1Y126D02*
X8Y126D01*
X848Y126D02*
X854Y126D01*
X872Y126D02*
X878Y126D01*
X895Y126D02*
X901Y126D01*
X1450Y126D02*
X1454Y126D01*
X1575Y126D02*
X1582Y126D01*
X1Y125D02*
X8Y125D01*
X848Y125D02*
X854Y125D01*
X872Y125D02*
X878Y125D01*
X895Y125D02*
X901Y125D01*
X1451Y125D02*
X1452Y125D01*
X1575Y125D02*
X1582Y125D01*
X1Y124D02*
X8Y124D01*
X848Y124D02*
X854Y124D01*
X872Y124D02*
X878Y124D01*
X895Y124D02*
X901Y124D01*
X1575Y124D02*
X1582Y124D01*
X1Y123D02*
X8Y123D01*
X848Y123D02*
X854Y123D01*
X872Y123D02*
X878Y123D01*
X895Y123D02*
X901Y123D01*
X1575Y123D02*
X1582Y123D01*
X1Y122D02*
X8Y122D01*
X848Y122D02*
X854Y122D01*
X872Y122D02*
X878Y122D01*
X895Y122D02*
X901Y122D01*
X1575Y122D02*
X1582Y122D01*
X1Y121D02*
X8Y121D01*
X848Y121D02*
X854Y121D01*
X872Y121D02*
X878Y121D01*
X895Y121D02*
X901Y121D01*
X1575Y121D02*
X1582Y121D01*
X1Y120D02*
X8Y120D01*
X848Y120D02*
X854Y120D01*
X872Y120D02*
X878Y120D01*
X895Y120D02*
X901Y120D01*
X1575Y120D02*
X1582Y120D01*
X1Y119D02*
X8Y119D01*
X848Y119D02*
X878Y119D01*
X895Y119D02*
X901Y119D01*
X1575Y119D02*
X1582Y119D01*
X1Y118D02*
X8Y118D01*
X848Y118D02*
X877Y118D01*
X895Y118D02*
X901Y118D01*
X1575Y118D02*
X1582Y118D01*
X1Y117D02*
X8Y117D01*
X849Y117D02*
X877Y117D01*
X895Y117D02*
X901Y117D01*
X1575Y117D02*
X1582Y117D01*
X1Y116D02*
X8Y116D01*
X849Y116D02*
X877Y116D01*
X895Y116D02*
X901Y116D01*
X1575Y116D02*
X1582Y116D01*
X1Y115D02*
X8Y115D01*
X850Y115D02*
X876Y115D01*
X895Y115D02*
X901Y115D01*
X1575Y115D02*
X1582Y115D01*
X1Y114D02*
X8Y114D01*
X851Y114D02*
X875Y114D01*
X896Y114D02*
X901Y114D01*
X1575Y114D02*
X1582Y114D01*
X1Y113D02*
X8Y113D01*
X853Y113D02*
X873Y113D01*
X897Y113D02*
X899Y113D01*
X1575Y113D02*
X1582Y113D01*
X1Y112D02*
X8Y112D01*
X1575Y112D02*
X1582Y112D01*
X1Y111D02*
X8Y111D01*
X1575Y111D02*
X1582Y111D01*
X1Y110D02*
X8Y110D01*
X1575Y110D02*
X1582Y110D01*
X1Y109D02*
X8Y109D01*
X1575Y109D02*
X1582Y109D01*
X1Y108D02*
X8Y108D01*
X1575Y108D02*
X1582Y108D01*
X1Y107D02*
X8Y107D01*
X1575Y107D02*
X1582Y107D01*
X1Y106D02*
X8Y106D01*
X1575Y106D02*
X1582Y106D01*
X1Y105D02*
X8Y105D01*
X1451Y105D02*
X1485Y105D01*
X1575Y105D02*
X1582Y105D01*
X1Y104D02*
X8Y104D01*
X1450Y104D02*
X1486Y104D01*
X1575Y104D02*
X1582Y104D01*
X1Y103D02*
X8Y103D01*
X1449Y103D02*
X1487Y103D01*
X1575Y103D02*
X1582Y103D01*
X1Y102D02*
X8Y102D01*
X1449Y102D02*
X1487Y102D01*
X1575Y102D02*
X1582Y102D01*
X1Y101D02*
X8Y101D01*
X1449Y101D02*
X1487Y101D01*
X1575Y101D02*
X1582Y101D01*
X1Y100D02*
X8Y100D01*
X1449Y100D02*
X1487Y100D01*
X1575Y100D02*
X1582Y100D01*
X1Y99D02*
X8Y99D01*
X1450Y99D02*
X1486Y99D01*
X1575Y99D02*
X1582Y99D01*
X1Y98D02*
X8Y98D01*
X1474Y98D02*
X1482Y98D01*
X1575Y98D02*
X1582Y98D01*
X1Y97D02*
X8Y97D01*
X1475Y97D02*
X1482Y97D01*
X1575Y97D02*
X1582Y97D01*
X1Y96D02*
X8Y96D01*
X1475Y96D02*
X1483Y96D01*
X1575Y96D02*
X1582Y96D01*
X1Y95D02*
X8Y95D01*
X876Y95D02*
X885Y95D01*
X1476Y95D02*
X1483Y95D01*
X1575Y95D02*
X1582Y95D01*
X1Y94D02*
X8Y94D01*
X874Y94D02*
X886Y94D01*
X1477Y94D02*
X1484Y94D01*
X1575Y94D02*
X1582Y94D01*
X1Y93D02*
X8Y93D01*
X872Y93D02*
X886Y93D01*
X1477Y93D02*
X1485Y93D01*
X1575Y93D02*
X1582Y93D01*
X1Y92D02*
X8Y92D01*
X869Y92D02*
X886Y92D01*
X1478Y92D02*
X1485Y92D01*
X1575Y92D02*
X1582Y92D01*
X1Y91D02*
X8Y91D01*
X867Y91D02*
X886Y91D01*
X1479Y91D02*
X1486Y91D01*
X1575Y91D02*
X1582Y91D01*
X1Y90D02*
X8Y90D01*
X865Y90D02*
X886Y90D01*
X1479Y90D02*
X1486Y90D01*
X1575Y90D02*
X1582Y90D01*
X1Y89D02*
X8Y89D01*
X862Y89D02*
X885Y89D01*
X1480Y89D02*
X1487Y89D01*
X1575Y89D02*
X1582Y89D01*
X1Y88D02*
X8Y88D01*
X860Y88D02*
X877Y88D01*
X1480Y88D02*
X1487Y88D01*
X1575Y88D02*
X1582Y88D01*
X1Y87D02*
X8Y87D01*
X858Y87D02*
X874Y87D01*
X1481Y87D02*
X1487Y87D01*
X1575Y87D02*
X1582Y87D01*
X1Y86D02*
X8Y86D01*
X856Y86D02*
X872Y86D01*
X1481Y86D02*
X1487Y86D01*
X1575Y86D02*
X1582Y86D01*
X1Y85D02*
X8Y85D01*
X853Y85D02*
X870Y85D01*
X1481Y85D02*
X1487Y85D01*
X1575Y85D02*
X1582Y85D01*
X1Y84D02*
X8Y84D01*
X851Y84D02*
X868Y84D01*
X1481Y84D02*
X1487Y84D01*
X1575Y84D02*
X1582Y84D01*
X1Y83D02*
X8Y83D01*
X849Y83D02*
X865Y83D01*
X1481Y83D02*
X1487Y83D01*
X1575Y83D02*
X1582Y83D01*
X1Y82D02*
X8Y82D01*
X848Y82D02*
X863Y82D01*
X1481Y82D02*
X1487Y82D01*
X1575Y82D02*
X1582Y82D01*
X1Y81D02*
X8Y81D01*
X848Y81D02*
X861Y81D01*
X1481Y81D02*
X1487Y81D01*
X1575Y81D02*
X1582Y81D01*
X1Y80D02*
X8Y80D01*
X848Y80D02*
X858Y80D01*
X1480Y80D02*
X1487Y80D01*
X1575Y80D02*
X1582Y80D01*
X1Y79D02*
X8Y79D01*
X848Y79D02*
X856Y79D01*
X1479Y79D02*
X1487Y79D01*
X1575Y79D02*
X1582Y79D01*
X1Y78D02*
X8Y78D01*
X848Y78D02*
X855Y78D01*
X1450Y78D02*
X1486Y78D01*
X1575Y78D02*
X1582Y78D01*
X1Y77D02*
X8Y77D01*
X848Y77D02*
X857Y77D01*
X1449Y77D02*
X1486Y77D01*
X1575Y77D02*
X1582Y77D01*
X1Y76D02*
X8Y76D01*
X848Y76D02*
X859Y76D01*
X1449Y76D02*
X1485Y76D01*
X1575Y76D02*
X1582Y76D01*
X1Y75D02*
X8Y75D01*
X848Y75D02*
X862Y75D01*
X1449Y75D02*
X1484Y75D01*
X1575Y75D02*
X1582Y75D01*
X1Y74D02*
X8Y74D01*
X849Y74D02*
X864Y74D01*
X1449Y74D02*
X1483Y74D01*
X1575Y74D02*
X1582Y74D01*
X1Y73D02*
X8Y73D01*
X850Y73D02*
X866Y73D01*
X1450Y73D02*
X1482Y73D01*
X1575Y73D02*
X1582Y73D01*
X1Y72D02*
X8Y72D01*
X852Y72D02*
X869Y72D01*
X1451Y72D02*
X1480Y72D01*
X1575Y72D02*
X1582Y72D01*
X1Y71D02*
X8Y71D01*
X854Y71D02*
X871Y71D01*
X1575Y71D02*
X1582Y71D01*
X1Y70D02*
X8Y70D01*
X857Y70D02*
X873Y70D01*
X1575Y70D02*
X1582Y70D01*
X1Y69D02*
X8Y69D01*
X859Y69D02*
X875Y69D01*
X1575Y69D02*
X1582Y69D01*
X1Y68D02*
X8Y68D01*
X861Y68D02*
X878Y68D01*
X880Y68D02*
X883Y68D01*
X1575Y68D02*
X1582Y68D01*
X1Y67D02*
X8Y67D01*
X863Y67D02*
X885Y67D01*
X1575Y67D02*
X1582Y67D01*
X1Y66D02*
X8Y66D01*
X865Y66D02*
X886Y66D01*
X1575Y66D02*
X1582Y66D01*
X1Y65D02*
X8Y65D01*
X868Y65D02*
X886Y65D01*
X1575Y65D02*
X1582Y65D01*
X1Y64D02*
X8Y64D01*
X870Y64D02*
X886Y64D01*
X1575Y64D02*
X1582Y64D01*
X1Y63D02*
X8Y63D01*
X872Y63D02*
X886Y63D01*
X1575Y63D02*
X1582Y63D01*
X1Y62D02*
X8Y62D01*
X875Y62D02*
X885Y62D01*
X1575Y62D02*
X1582Y62D01*
X1Y61D02*
X8Y61D01*
X878Y61D02*
X883Y61D01*
X1575Y61D02*
X1582Y61D01*
X1Y60D02*
X8Y60D01*
X1575Y60D02*
X1582Y60D01*
X1Y59D02*
X8Y59D01*
X1575Y59D02*
X1582Y59D01*
X1Y58D02*
X8Y58D01*
X1575Y58D02*
X1582Y58D01*
X1Y57D02*
X8Y57D01*
X1575Y57D02*
X1582Y57D01*
X1Y56D02*
X8Y56D01*
X1575Y56D02*
X1582Y56D01*
X1Y55D02*
X8Y55D01*
X1575Y55D02*
X1582Y55D01*
X1Y54D02*
X8Y54D01*
X1575Y54D02*
X1582Y54D01*
X1Y53D02*
X8Y53D01*
X1575Y53D02*
X1582Y53D01*
X1Y52D02*
X8Y52D01*
X1575Y52D02*
X1582Y52D01*
X1Y51D02*
X8Y51D01*
X1575Y51D02*
X1582Y51D01*
X1Y50D02*
X8Y50D01*
X1575Y50D02*
X1582Y50D01*
X1Y49D02*
X8Y49D01*
X1575Y49D02*
X1582Y49D01*
X1Y48D02*
X8Y48D01*
X1575Y48D02*
X1582Y48D01*
X1Y47D02*
X8Y47D01*
X1575Y47D02*
X1582Y47D01*
X1Y46D02*
X8Y46D01*
X1575Y46D02*
X1582Y46D01*
X1Y45D02*
X8Y45D01*
X1575Y45D02*
X1582Y45D01*
X1Y44D02*
X8Y44D01*
X1575Y44D02*
X1582Y44D01*
X1Y43D02*
X8Y43D01*
X1575Y43D02*
X1582Y43D01*
X1Y42D02*
X8Y42D01*
X1575Y42D02*
X1582Y42D01*
X1Y41D02*
X8Y41D01*
X1575Y41D02*
X1582Y41D01*
X1Y40D02*
X8Y40D01*
X1575Y40D02*
X1582Y40D01*
X1Y39D02*
X8Y39D01*
X1575Y39D02*
X1582Y39D01*
X1Y38D02*
X8Y38D01*
X1575Y38D02*
X1582Y38D01*
X1Y37D02*
X8Y37D01*
X1575Y37D02*
X1582Y37D01*
X1Y36D02*
X8Y36D01*
X1575Y36D02*
X1582Y36D01*
X1Y35D02*
X8Y35D01*
X1575Y35D02*
X1582Y35D01*
X1Y34D02*
X8Y34D01*
X1575Y34D02*
X1582Y34D01*
X1Y33D02*
X8Y33D01*
X1575Y33D02*
X1582Y33D01*
X1Y32D02*
X8Y32D01*
X1575Y32D02*
X1582Y32D01*
X1Y31D02*
X8Y31D01*
X1575Y31D02*
X1582Y31D01*
X1Y30D02*
X8Y30D01*
X1575Y30D02*
X1582Y30D01*
X1Y29D02*
X8Y29D01*
X1575Y29D02*
X1582Y29D01*
X1Y28D02*
X8Y28D01*
X1575Y28D02*
X1582Y28D01*
X1Y27D02*
X8Y27D01*
X1575Y27D02*
X1582Y27D01*
X1Y26D02*
X8Y26D01*
X1575Y26D02*
X1582Y26D01*
X1Y25D02*
X8Y25D01*
X1575Y25D02*
X1582Y25D01*
X1Y24D02*
X8Y24D01*
X1575Y24D02*
X1582Y24D01*
X1Y23D02*
X8Y23D01*
X1575Y23D02*
X1582Y23D01*
X1Y22D02*
X8Y22D01*
X1575Y22D02*
X1582Y22D01*
X1Y21D02*
X8Y21D01*
X1575Y21D02*
X1582Y21D01*
X1Y20D02*
X8Y20D01*
X1575Y20D02*
X1582Y20D01*
X1Y19D02*
X8Y19D01*
X1575Y19D02*
X1582Y19D01*
X1Y18D02*
X8Y18D01*
X1575Y18D02*
X1582Y18D01*
X1Y17D02*
X8Y17D01*
X1575Y17D02*
X1582Y17D01*
X1Y16D02*
X8Y16D01*
X1575Y16D02*
X1582Y16D01*
X1Y15D02*
X8Y15D01*
X1575Y15D02*
X1582Y15D01*
X1Y14D02*
X8Y14D01*
X1575Y14D02*
X1582Y14D01*
X1Y13D02*
X8Y13D01*
X1575Y13D02*
X1582Y13D01*
X1Y12D02*
X8Y12D01*
X1575Y12D02*
X1582Y12D01*
X1Y11D02*
X8Y11D01*
X1575Y11D02*
X1582Y11D01*
X1Y10D02*
X8Y10D01*
X1575Y10D02*
X1582Y10D01*
X1Y9D02*
X8Y9D01*
X1575Y9D02*
X1582Y9D01*
X1Y8D02*
X1582Y8D01*
X1Y7D02*
X1582Y7D01*
X1Y6D02*
X1582Y6D01*
X1Y5D02*
X1582Y5D01*
X1Y4D02*
X1582Y4D01*
X1Y3D02*
X1582Y3D01*
X1Y2D02*
X1582Y2D01*
X1Y1D02*
X1582Y1D01*
D02*
G04 End of Silk1*
M02*