G04 MADE WITH FRITZING*
G04 WWW.FRITZING.ORG*
G04 DOUBLE SIDED*
G04 HOLES PLATED*
G04 CONTOUR ON CENTER OF CONTOUR VECTOR*
%ASAXBY*%
%FSLAX23Y23*%
%MOIN*%
%OFA0B0*%
%SFA1.0B1.0*%
%ADD10C,0.078000*%
%ADD11C,0.075000*%
%ADD12R,0.075000X0.075000*%
%ADD13C,0.024000*%
%LNCOPPER1*%
G90*
G70*
G54D10*
X1457Y1301D03*
X1307Y1301D03*
X1157Y1301D03*
X1007Y1301D03*
X857Y1301D03*
X707Y1301D03*
X557Y1301D03*
X407Y1301D03*
G54D11*
X1482Y971D03*
X1482Y371D03*
X1382Y971D03*
X1382Y371D03*
X1282Y971D03*
X1282Y371D03*
X1182Y971D03*
X1182Y371D03*
X1082Y971D03*
X1082Y371D03*
X982Y971D03*
X982Y371D03*
X882Y971D03*
X882Y371D03*
X782Y971D03*
X782Y371D03*
X682Y971D03*
X682Y371D03*
X582Y971D03*
X582Y371D03*
X482Y971D03*
X482Y371D03*
X382Y971D03*
X382Y371D03*
X282Y971D03*
X282Y371D03*
X182Y971D03*
X182Y371D03*
X82Y971D03*
X82Y371D03*
G54D10*
X1363Y106D03*
X1263Y106D03*
X1076Y106D03*
X976Y106D03*
X180Y1297D03*
X80Y1297D03*
X178Y1152D03*
X78Y1152D03*
G54D12*
X1482Y971D03*
G54D13*
X406Y1282D02*
X383Y988D01*
D02*
X705Y1282D02*
X697Y1174D01*
D02*
X697Y1174D02*
X510Y1069D01*
D02*
X510Y1069D02*
X487Y988D01*
D02*
X588Y987D02*
X599Y1018D01*
D02*
X599Y1018D02*
X962Y1174D01*
D02*
X962Y1174D02*
X1001Y1283D01*
D02*
X1116Y1126D02*
X1269Y1203D01*
D02*
X1086Y988D02*
X1116Y1126D01*
D02*
X1269Y1203D02*
X1300Y1283D01*
D02*
X1475Y355D02*
X1370Y123D01*
D02*
X1270Y123D02*
X1375Y355D01*
D02*
X1244Y106D02*
X1095Y106D01*
D02*
X979Y125D02*
X990Y202D01*
D02*
X1134Y214D02*
X1177Y354D01*
D02*
X990Y202D02*
X1134Y214D01*
D02*
X1450Y1283D02*
X1396Y1151D01*
D02*
X1233Y1077D02*
X1190Y987D01*
D02*
X1396Y1151D02*
X1233Y1077D01*
D02*
X1182Y953D02*
X1184Y855D01*
D02*
X1184Y855D02*
X1385Y721D01*
D02*
X1385Y721D02*
X1382Y388D01*
D02*
X273Y986D02*
X187Y1135D01*
D02*
X80Y1278D02*
X78Y1171D01*
G04 End of Copper1*
M02*