G04 MADE WITH FRITZING*
G04 WWW.FRITZING.ORG*
G04 DOUBLE SIDED*
G04 HOLES PLATED*
G04 CONTOUR ON CENTER OF CONTOUR VECTOR*
%ASAXBY*%
%FSLAX23Y23*%
%MOIN*%
%OFA0B0*%
%SFA1.0B1.0*%
%ADD10C,0.078000*%
%ADD11C,0.075000*%
%ADD12R,0.075000X0.075000*%
%ADD13C,0.024000*%
%ADD14R,0.001000X0.001000*%
%LNCOPPER0*%
G90*
G70*
G54D10*
X1457Y1301D03*
X1307Y1301D03*
X1157Y1301D03*
X1007Y1301D03*
X857Y1301D03*
X707Y1301D03*
X557Y1301D03*
X407Y1301D03*
G54D11*
X1482Y971D03*
X1482Y371D03*
X1382Y971D03*
X1382Y371D03*
X1282Y971D03*
X1282Y371D03*
X1182Y971D03*
X1182Y371D03*
X1082Y971D03*
X1082Y371D03*
X982Y971D03*
X982Y371D03*
X882Y971D03*
X882Y371D03*
X782Y971D03*
X782Y371D03*
X682Y971D03*
X682Y371D03*
X582Y971D03*
X582Y371D03*
X482Y971D03*
X482Y371D03*
X382Y971D03*
X382Y371D03*
X282Y971D03*
X282Y371D03*
X182Y971D03*
X182Y371D03*
X82Y971D03*
X82Y371D03*
G54D10*
X1363Y106D03*
X1263Y106D03*
X1076Y106D03*
X976Y106D03*
X180Y1297D03*
X80Y1297D03*
X178Y1152D03*
X78Y1152D03*
G54D12*
X1482Y971D03*
G54D13*
X1460Y1388D02*
X1457Y1320D01*
D02*
X1159Y1320D02*
X1168Y1385D01*
D02*
X1168Y1385D02*
X1460Y1388D01*
D02*
X1165Y1390D02*
X1159Y1320D01*
D02*
X858Y1320D02*
X861Y1388D01*
D02*
X861Y1388D02*
X1165Y1390D01*
D02*
X861Y1388D02*
X858Y1320D01*
D02*
X557Y1320D02*
X557Y1388D01*
D02*
X557Y1388D02*
X861Y1388D01*
D02*
X199Y1293D02*
X286Y1273D01*
D02*
X286Y1273D02*
X364Y1101D01*
D02*
X364Y1101D02*
X749Y1068D01*
D02*
X749Y1068D02*
X777Y988D01*
D02*
X75Y1388D02*
X79Y1316D01*
D02*
X554Y1390D02*
X75Y1388D01*
D02*
X556Y1320D02*
X554Y1390D01*
G54D14*
X446Y897D02*
X463Y897D01*
X611Y897D02*
X614Y897D01*
X1268Y897D02*
X1271Y897D01*
X444Y896D02*
X465Y896D01*
X609Y896D02*
X616Y896D01*
X1266Y896D02*
X1272Y896D01*
X444Y895D02*
X467Y895D01*
X609Y895D02*
X616Y895D01*
X1266Y895D02*
X1273Y895D01*
X444Y894D02*
X468Y894D01*
X609Y894D02*
X616Y894D01*
X1265Y894D02*
X1273Y894D01*
X443Y893D02*
X469Y893D01*
X608Y893D02*
X617Y893D01*
X733Y893D02*
X737Y893D01*
X1265Y893D02*
X1273Y893D01*
X1324Y893D02*
X1328Y893D01*
X444Y892D02*
X470Y892D01*
X608Y892D02*
X617Y892D01*
X732Y892D02*
X738Y892D01*
X1265Y892D02*
X1273Y892D01*
X1323Y892D02*
X1329Y892D01*
X444Y891D02*
X471Y891D01*
X608Y891D02*
X617Y891D01*
X731Y891D02*
X739Y891D01*
X1265Y891D02*
X1273Y891D01*
X1322Y891D02*
X1330Y891D01*
X445Y890D02*
X472Y890D01*
X608Y890D02*
X617Y890D01*
X731Y890D02*
X739Y890D01*
X1265Y890D02*
X1273Y890D01*
X1322Y890D02*
X1330Y890D01*
X446Y889D02*
X472Y889D01*
X608Y889D02*
X617Y889D01*
X731Y889D02*
X739Y889D01*
X1265Y889D02*
X1273Y889D01*
X1322Y889D02*
X1330Y889D01*
X462Y888D02*
X473Y888D01*
X608Y888D02*
X617Y888D01*
X731Y888D02*
X739Y888D01*
X1265Y888D02*
X1273Y888D01*
X1322Y888D02*
X1330Y888D01*
X463Y887D02*
X473Y887D01*
X608Y887D02*
X617Y887D01*
X731Y887D02*
X739Y887D01*
X1265Y887D02*
X1273Y887D01*
X1322Y887D02*
X1330Y887D01*
X464Y886D02*
X473Y886D01*
X608Y886D02*
X617Y886D01*
X731Y886D02*
X739Y886D01*
X1265Y886D02*
X1273Y886D01*
X1322Y886D02*
X1330Y886D01*
X465Y885D02*
X474Y885D01*
X608Y885D02*
X617Y885D01*
X731Y885D02*
X739Y885D01*
X1265Y885D02*
X1273Y885D01*
X1322Y885D02*
X1330Y885D01*
X465Y884D02*
X474Y884D01*
X608Y884D02*
X617Y884D01*
X731Y884D02*
X739Y884D01*
X1265Y884D02*
X1273Y884D01*
X1322Y884D02*
X1330Y884D01*
X466Y883D02*
X474Y883D01*
X608Y883D02*
X617Y883D01*
X731Y883D02*
X739Y883D01*
X1265Y883D02*
X1273Y883D01*
X1322Y883D02*
X1330Y883D01*
X466Y882D02*
X474Y882D01*
X608Y882D02*
X617Y882D01*
X731Y882D02*
X739Y882D01*
X1265Y882D02*
X1273Y882D01*
X1322Y882D02*
X1330Y882D01*
X466Y881D02*
X474Y881D01*
X608Y881D02*
X617Y881D01*
X731Y881D02*
X739Y881D01*
X1265Y881D02*
X1273Y881D01*
X1322Y881D02*
X1330Y881D01*
X466Y880D02*
X474Y880D01*
X608Y880D02*
X617Y880D01*
X731Y880D02*
X739Y880D01*
X1265Y880D02*
X1273Y880D01*
X1322Y880D02*
X1330Y880D01*
X466Y879D02*
X474Y879D01*
X608Y879D02*
X617Y879D01*
X731Y879D02*
X739Y879D01*
X1265Y879D02*
X1273Y879D01*
X1322Y879D02*
X1330Y879D01*
X257Y878D02*
X275Y878D01*
X319Y878D02*
X334Y878D01*
X348Y878D02*
X351Y878D01*
X389Y878D02*
X406Y878D01*
X455Y878D02*
X480Y878D01*
X520Y878D02*
X537Y878D01*
X586Y878D02*
X599Y878D01*
X608Y878D02*
X617Y878D01*
X714Y878D02*
X745Y878D01*
X780Y878D02*
X792Y878D01*
X807Y878D02*
X811Y878D01*
X849Y878D02*
X866Y878D01*
X909Y878D02*
X913Y878D01*
X927Y878D02*
X932Y878D01*
X940Y878D02*
X943Y878D01*
X980Y878D02*
X997Y878D01*
X1040Y878D02*
X1044Y878D01*
X1058Y878D02*
X1064Y878D01*
X1072Y878D02*
X1075Y878D01*
X1177Y878D02*
X1194Y878D01*
X1240Y878D02*
X1252Y878D01*
X1265Y878D02*
X1273Y878D01*
X1305Y878D02*
X1337Y878D01*
X255Y877D02*
X277Y877D01*
X316Y877D02*
X335Y877D01*
X347Y877D02*
X353Y877D01*
X386Y877D02*
X409Y877D01*
X454Y877D02*
X482Y877D01*
X518Y877D02*
X540Y877D01*
X583Y877D02*
X601Y877D01*
X608Y877D02*
X617Y877D01*
X712Y877D02*
X747Y877D01*
X777Y877D02*
X794Y877D01*
X806Y877D02*
X812Y877D01*
X846Y877D02*
X869Y877D01*
X906Y877D02*
X916Y877D01*
X925Y877D02*
X935Y877D01*
X939Y877D02*
X945Y877D01*
X977Y877D02*
X1000Y877D01*
X1038Y877D02*
X1047Y877D01*
X1056Y877D02*
X1066Y877D01*
X1070Y877D02*
X1076Y877D01*
X1174Y877D02*
X1197Y877D01*
X1238Y877D02*
X1254Y877D01*
X1265Y877D02*
X1273Y877D01*
X1303Y877D02*
X1338Y877D01*
X253Y876D02*
X279Y876D01*
X314Y876D02*
X336Y876D01*
X346Y876D02*
X353Y876D01*
X384Y876D02*
X410Y876D01*
X453Y876D02*
X483Y876D01*
X516Y876D02*
X542Y876D01*
X582Y876D02*
X603Y876D01*
X608Y876D02*
X617Y876D01*
X712Y876D02*
X748Y876D01*
X776Y876D02*
X796Y876D01*
X805Y876D02*
X813Y876D01*
X844Y876D02*
X870Y876D01*
X905Y876D02*
X918Y876D01*
X923Y876D02*
X936Y876D01*
X938Y876D02*
X945Y876D01*
X976Y876D02*
X1002Y876D01*
X1036Y876D02*
X1049Y876D01*
X1055Y876D02*
X1067Y876D01*
X1070Y876D02*
X1077Y876D01*
X1173Y876D02*
X1199Y876D01*
X1236Y876D02*
X1256Y876D01*
X1265Y876D02*
X1273Y876D01*
X1303Y876D02*
X1339Y876D01*
X252Y875D02*
X281Y875D01*
X313Y875D02*
X337Y875D01*
X346Y875D02*
X354Y875D01*
X383Y875D02*
X412Y875D01*
X453Y875D02*
X483Y875D01*
X514Y875D02*
X543Y875D01*
X580Y875D02*
X605Y875D01*
X608Y875D02*
X617Y875D01*
X711Y875D02*
X748Y875D01*
X774Y875D02*
X797Y875D01*
X805Y875D02*
X813Y875D01*
X843Y875D02*
X872Y875D01*
X904Y875D02*
X919Y875D01*
X922Y875D02*
X946Y875D01*
X974Y875D02*
X1003Y875D01*
X1035Y875D02*
X1050Y875D01*
X1054Y875D02*
X1077Y875D01*
X1171Y875D02*
X1200Y875D01*
X1235Y875D02*
X1258Y875D01*
X1265Y875D02*
X1273Y875D01*
X1302Y875D02*
X1339Y875D01*
X250Y874D02*
X282Y874D01*
X312Y874D02*
X338Y874D01*
X346Y874D02*
X354Y874D01*
X382Y874D02*
X413Y874D01*
X452Y874D02*
X483Y874D01*
X513Y874D02*
X545Y874D01*
X579Y874D02*
X606Y874D01*
X608Y874D02*
X617Y874D01*
X711Y874D02*
X748Y874D01*
X773Y874D02*
X799Y874D01*
X805Y874D02*
X813Y874D01*
X841Y874D02*
X873Y874D01*
X903Y874D02*
X946Y874D01*
X973Y874D02*
X1004Y874D01*
X1034Y874D02*
X1077Y874D01*
X1170Y874D02*
X1201Y874D01*
X1234Y874D02*
X1259Y874D01*
X1265Y874D02*
X1273Y874D01*
X1302Y874D02*
X1339Y874D01*
X249Y873D02*
X283Y873D01*
X312Y873D02*
X340Y873D01*
X346Y873D02*
X354Y873D01*
X381Y873D02*
X414Y873D01*
X453Y873D02*
X483Y873D01*
X512Y873D02*
X546Y873D01*
X578Y873D02*
X617Y873D01*
X711Y873D02*
X748Y873D01*
X773Y873D02*
X801Y873D01*
X805Y873D02*
X813Y873D01*
X840Y873D02*
X874Y873D01*
X902Y873D02*
X946Y873D01*
X972Y873D02*
X1005Y873D01*
X1033Y873D02*
X1077Y873D01*
X1169Y873D02*
X1202Y873D01*
X1233Y873D02*
X1261Y873D01*
X1265Y873D02*
X1273Y873D01*
X1302Y873D02*
X1339Y873D01*
X248Y872D02*
X284Y872D01*
X311Y872D02*
X341Y872D01*
X346Y872D02*
X354Y872D01*
X380Y872D02*
X415Y872D01*
X453Y872D02*
X483Y872D01*
X511Y872D02*
X547Y872D01*
X577Y872D02*
X617Y872D01*
X712Y872D02*
X748Y872D01*
X772Y872D02*
X802Y872D01*
X805Y872D02*
X813Y872D01*
X839Y872D02*
X875Y872D01*
X901Y872D02*
X946Y872D01*
X971Y872D02*
X1006Y872D01*
X1033Y872D02*
X1077Y872D01*
X1168Y872D02*
X1203Y872D01*
X1232Y872D02*
X1262Y872D01*
X1265Y872D02*
X1273Y872D01*
X1303Y872D02*
X1339Y872D01*
X247Y871D02*
X285Y871D01*
X311Y871D02*
X342Y871D01*
X346Y871D02*
X354Y871D01*
X379Y871D02*
X416Y871D01*
X454Y871D02*
X482Y871D01*
X510Y871D02*
X547Y871D01*
X576Y871D02*
X617Y871D01*
X712Y871D02*
X747Y871D01*
X771Y871D02*
X813Y871D01*
X839Y871D02*
X876Y871D01*
X901Y871D02*
X946Y871D01*
X970Y871D02*
X1007Y871D01*
X1032Y871D02*
X1077Y871D01*
X1167Y871D02*
X1204Y871D01*
X1232Y871D02*
X1273Y871D01*
X1303Y871D02*
X1338Y871D01*
X247Y870D02*
X285Y870D01*
X310Y870D02*
X343Y870D01*
X346Y870D02*
X354Y870D01*
X378Y870D02*
X417Y870D01*
X455Y870D02*
X481Y870D01*
X509Y870D02*
X548Y870D01*
X575Y870D02*
X617Y870D01*
X713Y870D02*
X746Y870D01*
X771Y870D02*
X813Y870D01*
X838Y870D02*
X877Y870D01*
X901Y870D02*
X946Y870D01*
X969Y870D02*
X1008Y870D01*
X1032Y870D02*
X1077Y870D01*
X1166Y870D02*
X1205Y870D01*
X1231Y870D02*
X1273Y870D01*
X1305Y870D02*
X1337Y870D01*
X246Y869D02*
X258Y869D01*
X274Y869D02*
X286Y869D01*
X310Y869D02*
X320Y869D01*
X331Y869D02*
X354Y869D01*
X377Y869D02*
X390Y869D01*
X405Y869D02*
X417Y869D01*
X466Y869D02*
X474Y869D01*
X509Y869D02*
X521Y869D01*
X537Y869D02*
X549Y869D01*
X575Y869D02*
X587Y869D01*
X598Y869D02*
X617Y869D01*
X731Y869D02*
X739Y869D01*
X771Y869D02*
X781Y869D01*
X791Y869D02*
X813Y869D01*
X837Y869D02*
X849Y869D01*
X865Y869D02*
X877Y869D01*
X901Y869D02*
X909Y869D01*
X912Y869D02*
X928Y869D01*
X931Y869D02*
X946Y869D01*
X969Y869D02*
X981Y869D01*
X996Y869D02*
X1009Y869D01*
X1032Y869D02*
X1041Y869D01*
X1044Y869D02*
X1059Y869D01*
X1063Y869D02*
X1077Y869D01*
X1166Y869D02*
X1178Y869D01*
X1193Y869D02*
X1206Y869D01*
X1231Y869D02*
X1241Y869D01*
X1251Y869D02*
X1273Y869D01*
X1322Y869D02*
X1330Y869D01*
X246Y868D02*
X256Y868D01*
X276Y868D02*
X287Y868D01*
X310Y868D02*
X319Y868D01*
X332Y868D02*
X354Y868D01*
X377Y868D02*
X388Y868D01*
X407Y868D02*
X418Y868D01*
X466Y868D02*
X474Y868D01*
X508Y868D02*
X519Y868D01*
X538Y868D02*
X549Y868D01*
X574Y868D02*
X585Y868D01*
X599Y868D02*
X617Y868D01*
X731Y868D02*
X739Y868D01*
X770Y868D02*
X780Y868D01*
X792Y868D02*
X813Y868D01*
X837Y868D02*
X848Y868D01*
X867Y868D02*
X878Y868D01*
X901Y868D02*
X909Y868D01*
X913Y868D02*
X927Y868D01*
X932Y868D02*
X946Y868D01*
X968Y868D02*
X979Y868D01*
X998Y868D02*
X1009Y868D01*
X1032Y868D02*
X1040Y868D01*
X1045Y868D02*
X1059Y868D01*
X1064Y868D02*
X1077Y868D01*
X1165Y868D02*
X1176Y868D01*
X1195Y868D02*
X1206Y868D01*
X1231Y868D02*
X1240Y868D01*
X1253Y868D02*
X1273Y868D01*
X1322Y868D02*
X1330Y868D01*
X245Y867D02*
X255Y867D01*
X277Y867D02*
X287Y867D01*
X310Y867D02*
X318Y867D01*
X333Y867D02*
X354Y867D01*
X376Y867D02*
X386Y867D01*
X408Y867D02*
X418Y867D01*
X466Y867D02*
X474Y867D01*
X508Y867D02*
X518Y867D01*
X540Y867D02*
X550Y867D01*
X574Y867D02*
X584Y867D01*
X601Y867D02*
X617Y867D01*
X731Y867D02*
X739Y867D01*
X770Y867D02*
X779Y867D01*
X794Y867D02*
X813Y867D01*
X836Y867D02*
X846Y867D01*
X868Y867D02*
X878Y867D01*
X901Y867D02*
X909Y867D01*
X915Y867D02*
X927Y867D01*
X934Y867D02*
X946Y867D01*
X968Y867D02*
X977Y867D01*
X1000Y867D02*
X1010Y867D01*
X1032Y867D02*
X1040Y867D01*
X1046Y867D02*
X1059Y867D01*
X1065Y867D02*
X1077Y867D01*
X1165Y867D02*
X1175Y867D01*
X1197Y867D02*
X1207Y867D01*
X1231Y867D02*
X1239Y867D01*
X1254Y867D02*
X1273Y867D01*
X1322Y867D02*
X1330Y867D01*
X245Y866D02*
X254Y866D01*
X278Y866D02*
X287Y866D01*
X310Y866D02*
X318Y866D01*
X335Y866D02*
X354Y866D01*
X376Y866D02*
X385Y866D01*
X409Y866D02*
X419Y866D01*
X466Y866D02*
X474Y866D01*
X507Y866D02*
X517Y866D01*
X541Y866D02*
X550Y866D01*
X573Y866D02*
X583Y866D01*
X602Y866D02*
X617Y866D01*
X731Y866D02*
X739Y866D01*
X770Y866D02*
X778Y866D01*
X795Y866D02*
X813Y866D01*
X836Y866D02*
X845Y866D01*
X869Y866D02*
X879Y866D01*
X901Y866D02*
X909Y866D01*
X916Y866D02*
X927Y866D01*
X935Y866D02*
X946Y866D01*
X967Y866D02*
X977Y866D01*
X1000Y866D02*
X1010Y866D01*
X1032Y866D02*
X1040Y866D01*
X1047Y866D02*
X1059Y866D01*
X1066Y866D02*
X1077Y866D01*
X1164Y866D02*
X1174Y866D01*
X1198Y866D02*
X1207Y866D01*
X1230Y866D02*
X1239Y866D01*
X1256Y866D02*
X1273Y866D01*
X1322Y866D02*
X1330Y866D01*
X244Y865D02*
X253Y865D01*
X279Y865D02*
X288Y865D01*
X310Y865D02*
X318Y865D01*
X336Y865D02*
X354Y865D01*
X376Y865D02*
X385Y865D01*
X410Y865D02*
X419Y865D01*
X466Y865D02*
X474Y865D01*
X507Y865D02*
X516Y865D01*
X542Y865D02*
X551Y865D01*
X573Y865D02*
X582Y865D01*
X603Y865D02*
X617Y865D01*
X731Y865D02*
X739Y865D01*
X770Y865D02*
X778Y865D01*
X797Y865D02*
X813Y865D01*
X836Y865D02*
X844Y865D01*
X870Y865D02*
X879Y865D01*
X900Y865D02*
X909Y865D01*
X917Y865D02*
X927Y865D01*
X936Y865D02*
X946Y865D01*
X967Y865D02*
X976Y865D01*
X1001Y865D02*
X1010Y865D01*
X1032Y865D02*
X1040Y865D01*
X1049Y865D02*
X1059Y865D01*
X1067Y865D02*
X1077Y865D01*
X1164Y865D02*
X1173Y865D01*
X1198Y865D02*
X1207Y865D01*
X1230Y865D02*
X1239Y865D01*
X1257Y865D02*
X1273Y865D01*
X1322Y865D02*
X1330Y865D01*
X244Y864D02*
X253Y864D01*
X279Y864D02*
X288Y864D01*
X310Y864D02*
X318Y864D01*
X337Y864D02*
X354Y864D01*
X376Y864D02*
X384Y864D01*
X411Y864D02*
X419Y864D01*
X466Y864D02*
X474Y864D01*
X507Y864D02*
X515Y864D01*
X542Y864D02*
X551Y864D01*
X573Y864D02*
X581Y864D01*
X604Y864D02*
X617Y864D01*
X731Y864D02*
X739Y864D01*
X770Y864D02*
X778Y864D01*
X798Y864D02*
X813Y864D01*
X835Y864D02*
X844Y864D01*
X871Y864D02*
X879Y864D01*
X900Y864D02*
X909Y864D01*
X919Y864D02*
X927Y864D01*
X937Y864D02*
X946Y864D01*
X967Y864D02*
X975Y864D01*
X1002Y864D02*
X1010Y864D01*
X1032Y864D02*
X1040Y864D01*
X1050Y864D02*
X1059Y864D01*
X1068Y864D02*
X1077Y864D01*
X1164Y864D02*
X1172Y864D01*
X1199Y864D02*
X1208Y864D01*
X1230Y864D02*
X1239Y864D01*
X1259Y864D02*
X1273Y864D01*
X1322Y864D02*
X1330Y864D01*
X244Y863D02*
X252Y863D01*
X280Y863D02*
X288Y863D01*
X310Y863D02*
X318Y863D01*
X338Y863D02*
X354Y863D01*
X375Y863D02*
X384Y863D01*
X411Y863D02*
X419Y863D01*
X466Y863D02*
X474Y863D01*
X507Y863D02*
X515Y863D01*
X543Y863D02*
X551Y863D01*
X572Y863D02*
X581Y863D01*
X605Y863D02*
X617Y863D01*
X731Y863D02*
X739Y863D01*
X770Y863D02*
X778Y863D01*
X800Y863D02*
X813Y863D01*
X835Y863D02*
X843Y863D01*
X871Y863D02*
X879Y863D01*
X900Y863D02*
X909Y863D01*
X919Y863D02*
X927Y863D01*
X938Y863D02*
X946Y863D01*
X967Y863D02*
X975Y863D01*
X1002Y863D02*
X1011Y863D01*
X1032Y863D02*
X1040Y863D01*
X1050Y863D02*
X1059Y863D01*
X1069Y863D02*
X1077Y863D01*
X1164Y863D02*
X1172Y863D01*
X1199Y863D02*
X1208Y863D01*
X1230Y863D02*
X1239Y863D01*
X1260Y863D02*
X1273Y863D01*
X1322Y863D02*
X1330Y863D01*
X244Y862D02*
X252Y862D01*
X280Y862D02*
X288Y862D01*
X310Y862D02*
X318Y862D01*
X339Y862D02*
X354Y862D01*
X375Y862D02*
X384Y862D01*
X411Y862D02*
X420Y862D01*
X466Y862D02*
X474Y862D01*
X507Y862D02*
X515Y862D01*
X543Y862D02*
X551Y862D01*
X572Y862D02*
X581Y862D01*
X606Y862D02*
X617Y862D01*
X731Y862D02*
X739Y862D01*
X770Y862D02*
X778Y862D01*
X802Y862D02*
X813Y862D01*
X835Y862D02*
X843Y862D01*
X871Y862D02*
X879Y862D01*
X900Y862D02*
X909Y862D01*
X919Y862D02*
X927Y862D01*
X938Y862D02*
X946Y862D01*
X966Y862D02*
X975Y862D01*
X1003Y862D02*
X1011Y862D01*
X1032Y862D02*
X1040Y862D01*
X1050Y862D02*
X1059Y862D01*
X1069Y862D02*
X1077Y862D01*
X1164Y862D02*
X1172Y862D01*
X1200Y862D02*
X1208Y862D01*
X1230Y862D02*
X1238Y862D01*
X1262Y862D02*
X1273Y862D01*
X1322Y862D02*
X1330Y862D01*
X244Y861D02*
X252Y861D01*
X280Y861D02*
X288Y861D01*
X310Y861D02*
X317Y861D01*
X340Y861D02*
X354Y861D01*
X375Y861D02*
X384Y861D01*
X411Y861D02*
X420Y861D01*
X466Y861D02*
X474Y861D01*
X507Y861D02*
X515Y861D01*
X543Y861D02*
X551Y861D01*
X572Y861D02*
X581Y861D01*
X607Y861D02*
X617Y861D01*
X731Y861D02*
X739Y861D01*
X770Y861D02*
X778Y861D01*
X803Y861D02*
X813Y861D01*
X835Y861D02*
X843Y861D01*
X871Y861D02*
X879Y861D01*
X900Y861D02*
X909Y861D01*
X919Y861D02*
X927Y861D01*
X938Y861D02*
X946Y861D01*
X966Y861D02*
X975Y861D01*
X1003Y861D02*
X1011Y861D01*
X1032Y861D02*
X1040Y861D01*
X1050Y861D02*
X1059Y861D01*
X1069Y861D02*
X1077Y861D01*
X1164Y861D02*
X1172Y861D01*
X1200Y861D02*
X1208Y861D01*
X1230Y861D02*
X1238Y861D01*
X1263Y861D02*
X1273Y861D01*
X1322Y861D02*
X1330Y861D01*
X244Y860D02*
X252Y860D01*
X280Y860D02*
X288Y860D01*
X311Y860D02*
X316Y860D01*
X342Y860D02*
X354Y860D01*
X375Y860D02*
X384Y860D01*
X411Y860D02*
X420Y860D01*
X466Y860D02*
X474Y860D01*
X507Y860D02*
X515Y860D01*
X543Y860D02*
X551Y860D01*
X572Y860D02*
X581Y860D01*
X608Y860D02*
X617Y860D01*
X731Y860D02*
X739Y860D01*
X770Y860D02*
X778Y860D01*
X805Y860D02*
X813Y860D01*
X835Y860D02*
X843Y860D01*
X871Y860D02*
X879Y860D01*
X900Y860D02*
X909Y860D01*
X919Y860D02*
X927Y860D01*
X938Y860D02*
X946Y860D01*
X966Y860D02*
X975Y860D01*
X1003Y860D02*
X1011Y860D01*
X1032Y860D02*
X1040Y860D01*
X1050Y860D02*
X1059Y860D01*
X1069Y860D02*
X1077Y860D01*
X1164Y860D02*
X1172Y860D01*
X1200Y860D02*
X1208Y860D01*
X1230Y860D02*
X1238Y860D01*
X1265Y860D02*
X1273Y860D01*
X1322Y860D02*
X1330Y860D01*
X244Y859D02*
X252Y859D01*
X280Y859D02*
X288Y859D01*
X312Y859D02*
X315Y859D01*
X343Y859D02*
X354Y859D01*
X375Y859D02*
X384Y859D01*
X411Y859D02*
X420Y859D01*
X466Y859D02*
X474Y859D01*
X507Y859D02*
X515Y859D01*
X543Y859D02*
X551Y859D01*
X572Y859D02*
X581Y859D01*
X608Y859D02*
X617Y859D01*
X731Y859D02*
X739Y859D01*
X770Y859D02*
X778Y859D01*
X805Y859D02*
X813Y859D01*
X835Y859D02*
X843Y859D01*
X871Y859D02*
X879Y859D01*
X900Y859D02*
X909Y859D01*
X919Y859D02*
X927Y859D01*
X938Y859D02*
X946Y859D01*
X966Y859D02*
X975Y859D01*
X1003Y859D02*
X1011Y859D01*
X1032Y859D02*
X1040Y859D01*
X1050Y859D02*
X1059Y859D01*
X1069Y859D02*
X1077Y859D01*
X1164Y859D02*
X1172Y859D01*
X1200Y859D02*
X1208Y859D01*
X1230Y859D02*
X1238Y859D01*
X1265Y859D02*
X1273Y859D01*
X1322Y859D02*
X1330Y859D01*
X244Y858D02*
X252Y858D01*
X280Y858D02*
X288Y858D01*
X344Y858D02*
X354Y858D01*
X375Y858D02*
X384Y858D01*
X411Y858D02*
X420Y858D01*
X466Y858D02*
X474Y858D01*
X507Y858D02*
X515Y858D01*
X543Y858D02*
X551Y858D01*
X572Y858D02*
X581Y858D01*
X608Y858D02*
X617Y858D01*
X731Y858D02*
X739Y858D01*
X770Y858D02*
X778Y858D01*
X805Y858D02*
X813Y858D01*
X835Y858D02*
X843Y858D01*
X871Y858D02*
X879Y858D01*
X900Y858D02*
X909Y858D01*
X919Y858D02*
X927Y858D01*
X938Y858D02*
X946Y858D01*
X966Y858D02*
X975Y858D01*
X1003Y858D02*
X1011Y858D01*
X1032Y858D02*
X1040Y858D01*
X1050Y858D02*
X1059Y858D01*
X1069Y858D02*
X1077Y858D01*
X1164Y858D02*
X1172Y858D01*
X1200Y858D02*
X1208Y858D01*
X1230Y858D02*
X1238Y858D01*
X1265Y858D02*
X1273Y858D01*
X1322Y858D02*
X1330Y858D01*
X244Y857D02*
X288Y857D01*
X345Y857D02*
X354Y857D01*
X375Y857D02*
X384Y857D01*
X411Y857D02*
X420Y857D01*
X466Y857D02*
X474Y857D01*
X507Y857D02*
X551Y857D01*
X572Y857D02*
X581Y857D01*
X608Y857D02*
X617Y857D01*
X731Y857D02*
X739Y857D01*
X770Y857D02*
X778Y857D01*
X805Y857D02*
X813Y857D01*
X835Y857D02*
X879Y857D01*
X900Y857D02*
X909Y857D01*
X919Y857D02*
X927Y857D01*
X938Y857D02*
X946Y857D01*
X966Y857D02*
X975Y857D01*
X1003Y857D02*
X1011Y857D01*
X1032Y857D02*
X1040Y857D01*
X1050Y857D02*
X1059Y857D01*
X1069Y857D02*
X1077Y857D01*
X1164Y857D02*
X1208Y857D01*
X1230Y857D02*
X1238Y857D01*
X1265Y857D02*
X1273Y857D01*
X1322Y857D02*
X1330Y857D01*
X244Y856D02*
X288Y856D01*
X346Y856D02*
X354Y856D01*
X375Y856D02*
X384Y856D01*
X411Y856D02*
X420Y856D01*
X466Y856D02*
X474Y856D01*
X507Y856D02*
X551Y856D01*
X572Y856D02*
X581Y856D01*
X608Y856D02*
X617Y856D01*
X731Y856D02*
X739Y856D01*
X770Y856D02*
X778Y856D01*
X805Y856D02*
X813Y856D01*
X835Y856D02*
X879Y856D01*
X900Y856D02*
X908Y856D01*
X919Y856D02*
X927Y856D01*
X938Y856D02*
X946Y856D01*
X966Y856D02*
X975Y856D01*
X1003Y856D02*
X1011Y856D01*
X1032Y856D02*
X1040Y856D01*
X1050Y856D02*
X1059Y856D01*
X1069Y856D02*
X1077Y856D01*
X1164Y856D02*
X1208Y856D01*
X1230Y856D02*
X1238Y856D01*
X1265Y856D02*
X1273Y856D01*
X1322Y856D02*
X1330Y856D01*
X244Y855D02*
X288Y855D01*
X346Y855D02*
X354Y855D01*
X375Y855D02*
X384Y855D01*
X411Y855D02*
X420Y855D01*
X466Y855D02*
X474Y855D01*
X507Y855D02*
X551Y855D01*
X572Y855D02*
X581Y855D01*
X608Y855D02*
X617Y855D01*
X731Y855D02*
X739Y855D01*
X770Y855D02*
X778Y855D01*
X805Y855D02*
X813Y855D01*
X835Y855D02*
X879Y855D01*
X900Y855D02*
X908Y855D01*
X919Y855D02*
X927Y855D01*
X938Y855D02*
X946Y855D01*
X966Y855D02*
X975Y855D01*
X1003Y855D02*
X1011Y855D01*
X1032Y855D02*
X1040Y855D01*
X1050Y855D02*
X1059Y855D01*
X1069Y855D02*
X1077Y855D01*
X1164Y855D02*
X1208Y855D01*
X1230Y855D02*
X1238Y855D01*
X1265Y855D02*
X1273Y855D01*
X1322Y855D02*
X1330Y855D01*
X244Y854D02*
X288Y854D01*
X346Y854D02*
X354Y854D01*
X375Y854D02*
X384Y854D01*
X411Y854D02*
X420Y854D01*
X466Y854D02*
X474Y854D01*
X507Y854D02*
X551Y854D01*
X572Y854D02*
X581Y854D01*
X608Y854D02*
X617Y854D01*
X731Y854D02*
X739Y854D01*
X770Y854D02*
X778Y854D01*
X805Y854D02*
X813Y854D01*
X835Y854D02*
X879Y854D01*
X900Y854D02*
X908Y854D01*
X919Y854D02*
X927Y854D01*
X938Y854D02*
X946Y854D01*
X966Y854D02*
X975Y854D01*
X1003Y854D02*
X1011Y854D01*
X1032Y854D02*
X1040Y854D01*
X1050Y854D02*
X1059Y854D01*
X1069Y854D02*
X1077Y854D01*
X1164Y854D02*
X1208Y854D01*
X1230Y854D02*
X1238Y854D01*
X1265Y854D02*
X1273Y854D01*
X1322Y854D02*
X1330Y854D01*
X244Y853D02*
X288Y853D01*
X346Y853D02*
X354Y853D01*
X375Y853D02*
X384Y853D01*
X411Y853D02*
X420Y853D01*
X466Y853D02*
X474Y853D01*
X507Y853D02*
X551Y853D01*
X572Y853D02*
X581Y853D01*
X608Y853D02*
X617Y853D01*
X731Y853D02*
X739Y853D01*
X770Y853D02*
X778Y853D01*
X805Y853D02*
X813Y853D01*
X835Y853D02*
X879Y853D01*
X900Y853D02*
X908Y853D01*
X919Y853D02*
X927Y853D01*
X938Y853D02*
X946Y853D01*
X966Y853D02*
X975Y853D01*
X1003Y853D02*
X1011Y853D01*
X1032Y853D02*
X1040Y853D01*
X1050Y853D02*
X1059Y853D01*
X1069Y853D02*
X1077Y853D01*
X1164Y853D02*
X1208Y853D01*
X1230Y853D02*
X1238Y853D01*
X1265Y853D02*
X1273Y853D01*
X1322Y853D02*
X1330Y853D01*
X244Y852D02*
X288Y852D01*
X346Y852D02*
X354Y852D01*
X375Y852D02*
X384Y852D01*
X411Y852D02*
X420Y852D01*
X466Y852D02*
X474Y852D01*
X507Y852D02*
X551Y852D01*
X572Y852D02*
X581Y852D01*
X608Y852D02*
X617Y852D01*
X731Y852D02*
X739Y852D01*
X770Y852D02*
X778Y852D01*
X805Y852D02*
X813Y852D01*
X835Y852D02*
X879Y852D01*
X900Y852D02*
X908Y852D01*
X919Y852D02*
X927Y852D01*
X938Y852D02*
X946Y852D01*
X966Y852D02*
X975Y852D01*
X1003Y852D02*
X1011Y852D01*
X1032Y852D02*
X1040Y852D01*
X1050Y852D02*
X1059Y852D01*
X1069Y852D02*
X1077Y852D01*
X1164Y852D02*
X1208Y852D01*
X1230Y852D02*
X1238Y852D01*
X1265Y852D02*
X1273Y852D01*
X1322Y852D02*
X1330Y852D01*
X244Y851D02*
X288Y851D01*
X346Y851D02*
X354Y851D01*
X375Y851D02*
X384Y851D01*
X411Y851D02*
X420Y851D01*
X466Y851D02*
X474Y851D01*
X507Y851D02*
X551Y851D01*
X572Y851D02*
X581Y851D01*
X608Y851D02*
X617Y851D01*
X731Y851D02*
X739Y851D01*
X770Y851D02*
X778Y851D01*
X805Y851D02*
X813Y851D01*
X835Y851D02*
X879Y851D01*
X900Y851D02*
X908Y851D01*
X919Y851D02*
X927Y851D01*
X938Y851D02*
X946Y851D01*
X966Y851D02*
X975Y851D01*
X1003Y851D02*
X1011Y851D01*
X1032Y851D02*
X1040Y851D01*
X1050Y851D02*
X1059Y851D01*
X1069Y851D02*
X1077Y851D01*
X1164Y851D02*
X1208Y851D01*
X1230Y851D02*
X1238Y851D01*
X1265Y851D02*
X1273Y851D01*
X1322Y851D02*
X1330Y851D01*
X245Y850D02*
X288Y850D01*
X346Y850D02*
X354Y850D01*
X375Y850D02*
X384Y850D01*
X411Y850D02*
X420Y850D01*
X466Y850D02*
X474Y850D01*
X508Y850D02*
X551Y850D01*
X572Y850D02*
X581Y850D01*
X608Y850D02*
X617Y850D01*
X731Y850D02*
X739Y850D01*
X770Y850D02*
X778Y850D01*
X805Y850D02*
X813Y850D01*
X836Y850D02*
X879Y850D01*
X900Y850D02*
X908Y850D01*
X919Y850D02*
X927Y850D01*
X938Y850D02*
X946Y850D01*
X966Y850D02*
X975Y850D01*
X1003Y850D02*
X1011Y850D01*
X1032Y850D02*
X1040Y850D01*
X1050Y850D02*
X1059Y850D01*
X1069Y850D02*
X1077Y850D01*
X1164Y850D02*
X1208Y850D01*
X1230Y850D02*
X1238Y850D01*
X1265Y850D02*
X1273Y850D01*
X1322Y850D02*
X1330Y850D01*
X246Y849D02*
X288Y849D01*
X346Y849D02*
X354Y849D01*
X375Y849D02*
X384Y849D01*
X411Y849D02*
X420Y849D01*
X466Y849D02*
X474Y849D01*
X509Y849D02*
X551Y849D01*
X572Y849D02*
X581Y849D01*
X608Y849D02*
X617Y849D01*
X731Y849D02*
X739Y849D01*
X770Y849D02*
X778Y849D01*
X805Y849D02*
X813Y849D01*
X837Y849D02*
X879Y849D01*
X900Y849D02*
X908Y849D01*
X919Y849D02*
X927Y849D01*
X938Y849D02*
X946Y849D01*
X966Y849D02*
X975Y849D01*
X1003Y849D02*
X1011Y849D01*
X1032Y849D02*
X1040Y849D01*
X1050Y849D02*
X1059Y849D01*
X1069Y849D02*
X1077Y849D01*
X1165Y849D02*
X1208Y849D01*
X1230Y849D02*
X1238Y849D01*
X1265Y849D02*
X1273Y849D01*
X1322Y849D02*
X1330Y849D01*
X280Y848D02*
X288Y848D01*
X346Y848D02*
X354Y848D01*
X375Y848D02*
X384Y848D01*
X411Y848D02*
X420Y848D01*
X466Y848D02*
X474Y848D01*
X542Y848D02*
X551Y848D01*
X572Y848D02*
X581Y848D01*
X608Y848D02*
X617Y848D01*
X731Y848D02*
X739Y848D01*
X770Y848D02*
X778Y848D01*
X805Y848D02*
X813Y848D01*
X871Y848D02*
X879Y848D01*
X900Y848D02*
X908Y848D01*
X919Y848D02*
X927Y848D01*
X938Y848D02*
X946Y848D01*
X966Y848D02*
X975Y848D01*
X1003Y848D02*
X1011Y848D01*
X1032Y848D02*
X1040Y848D01*
X1050Y848D02*
X1059Y848D01*
X1069Y848D02*
X1077Y848D01*
X1199Y848D02*
X1208Y848D01*
X1230Y848D02*
X1238Y848D01*
X1265Y848D02*
X1273Y848D01*
X1322Y848D02*
X1330Y848D01*
X280Y847D02*
X288Y847D01*
X346Y847D02*
X354Y847D01*
X375Y847D02*
X384Y847D01*
X411Y847D02*
X420Y847D01*
X466Y847D02*
X474Y847D01*
X543Y847D02*
X551Y847D01*
X572Y847D02*
X581Y847D01*
X608Y847D02*
X617Y847D01*
X731Y847D02*
X739Y847D01*
X770Y847D02*
X778Y847D01*
X805Y847D02*
X813Y847D01*
X871Y847D02*
X879Y847D01*
X900Y847D02*
X908Y847D01*
X919Y847D02*
X927Y847D01*
X938Y847D02*
X946Y847D01*
X966Y847D02*
X975Y847D01*
X1003Y847D02*
X1011Y847D01*
X1032Y847D02*
X1040Y847D01*
X1050Y847D02*
X1059Y847D01*
X1069Y847D02*
X1077Y847D01*
X1200Y847D02*
X1208Y847D01*
X1230Y847D02*
X1238Y847D01*
X1265Y847D02*
X1273Y847D01*
X1322Y847D02*
X1330Y847D01*
X280Y846D02*
X288Y846D01*
X346Y846D02*
X354Y846D01*
X375Y846D02*
X384Y846D01*
X411Y846D02*
X420Y846D01*
X466Y846D02*
X474Y846D01*
X543Y846D02*
X551Y846D01*
X572Y846D02*
X581Y846D01*
X608Y846D02*
X617Y846D01*
X731Y846D02*
X739Y846D01*
X770Y846D02*
X778Y846D01*
X805Y846D02*
X813Y846D01*
X871Y846D02*
X879Y846D01*
X900Y846D02*
X908Y846D01*
X919Y846D02*
X927Y846D01*
X938Y846D02*
X946Y846D01*
X966Y846D02*
X975Y846D01*
X1003Y846D02*
X1011Y846D01*
X1032Y846D02*
X1040Y846D01*
X1050Y846D02*
X1059Y846D01*
X1069Y846D02*
X1077Y846D01*
X1200Y846D02*
X1208Y846D01*
X1230Y846D02*
X1238Y846D01*
X1265Y846D02*
X1273Y846D01*
X1322Y846D02*
X1330Y846D01*
X280Y845D02*
X288Y845D01*
X346Y845D02*
X354Y845D01*
X375Y845D02*
X384Y845D01*
X411Y845D02*
X420Y845D01*
X466Y845D02*
X474Y845D01*
X543Y845D02*
X551Y845D01*
X572Y845D02*
X581Y845D01*
X608Y845D02*
X617Y845D01*
X731Y845D02*
X739Y845D01*
X770Y845D02*
X778Y845D01*
X805Y845D02*
X813Y845D01*
X871Y845D02*
X879Y845D01*
X900Y845D02*
X908Y845D01*
X919Y845D02*
X927Y845D01*
X938Y845D02*
X946Y845D01*
X966Y845D02*
X975Y845D01*
X1003Y845D02*
X1011Y845D01*
X1032Y845D02*
X1040Y845D01*
X1050Y845D02*
X1059Y845D01*
X1069Y845D02*
X1077Y845D01*
X1200Y845D02*
X1208Y845D01*
X1230Y845D02*
X1238Y845D01*
X1265Y845D02*
X1273Y845D01*
X1322Y845D02*
X1330Y845D01*
X280Y844D02*
X288Y844D01*
X346Y844D02*
X354Y844D01*
X375Y844D02*
X384Y844D01*
X411Y844D02*
X420Y844D01*
X466Y844D02*
X474Y844D01*
X543Y844D02*
X551Y844D01*
X572Y844D02*
X581Y844D01*
X607Y844D02*
X617Y844D01*
X731Y844D02*
X739Y844D01*
X770Y844D02*
X778Y844D01*
X805Y844D02*
X813Y844D01*
X871Y844D02*
X879Y844D01*
X900Y844D02*
X908Y844D01*
X919Y844D02*
X927Y844D01*
X938Y844D02*
X946Y844D01*
X966Y844D02*
X975Y844D01*
X1003Y844D02*
X1011Y844D01*
X1032Y844D02*
X1040Y844D01*
X1050Y844D02*
X1059Y844D01*
X1069Y844D02*
X1077Y844D01*
X1200Y844D02*
X1208Y844D01*
X1230Y844D02*
X1238Y844D01*
X1265Y844D02*
X1273Y844D01*
X1322Y844D02*
X1330Y844D01*
X280Y843D02*
X288Y843D01*
X346Y843D02*
X354Y843D01*
X375Y843D02*
X384Y843D01*
X411Y843D02*
X420Y843D01*
X466Y843D02*
X474Y843D01*
X543Y843D02*
X551Y843D01*
X572Y843D02*
X581Y843D01*
X606Y843D02*
X617Y843D01*
X706Y843D02*
X710Y843D01*
X731Y843D02*
X739Y843D01*
X770Y843D02*
X778Y843D01*
X805Y843D02*
X813Y843D01*
X871Y843D02*
X879Y843D01*
X900Y843D02*
X908Y843D01*
X919Y843D02*
X927Y843D01*
X938Y843D02*
X946Y843D01*
X967Y843D02*
X975Y843D01*
X1002Y843D02*
X1011Y843D01*
X1032Y843D02*
X1040Y843D01*
X1050Y843D02*
X1059Y843D01*
X1069Y843D02*
X1077Y843D01*
X1200Y843D02*
X1208Y843D01*
X1230Y843D02*
X1238Y843D01*
X1265Y843D02*
X1273Y843D01*
X1297Y843D02*
X1301Y843D01*
X1322Y843D02*
X1330Y843D01*
X280Y842D02*
X288Y842D01*
X346Y842D02*
X354Y842D01*
X375Y842D02*
X384Y842D01*
X411Y842D02*
X419Y842D01*
X466Y842D02*
X474Y842D01*
X542Y842D02*
X551Y842D01*
X572Y842D02*
X581Y842D01*
X605Y842D02*
X617Y842D01*
X705Y842D02*
X711Y842D01*
X731Y842D02*
X739Y842D01*
X770Y842D02*
X778Y842D01*
X805Y842D02*
X813Y842D01*
X871Y842D02*
X879Y842D01*
X900Y842D02*
X908Y842D01*
X919Y842D02*
X927Y842D01*
X938Y842D02*
X946Y842D01*
X967Y842D02*
X975Y842D01*
X1002Y842D02*
X1011Y842D01*
X1032Y842D02*
X1040Y842D01*
X1050Y842D02*
X1059Y842D01*
X1069Y842D02*
X1077Y842D01*
X1199Y842D02*
X1208Y842D01*
X1230Y842D02*
X1238Y842D01*
X1265Y842D02*
X1273Y842D01*
X1296Y842D02*
X1302Y842D01*
X1322Y842D02*
X1330Y842D01*
X279Y841D02*
X288Y841D01*
X346Y841D02*
X354Y841D01*
X376Y841D02*
X384Y841D01*
X410Y841D02*
X419Y841D01*
X466Y841D02*
X474Y841D01*
X542Y841D02*
X551Y841D01*
X573Y841D02*
X581Y841D01*
X603Y841D02*
X617Y841D01*
X704Y841D02*
X711Y841D01*
X731Y841D02*
X739Y841D01*
X770Y841D02*
X778Y841D01*
X805Y841D02*
X813Y841D01*
X870Y841D02*
X879Y841D01*
X900Y841D02*
X908Y841D01*
X919Y841D02*
X927Y841D01*
X938Y841D02*
X946Y841D01*
X967Y841D02*
X976Y841D01*
X1002Y841D02*
X1011Y841D01*
X1032Y841D02*
X1040Y841D01*
X1050Y841D02*
X1059Y841D01*
X1069Y841D02*
X1077Y841D01*
X1199Y841D02*
X1208Y841D01*
X1230Y841D02*
X1238Y841D01*
X1265Y841D02*
X1273Y841D01*
X1295Y841D02*
X1303Y841D01*
X1322Y841D02*
X1330Y841D01*
X278Y840D02*
X288Y840D01*
X346Y840D02*
X354Y840D01*
X376Y840D02*
X385Y840D01*
X410Y840D02*
X419Y840D01*
X466Y840D02*
X474Y840D01*
X541Y840D02*
X551Y840D01*
X573Y840D02*
X582Y840D01*
X602Y840D02*
X617Y840D01*
X704Y840D02*
X712Y840D01*
X731Y840D02*
X739Y840D01*
X770Y840D02*
X778Y840D01*
X805Y840D02*
X813Y840D01*
X869Y840D02*
X879Y840D01*
X900Y840D02*
X908Y840D01*
X919Y840D02*
X927Y840D01*
X938Y840D02*
X946Y840D01*
X967Y840D02*
X976Y840D01*
X1001Y840D02*
X1010Y840D01*
X1032Y840D02*
X1040Y840D01*
X1050Y840D02*
X1059Y840D01*
X1069Y840D02*
X1077Y840D01*
X1198Y840D02*
X1207Y840D01*
X1230Y840D02*
X1238Y840D01*
X1265Y840D02*
X1273Y840D01*
X1295Y840D02*
X1303Y840D01*
X1322Y840D02*
X1330Y840D01*
X277Y839D02*
X288Y839D01*
X346Y839D02*
X354Y839D01*
X376Y839D02*
X386Y839D01*
X409Y839D02*
X419Y839D01*
X466Y839D02*
X474Y839D01*
X540Y839D02*
X550Y839D01*
X573Y839D02*
X583Y839D01*
X601Y839D02*
X617Y839D01*
X704Y839D02*
X713Y839D01*
X731Y839D02*
X739Y839D01*
X770Y839D02*
X778Y839D01*
X805Y839D02*
X813Y839D01*
X869Y839D02*
X879Y839D01*
X900Y839D02*
X908Y839D01*
X919Y839D02*
X927Y839D01*
X938Y839D02*
X946Y839D01*
X967Y839D02*
X977Y839D01*
X1000Y839D02*
X1010Y839D01*
X1032Y839D02*
X1040Y839D01*
X1050Y839D02*
X1059Y839D01*
X1069Y839D02*
X1077Y839D01*
X1197Y839D02*
X1207Y839D01*
X1230Y839D02*
X1238Y839D01*
X1265Y839D02*
X1273Y839D01*
X1295Y839D02*
X1304Y839D01*
X1322Y839D02*
X1330Y839D01*
X276Y838D02*
X287Y838D01*
X346Y838D02*
X354Y838D01*
X377Y838D02*
X387Y838D01*
X408Y838D02*
X419Y838D01*
X466Y838D02*
X474Y838D01*
X539Y838D02*
X550Y838D01*
X574Y838D02*
X584Y838D01*
X600Y838D02*
X617Y838D01*
X704Y838D02*
X713Y838D01*
X730Y838D02*
X739Y838D01*
X770Y838D02*
X778Y838D01*
X805Y838D02*
X813Y838D01*
X867Y838D02*
X878Y838D01*
X900Y838D02*
X908Y838D01*
X919Y838D02*
X927Y838D01*
X938Y838D02*
X946Y838D01*
X968Y838D02*
X978Y838D01*
X999Y838D02*
X1010Y838D01*
X1032Y838D02*
X1040Y838D01*
X1050Y838D02*
X1059Y838D01*
X1069Y838D02*
X1077Y838D01*
X1196Y838D02*
X1207Y838D01*
X1230Y838D02*
X1238Y838D01*
X1265Y838D02*
X1273Y838D01*
X1295Y838D02*
X1304Y838D01*
X1321Y838D02*
X1330Y838D01*
X275Y837D02*
X287Y837D01*
X346Y837D02*
X354Y837D01*
X377Y837D02*
X389Y837D01*
X406Y837D02*
X418Y837D01*
X466Y837D02*
X474Y837D01*
X538Y837D02*
X549Y837D01*
X574Y837D02*
X586Y837D01*
X599Y837D02*
X617Y837D01*
X704Y837D02*
X714Y837D01*
X729Y837D02*
X739Y837D01*
X770Y837D02*
X778Y837D01*
X805Y837D02*
X813Y837D01*
X866Y837D02*
X878Y837D01*
X900Y837D02*
X908Y837D01*
X919Y837D02*
X927Y837D01*
X938Y837D02*
X946Y837D01*
X968Y837D02*
X980Y837D01*
X997Y837D02*
X1009Y837D01*
X1031Y837D02*
X1040Y837D01*
X1050Y837D02*
X1059Y837D01*
X1069Y837D02*
X1077Y837D01*
X1194Y837D02*
X1206Y837D01*
X1229Y837D02*
X1238Y837D01*
X1265Y837D02*
X1273Y837D01*
X1295Y837D02*
X1305Y837D01*
X1320Y837D02*
X1330Y837D01*
X248Y836D02*
X286Y836D01*
X346Y836D02*
X354Y836D01*
X378Y836D02*
X417Y836D01*
X466Y836D02*
X474Y836D01*
X511Y836D02*
X549Y836D01*
X575Y836D02*
X617Y836D01*
X705Y836D02*
X738Y836D01*
X770Y836D02*
X778Y836D01*
X805Y836D02*
X813Y836D01*
X839Y836D02*
X877Y836D01*
X900Y836D02*
X908Y836D01*
X919Y836D02*
X927Y836D01*
X938Y836D02*
X946Y836D01*
X969Y836D02*
X1009Y836D01*
X1031Y836D02*
X1040Y836D01*
X1050Y836D02*
X1059Y836D01*
X1069Y836D02*
X1077Y836D01*
X1167Y836D02*
X1206Y836D01*
X1229Y836D02*
X1238Y836D01*
X1265Y836D02*
X1273Y836D01*
X1296Y836D02*
X1329Y836D01*
X246Y835D02*
X285Y835D01*
X346Y835D02*
X354Y835D01*
X378Y835D02*
X417Y835D01*
X466Y835D02*
X474Y835D01*
X508Y835D02*
X548Y835D01*
X576Y835D02*
X617Y835D01*
X705Y835D02*
X738Y835D01*
X770Y835D02*
X778Y835D01*
X805Y835D02*
X813Y835D01*
X837Y835D02*
X876Y835D01*
X900Y835D02*
X908Y835D01*
X919Y835D02*
X927Y835D01*
X938Y835D02*
X946Y835D01*
X970Y835D02*
X1008Y835D01*
X1031Y835D02*
X1040Y835D01*
X1050Y835D02*
X1059Y835D01*
X1069Y835D02*
X1077Y835D01*
X1165Y835D02*
X1205Y835D01*
X1229Y835D02*
X1238Y835D01*
X1265Y835D02*
X1273Y835D01*
X1296Y835D02*
X1329Y835D01*
X245Y834D02*
X284Y834D01*
X346Y834D02*
X354Y834D01*
X379Y834D02*
X416Y834D01*
X466Y834D02*
X474Y834D01*
X508Y834D02*
X547Y834D01*
X576Y834D02*
X617Y834D01*
X706Y834D02*
X737Y834D01*
X770Y834D02*
X778Y834D01*
X805Y834D02*
X813Y834D01*
X836Y834D02*
X876Y834D01*
X900Y834D02*
X908Y834D01*
X919Y834D02*
X927Y834D01*
X938Y834D02*
X946Y834D01*
X970Y834D02*
X1007Y834D01*
X1031Y834D02*
X1040Y834D01*
X1050Y834D02*
X1059Y834D01*
X1069Y834D02*
X1077Y834D01*
X1164Y834D02*
X1204Y834D01*
X1229Y834D02*
X1237Y834D01*
X1265Y834D02*
X1273Y834D01*
X1297Y834D02*
X1328Y834D01*
X244Y833D02*
X283Y833D01*
X346Y833D02*
X354Y833D01*
X380Y833D02*
X415Y833D01*
X466Y833D02*
X474Y833D01*
X507Y833D02*
X546Y833D01*
X577Y833D02*
X617Y833D01*
X706Y833D02*
X737Y833D01*
X770Y833D02*
X778Y833D01*
X805Y833D02*
X813Y833D01*
X835Y833D02*
X875Y833D01*
X900Y833D02*
X908Y833D01*
X919Y833D02*
X927Y833D01*
X938Y833D02*
X946Y833D01*
X972Y833D02*
X1006Y833D01*
X1031Y833D02*
X1040Y833D01*
X1050Y833D02*
X1059Y833D01*
X1069Y833D02*
X1077Y833D01*
X1164Y833D02*
X1203Y833D01*
X1229Y833D02*
X1237Y833D01*
X1265Y833D02*
X1273Y833D01*
X1297Y833D02*
X1328Y833D01*
X244Y832D02*
X282Y832D01*
X346Y832D02*
X354Y832D01*
X381Y832D02*
X413Y832D01*
X466Y832D02*
X474Y832D01*
X507Y832D02*
X545Y832D01*
X578Y832D02*
X606Y832D01*
X609Y832D02*
X617Y832D01*
X707Y832D02*
X736Y832D01*
X770Y832D02*
X778Y832D01*
X805Y832D02*
X813Y832D01*
X835Y832D02*
X873Y832D01*
X900Y832D02*
X908Y832D01*
X919Y832D02*
X927Y832D01*
X938Y832D02*
X946Y832D01*
X973Y832D02*
X1005Y832D01*
X1031Y832D02*
X1040Y832D01*
X1050Y832D02*
X1059Y832D01*
X1069Y832D02*
X1077Y832D01*
X1164Y832D02*
X1202Y832D01*
X1229Y832D02*
X1237Y832D01*
X1265Y832D02*
X1273Y832D01*
X1298Y832D02*
X1327Y832D01*
X244Y831D02*
X281Y831D01*
X346Y831D02*
X354Y831D01*
X383Y831D02*
X412Y831D01*
X466Y831D02*
X474Y831D01*
X507Y831D02*
X544Y831D01*
X580Y831D02*
X605Y831D01*
X609Y831D02*
X617Y831D01*
X708Y831D02*
X735Y831D01*
X770Y831D02*
X778Y831D01*
X805Y831D02*
X813Y831D01*
X835Y831D02*
X872Y831D01*
X900Y831D02*
X908Y831D01*
X919Y831D02*
X927Y831D01*
X938Y831D02*
X946Y831D01*
X974Y831D02*
X1003Y831D01*
X1032Y831D02*
X1040Y831D01*
X1050Y831D02*
X1058Y831D01*
X1069Y831D02*
X1077Y831D01*
X1164Y831D02*
X1201Y831D01*
X1229Y831D02*
X1237Y831D01*
X1265Y831D02*
X1273Y831D01*
X1299Y831D02*
X1326Y831D01*
X244Y830D02*
X280Y830D01*
X346Y830D02*
X354Y830D01*
X384Y830D02*
X411Y830D01*
X466Y830D02*
X474Y830D01*
X507Y830D02*
X542Y830D01*
X581Y830D02*
X604Y830D01*
X609Y830D02*
X616Y830D01*
X709Y830D02*
X734Y830D01*
X771Y830D02*
X778Y830D01*
X805Y830D02*
X813Y830D01*
X835Y830D02*
X871Y830D01*
X900Y830D02*
X908Y830D01*
X919Y830D02*
X927Y830D01*
X938Y830D02*
X946Y830D01*
X975Y830D02*
X1002Y830D01*
X1032Y830D02*
X1039Y830D01*
X1051Y830D02*
X1058Y830D01*
X1069Y830D02*
X1077Y830D01*
X1164Y830D02*
X1199Y830D01*
X1230Y830D02*
X1237Y830D01*
X1266Y830D02*
X1273Y830D01*
X1300Y830D02*
X1325Y830D01*
X245Y829D02*
X278Y829D01*
X347Y829D02*
X353Y829D01*
X385Y829D02*
X410Y829D01*
X467Y829D02*
X473Y829D01*
X508Y829D02*
X541Y829D01*
X582Y829D02*
X602Y829D01*
X609Y829D02*
X616Y829D01*
X711Y829D02*
X732Y829D01*
X771Y829D02*
X777Y829D01*
X806Y829D02*
X812Y829D01*
X836Y829D02*
X869Y829D01*
X901Y829D02*
X907Y829D01*
X920Y829D02*
X926Y829D01*
X939Y829D02*
X945Y829D01*
X977Y829D02*
X1001Y829D01*
X1032Y829D02*
X1039Y829D01*
X1051Y829D02*
X1058Y829D01*
X1070Y829D02*
X1076Y829D01*
X1164Y829D02*
X1198Y829D01*
X1230Y829D02*
X1237Y829D01*
X1266Y829D02*
X1273Y829D01*
X1302Y829D02*
X1324Y829D01*
X246Y828D02*
X276Y828D01*
X348Y828D02*
X352Y828D01*
X387Y828D02*
X407Y828D01*
X468Y828D02*
X472Y828D01*
X509Y828D02*
X539Y828D01*
X584Y828D02*
X600Y828D01*
X610Y828D02*
X615Y828D01*
X712Y828D02*
X731Y828D01*
X772Y828D02*
X777Y828D01*
X807Y828D02*
X811Y828D01*
X837Y828D02*
X867Y828D01*
X902Y828D02*
X906Y828D01*
X921Y828D02*
X925Y828D01*
X940Y828D02*
X944Y828D01*
X978Y828D02*
X999Y828D01*
X1033Y828D02*
X1038Y828D01*
X1052Y828D02*
X1057Y828D01*
X1071Y828D02*
X1075Y828D01*
X1165Y828D02*
X1196Y828D01*
X1231Y828D02*
X1236Y828D01*
X1267Y828D02*
X1272Y828D01*
X1304Y828D02*
X1322Y828D01*
X249Y827D02*
X272Y827D01*
X392Y827D02*
X403Y827D01*
X511Y827D02*
X535Y827D01*
X589Y827D02*
X596Y827D01*
X717Y827D02*
X726Y827D01*
X840Y827D02*
X863Y827D01*
X983Y827D02*
X994Y827D01*
X1168Y827D02*
X1191Y827D01*
X1308Y827D02*
X1317Y827D01*
D02*
G04 End of Copper0*
M02*